<?xml version="1.0" encoding="UTF-8" standalone="no"?>
<svg
   xmlns:dc="http://purl.org/dc/elements/1.1/"
   xmlns:cc="http://creativecommons.org/ns#"
   xmlns:rdf="http://www.w3.org/1999/02/22-rdf-syntax-ns#"
   xmlns:svg="http://www.w3.org/2000/svg"
   xmlns="http://www.w3.org/2000/svg"
   xmlns:sodipodi="http://sodipodi.sourceforge.net/DTD/sodipodi-0.dtd"
   xmlns:inkscape="http://www.inkscape.org/namespaces/inkscape"
   version="1.1"
   id="Capa_1"
   x="0px"
   y="0px"
   viewBox="0 0 19.779999 17.212461"
   xml:space="preserve"
   sodipodi:docname="design.svg"
   width="19.779999"
   height="17.212461"
   inkscape:version="1.0.1 (3bc2e813f5, 2020-09-07)"><metadata
   id="metadata980"><rdf:RDF><cc:Work
       rdf:about=""><dc:format>image/svg+xml</dc:format><dc:type
         rdf:resource="http://purl.org/dc/dcmitype/StillImage" /><dc:title></dc:title></cc:Work></rdf:RDF></metadata><defs
   id="defs978" /><sodipodi:namedview
   pagecolor="#ffffff"
   bordercolor="#666666"
   borderopacity="1"
   objecttolerance="10"
   gridtolerance="10"
   guidetolerance="10"
   inkscape:pageopacity="0"
   inkscape:pageshadow="2"
   inkscape:window-width="1860"
   inkscape:window-height="1016"
   id="namedview976"
   showgrid="false"
   lock-margins="true"
   fit-margin-top="0"
   fit-margin-left="0"
   fit-margin-right="0"
   fit-margin-bottom="0"
   showborder="false"
   inkscape:zoom="1.5527344"
   inkscape:cx="256"
   inkscape:cy="222.769"
   inkscape:window-x="60"
   inkscape:window-y="27"
   inkscape:window-maximized="1"
   inkscape:current-layer="Capa_1" />



<g
   id="g994"
   transform="matrix(0.03863281,0,0,0.03863281,0,-1.2838069)"><g
     id="g925">
	<g
   id="g923">
		<rect
   x="218.558"
   y="162.937"
   width="54.049"
   height="29.472"
   id="rect921" />
	</g>
</g><g
     id="g931">
	<g
   id="g929">
		<rect
   x="80.432999"
   y="162.937"
   width="54.049"
   height="97.367996"
   id="rect927" />
	</g>
</g><g
     id="g937">
	<g
   id="g935">
		<path
   d="m 0,344.535 v 10.518 c 0,18.92 15.393,34.314 34.315,34.314 h 175.713 v 59.376 h -44.875 c -8.292,0 -15.014,6.722 -15.014,15.014 0,8.292 6.722,15.014 15.014,15.014 h 44.875 89.941 46.876 c 8.292,0 15.014,-6.722 15.014,-15.014 0,-8.292 -6.722,-15.014 -15.014,-15.014 h -46.876 v -59.376 h 177.717 c 18.921,0 34.314,-15.394 34.314,-34.314 v -10.518 z"
   id="path933" />
	</g>
</g><g
     id="g943">
	<g
   id="g941">
		<path
   d="M 477.686,33.231 H 34.315 C 15.393,33.231 0,48.624 0,67.545 V 314.507 H 512 V 67.545 C 512,48.624 496.607,33.231 477.686,33.231 Z M 188.529,152.268 c 0,-10.673 8.684,-19.357 19.357,-19.357 h 75.389 c 10.674,0 19.358,8.684 19.358,19.357 v 50.814 c 0,10.673 -8.684,19.357 -19.358,19.357 h -75.389 c -10.674,0 -19.357,-8.684 -19.357,-19.357 V 152.268 Z M 92.516,93.998 c 0.05,-0.49 0.12,-0.981 0.22,-1.461 0.1,-0.48 0.22,-0.961 0.36,-1.421 0.14,-0.471 0.31,-0.932 0.5,-1.392 0.18,-0.45 0.39,-0.891 0.621,-1.32 0.23,-0.431 0.49,-0.861 0.761,-1.262 0.27,-0.409 0.56,-0.811 0.871,-1.19 0.31,-0.38 0.641,-0.751 0.991,-1.091 0.35,-0.351 0.721,-0.682 1.101,-0.991 0.37,-0.311 0.771,-0.611 1.181,-0.881 0.41,-0.271 0.831,-0.521 1.261,-0.751 0.43,-0.23 0.881,-0.44 1.331,-0.631 0.45,-0.181 0.921,-0.351 1.381,-0.49 0.47,-0.15 0.951,-0.271 1.431,-0.36 0.48,-0.1 0.971,-0.17 1.451,-0.22 0.981,-0.1 1.972,-0.1 2.953,0 0.49,0.05 0.981,0.12 1.461,0.22 0.48,0.09 0.951,0.21 1.421,0.36 0.47,0.14 0.931,0.31 1.381,0.49 0.45,0.189 0.901,0.399 1.331,0.631 0.43,0.229 0.861,0.479 1.261,0.751 0.41,0.27 0.811,0.57 1.191,0.881 0.38,0.31 0.751,0.641 1.091,0.991 0.35,0.34 0.681,0.711 0.991,1.091 0.31,0.38 0.611,0.781 0.881,1.19 0.27,0.4 0.521,0.831 0.751,1.262 0.23,0.43 0.44,0.87 0.631,1.32 0.18,0.46 0.35,0.921 0.49,1.392 0.15,0.46 0.27,0.94 0.36,1.421 0.1,0.479 0.17,0.971 0.22,1.461 0.05,0.49 0.08,0.98 0.08,1.471 0,0.491 -0.03,0.991 -0.08,1.481 -0.05,0.479 -0.12,0.971 -0.22,1.45 -0.09,0.48 -0.21,0.961 -0.36,1.432 -0.14,0.46 -0.31,0.931 -0.49,1.381 -0.19,0.45 -0.4,0.9 -0.631,1.331 -0.23,0.43 -0.48,0.851 -0.751,1.261 -0.27,0.41 -0.57,0.811 -0.881,1.181 -0.31,0.38 -0.641,0.751 -0.991,1.102 -0.34,0.34 -0.711,0.681 -1.091,0.99 -0.38,0.311 -0.781,0.602 -1.191,0.871 -0.4,0.271 -0.831,0.53 -1.261,0.762 -0.43,0.229 -0.881,0.439 -1.331,0.62 -0.45,0.19 -0.911,0.36 -1.381,0.5 -0.47,0.141 -0.941,0.261 -1.421,0.36 -0.48,0.099 -0.971,0.17 -1.461,0.22 -0.49,0.051 -0.981,0.07 -1.471,0.07 -0.49,0 -0.991,-0.02 -1.481,-0.07 -0.48,-0.05 -0.971,-0.12 -1.451,-0.22 -0.48,-0.1 -0.961,-0.22 -1.431,-0.36 -0.46,-0.14 -0.931,-0.31 -1.381,-0.5 -0.45,-0.18 -0.901,-0.39 -1.331,-0.62 -0.43,-0.23 -0.851,-0.49 -1.261,-0.762 -0.41,-0.27 -0.811,-0.56 -1.181,-0.871 -0.38,-0.31 -0.751,-0.65 -1.101,-0.99 -0.35,-0.351 -0.681,-0.722 -0.991,-1.102 -0.31,-0.37 -0.601,-0.771 -0.871,-1.181 -0.27,-0.41 -0.531,-0.831 -0.761,-1.261 -0.23,-0.431 -0.44,-0.881 -0.621,-1.331 -0.19,-0.45 -0.36,-0.921 -0.5,-1.381 -0.14,-0.471 -0.26,-0.951 -0.36,-1.432 -0.1,-0.479 -0.17,-0.971 -0.22,-1.45 -0.05,-0.49 -0.07,-0.991 -0.07,-1.481 -0.001,-0.49 0.019,-0.981 0.069,-1.471 z m -42.038,0 c 0.05,-0.49 0.12,-0.981 0.22,-1.461 0.1,-0.48 0.22,-0.961 0.36,-1.421 0.14,-0.471 0.31,-0.932 0.5,-1.392 0.18,-0.45 0.39,-0.891 0.621,-1.32 0.23,-0.431 0.49,-0.861 0.761,-1.262 0.27,-0.409 0.56,-0.811 0.871,-1.19 0.31,-0.38 0.641,-0.751 0.991,-1.091 0.35,-0.351 0.721,-0.682 1.101,-0.991 0.37,-0.311 0.771,-0.611 1.181,-0.881 0.41,-0.271 0.831,-0.521 1.261,-0.751 0.43,-0.23 0.881,-0.44 1.331,-0.631 0.45,-0.181 0.921,-0.351 1.381,-0.49 0.47,-0.15 0.951,-0.271 1.431,-0.36 0.48,-0.1 0.971,-0.17 1.451,-0.22 0.981,-0.1 1.972,-0.1 2.953,0 0.49,0.05 0.981,0.12 1.461,0.22 0.48,0.09 0.951,0.21 1.421,0.36 0.47,0.14 0.931,0.31 1.381,0.49 0.45,0.189 0.901,0.399 1.331,0.631 0.43,0.229 0.861,0.479 1.261,0.751 0.41,0.27 0.811,0.57 1.191,0.881 0.38,0.31 0.751,0.641 1.091,0.991 0.35,0.34 0.681,0.711 0.991,1.091 0.31,0.38 0.611,0.781 0.881,1.19 0.27,0.4 0.52,0.831 0.751,1.262 0.23,0.43 0.44,0.87 0.631,1.32 0.18,0.46 0.35,0.921 0.49,1.392 0.15,0.46 0.27,0.94 0.36,1.421 0.1,0.479 0.17,0.971 0.22,1.461 0.05,0.49 0.08,0.98 0.08,1.471 0,0.491 -0.03,0.991 -0.08,1.481 -0.05,0.479 -0.12,0.971 -0.22,1.45 -0.09,0.48 -0.21,0.961 -0.36,1.432 -0.14,0.46 -0.31,0.931 -0.49,1.381 -0.19,0.45 -0.4,0.9 -0.631,1.331 -0.23,0.43 -0.48,0.851 -0.751,1.261 -0.27,0.41 -0.571,0.811 -0.881,1.181 -0.31,0.38 -0.641,0.751 -0.991,1.102 -0.34,0.34 -0.711,0.681 -1.091,0.99 -0.38,0.311 -0.781,0.602 -1.191,0.871 -0.4,0.271 -0.831,0.53 -1.261,0.762 -0.43,0.229 -0.881,0.439 -1.331,0.62 -0.45,0.19 -0.911,0.36 -1.381,0.5 -0.47,0.141 -0.941,0.261 -1.421,0.36 -0.48,0.099 -0.971,0.17 -1.461,0.22 -0.49,0.051 -0.981,0.07 -1.471,0.07 -0.49,0 -0.991,-0.02 -1.481,-0.07 -0.48,-0.05 -0.971,-0.12 -1.451,-0.22 -0.48,-0.1 -0.961,-0.22 -1.431,-0.36 -0.46,-0.14 -0.931,-0.31 -1.381,-0.5 -0.45,-0.18 -0.901,-0.39 -1.331,-0.62 -0.43,-0.23 -0.851,-0.49 -1.261,-0.762 -0.41,-0.27 -0.811,-0.56 -1.181,-0.871 -0.38,-0.31 -0.751,-0.65 -1.101,-0.99 -0.35,-0.351 -0.681,-0.722 -0.991,-1.102 -0.31,-0.37 -0.601,-0.771 -0.871,-1.181 -0.27,-0.41 -0.53,-0.831 -0.761,-1.261 -0.23,-0.431 -0.44,-0.881 -0.621,-1.331 -0.19,-0.45 -0.36,-0.921 -0.5,-1.381 -0.14,-0.471 -0.26,-0.951 -0.36,-1.432 -0.1,-0.479 -0.17,-0.971 -0.22,-1.45 -0.05,-0.49 -0.07,-0.991 -0.07,-1.481 -10e-4,-0.49 0.019,-0.981 0.069,-1.471 z m 114.03,176.975 c 0,10.674 -8.683,19.358 -19.357,19.358 h -75.39 c -10.674,0 -19.357,-8.684 -19.357,-19.358 V 152.268 c 0,-10.673 8.684,-19.357 19.357,-19.357 h 75.39 c 10.674,0 19.357,8.684 19.357,19.357 z M 164.431,96.951 c -0.05,0.479 -0.12,0.971 -0.22,1.45 -0.09,0.48 -0.21,0.961 -0.36,1.432 -0.14,0.46 -0.31,0.931 -0.49,1.381 -0.19,0.45 -0.4,0.9 -0.631,1.331 -0.23,0.43 -0.48,0.851 -0.751,1.261 -0.27,0.41 -0.57,0.811 -0.881,1.181 -0.31,0.38 -0.641,0.751 -0.991,1.102 -0.34,0.34 -0.711,0.681 -1.091,0.99 -0.38,0.311 -0.781,0.602 -1.191,0.871 -0.4,0.271 -0.831,0.53 -1.261,0.762 -0.43,0.229 -0.881,0.439 -1.331,0.62 -0.45,0.19 -0.911,0.36 -1.381,0.5 -0.47,0.141 -0.941,0.261 -1.421,0.36 -0.48,0.099 -0.971,0.17 -1.461,0.22 -0.49,0.051 -0.981,0.07 -1.471,0.07 -0.49,0 -0.991,-0.02 -1.481,-0.07 -0.48,-0.05 -0.971,-0.12 -1.451,-0.22 -0.48,-0.1 -0.961,-0.22 -1.431,-0.36 -0.46,-0.14 -0.931,-0.31 -1.381,-0.5 -0.45,-0.18 -0.901,-0.39 -1.331,-0.62 -0.43,-0.23 -0.851,-0.49 -1.261,-0.762 -0.41,-0.27 -0.811,-0.56 -1.181,-0.871 -0.38,-0.31 -0.751,-0.65 -1.101,-0.99 -0.35,-0.351 -0.681,-0.722 -0.991,-1.102 -0.31,-0.37 -0.601,-0.771 -0.871,-1.181 -0.27,-0.41 -0.53,-0.831 -0.761,-1.261 -0.23,-0.431 -0.44,-0.881 -0.621,-1.331 -0.19,-0.45 -0.36,-0.921 -0.5,-1.381 -0.14,-0.471 -0.26,-0.951 -0.36,-1.432 -0.1,-0.479 -0.17,-0.971 -0.22,-1.45 -0.05,-0.49 -0.07,-0.991 -0.07,-1.481 0,-0.49 0.02,-0.98 0.07,-1.471 0.05,-0.49 0.12,-0.981 0.22,-1.461 0.1,-0.48 0.22,-0.961 0.36,-1.421 0.14,-0.471 0.31,-0.932 0.5,-1.392 0.18,-0.45 0.39,-0.891 0.621,-1.32 0.23,-0.431 0.49,-0.861 0.761,-1.262 0.27,-0.409 0.561,-0.811 0.871,-1.19 0.31,-0.38 0.641,-0.751 0.991,-1.091 0.35,-0.351 0.721,-0.682 1.101,-0.991 0.37,-0.311 0.771,-0.611 1.181,-0.881 0.41,-0.271 0.831,-0.521 1.261,-0.751 0.43,-0.23 0.881,-0.44 1.331,-0.631 0.45,-0.181 0.921,-0.351 1.381,-0.49 0.47,-0.15 0.951,-0.271 1.431,-0.36 0.48,-0.1 0.971,-0.17 1.451,-0.22 0.981,-0.1 1.972,-0.1 2.953,0 0.49,0.05 0.981,0.12 1.461,0.22 0.48,0.09 0.951,0.21 1.421,0.36 0.47,0.14 0.931,0.31 1.381,0.49 0.45,0.189 0.901,0.399 1.331,0.631 0.43,0.229 0.861,0.479 1.261,0.751 0.41,0.27 0.811,0.57 1.191,0.881 0.38,0.31 0.751,0.641 1.091,0.991 0.35,0.34 0.681,0.711 0.991,1.091 0.31,0.38 0.611,0.781 0.881,1.19 0.27,0.4 0.521,0.831 0.751,1.262 0.23,0.43 0.44,0.87 0.631,1.32 0.18,0.46 0.35,0.921 0.49,1.392 0.15,0.46 0.27,0.94 0.36,1.421 0.1,0.479 0.17,0.971 0.22,1.461 0.05,0.49 0.08,0.98 0.08,1.471 -0.001,0.491 -0.031,0.99 -0.081,1.481 z m 280.707,193.38 H 203.543 c -8.292,0 -15.014,-6.722 -15.014,-15.014 0,-8.292 6.722,-15.014 15.014,-15.014 h 241.594 c 8.292,0 15.014,6.722 15.014,15.014 0,8.292 -6.721,15.014 -15.013,15.014 z m 0,-70.064 h -97.24 c -8.292,0 -15.014,-6.722 -15.014,-15.014 0,-8.292 6.722,-15.014 15.014,-15.014 h 97.24 c 8.292,0 15.014,6.722 15.014,15.014 0,8.292 -6.722,15.014 -15.014,15.014 z m 0,-57.328 h -97.24 c -8.292,0 -15.014,-6.722 -15.014,-15.014 0,-8.292 6.722,-15.014 15.014,-15.014 h 97.24 c 8.292,0 15.014,6.722 15.014,15.014 0,8.292 -6.722,15.014 -15.014,15.014 z"
   id="path939" />
	</g>
</g></g>
<g
   id="g945"
   transform="translate(0,-33.231)">
</g>
<g
   id="g947"
   transform="translate(0,-33.231)">
</g>
<g
   id="g949"
   transform="translate(0,-33.231)">
</g>
<g
   id="g951"
   transform="translate(0,-33.231)">
</g>
<g
   id="g953"
   transform="translate(0,-33.231)">
</g>
<g
   id="g955"
   transform="translate(0,-33.231)">
</g>
<g
   id="g957"
   transform="translate(0,-33.231)">
</g>
<g
   id="g959"
   transform="translate(0,-33.231)">
</g>
<g
   id="g961"
   transform="translate(0,-33.231)">
</g>
<g
   id="g963"
   transform="translate(0,-33.231)">
</g>
<g
   id="g965"
   transform="translate(0,-33.231)">
</g>
<g
   id="g967"
   transform="translate(0,-33.231)">
</g>
<g
   id="g969"
   transform="translate(0,-33.231)">
</g>
<g
   id="g971"
   transform="translate(0,-33.231)">
</g>
<g
   id="g973"
   transform="translate(0,-33.231)">
</g>
</svg>
