<svg width="27" height="20" viewBox="0 0 27 20" fill="none" xmlns="http://www.w3.org/2000/svg">
<path d="M0.15 5C0.15 2.32142 2.32142 0.15 5 0.15H26.85V19.85H5C2.32142 19.85 0.15 17.6786 0.15 15V5Z" fill="#191F3F" fill-opacity="0.8" stroke="white" stroke-width="0.3"/>
<path d="M19.6815 4H7.31823C7.11529 4 6.9253 4.04989 6.75342 4.13213L13.4706 10.8493L14.9761 9.4024C14.9761 9.4024 14.9762 9.40226 14.9763 9.4022C14.9763 9.40214 14.9764 9.40208 14.9764 9.40208L20.2465 4.13225C20.0746 4.04995 19.8845 4 19.6815 4Z" fill="url(#paint0_radial)"/>
<path d="M20.868 4.75378L15.9086 9.71299L20.8679 14.6723C20.9501 14.5004 21 14.3104 21 14.1075V5.31839C21 5.11557 20.9502 4.92561 20.868 4.75378Z" fill="url(#paint1_radial)"/>
<path d="M6.13213 4.75354C6.04989 4.92542 6 5.11542 6 5.31835V14.1074C6 14.3102 6.04983 14.5003 6.13201 14.6721L11.0915 9.71289L6.13213 4.75354Z" fill="url(#paint2_radial)"/>
<path d="M15.2871 10.3344L13.7814 11.7815C13.6955 11.8673 13.5831 11.9102 13.4707 11.9102C13.3583 11.9102 13.2458 11.8673 13.16 11.7815L11.7128 10.3344L6.7533 15.2936C6.92521 15.3759 7.11532 15.4258 7.31832 15.4258H19.6816C19.8845 15.4258 20.0745 15.3759 20.2464 15.2937L15.2871 10.3344Z" fill="url(#paint3_radial)"/>
<defs>
<radialGradient id="paint0_radial" cx="0" cy="0" r="1" gradientUnits="userSpaceOnUse" gradientTransform="translate(13.5 7.42464) rotate(90) scale(3.42464 6.74656)">
<stop stop-color="white"/>
<stop offset="1" stop-color="#6FA6C8"/>
</radialGradient>
<radialGradient id="paint1_radial" cx="0" cy="0" r="1" gradientUnits="userSpaceOnUse" gradientTransform="translate(18.4543 9.71303) rotate(90) scale(4.95924 2.54571)">
<stop stop-color="white"/>
<stop offset="1" stop-color="#6FA6C8"/>
</radialGradient>
<radialGradient id="paint2_radial" cx="0" cy="0" r="1" gradientUnits="userSpaceOnUse" gradientTransform="translate(8.54574 9.71281) rotate(90) scale(4.95927 2.54574)">
<stop stop-color="white"/>
<stop offset="1" stop-color="#6FA6C8"/>
</radialGradient>
<radialGradient id="paint3_radial" cx="0" cy="0" r="1" gradientUnits="userSpaceOnUse" gradientTransform="translate(13.4999 12.8801) rotate(90) scale(2.54574 6.74656)">
<stop stop-color="white"/>
<stop offset="1" stop-color="#6FA6C8"/>
</radialGradient>
</defs>
</svg>
