<svg width="27" height="26" viewBox="0 0 27 26" fill="none" xmlns="http://www.w3.org/2000/svg">
<path d="M13.2747 -5.72205e-06C5.94449 -5.72205e-06 -1.14441e-05 5.96772 -1.14441e-05 13.3295C-1.14441e-05 19.2175 3.80367 24.2128 9.08103 25.9769C9.74485 26.0997 9.98714 25.6881 9.98714 25.3346C9.98714 25.0177 9.97552 24.1796 9.96889 23.0677C6.27639 23.8726 5.49641 21.2804 5.49641 21.2804C4.89399 19.7403 4.02273 19.3304 4.02273 19.3304C2.81624 18.5039 4.11234 18.5205 4.11234 18.5205C5.44496 18.6151 6.14529 19.8946 6.14529 19.8946C7.33021 21.9309 9.25362 21.3434 10.0104 21.0016C10.1299 20.1403 10.4734 19.5528 10.8534 19.2192C7.90607 18.8823 4.80604 17.7389 4.80604 12.6325C4.80604 11.177 5.32381 9.98715 6.1735 9.05448C6.03576 8.71759 5.58104 7.36174 6.30295 5.52794C6.30295 5.52794 7.41816 5.16948 9.95395 6.89375C11.0127 6.59835 12.1479 6.45065 13.278 6.44567C14.4049 6.45231 15.5416 6.59835 16.6021 6.89541C19.1362 5.17114 20.2498 5.5296 20.2498 5.5296C20.9733 7.36506 20.5186 8.71925 20.3825 9.05614C21.2339 9.98881 21.7467 11.1787 21.7467 12.6341C21.7467 17.7538 18.6433 18.8807 15.686 19.2109C16.1623 19.6225 16.5872 20.4357 16.5872 21.6787C16.5872 23.461 16.5706 24.8982 16.5706 25.3346C16.5706 25.6914 16.8095 26.1063 17.4833 25.9752C22.7524 24.2095 26.5527 19.2159 26.5527 13.3295C26.5527 5.96772 20.6082 -5.72205e-06 13.2747 -5.72205e-06Z" fill="url(#paint0_radial)"/>
<defs>
<radialGradient id="paint0_radial" cx="0" cy="0" r="1" gradientUnits="userSpaceOnUse" gradientTransform="translate(13.2764 13) rotate(90) scale(13 13.2764)">
<stop offset="0.822917" stop-color="#6FA6C8"/>
<stop offset="1" stop-color="#6FA6C8" stop-opacity="0"/>
</radialGradient>
</defs>
</svg>
