<svg width="27" height="20" viewBox="0 0 27 20" fill="none" xmlns="http://www.w3.org/2000/svg">
<path d="M0.15 5C0.15 2.32142 2.32142 0.15 5 0.15H26.85V19.85H5C2.32142 19.85 0.15 17.6786 0.15 15V5Z" fill="#191F3F" fill-opacity="0.8" stroke="white" stroke-width="0.3"/>
<path d="M13.7518 9.74381C14.6783 9.74381 15.4805 9.41153 16.136 8.75592C16.7915 8.10042 17.1238 7.29838 17.1238 6.3718C17.1238 5.44554 16.7915 4.64339 16.1359 3.98768C15.4803 3.33229 14.6781 3 13.7518 3C12.8252 3 12.0232 3.33229 11.3677 3.98779C10.7122 4.64328 10.3798 5.44543 10.3798 6.3718C10.3798 7.29838 10.7122 8.10053 11.3678 8.75603C12.0234 9.41142 12.8255 9.74381 13.7518 9.74381Z" fill="url(#paint0_radial)"/>
<path d="M19.6519 13.7652C19.633 13.4924 19.5947 13.1948 19.5384 12.8806C19.4816 12.564 19.4085 12.2647 19.3209 11.9912C19.2304 11.7084 19.1074 11.4292 18.9553 11.1617C18.7974 10.884 18.612 10.6421 18.4039 10.4432C18.1863 10.235 17.9199 10.0676 17.6119 9.94552C17.3049 9.82408 16.9647 9.76256 16.6008 9.76256C16.4579 9.76256 16.3197 9.8212 16.0528 9.99498C15.8885 10.1021 15.6964 10.226 15.4819 10.363C15.2985 10.4799 15.05 10.5894 14.7432 10.6885C14.4438 10.7854 14.1398 10.8345 13.8398 10.8345C13.5397 10.8345 13.2359 10.7854 12.9362 10.6885C12.6296 10.5895 12.3812 10.48 12.198 10.3632C11.9855 10.2274 11.7933 10.1035 11.6265 9.99487C11.3599 9.82109 11.2216 9.76245 11.0787 9.76245C10.7147 9.76245 10.3746 9.82408 10.0677 9.94563C9.75992 10.0675 9.49343 10.2349 9.27564 10.4433C9.06768 10.6424 8.88215 10.8841 8.7245 11.1617C8.57251 11.4292 8.44946 11.7083 8.35888 11.9913C8.27141 12.2648 8.19824 12.564 8.14142 12.8806C8.08513 13.1944 8.04689 13.4921 8.02798 13.7655C8.0094 14.0334 8 14.3114 8 14.5922C8 15.323 8.23231 15.9146 8.69042 16.351C9.14287 16.7815 9.74155 16.9999 10.4696 16.9999H17.2106C17.9386 16.9999 18.5371 16.7816 18.9896 16.351C19.4479 15.915 19.6802 15.3232 19.6802 14.5921C19.6801 14.31 19.6706 14.0318 19.6519 13.7652Z" fill="url(#paint1_radial)"/>
<defs>
<radialGradient id="paint0_radial" cx="0" cy="0" r="1" gradientUnits="userSpaceOnUse" gradientTransform="translate(13.7518 6.37191) rotate(90) scale(3.37191 3.37201)">
<stop stop-color="white"/>
<stop offset="1" stop-color="#6FA6C8"/>
</radialGradient>
<radialGradient id="paint1_radial" cx="0" cy="0" r="1" gradientUnits="userSpaceOnUse" gradientTransform="translate(13.8401 13.3812) rotate(90) scale(3.61875 5.84009)">
<stop stop-color="white"/>
<stop offset="1" stop-color="#6FA6C8"/>
</radialGradient>
</defs>
</svg>
