<svg width="27" height="20" viewBox="0 0 27 20" fill="none" xmlns="http://www.w3.org/2000/svg">
<path d="M0.15 5C0.15 2.32142 2.32142 0.15 5 0.15H26.85V19.85H5C2.32142 19.85 0.15 17.6786 0.15 15V5Z" fill="#191F3F" fill-opacity="0.8" stroke="white" stroke-width="0.3"/>
<path d="M19.7298 5.32747L19.5054 5.39862L18.3101 5.50511L17.9725 6.04426L17.7275 5.96642L16.7763 5.10876L16.6382 4.66273L16.4534 4.1871L15.8556 3.65083L15.1502 3.51282L15.134 3.83563L15.825 4.50992L16.1631 4.90819L15.783 5.10685L15.4735 5.01563L15.0098 4.82223L15.0256 4.44832L14.4172 4.19809L14.2152 5.07724L13.602 5.2162L13.6627 5.70663L14.4616 5.8604L14.5996 5.07676L15.2591 5.17418L15.5657 5.35373H16.0576L16.3942 6.02802L17.2867 6.93343L17.2213 7.28538L16.5017 7.19369L15.2582 7.82166L14.3628 8.89564L14.2462 9.37127H13.9249L13.326 9.09526L12.7444 9.37127L12.8891 9.98491L13.1422 9.69314L13.5872 9.67929L13.5562 10.2304L13.9249 10.3383L14.293 10.7518L14.8943 10.5828L15.581 10.6912L16.3785 10.9056L16.7767 10.9524L17.452 11.7189L18.7552 12.4853L17.9123 14.0956L17.0227 14.5091L16.685 15.4293L15.3976 16.2889L15.2605 16.7846C18.5517 15.9919 21.0001 13.0354 21.0001 9.50069C20.9991 7.9568 20.5311 6.51989 19.7298 5.32747Z" fill="url(#paint0_radial)"/>
<path d="M14.3622 13.4213L13.8159 12.4084L14.3173 11.3636L13.8159 11.2136L13.2529 10.6482L12.0055 10.3684L11.5915 9.50212V10.0164H11.4091L10.3342 8.55898V7.36179L9.54621 6.08055L8.29506 6.30356H7.4522L7.02814 6.02563L7.5692 5.5968L7.02958 5.72144C6.37917 6.8322 6 8.12108 6 9.50164C6 13.6433 9.35758 17.0024 13.4998 17.0024C13.8188 17.0024 14.1315 16.9742 14.441 16.9369L14.3627 16.0282C14.3627 16.0282 14.707 14.6787 14.707 14.6328C14.7065 14.5865 14.3622 13.4213 14.3622 13.4213Z" fill="url(#paint1_radial)"/>
<path d="M8.78693 4.41874L10.1193 4.23298L10.7334 3.89631L11.4244 4.09544L12.5285 4.03432L12.9067 3.43978L13.4582 3.53051L14.7977 3.40492L15.1669 2.99806L15.6874 2.65041L16.4237 2.7612L16.6921 2.72061C15.7222 2.26408 14.643 2 13.4993 2C11.1713 2 9.08969 3.06109 7.71533 4.72723H7.71915L8.78693 4.41874ZM13.8164 2.74592L14.5824 2.32425L15.0742 2.60839L14.3622 3.15039L13.6822 3.21868L13.3761 3.02002L13.8164 2.74592ZM11.5476 2.80752L11.8857 2.94839L12.3284 2.80752L12.5695 3.22537L11.5476 3.49374L11.0562 3.20627C11.0557 3.20627 11.5366 2.89682 11.5476 2.80752Z" fill="url(#paint2_radial)"/>
<defs>
<radialGradient id="paint0_radial" cx="0" cy="0" r="1" gradientUnits="userSpaceOnUse" gradientTransform="translate(16.8722 10.1487) rotate(90) scale(6.63589 4.12785)">
<stop stop-color="white"/>
<stop offset="1" stop-color="#6FA6C8"/>
</radialGradient>
<radialGradient id="paint1_radial" cx="0" cy="0" r="1" gradientUnits="userSpaceOnUse" gradientTransform="translate(10.3535 11.2996) rotate(90) scale(5.70278 4.35349)">
<stop stop-color="white"/>
<stop offset="1" stop-color="#6FA6C8"/>
</radialGradient>
<radialGradient id="paint2_radial" cx="0" cy="0" r="1" gradientUnits="userSpaceOnUse" gradientTransform="translate(12.2037 3.36361) rotate(90) scale(1.36361 4.4884)">
<stop stop-color="white"/>
<stop offset="1" stop-color="#6FA6C8"/>
</radialGradient>
</defs>
</svg>
