<?xml version="1.0" encoding="UTF-8" standalone="no"?>
<svg
   xmlns:dc="http://purl.org/dc/elements/1.1/"
   xmlns:cc="http://creativecommons.org/ns#"
   xmlns:rdf="http://www.w3.org/1999/02/22-rdf-syntax-ns#"
   xmlns:svg="http://www.w3.org/2000/svg"
   xmlns="http://www.w3.org/2000/svg"
   xmlns:sodipodi="http://sodipodi.sourceforge.net/DTD/sodipodi-0.dtd"
   xmlns:inkscape="http://www.inkscape.org/namespaces/inkscape"
   height="19"
   viewBox="0 0 13.432001 19"
   width="13.432"
   version="1.1"
   id="svg1275"
   sodipodi:docname="metric.svg"
   inkscape:version="1.0.1 (3bc2e813f5, 2020-09-07)">
  <metadata
     id="metadata1281">
    <rdf:RDF>
      <cc:Work
         rdf:about="">
        <dc:format>image/svg+xml</dc:format>
        <dc:type
           rdf:resource="http://purl.org/dc/dcmitype/StillImage" />
        <dc:title></dc:title>
      </cc:Work>
    </rdf:RDF>
  </metadata>
  <defs
     id="defs1279" />
  <sodipodi:namedview
     pagecolor="#ffffff"
     bordercolor="#666666"
     borderopacity="1"
     objecttolerance="10"
     gridtolerance="10"
     guidetolerance="10"
     inkscape:pageopacity="0"
     inkscape:pageshadow="2"
     inkscape:window-width="1860"
     inkscape:window-height="1016"
     id="namedview1277"
     showgrid="false"
     fit-margin-top="0"
     fit-margin-left="0"
     fit-margin-right="0"
     fit-margin-bottom="0"
     showborder="false"
     inkscape:zoom="5.8020231"
     inkscape:cx="-18.252081"
     inkscape:cy="-8.189448"
     inkscape:window-x="60"
     inkscape:window-y="27"
     inkscape:window-maximized="1"
     inkscape:current-layer="svg1275"
     inkscape:document-rotation="0"
     scale-x="1"
     units="px"
     inkscape:pagecheckerboard="false"
     viewbox-x="1" />
  <g
     id="g839"
     transform="scale(1.3043453)">
    <path
       d="M 10.297644,2.1741144 C 10.297644,0.9752899 9.322354,0 8.12353,0 H 2.174114 C 0.97529,0 0,0.9752899 0,2.1741144 v 8.9125216 h 10.297644 z m -6.81639,6.918254 c 0,0.239946 -0.19456,0.434619 -0.434619,0.434619 -0.240059,0 -0.434619,-0.194673 -0.434619,-0.434619 V 5.7369726 c 0,-0.240059 0.19456,-0.434619 0.434619,-0.434619 0.240059,0 0.434619,0.19456 0.434619,0.434619 z m 2.102244,0 c 0,0.239946 -0.194673,0.434619 -0.434619,0.434619 -0.240059,0 -0.434619,-0.194673 -0.434619,-0.434619 V 3.5223393 c 0,-0.2400593 0.19456,-0.4346191 0.434619,-0.4346191 0.239946,0 0.434619,0.1945598 0.434619,0.4346191 z m 2.102244,0 c 0,0.239946 -0.194674,0.434619 -0.43462,0.434619 -0.240059,0 -0.434619,-0.194673 -0.434619,-0.434619 v -1.677698 c 0,-0.240059 0.19456,-0.434619 0.434619,-0.434619 0.239946,0 0.43462,0.19456 0.43462,0.434619 z m 0,0"
       id="path1271"
       style="stroke-width:0.0289746" />
    <path
       d="m 0,12.39258 c 0,1.198825 0.97529,2.174115 2.174114,2.174115 H 8.12353 c 1.198824,0 2.174114,-0.97529 2.174114,-2.174115 V 11.687569 H 0 Z m 5.148879,0.270958 c 0.239946,0 0.434619,0.19456 0.434619,0.434619 0,0.240059 -0.194673,0.43462 -0.434619,0.43462 -0.240059,0 -0.43462,-0.194561 -0.43462,-0.43462 0,-0.240059 0.194561,-0.434619 0.43462,-0.434619 z m 0,0"
       id="path1273"
       style="stroke-width:0.0289746" />
  </g>
</svg>
