<svg width="36" height="36" viewBox="0 0 36 36" fill="none" xmlns="http://www.w3.org/2000/svg">
<path d="M18 0C8.0745 0 0 8.0745 0 18C0 27.9255 8.0745 36 18 36C27.9255 36 36 27.9255 36 18C36 8.0745 27.9255 0 18 0ZM24.6285 22.5075C25.215 23.094 25.215 24.042 24.6285 24.6285C24.336 24.921 23.952 25.068 23.568 25.068C23.184 25.068 22.8 24.921 22.5075 24.6285L18 20.121L13.4925 24.6285C13.2 24.921 12.816 25.068 12.432 25.068C12.048 25.068 11.664 24.921 11.3715 24.6285C10.785 24.042 10.785 23.094 11.3715 22.5075L15.879 18L11.3715 13.4925C10.785 12.906 10.785 11.958 11.3715 11.3715C11.958 10.785 12.906 10.785 13.4925 11.3715L18 15.879L22.5075 11.3715C23.094 10.785 24.042 10.785 24.6285 11.3715C25.215 11.958 25.215 12.906 24.6285 13.4925L20.121 18L24.6285 22.5075Z" fill="url(#paint0_radial)"/>
<defs>
<radialGradient id="paint0_radial" cx="0" cy="0" r="1" gradientUnits="userSpaceOnUse" gradientTransform="translate(18 18) rotate(90) scale(18)">
<stop offset="0.863128" stop-color="#6FA6C8"/>
<stop offset="1" stop-color="#6FA6C8" stop-opacity="0"/>
</radialGradient>
</defs>
</svg>
