<svg version="1.1" xmlns="http://www.w3.org/2000/svg" xmlns:xlink="http://www.w3.org/1999/xlink" width="118.77325" height="156.94959" viewBox="0,0,118.77325,156.94959"><g transform="translate(-180.09609,-101.43814)"><g data-paper-data="{&quot;isPaintingLayer&quot;:true}" fill="none" fill-rule="nonzero" stroke="none" stroke-width="1" stroke-linecap="butt" stroke-linejoin="miter" stroke-miterlimit="10" stroke-dasharray="" stroke-dashoffset="0" font-family="none" font-weight="none" font-size="none" text-anchor="none" style="mix-blend-mode: normal"><g data-paper-data="{&quot;index&quot;:null,&quot;origRot&quot;:0}" id="Group"><path d="M252.41885,119.48227l-6.42587,45.8418l-15.98098,2.73118c0,0 -11.06581,1.20262 -13.95398,1.55727c-1.44513,0.17828 -30.89855,1.66104 -30.76822,1.42649c5.04022,-12.64966 26.93855,-17.94878 26.93855,-17.94878l6.08517,-14.64808c0,0 9.13028,-2.12872 12.27708,-7.04244c3.1468,-4.91372 3.02723,-11.77442 3.02723,-11.77442c0,0 25.09675,-18.26923 25.63167,-18.18688c-3.08932,3.59397 -5.79613,16.28521 -6.83064,18.04386z" id="Path" fill="#c8c8be"/><path d="M212.22574,153.15018l13.48868,9.1256l-6.13121,3.34137l-7.35748,-12.46697" id="Path" fill="#f0e6d2"/><path d="M233.61521,119.68524l16.85294,7.46942l-1.41425,3.60588l-15.43869,-11.0753" id="Path" fill="#f0e6d2"/><path d="M218.31091,138.5021l28.1748,18.24429l-3.45339,5.08154c0,0 -23.64155,-20.63329 -24.7214,-23.32583z" id="Path" fill="#f0e6d2"/><path d="M259.24684,101.49936c0.34561,0.31534 -2.07585,3.69717 -1.29958,3.73098c0.77726,0.03385 2.26597,-2.54681 3.06051,-2.9326c-0.05226,1.19986 -1.88677,4.84849 -1.05839,5.06474c0.82837,0.21625 2.16033,-4.23501 3.04343,-3.89626c0.46971,0.20063 -3.22138,9.36069 -8.51162,33.24311c-2.30876,10.42341 -3.48393,23.66181 -3.73976,26.77763l-9.70601,-3.91106c0.25617,-5.88142 0.34907,-23.13572 13.80559,-53.09755c1.5748,-3.17848 4.17493,-5.17023 4.40583,-4.979z" id="Path" fill="#828278"/></g><g data-paper-data="{&quot;index&quot;:null,&quot;origRot&quot;:0}" id="Group"><path d="M252.29752,258.3145c-0.54267,0.09548 -23.98042,-19.7472 -23.98042,-19.7472c0,0 0.71659,-6.82328 -1.99102,-11.993c-2.70765,-5.16872 -11.61931,-8.08226 -11.61931,-8.08226l-4.08687,-14.73079c0,0 -24.07637,0.33465 -24.46347,-18.26281c0.01049,-0.24077 16.53372,5.16935 17.95787,5.47261c2.84378,0.66438 24.93612,-0.83871 24.93612,-0.83871l15.68295,4.11133l2.41575,46.22691c0.88029,1.78199 2.49694,14.12003 5.14841,17.84393z" id="Path" fill="#c8c8be"/><path d="M228.43433,238.63346l16.34583,-9.75196l1.09272,3.77613l-17.43855,5.97583" id="Path" fill="#f0e6d2"/><path d="M241.47993,197.46914l2.99853,5.36156l-29.65442,15.7265c1.30988,-2.58845 26.65588,-21.08806 26.65588,-21.08806z" id="Path" fill="#f0e6d2"/><path d="M248.46021,252.97546c-10.80048,-31.01836 -9.41898,-47.61496 -9.16277,-53.49739l10.00926,-3.05134c-0.01605,3.12626 0.00364,16.41671 1.39742,27.00038c3.19367,24.25294 6.1005,33.09881 5.61512,33.25784c-0.91182,0.32063 -1.85171,-4.22958 -2.69575,-4.08617c-0.84404,0.14341 0.66628,3.93772 0.61402,5.13759c-0.75799,-0.45341 -2.01663,-3.15474 -2.7939,-3.1886c-0.77626,-0.03381 1.34194,3.54675 0.97022,3.83085c-0.24661,0.16943 -2.66376,-2.03984 -3.95363,-5.40316z" id="Path" fill="#828278"/><path d="M210.67985,203.76386l4.64511,-13.20738l6.1944,3.45782l-10.83951,9.74956" id="Path" fill="#f0e6d2"/></g><path d="M189.21013,174.03545c0,0 -4.96337,-1.47838 -9.11403,-2.38085l0.22065,-0.9523c2.13268,0.51329 4.02816,0.95719 4.02816,0.95719c0,0 4.03236,-3.25261 5.7502,-4.19976c5.46073,-3.06929 21.25705,-8.45502 26.02869,-8.06702l-9.30189,11.56118c-1.92267,0.15748 -17.61177,3.08155 -17.61177,3.08155z" data-paper-data="{&quot;index&quot;:null,&quot;origRot&quot;:0}" id="Path" fill="#3c3c32"/><path d="M190.24051,192.96222c-5.29991,-3.3578 -5.53119,-13.16916 -5.53119,-13.16916c-1.19487,-0.05204 -2.38451,-0.22397 -3.50895,-0.51418c-0.0495,-0.24238 -0.04167,-0.42221 0.02872,-0.65937l6.98154,0.48426c0,0 1.25588,4.14357 3.88159,5.70131c2.15864,1.29616 4.50149,1.09792 6.32014,-0.80775l0.00261,-0.05994c0.31177,-0.28671 4.42757,-4.0762 4.73934,-4.3629l6.5422,11.95c-1.83412,0.88202 -12.25561,2.41299 -14.2919,2.44441c-1.49881,0.05483 -3.99798,-0.29425 -5.16409,-1.00667z" data-paper-data="{&quot;index&quot;:null,&quot;origRot&quot;:0}" id="Path" fill="#3c3c32"/><g data-paper-data="{&quot;index&quot;:null,&quot;origRot&quot;:0}" id="Group"><g id="Path" fill="#64645a"><path d="M295.61203,164.63357l0.19711,-0.41181c0.24138,-0.04954 0.42121,-0.04171 0.60004,-0.03392c0.54271,-0.09648 1.08386,-0.13396 1.68651,-0.22783c0.244,-0.10949 0.5401,-0.03653 0.77365,0.09375c-0.0131,0.30071 -0.07826,0.41799 -0.31965,0.46753c-0.42121,0.04171 -0.90398,0.1408 -1.3252,0.18251c-0.36027,0.04436 -0.72154,0.08869 -1.0802,0.07306c-0.23616,-0.07034 -0.41338,-0.13812 -0.53227,-0.1433z" id="ID0.7506304606795311"/><path d="M294.86875,163.81946l0.08083,-0.47693c0.18244,-0.05211 0.42382,-0.10165 0.60531,-0.15481c0.54793,-0.21636 1.03431,-0.37535 1.58225,-0.59171c0.42648,-0.1626 0.42648,-0.1626 0.77887,-0.02613c0.04689,0.30233 -0.01828,0.4196 -0.20233,0.5317c-0.42644,0.1616 -0.85192,0.32424 -1.27835,0.48583c-0.42544,0.16164 -0.72676,0.20857 -1.0307,0.31545c-0.17722,-0.06778 -0.35605,-0.07556 -0.53588,-0.0834z" id="ID0.2348456894978881"/><path d="M295.65365,165.05678c0.35766,0.01558 0.71632,0.0312 1.07237,0.10676c0.47494,0.08074 0.89093,0.15892 1.36586,0.23966c0.23977,0.01044 0.29611,0.07295 0.34034,0.43622c-0.36649,0.16421 -0.36649,0.16421 -0.78149,0.08608c-0.53227,-0.1433 -1.12709,-0.22926 -1.66293,-0.31366c-0.17622,-0.06773 -0.35505,-0.07552 -0.59482,-0.08596l-0.16055,-0.42739c0.11989,0.00522 0.30133,-0.04693 0.42121,-0.04171z" id="ID0.15804738411679864"/></g><path d="M238.43018,162.32815c0,0 15.24393,-3.66514 22.93254,-4.29317c6.30704,-0.50703 12.63377,-0.11035 18.89377,0.46259c4.05532,0.3568 15.08852,1.25876 16.49025,6.19043c-1.93907,6.04935 -18.0164,8.23483 -23.07646,8.97634c-6.56674,0.97718 -23.34995,2.89168 -29.99898,3.02347c-1.61047,-2.89682 -5.24111,-14.35967 -5.24111,-14.35967z" id="Path" fill="#64645a"/><path d="M248.85912,163.38396c0,0 14.93101,-1.99618 26.8354,-1.83801c8.19568,0.11674 13.75388,1.68109 14.06023,2.89757c0.76543,3.04019 -12.19701,5.18116 -15.4491,5.64108c-4.27857,0.65544 -17.98329,1.98234 -22.29831,2.09569c-1.05386,-1.91067 -3.14821,-8.79632 -3.14821,-8.79632z" id="Path" fill="#3c3c32"/></g><g data-paper-data="{&quot;index&quot;:null,&quot;origRot&quot;:0}" id="Group"><g id="Path" fill="#64645a"><path d="M294.34663,195.31757l0.25548,-0.35021c0.23877,0.0104 0.41499,0.07813 0.59482,0.08596c0.53749,0.02341 1.13231,0.10938 1.6698,0.13279c0.4186,0.01823 0.4186,0.01823 0.70683,0.27202c-0.13294,0.29449 -0.19549,0.35183 -0.43427,0.34143c-0.47755,-0.0208 -0.89354,-0.09898 -1.37109,-0.11978c-0.47855,-0.02084 -0.71471,-0.09119 -1.07076,-0.16675c-0.05733,-0.06255 -0.17361,-0.12768 -0.35083,-0.19545z" id="ID0.7005550274625421"/><path d="M293.851,194.33307l0.19811,-0.41177c0.23877,0.0104 0.42021,-0.04175 0.60004,-0.03392c0.54271,-0.09648 1.14276,-0.1304 1.68551,-0.22787c0.244,-0.10949 0.5401,-0.03653 0.77365,0.09375c-0.01571,0.36066 -0.07726,0.41803 -0.31965,0.46753c-0.48016,0.03914 -0.90398,0.1408 -1.3242,0.18255c-0.42121,0.04171 -0.72259,0.08964 -1.08125,0.07402c-0.23877,-0.0104 -0.35501,-0.07652 -0.53223,-0.1443z" id="ID0.10773778334259987"/><path d="M294.32574,195.79712c0.35605,0.07556 0.59221,0.14591 1.06288,0.34758c0.46971,0.20063 0.8831,0.33875 1.29287,0.53677c0.23716,0.07039 0.23194,0.19027 0.21884,0.49099c-0.24499,0.10944 -0.54371,0.09643 -0.77465,-0.0938c-0.46706,-0.26157 -0.99672,-0.46481 -1.52737,-0.6681c-0.17622,-0.06773 -0.41238,-0.13808 -0.5896,-0.20585l-0.09796,-0.48572c0.17883,0.00779 0.35866,0.01562 0.41499,0.07813z" id="ID0.09923103591427207"/></g><path d="M229.21311,198.32417c4.04422,-2.16907 14.70372,-14.63404 15.75274,-15.37009c6.31226,-0.62692 51.55954,3.56897 50.48248,11.81992c-0.9033,6.99632 -14.21522,6.17628 -18.9609,6.57115c-6.78819,0.54613 -39.2534,-1.64965 -47.27432,-3.02098z" id="Path" fill="#64645a"/><path d="M240.98821,186.32919c11.19476,1.32939 44.94595,4.24282 47.89879,7.91879c2.9528,3.67697 -13.40217,3.98659 -17.94709,3.90874c-4.2472,-0.06488 -19.26272,-1.62074 -31.40835,-3.11167z" id="Path" fill="#3c3c32"/></g><path d="M203.04486,191.71621c-6.04019,-6.99846 -4.79862,-17.64753 0.53854,-24.75101c5.08533,-6.81417 16.25832,-10.47745 24.46445,-10.60048c7.72762,-0.14487 19.02433,-1.15626 25.51469,3.75682c7.00853,5.35705 8.89322,8.80633 8.70168,18.71938c-0.04881,6.61314 -2.7782,12.92835 -7.46808,17.53464c-3.87341,3.73999 -9.83082,5.82574 -15.10872,6.07631c-11.93581,0.56315 -31.1147,-4.36107 -36.64255,-10.73565z" data-paper-data="{&quot;index&quot;:null,&quot;origRot&quot;:0}" id="Path" fill="#64645a"/><g data-paper-data="{&quot;index&quot;:null,&quot;origRot&quot;:0}" id="Group"><path d="M235.17582,170.8376c0.23616,0.07034 0.47755,0.0208 0.49563,0.9845c0.17065,2.95322 -0.26961,8.94774 -0.30118,11.05136c-0.03252,2.10258 -0.49214,4.42778 -1.08957,4.40176c-0.59743,-0.02602 -0.98466,-0.76457 -0.92979,-2.02438c0.0394,-2.28345 0.13874,-4.56429 0.29542,-6.78257c0.08102,-1.86024 0.21938,-3.65792 0.41672,-5.45403c0.08871,-0.65776 0.16712,-2.45806 1.11277,-2.17664z" id="Path" fill="#000000"/><path d="M235.41355,183.23569c-0.04704,1.07998 -0.12952,1.6179 -0.12952,1.6179c-0.7616,-0.39351 -3.03908,-1.69585 -3.02342,-2.05551c0.01832,-0.4206 2.4577,-1.45643 3.24968,-1.78328c0,0 -0.08368,1.92118 -0.09673,2.22089z" id="Path" fill="#ffffff"/><path d="M240.47829,186.52319c-3.32094,-3.45178 -2.03791,-12.29532 0.41477,-15.01517c2.0757,-2.31487 6.1143,-1.59745 7.91931,0.9465c1.80501,2.54395 1.27643,6.42963 1.26986,9.31508c-0.48577,2.92563 -0.45056,4.85199 -3.54732,5.85919c-2.2465,0.74395 -4.85673,0.20986 -6.05663,-1.1056z" id="Path" fill="#f01446"/><path d="M247.02952,184.52337c0.05192,1.56574 -2.04171,1.53461 -2.99519,1.43302c-0.95348,-0.10159 -2.56334,-0.23176 -2.38432,-1.60727c0.18002,-1.37547 1.68405,-1.55019 2.51765,-1.45382c0.8336,0.09636 2.8725,0.005 2.86187,1.62807z" id="Path" fill="#6e1e3c"/><path d="M247.49221,173.90044c0.05192,1.56574 -2.04432,1.59455 -2.99519,1.43302c-0.95083,-0.16253 -2.5633,-0.23276 -2.38432,-1.60727c0.18002,-1.37547 1.68405,-1.55019 2.51765,-1.45382c0.8336,0.09636 2.86989,0.06494 2.86187,1.62807z" id="Path" fill="#6e1e3c"/><path d="M244.53972,163.36799c0.01567,-0.35966 0.26488,-0.58903 0.62615,-0.63335c0.54276,-0.09747 1.08025,-0.07406 1.61774,-0.05065c0.53484,0.08435 0.69639,0.51179 0.85429,1.00012c-0.55316,0.33625 -1.27309,0.36495 -1.86269,0.1591c-0.47755,-0.0208 -0.95509,-0.0416 -1.23549,-0.47521z" id="Path" fill="#000000"/><path d="M242.96913,195.29088c0.39526,-0.82458 1.04741,-0.67606 1.76112,-0.58492c0.77726,0.03385 0.83198,0.15635 1.09933,0.88968c-0.7513,0.74902 -1.88884,0.75953 -2.63373,0.0054c-0.05472,-0.1225 -0.11205,-0.18505 -0.22672,-0.31016z" id="Path" fill="#000000"/><path d="M235.74295,175.67286l-0.05753,1.32075c-0.93155,-0.58209 -2.50582,-1.55251 -2.49276,-1.85223c0.01305,-0.29972 1.54323,-1.07487 2.5802,-1.51116c-0.00261,0.05994 -0.0273,1.98269 -0.02991,2.04263z" id="Path" fill="#ffffff"/></g></g></g></svg>