<svg version="1.1" xmlns="http://www.w3.org/2000/svg" xmlns:xlink="http://www.w3.org/1999/xlink" width="418.60699" height="128.17109" viewBox="0,0,418.60699,128.17109"><g transform="translate(-32.7868,-121.8893)"><g data-paper-data="{&quot;isPaintingLayer&quot;:true}" fill="#ff0000" fill-rule="nonzero" stroke="none" stroke-width="4.22139" stroke-linecap="butt" stroke-linejoin="round" stroke-miterlimit="10" stroke-dasharray="" stroke-dashoffset="0" font-family="none" font-weight="none" font-size="none" text-anchor="none" style="mix-blend-mode: normal"><path d="M97.0902,145.0955c5.2138,-11.8555 16.4664,-20.0955 29.5404,-20.0955c18.0242,0 32.6525,15.6145 32.6525,34.8538c0,37.8904 -38.3634,49.6396 -62.1929,88.0959c-25.2048,-38.6944 -62.1927,-48.9563 -62.1927,-88.0959c0,-19.2393 14.6283,-34.8538 32.6525,-34.8538c13.0741,0 24.3267,8.24 29.5402,20.0955z" data-paper-data="{&quot;origPos&quot;:null}" id="ID0.2874125149101019" stroke="#ff1e1e"/><path d="M244.9999,144.62065c5.2138,-11.8555 16.4664,-20.0955 29.5404,-20.0955c18.0242,0 32.6525,15.6145 32.6525,34.8538c0,37.8904 -38.3634,49.6396 -62.1929,88.0959c-25.2048,-38.6944 -62.1927,-48.9563 -62.1927,-88.0959c0,-19.2393 14.6283,-34.8538 32.6525,-34.8538c13.0741,0 24.3267,8.24 29.5402,20.0955z" data-paper-data="{&quot;origPos&quot;:null}" id="ID0.2874125149101019" stroke="#ff1e1e"/><path d="M387.0902,144.0955c5.2138,-11.8555 16.4664,-20.0955 29.5404,-20.0955c18.0242,0 32.6525,15.6145 32.6525,34.8538c0,37.8904 -38.3634,49.6396 -62.1929,88.0959c-25.2048,-38.6944 -62.1927,-48.9563 -62.1927,-88.0959c0,-19.2393 14.6283,-34.8538 32.6525,-34.8538c13.0741,0 24.3267,8.24 29.5402,20.0955z" data-paper-data="{&quot;origPos&quot;:null}" id="ID0.2874125149101019" stroke="#ff1e1e"/></g></g></svg>