<svg version="1.1" xmlns="http://www.w3.org/2000/svg" xmlns:xlink="http://www.w3.org/1999/xlink" width="199.37362" height="32.55566"><g transform="translate(-108.9,-169.14434)"><g data-paper-data="{&quot;isPaintingLayer&quot;:true}" fill="none" fill-rule="nonzero" stroke="none" stroke-width="1" stroke-linecap="butt" stroke-linejoin="miter" stroke-miterlimit="10" stroke-dasharray="" stroke-dashoffset="0" font-family="none" font-weight="none" font-size="none" text-anchor="none" style="mix-blend-mode: normal"><g id="Group"><path d="M111.4862,180.17371c1.74949,-0.60852 11.63789,-1.74949 11.63789,-1.74949c-4.33568,-0.76065 -11.86608,0.22819 -11.86608,0.22819c6.69369,-6.31336 19.09222,-5.55272 19.09222,-5.55272c-4.33568,-1.59736 -15.74538,0.76065 -15.74538,0.76065c15.36506,-6.69369 33.31631,-0.60852 33.31631,-0.60852c-6.46549,-2.51013 -14.68047,-4.03143 -14.68047,-4.03143c26.2423,1.97768 31.49076,8.97563 31.49076,8.97563c7.3022,-5.93304 14.37622,-0.38032 14.37622,-0.38032c-1.36916,-2.5862 -7.45433,-4.33568 -7.45433,-4.33568c12.24641,1.74949 14.60441,11.86608 14.60441,11.86608c0.38032,5.09633 -6.31336,15.21293 -19.92893,9.05169c0,0 -14.60441,11.63789 -41.22703,5.09633c0,0 5.70485,0.76065 10.26873,-0.38032c0,0 -16.58209,-0.76065 -23.04758,-5.93304c0,0 8.06285,3.72717 19.32042,3.57504c0,0 -15.21293,-2.20587 -20.68958,-7.3022c0,0 2.96652,1.21703 6.08517,1.21703c0,0 -5.70485,-1.74949 -8.06285,-4.71601c0,0 5.55272,1.36916 8.89956,1.36916c0,0 -6.92188,-1.59736 -8.44317,-3.11865c0,0 7.45433,-1.59736 12.01821,-0.76065c0,0 -8.89956,-0.98884 -11.25757,-0.98884c0,0 3.95536,-0.98884 5.93304,-0.98884z" id="Shape" fill="#f2c063"/><path d="M169.21926,195.53876c0.98884,0.30426 2.12981,0.53245 3.42291,0.60852c0.68458,0 1.2931,0 1.97768,0c0.68458,0 1.2931,-0.07606 1.97768,-0.22819l0.98884,-0.22819c0.38032,-0.07606 0.68458,-0.22819 0.98884,-0.30426c0.30426,-0.15213 0.60852,-0.22819 0.91278,-0.38032c0.30426,-0.15213 0.53245,-0.30426 0.83671,-0.45639c0.53245,-0.38032 1.0649,-0.68458 1.52129,-1.0649c0.45639,-0.38032 0.83671,-0.76065 1.21703,-1.14097c0.68458,-0.68458 1.21703,-1.36916 1.52129,-1.90162c0.30426,-0.53245 0.45639,-0.83671 0.45639,-0.83671c0,0 -0.07606,0.30426 -0.38032,0.83671c-0.15213,0.22819 -0.30426,0.53245 -0.53245,0.91278c-0.22819,0.38032 -0.45639,0.76065 -0.83671,1.14097c-0.38032,0.38032 -0.76065,0.83671 -1.21703,1.21703c-0.45639,0.38032 -0.98884,0.76065 -1.52129,1.14097c-0.22819,0.15213 -0.53245,0.30426 -0.83671,0.45639c-0.30426,0.15213 -0.60852,0.30426 -0.91278,0.45639c-0.38032,0.15213 -0.68458,0.22819 -0.98884,0.38032l-0.98884,0.30426c-0.68458,0.15213 -1.36916,0.22819 -2.05375,0.22819c-0.68458,0 -1.2931,0 -1.97768,-0.07606c-0.60852,-0.07606 -1.21703,-0.15213 -1.82555,-0.30426c-0.53245,-0.15213 -1.14097,-0.30426 -1.59736,-0.45639c-0.98884,-0.38032 -1.74949,-0.68458 -2.28194,-0.98884c-0.53245,-0.30426 -0.83671,-0.45639 -0.83671,-0.45639c0,0 1.2931,0.60852 2.96652,1.14097z" id="Shape" fill="#d18b44"/><path d="M178.65127,177.28325c-0.38032,-0.22819 -0.91278,-0.53245 -1.59736,-0.76065c-0.30426,-0.15213 -0.68458,-0.22819 -1.0649,-0.38032c-0.38032,-0.07606 -0.76065,-0.22819 -1.21703,-0.30426c-0.45639,-0.07606 -0.91278,-0.15213 -1.36916,-0.15213c-0.45639,-0.07606 -0.91278,0 -1.36916,0c-0.45639,0 -0.91278,0.15213 -1.36916,0.15213c-0.45639,0.07606 -0.91278,0.22819 -1.36916,0.30426c-0.45639,0.15213 -0.83671,0.22819 -1.21703,0.38032c-0.38032,0.15213 -0.76065,0.30426 -1.0649,0.45639c-0.38032,0.15213 -0.68458,0.30426 -0.91278,0.45639c-0.30426,0.15213 -0.53245,0.30426 -0.68458,0.38032c-0.38032,0.22819 -0.60852,0.30426 -0.60852,0.30426c0,0 0.22819,-0.15213 0.53245,-0.38032c0.15213,-0.15213 0.38032,-0.30426 0.60852,-0.45639c0.22819,-0.22819 0.53245,-0.38032 0.83671,-0.53245c0.30426,-0.15213 0.68458,-0.38032 1.0649,-0.53245c0.38032,-0.15213 0.76065,-0.30426 1.21703,-0.45639c0.45639,-0.07606 0.91278,-0.22819 1.36916,-0.30426c0.45639,-0.07606 0.98884,-0.15213 1.44523,-0.15213c0.45639,0 0.98884,0 1.44523,0.07606c0.45639,0.07606 0.91278,0.15213 1.36916,0.22819c0.45639,0.07606 0.91278,0.22819 1.2931,0.38032c0.38032,0.15213 0.76065,0.30426 1.0649,0.45639c0.68458,0.30426 1.14097,0.68458 1.52129,0.91278c0.38032,0.30426 0.53245,0.45639 0.53245,0.45639c0,0 -0.22819,-0.15213 -0.45639,-0.53245z" id="Shape" fill="#d18b44"/><path d="M172.33791,173.48002c0.45639,0 1.14097,0.07606 1.97768,0.30426c0.38032,0.07606 0.83671,0.22819 1.2931,0.38032c0.45639,0.15213 0.98884,0.30426 1.44523,0.53245c0.45639,0.22819 0.98884,0.45639 1.44523,0.76065c0.53245,0.30426 0.98884,0.60852 1.44523,0.91278c0.45639,0.30426 0.83671,0.68458 1.2931,1.0649c0.38032,0.38032 0.76065,0.76065 1.14097,1.14097c0.38032,0.38032 0.68458,0.76065 0.98884,1.14097c0.30426,0.38032 0.53245,0.76065 0.76065,1.14097c0.22819,0.38032 0.45639,0.68458 0.60852,0.98884c0.15213,0.30426 0.30426,0.53245 0.38032,0.76065c0.15213,0.45639 0.30426,0.68458 0.30426,0.68458c0,0 -0.15213,-0.22819 -0.38032,-0.60852c-0.15213,-0.22819 -0.30426,-0.45639 -0.45639,-0.76065c-0.22819,-0.30426 -0.45639,-0.60852 -0.68458,-0.91278c-0.30426,-0.30426 -0.53245,-0.76065 -0.83671,-1.0649c-0.30426,-0.30426 -0.60852,-0.68458 -0.98884,-1.0649c-0.38032,-0.30426 -0.76065,-0.68458 -1.14097,-1.0649c-0.45639,-0.30426 -0.83671,-0.68458 -1.2931,-0.98884c-0.45639,-0.30426 -0.91278,-0.68458 -1.36916,-0.91278c-0.45639,-0.30426 -0.91278,-0.53245 -1.36916,-0.76065c-0.45639,-0.22819 -0.91278,-0.45639 -1.36916,-0.60852c-0.45639,-0.15213 -0.91278,-0.38032 -1.2931,-0.45639c-1.52129,-0.53245 -2.66226,-0.60852 -2.66226,-0.60852c0,0 0.30426,0 0.76065,0z" id="Shape" fill="#d18b44"/><path d="M162.75376,176.59867c-0.22819,-0.15213 -0.45639,-0.38032 -0.83671,-0.60852c-0.30426,-0.22819 -0.76065,-0.53245 -1.2931,-0.76065c-0.53245,-0.30426 -1.14097,-0.53245 -1.82555,-0.83671c-0.68458,-0.30426 -1.44523,-0.60852 -2.20587,-0.83671c-0.76065,-0.30426 -1.67342,-0.45639 -2.51013,-0.76065c-0.91278,-0.22819 -1.82555,-0.45639 -2.73833,-0.68458c-0.91278,-0.22819 -1.90162,-0.38032 -2.81439,-0.60852c-0.91278,-0.15213 -1.90162,-0.38032 -2.81439,-0.53245c-0.91278,-0.15213 -1.82555,-0.30426 -2.73833,-0.45639c-1.82555,-0.30426 -3.49897,-0.53245 -4.9442,-0.76065c-2.96652,-0.30426 -4.86814,-0.60852 -4.86814,-0.60852c0,0 0.53245,0 1.36916,0.07606c0.83671,0.07606 2.05375,0.15213 3.49897,0.30426c1.44523,0.22819 3.11865,0.30426 4.9442,0.60852c0.91278,0.15213 1.90162,0.30426 2.81439,0.45639c0.98884,0.15213 1.90162,0.38032 2.89046,0.53245c0.91278,0.22819 1.90162,0.45639 2.81439,0.68458c0.91278,0.22819 1.82555,0.53245 2.73833,0.76065c0.91278,0.30426 1.74949,0.53245 2.51013,0.83671c0.83671,0.30426 1.52129,0.60852 2.20587,0.91278c0.60852,0.30426 1.21703,0.60852 1.74949,0.91278c0.53245,0.30426 0.91278,0.60852 1.2931,0.83671c0.30426,0.22819 0.60852,0.45639 0.76065,0.60852c0.15213,0.15213 0.30426,0.22819 0.30426,0.22819c0,0 -0.07606,-0.07606 -0.30426,-0.30426z" id="Shape" fill="#d18b44"/><path d="M183.06302,183.52055c-0.15213,-0.22819 -0.45639,-0.60852 -0.83671,-0.98884c-0.22819,-0.22819 -0.45639,-0.38032 -0.68458,-0.60852c-0.22819,-0.22819 -0.45639,-0.38032 -0.76065,-0.60852c-0.30426,-0.15213 -0.60852,-0.38032 -0.91278,-0.53245c-0.30426,-0.15213 -0.68458,-0.30426 -0.98884,-0.45639c-0.30426,-0.15213 -0.60852,-0.30426 -0.98884,-0.38032c-0.30426,-0.15213 -0.68458,-0.22819 -0.98884,-0.30426c-0.38032,-0.07606 -0.68458,-0.15213 -0.98884,-0.22819c-0.38032,-0.07606 -0.60852,-0.15213 -0.91278,-0.15213c-0.60852,-0.07606 -1.0649,-0.15213 -1.36916,-0.15213c-0.38032,-0.07606 -0.53245,-0.07606 -0.53245,-0.07606c0,0 0.22819,-0.07606 0.53245,-0.07606c0.30426,0 0.83671,-0.15213 1.36916,-0.07606c0.30426,0.07606 0.60852,0.07606 0.91278,0.07606c0.30426,0.07606 0.60852,0.07606 0.98884,0.15213c0.38032,0 0.68458,0.15213 1.0649,0.22819c0.38032,0.07606 0.68458,0.22819 1.0649,0.38032c0.30426,0.15213 0.68458,0.38032 0.98884,0.53245c0.30426,0.22819 0.60852,0.38032 0.91278,0.60852c0.30426,0.22819 0.53245,0.45639 0.76065,0.68458c0.22819,0.22819 0.45639,0.45639 0.60852,0.68458c0.38032,0.45639 0.60852,0.83671 0.76065,1.14097c0.15213,0.30426 0.22819,0.45639 0.22819,0.45639c0,0 -0.15213,-0.15213 -0.22819,-0.30426z" id="Shape" fill="#d18b44"/><path d="M175.83688,181.16255c-0.38032,-0.07606 -0.98884,-0.22819 -1.67342,-0.38032c-0.38032,-0.07606 -0.76065,-0.07606 -1.14097,-0.15213c-0.38032,0 -0.83671,0 -1.2931,-0.07606c-0.45639,0 -0.91278,0 -1.36916,0c-0.53245,0.07606 -0.98884,0.07606 -1.44523,0.15213l-0.68458,0.07606c-0.22819,0.07606 -0.45639,0.07606 -0.68458,0.15213c-0.45639,0.07606 -0.83671,0.22819 -1.2931,0.38032c-0.45639,0.15213 -0.83671,0.38032 -1.21703,0.53245c-0.38032,0.15213 -0.68458,0.30426 -0.98884,0.53245c-0.30426,0.22819 -0.60852,0.38032 -0.83671,0.53245c-0.22819,0.15213 -0.45639,0.30426 -0.60852,0.45639c-0.30426,0.22819 -0.53245,0.38032 -0.53245,0.38032c0,0 0.15213,-0.15213 0.45639,-0.45639c0.15213,-0.15213 0.30426,-0.30426 0.53245,-0.53245c0.22819,-0.22819 0.53245,-0.38032 0.83671,-0.60852c0.30426,-0.22819 0.60852,-0.45639 0.98884,-0.60852c0.38032,-0.22819 0.76065,-0.45639 1.21703,-0.60852c0.45639,-0.15213 0.91278,-0.38032 1.36916,-0.45639c0.22819,0 0.45639,-0.07606 0.68458,-0.15213c0.30426,-0.07606 0.53245,-0.07606 0.76065,-0.15213c0.45639,-0.07606 0.98884,-0.07606 1.44523,-0.07606c0.53245,-0.07606 0.98884,0 1.44523,0c0.45639,0 0.91278,0.07606 1.2931,0.15213c0.38032,0.07606 0.76065,0.15213 1.14097,0.22819c0.68458,0.22819 1.2931,0.45639 1.67342,0.60852c0.38032,0.15213 0.60852,0.30426 0.60852,0.30426c0,0 -0.22819,-0.07606 -0.68458,-0.22819z" id="Shape" fill="#d18b44"/><path d="M165.87241,192.11586c0.22819,0.15213 0.45639,0.22819 0.76065,0.38032c0.22819,0.15213 0.53245,0.22819 0.83671,0.38032c0.38032,0.07606 0.68458,0.22819 0.98884,0.30426c0.30426,0.07606 0.60852,0.15213 0.98884,0.22819c0.30426,0.07606 0.60852,0.07606 0.98884,0.15213c0.30426,0.07606 0.68458,0.15213 0.98884,0.15213c0.30426,0 0.60852,0.07606 0.91278,0.07606c0.30426,0 0.60852,0 0.83671,0c0.53245,0 0.98884,0 1.2931,0c0.30426,0 0.45639,0 0.45639,0c0,0 -0.15213,0 -0.45639,0.07606c-0.30426,0 -0.76065,0.15213 -1.2931,0.15213c-0.22819,0.07606 -0.53245,0.07606 -0.83671,0.07606c-0.30426,0 -0.68458,0 -0.98884,0c-0.38032,0 -0.68458,0 -1.0649,-0.07606c-0.38032,0 -0.68458,-0.07606 -1.0649,-0.15213c-0.38032,-0.07606 -0.76065,-0.22819 -1.0649,-0.30426c-0.38032,-0.07606 -0.68458,-0.22819 -0.98884,-0.38032c-0.30426,-0.15213 -0.60852,-0.30426 -0.83671,-0.45639c-0.30426,-0.15213 -0.53245,-0.30426 -0.76065,-0.45639c-0.38032,-0.30426 -0.68458,-0.68458 -0.91278,-0.91278c-0.22819,-0.22819 -0.30426,-0.38032 -0.30426,-0.38032c0,0 0.45639,0.60852 1.52129,1.14097z" id="Shape" fill="#d18b44"/><path d="M182.4545,187.55198c-0.30426,0.22819 -0.68458,0.53245 -1.21703,0.83671c-0.22819,0.15213 -0.53245,0.30426 -0.83671,0.45639c-0.30426,0.15213 -0.60852,0.30426 -0.98884,0.38032c-0.68458,0.30426 -1.52129,0.45639 -2.28194,0.60852c-0.45639,0.07606 -0.83671,0.15213 -1.21703,0.15213c-0.38032,0.07606 -0.76065,0.07606 -1.14097,0.07606c-0.76065,0 -1.44523,-0.07606 -2.05375,-0.15213c-0.60852,-0.07606 -1.14097,-0.22819 -1.44523,-0.30426c-0.30426,-0.07606 -0.53245,-0.15213 -0.53245,-0.15213c0,0 0.15213,0 0.53245,0c0.38032,0 0.83671,0.07606 1.44523,0.07606c0.22819,0 0.60852,0 0.91278,0c0.38032,0 0.68458,0 1.0649,0c0.38032,0 0.76065,-0.07606 1.14097,-0.07606c0.38032,0 0.76065,-0.07606 1.14097,-0.15213c0.76065,-0.15213 1.52129,-0.30426 2.20587,-0.53245c0.76065,-0.22819 1.36916,-0.45639 1.90162,-0.68458c0.53245,-0.22819 0.98884,-0.45639 1.2931,-0.60852c0.30426,-0.22819 0.45639,-0.30426 0.45639,-0.30426c0,0 -0.15213,0.15213 -0.38032,0.38032z" id="Shape" fill="#d18b44"/><path d="M174.46772,187.32378c-0.68458,0.07606 -1.52129,0.15213 -2.358,0.22819c-0.83671,0.07606 -1.82555,0.15213 -2.73833,0.15213c-0.91278,0 -1.82555,0 -2.73833,-0.07606c-0.83671,-0.07606 -1.67342,-0.15213 -2.358,-0.30426c-0.30426,-0.07606 -0.60852,-0.15213 -0.91278,-0.22819c-0.22819,-0.07606 -0.53245,-0.15213 -0.68458,-0.22819c-0.38032,-0.15213 -0.60852,-0.22819 -0.60852,-0.22819c0,0 0.22819,0.07606 0.60852,0.15213c0.15213,0.07606 0.38032,0.07606 0.68458,0.15213c0.22819,0.07606 0.53245,0.07606 0.91278,0.15213c0.68458,0.07606 1.52129,0.15213 2.358,0.15213c0.91278,0.07606 1.82555,0 2.73833,0c0.91278,0 1.90162,0 2.73833,-0.07606c0.83671,0 1.67342,-0.07606 2.358,-0.07606c1.44523,0 2.358,-0.07606 2.358,-0.07606c0,0 -0.98884,0.22819 -2.358,0.30426z" id="Shape" fill="#d18b44"/><path d="M160.16756,191.12702c-0.91278,0.30426 -1.97768,0.60852 -3.11865,0.83671c-1.14097,0.22819 -2.358,0.45639 -3.57504,0.60852c-0.60852,0.15213 -1.21703,0.15213 -1.82555,0.22819c-0.60852,0.07606 -1.21703,0.07606 -1.82555,0.15213c-0.53245,0.07606 -1.14097,0.07606 -1.67342,0.07606c-0.53245,0 -1.0649,0 -1.52129,0c-0.98884,0 -1.74949,-0.07606 -2.28194,-0.15213c-0.53245,-0.07606 -0.83671,-0.07606 -0.83671,-0.07606c0,0 0.30426,0 0.83671,0c0.60852,0 1.36916,0 2.28194,0c0.45639,0 0.98884,0 1.52129,-0.07606c0.53245,0 1.0649,0 1.67342,-0.07606c0.53245,-0.07606 1.14097,-0.07606 1.74949,-0.15213c0.60852,-0.07606 1.21703,-0.15213 1.82555,-0.22819c1.21703,-0.15213 2.43407,-0.38032 3.57504,-0.60852c1.14097,-0.22819 2.20587,-0.45639 3.11865,-0.68458c1.74949,-0.38032 2.96652,-0.76065 2.96652,-0.76065c0,0 -1.14097,0.45639 -2.89046,0.91278z" id="Shape" fill="#d18b44"/><path d="M163.59047,196.14728c-0.53245,0.30426 -1.14097,0.68458 -1.82555,0.98884c-0.38032,0.15213 -0.76065,0.30426 -1.14097,0.53245c-0.45639,0.15213 -0.83671,0.30426 -1.2931,0.53245c-0.83671,0.38032 -1.82555,0.68458 -2.89046,1.0649c-1.0649,0.38032 -2.12981,0.76065 -3.34684,0.98884c-0.60852,0.15213 -1.21703,0.30426 -1.82555,0.45639c-0.60852,0.07606 -1.21703,0.22819 -1.82555,0.30426l-0.91278,0.15213l-0.98884,0.07606c-0.60852,0.07606 -1.2931,0.15213 -1.90162,0.22819c-1.2931,0.15213 -2.5862,0.15213 -3.8793,0.22819c-1.2931,0 -2.51013,-0.07606 -3.72717,-0.07606c-1.21703,-0.07606 -2.43407,-0.22819 -3.49897,-0.30426c-0.53245,-0.07606 -1.0649,-0.15213 -1.59736,-0.22819c-0.53245,-0.07606 -1.0649,-0.15213 -1.52129,-0.22819c-0.98884,-0.15213 -1.82555,-0.30426 -2.5862,-0.53245c-0.76065,-0.22819 -1.44523,-0.38032 -1.97768,-0.53245c-1.0649,-0.30426 -1.67342,-0.45639 -1.67342,-0.45639c0,0 0.68458,0.15213 1.74949,0.38032c0.53245,0.15213 1.21703,0.30426 1.97768,0.45639c0.76065,0.22819 1.67342,0.30426 2.5862,0.45639c0.45639,0.07606 0.91278,0.15213 1.44523,0.22819c0.53245,0.07606 1.0649,0.15213 1.59736,0.15213c1.0649,0.15213 2.20587,0.22819 3.42291,0.30426c1.21703,0.07606 2.43407,0.07606 3.72717,0.07606c1.21703,-0.07606 2.51013,-0.07606 3.80323,-0.22819c0.60852,-0.07606 1.2931,-0.15213 1.90162,-0.22819l0.91278,-0.07606l0.91278,-0.15213c0.60852,-0.07606 1.21703,-0.22819 1.82555,-0.30426c0.60852,-0.07606 1.14097,-0.22819 1.74949,-0.38032c1.21703,-0.30426 2.28194,-0.60852 3.34684,-0.91278c1.0649,-0.30426 2.05375,-0.60852 2.96652,-0.98884c0.91278,-0.30426 1.74949,-0.68458 2.43407,-0.98884c0.68458,-0.30426 1.2931,-0.68458 1.82555,-0.91278c0.98884,-0.45639 1.52129,-0.83671 1.52129,-0.83671c0,0 -0.53245,0.38032 -1.2931,0.76065z" id="Shape" fill="#d18b44"/><path d="M113.53994,194.09354c0.38032,0.22819 0.98884,0.53245 1.59736,0.83671c0.68458,0.30426 1.44523,0.60852 2.20587,0.91278c0.83671,0.30426 1.67342,0.68458 2.66226,0.91278c0.98884,0.30426 1.97768,0.53245 3.04259,0.76065c1.0649,0.22819 2.12981,0.38032 3.27078,0.60852c1.14097,0.07606 2.28194,0.22819 3.42291,0.30426c0.60852,0 1.14097,0.07606 1.74949,0.07606l0.83671,0.07606h0.83671c1.14097,-0.07606 2.28194,0 3.34684,-0.07606c1.0649,-0.07606 2.12981,-0.15213 3.11865,-0.22819c0.98884,-0.15213 1.97768,-0.30426 2.81439,-0.38032c0.38032,-0.07606 0.83671,-0.07606 1.21703,-0.15213c0.45639,0 0.76065,-0.07606 1.14097,-0.15213c0.68458,-0.07606 1.2931,-0.22819 1.82555,-0.30426c0.98884,-0.22819 1.59736,-0.30426 1.59736,-0.30426c0,0 -0.53245,0.15213 -1.52129,0.38032c-0.53245,0.07606 -1.14097,0.22819 -1.82555,0.38032c-0.38032,0.07606 -0.76065,0.15213 -1.14097,0.22819c-0.38032,0.07606 -0.76065,0.15213 -1.21703,0.22819c-0.91278,0.15213 -1.82555,0.30426 -2.81439,0.45639c-0.98884,0.15213 -2.05375,0.22819 -3.11865,0.30426c-1.0649,0.07606 -2.20587,0.07606 -3.34684,0.07606h-0.83671l-0.83671,-0.07606c-0.60852,0 -1.14097,-0.07606 -1.74949,-0.07606c-1.21703,-0.07606 -2.358,-0.22819 -3.49897,-0.38032c-1.14097,-0.15213 -2.28194,-0.38032 -3.34684,-0.60852c-1.0649,-0.22819 -2.12981,-0.53245 -3.04259,-0.83671c-0.98884,-0.30426 -1.82555,-0.68458 -2.66226,-0.98884c-0.76065,-0.38032 -1.52129,-0.68458 -2.12981,-1.0649c-0.60852,-0.30426 -1.14097,-0.68458 -1.59736,-0.91278c-0.83671,-0.53245 -1.2931,-0.91278 -1.2931,-0.91278c0,0 0.53245,0.38032 1.2931,0.91278z" id="Shape" fill="#d18b44"/><path d="M113.38781,189.98605c0.76065,0.22819 1.67342,0.38032 2.66226,0.60852c0.98884,0.15213 1.97768,0.38032 3.04259,0.60852c1.0649,0.22819 2.05375,0.45639 3.04259,0.60852c0.45639,0.07606 0.91278,0.15213 1.36916,0.22819c0.45639,0.07606 0.91278,0.07606 1.2931,0.15213c0.38032,0.07606 0.76065,0.07606 1.0649,0.15213c0.30426,0.07606 0.60852,0.07606 0.83671,0.07606c0.53245,0.07606 0.76065,0.07606 0.76065,0.07606c0,0 -0.30426,0.07606 -0.76065,0.07606c-0.22819,0 -0.53245,0 -0.83671,0c-0.30426,-0.07606 -0.68458,0 -1.0649,-0.07606c-0.83671,-0.07606 -1.74949,-0.15213 -2.73833,-0.30426c-0.98884,-0.15213 -1.97768,-0.30426 -3.04259,-0.53245c-1.0649,-0.22819 -2.05375,-0.45639 -3.04259,-0.68458c-0.91278,-0.22819 -1.82555,-0.45639 -2.5862,-0.68458c-1.52129,-0.45639 -2.51013,-0.83671 -2.51013,-0.83671c0,0 1.0649,0.22819 2.51013,0.53245z" id="Shape" fill="#d18b44"/><path d="M112.7793,186.41101c1.21703,0.15213 2.5862,0.30426 4.10749,0.53245c1.52129,0.22819 3.11865,0.45639 4.71601,0.60852c1.59736,0.22819 3.19471,0.38032 4.71601,0.53245c1.52129,0.15213 2.89046,0.30426 4.10749,0.38032c0.60852,0 1.21703,0.07606 1.67342,0.07606c0.53245,0.07606 0.91278,0.07606 1.2931,0.07606c0.76065,0 1.14097,0 1.14097,0c0,0 -0.45639,0 -1.14097,0.07606c-0.38032,0.07606 -0.83671,0.07606 -1.2931,0.07606c-0.53245,0 -1.0649,0 -1.67342,0c-1.21703,-0.07606 -2.5862,-0.07606 -4.10749,-0.22819c-1.52129,-0.07606 -3.11865,-0.30426 -4.71601,-0.45639c-1.59736,-0.22819 -3.19471,-0.45639 -4.71601,-0.68458c-1.44523,-0.22819 -2.81439,-0.45639 -4.03143,-0.68458c-2.358,-0.45639 -3.95536,-0.83671 -3.95536,-0.83671c0,0 1.59736,0.22819 3.8793,0.53245z" id="Shape" fill="#d18b44"/><path d="M110.87768,183.82481c1.14097,-0.15213 2.66226,-0.38032 4.56388,-0.60852c1.90162,-0.22819 4.10749,-0.38032 6.46549,-0.53245c1.21703,-0.07606 2.43407,-0.15213 3.6511,-0.15213c1.2931,0 2.51013,0 3.80323,0c1.2931,0.07606 2.5862,0.07606 3.80323,0.15213c1.21703,0.07606 2.43407,0.15213 3.6511,0.22819c1.21703,0 2.358,0.15213 3.42291,0.30426c0.53245,0 1.0649,0.07606 1.59736,0.15213c0.45639,0.07606 0.98884,0.15213 1.44523,0.22819c0.98884,0.15213 1.82555,0.22819 2.5862,0.38032c0.76065,0.15213 1.44523,0.30426 1.97768,0.38032c1.0649,0.15213 1.67342,0.30426 1.67342,0.30426c0,0 -0.68458,-0.07606 -1.74949,-0.22819c-0.53245,-0.07606 -1.21703,-0.15213 -1.97768,-0.30426c-0.76065,-0.07606 -1.67342,-0.22819 -2.5862,-0.30426c-0.45639,0 -0.91278,-0.07606 -1.44523,-0.15213c-0.53245,-0.07606 -1.0649,-0.07606 -1.59736,-0.15213c-1.14097,-0.07606 -2.20587,-0.15213 -3.42291,-0.22819c-1.21703,-0.07606 -2.43407,-0.22819 -3.6511,-0.22819c-1.21703,0 -2.43407,-0.07606 -3.72717,-0.07606c-1.21703,0 -2.51013,0 -3.72717,0c-1.21703,0 -2.43407,0.07606 -3.6511,0.07606c-2.358,0.07606 -4.56388,0.22819 -6.46549,0.38032c-3.72717,0.30426 -6.2373,0.68458 -6.2373,0.68458c0,0 0.68458,-0.15213 1.59736,-0.30426z" id="Shape" fill="#d18b44"/><path d="M115.82188,179.1088c1.2931,-0.22819 2.81439,-0.45639 4.48781,-0.68458c1.67342,-0.22819 3.49897,-0.38032 5.24846,-0.45639c0.91278,-0.07606 1.74949,-0.07606 2.66226,-0.07606c0.91278,-0.07606 1.74949,0 2.5862,0c0.83671,0 1.67342,0.07606 2.43407,0.15213c0.76065,0.07606 1.44523,0.15213 2.12981,0.22819c0.68458,0.07606 1.2931,0.15213 1.82555,0.22819c0.53245,0.07606 0.98884,0.15213 1.36916,0.22819c0.76065,0.15213 1.21703,0.22819 1.21703,0.22819c0,0 -0.45639,0 -1.21703,-0.07606c-0.38032,-0.07606 -0.83671,-0.07606 -1.36916,-0.15213c-0.53245,-0.07606 -1.14097,-0.07606 -1.82555,-0.15213c-0.60852,0 -1.36916,-0.07606 -2.12981,-0.07606c-0.76065,0 -1.59736,-0.07606 -2.43407,-0.07606c-0.83671,0 -1.74949,0 -2.5862,0c-0.91278,0 -1.74949,0 -2.66226,0.07606c-1.74949,0.07606 -3.49897,0.22819 -5.1724,0.38032c-1.59736,0.15213 -3.19471,0.30426 -4.48781,0.53245c-2.66226,0.38032 -4.41175,0.76065 -4.41175,0.76065c0,0 1.67342,-0.53245 4.33568,-1.0649z" id="Shape" fill="#d18b44"/><path d="M111.79046,178.27209c0.22819,-0.22819 0.53245,-0.53245 0.98884,-0.91278c0.45639,-0.30426 0.98884,-0.68458 1.67342,-1.14097c0.68458,-0.38032 1.44523,-0.83671 2.358,-1.21703c0.91278,-0.45639 1.90162,-0.68458 2.96652,-1.0649c0.53245,-0.07606 1.0649,-0.22819 1.67342,-0.38032c0.22819,-0.07606 0.53245,-0.15213 0.83671,-0.22819c0.30426,-0.07606 0.60852,-0.07606 0.91278,-0.15213c0.60852,-0.07606 1.21703,-0.15213 1.82555,-0.22819c0.60852,-0.07606 1.2931,-0.07606 1.90162,-0.15213c1.2931,-0.15213 2.5862,-0.07606 3.8793,-0.07606c1.2931,0 2.5862,0.22819 3.8793,0.30426c1.2931,0.07606 2.51013,0.30426 3.72717,0.53245c1.14097,0.22819 2.358,0.38032 3.42291,0.68458c1.0649,0.30426 2.12981,0.53245 3.04259,0.76065c0.98884,0.22819 1.82555,0.53245 2.5862,0.76065c0.76065,0.22819 1.44523,0.45639 1.97768,0.60852c1.0649,0.30426 1.67342,0.53245 1.67342,0.53245c0,0 -0.68458,-0.15213 -1.74949,-0.45639c-0.53245,-0.15213 -1.21703,-0.30426 -1.97768,-0.53245c-0.76065,-0.15213 -1.59736,-0.45639 -2.5862,-0.60852c-0.91278,-0.15213 -1.97768,-0.38032 -3.04259,-0.60852c-1.0649,-0.30426 -2.20587,-0.38032 -3.42291,-0.60852c-1.21703,-0.15213 -2.43407,-0.38032 -3.72717,-0.45639c-1.2931,-0.07606 -2.5862,-0.22819 -3.8793,-0.22819c-1.2931,0 -2.5862,-0.07606 -3.8793,0c-0.68458,0 -1.2931,0.07606 -1.90162,0.07606c-0.60852,0.07606 -1.21703,0.15213 -1.82555,0.22819c-0.30426,0.07606 -0.60852,0.07606 -0.91278,0.15213c-0.30426,0 -0.53245,0.07606 -0.83671,0.15213c-0.60852,0.15213 -1.14097,0.30426 -1.67342,0.38032c-1.0649,0.38032 -2.05375,0.60852 -2.96652,0.98884c-0.91278,0.30426 -1.74949,0.76065 -2.43407,1.0649c-0.68458,0.38032 -1.2931,0.68458 -1.74949,1.0649c-0.45639,0.30426 -0.76065,0.60852 -0.98884,0.83671c-0.22819,0.15213 -0.30426,0.30426 -0.30426,0.30426c0,0 0.15213,-0.15213 0.53245,-0.38032z" id="Shape" fill="#d18b44"/><path d="M161.3846,180.17371c-0.60852,-0.30426 -1.52129,-0.68458 -2.358,-1.0649c-0.83671,-0.38032 -1.74949,-0.68458 -2.43407,-0.91278c-0.38032,-0.07606 -0.60852,-0.15213 -0.83671,-0.22819c-0.15213,0 -0.30426,-0.07606 -0.30426,-0.07606c0,0 0.07606,0 0.30426,0c0.15213,0 0.45639,0 0.83671,0.07606c0.38032,0 0.76065,0.07606 1.21703,0.22819c0.45639,0.07606 0.91278,0.30426 1.36916,0.45639c0.83671,0.38032 1.67342,0.83671 2.28194,1.2931c0.60852,0.38032 0.91278,0.76065 0.91278,0.76065c0,0 -0.38032,-0.22819 -0.98884,-0.53245z" id="Shape" fill="#d18b44"/><path d="M157.27711,182.15139c-1.36916,-0.30426 -3.11865,-0.76065 -4.86814,-1.14097c-0.91278,-0.22819 -1.74949,-0.38032 -2.5862,-0.60852c-0.83671,-0.15213 -1.59736,-0.38032 -2.28194,-0.53245c-1.2931,-0.38032 -2.20587,-0.60852 -2.20587,-0.60852c0,0 0.91278,0.07606 2.28194,0.30426c0.68458,0.15213 1.44523,0.30426 2.28194,0.45639c0.83671,0.22819 1.67342,0.38032 2.5862,0.60852c0.91278,0.22819 1.74949,0.45639 2.5862,0.68458c0.76065,0.22819 1.52129,0.45639 2.20587,0.68458c1.2931,0.38032 2.12981,0.76065 2.12981,0.76065c0,0 -0.91278,-0.15213 -2.12981,-0.60852z" id="Shape" fill="#d18b44"/><path d="M164.65538,178.19603c-4.71601,5.32452 -1.52129,13.08312 1.59736,16.20177c-4.9442,-3.8793 -7.75859,-10.95331 -1.59736,-16.20177z" id="Shape" fill="#db4570"/></g><g id="Group"><path d="M182.75876,184.73759c0,0 8.74743,0.07606 20.61352,0.22819c4.33568,0.07606 6.92188,-0.53245 11.86608,-0.45639c23.12365,0.22819 51.87608,0.91278 54.00589,0.45639c3.42291,-0.76065 14.8326,0.15213 17.03848,0.15213c2.20587,0 20.38532,-1.0649 21.45023,-0.83671c1.0649,0.15213 0.22819,3.6511 0.22819,3.6511c0,0 -13.38738,0.38032 -17.95125,0.83671c-4.56388,0.38032 -13.46344,0.53245 -19.09222,0.83671c-4.25962,0.22819 -42.13981,0.22819 -67.08901,-0.22819c-12.4746,-0.22819 -21.52629,-0.98884 -21.52629,-0.98884c-0.83671,-1.74949 0.45639,-3.6511 0.45639,-3.6511z" id="Shape" fill="#694932"/><path d="M256.99784,187.62804c1.44523,0.15213 3.19471,0.30426 5.09633,0.45639c0.91278,0.07606 1.90162,0.15213 2.89046,0.22819c0.98884,0.07606 1.97768,0.07606 2.96652,0.07606c8.06285,-0.22819 16.04964,-0.53245 16.04964,-0.53245c0,0 -2.05375,0.15213 -5.02027,0.38032c-3.04259,0.15213 -6.99795,0.38032 -11.02937,0.53245c-2.05375,0.07606 -4.03143,-0.15213 -5.93304,-0.30426c-1.82555,-0.15213 -3.57504,-0.38032 -5.09633,-0.53245c-1.44523,-0.15213 -2.73833,-0.30426 -3.57504,-0.45639c-0.83671,-0.15213 -1.36916,-0.22819 -1.36916,-0.22819c0,0 2.05375,0.15213 5.02027,0.38032z" id="Shape" fill="#4f3726"/><path d="M262.01811,187.24772c0.76065,0 1.82555,0 2.81439,0c1.0649,0 2.05375,-0.07606 2.81439,-0.07606c0.76065,-0.07606 1.2931,-0.07606 1.2931,-0.07606c0,0 -0.53245,0.15213 -1.2931,0.30426c-0.76065,0.15213 -1.74949,0.22819 -2.81439,0.22819c-0.98884,0 -2.05375,-0.07606 -2.81439,-0.15213c-0.76065,-0.15213 -1.2931,-0.22819 -1.2931,-0.22819c0,0 0.53245,0 1.2931,0z" id="Shape" fill="#4f3726"/><path d="M274.03632,186.10675c0.53245,0 1.21703,-0.07606 1.90162,-0.07606c0.68458,-0.07606 1.44523,-0.07606 2.20587,-0.07606c0.76065,0 1.52129,0 2.20587,0c0.68458,0 1.36916,0.07606 1.90162,0.07606c1.14097,0.07606 1.90162,0.22819 1.90162,0.22819c0,0 -3.04259,0.07606 -6.00911,0.07606c-0.76065,0 -1.52129,0 -2.20587,0c-0.68458,0 -1.36916,0 -1.90162,0c-1.14097,-0.07606 -1.90162,-0.07606 -1.90162,-0.07606c0,0 0.76065,-0.07606 1.90162,-0.15213z" id="Shape" fill="#4f3726"/><path d="M284.00079,186.8674c0.98884,0 2.20587,0 3.49897,0c1.2931,0 2.66226,-0.07606 4.03143,-0.15213c2.73833,-0.15213 5.55272,-0.15213 7.60646,-0.15213c2.05375,0 3.42291,0.07606 3.42291,0.07606c0,0 -1.36916,0.07606 -3.42291,0.15213c-0.98884,0.07606 -2.20587,0.07606 -3.49897,0.15213c-1.2931,0.07606 -2.66226,0.15213 -4.03143,0.22819c-2.73833,0.15213 -5.55272,0.07606 -7.60646,0c-2.05375,-0.15213 -3.42291,-0.22819 -3.42291,-0.22819c0,0 1.36916,0 3.42291,-0.07606z" id="Shape" fill="#4f3726"/><path d="M303.47334,185.5743c-0.60852,0 -1.36916,0.07606 -2.12981,0.07606c-0.76065,0 -1.59736,0.07606 -2.43407,0.07606c-0.83671,0.07606 -1.67342,0.07606 -2.43407,0.07606c-0.76065,0 -1.52129,0 -2.12981,0c-0.60852,0 -1.14097,0 -1.52129,0c-0.38032,0 -0.60852,0 -0.60852,0c0,0 0.15213,0 0.53245,-0.07606c0.38032,0 0.91278,-0.07606 1.52129,-0.15213c0.60852,-0.07606 1.36916,-0.15213 2.12981,-0.15213c0.76065,0 1.59736,-0.07606 2.43407,-0.07606c0.83671,0 1.67342,0 2.43407,0c0.76065,0 1.52129,0 2.12981,0c1.21703,0 2.05375,0.07606 2.05375,0.07606c0,0 -0.83671,0.07606 -1.97768,0.15213z" id="Shape" fill="#4f3726"/><path d="M287.95615,188.00837c-0.22819,0.07606 -0.53245,0.07606 -0.91278,0.07606c-0.30426,0 -0.68458,-0.07606 -0.91278,-0.07606c-0.30426,0 -0.45639,-0.07606 -0.45639,-0.07606c0,0 0.22819,-0.07606 0.45639,-0.07606c0.22819,-0.07606 0.53245,-0.07606 0.91278,-0.07606c0.30426,0 0.68458,0.07606 0.91278,0.07606c0.30426,0.07606 0.45639,0.07606 0.45639,0.07606c0,0 -0.15213,0 -0.45639,0.07606z" id="Shape" fill="#4f3726"/><path d="M289.32531,186.03069c-0.22819,0.07606 -0.45639,0.07606 -0.76065,0.07606c-0.30426,0 -0.53245,-0.07606 -0.76065,-0.07606c-0.22819,0 -0.38032,-0.07606 -0.38032,-0.07606c0,0 0.15213,-0.07606 0.38032,-0.07606c0.22819,-0.07606 0.45639,-0.07606 0.76065,-0.07606c0.30426,0 0.53245,0.07606 0.76065,0.07606c0.22819,0.07606 0.38032,0.07606 0.38032,0.07606c0,0 -0.15213,0.07606 -0.38032,0.07606z" id="Shape" fill="#4f3726"/><path d="M273.57993,187.32378c-0.30426,0.07606 -0.76065,0.07606 -1.21703,0.07606c-0.45639,0 -0.91278,-0.07606 -1.21703,-0.07606c-0.30426,0 -0.53245,-0.07606 -0.53245,-0.07606c0,0 0.22819,-0.07606 0.53245,-0.07606c0.30426,-0.07606 0.76065,-0.07606 1.21703,-0.07606c0.45639,0 0.91278,0.07606 1.21703,0.07606c0.30426,0.07606 0.53245,0.07606 0.53245,0.07606c0,0 -0.22819,0 -0.53245,0.07606z" id="Shape" fill="#4f3726"/><path d="M258.21488,187.09559c-0.22819,0 -0.45639,-0.07606 -0.68458,-0.07606c-0.30426,-0.07606 -0.53245,-0.07606 -0.68458,-0.15213c-0.15213,0 -0.30426,-0.07606 -0.30426,-0.07606c0,0 0.15213,0 0.30426,0c0.22819,0 0.45639,0.07606 0.68458,0.07606c0.30426,0.07606 0.53245,0.07606 0.68458,0.15213c0.15213,0 0.30426,0.07606 0.30426,0.07606c0,0 -0.15213,0 -0.30426,0z" id="Shape" fill="#4f3726"/><path d="M252.20577,186.25888c0.22819,0 0.60852,0 0.91278,0.07606c0.38032,0.07606 0.68458,0.15213 0.91278,0.22819c0.22819,0.07606 0.38032,0.15213 0.38032,0.15213c0,0 -0.22819,0 -0.45639,0c-0.22819,0 -0.60852,0 -0.91278,-0.07606c-0.38032,-0.07606 -0.68458,-0.15213 -0.91278,-0.22819c-0.22819,-0.07606 -0.38032,-0.15213 -0.38032,-0.15213c0,0 0.15213,0 0.45639,0z" id="Shape" fill="#4f3726"/><path d="M305.98347,186.94346c-0.15213,0.07606 -0.38032,0.07606 -0.60852,0.07606c-0.22819,0 -0.45639,-0.07606 -0.60852,-0.07606c-0.22819,0 -0.30426,-0.07606 -0.30426,-0.07606c0,0 0.15213,-0.07606 0.30426,-0.07606c0.15213,-0.07606 0.38032,-0.07606 0.60852,-0.07606c0.22819,0 0.45639,0 0.53245,0c0.22819,0.07606 0.30426,0.07606 0.30426,0.07606c0,0 -0.07606,0.07606 -0.22819,0.15213z" id="Shape" fill="#4f3726"/><path d="M262.17024,186.33494c0.98884,0 2.28194,-0.07606 3.6511,-0.15213c1.2931,-0.07606 2.66226,-0.22819 3.6511,-0.38032c0.53245,-0.07606 0.91278,-0.07606 1.21703,-0.15213c0.30426,-0.07606 0.45639,-0.07606 0.45639,-0.07606c0,0 -0.15213,0.07606 -0.45639,0.15213c-0.30426,0.07606 -0.68458,0.22819 -1.21703,0.30426c-0.45639,0.07606 -1.0649,0.22819 -1.67342,0.30426c-0.60852,0.07606 -1.2931,0.15213 -1.97768,0.22819c-1.36916,0.07606 -2.73833,0 -3.72717,-0.07606c-0.98884,-0.07606 -1.67342,-0.22819 -1.67342,-0.22819c0,0 0.68458,0 1.74949,0.07606z" id="Shape" fill="#4f3726"/><path d="M281.79491,184.66152c1.82555,0 4.25962,0 6.61762,0c1.21703,0 2.358,0 3.49897,0c1.0649,-0.07606 2.12981,-0.07606 3.04259,-0.07606c0.83671,0 1.59736,-0.07606 2.12981,-0.07606c0.53245,-0.07606 0.83671,-0.07606 0.83671,-0.07606c0,0 -0.30426,0.07606 -0.98884,0.07606c-0.22819,0.07606 -0.53245,0.07606 -0.91278,0.15213c-0.38032,0.07606 -0.76065,0.15213 -1.21703,0.15213c-0.83671,0.07606 -1.90162,0.15213 -3.04259,0.15213c-1.0649,0.07606 -2.28194,0.07606 -3.49897,0.07606c-1.14097,-0.07606 -2.358,-0.07606 -3.49897,-0.07606c-1.0649,0 -2.12981,-0.07606 -3.04259,-0.07606c-1.74949,-0.07606 -2.96652,-0.15213 -2.96652,-0.15213c0,0 1.21703,0 3.04259,-0.07606z" id="Shape" fill="#4f3726"/><path d="M246.42486,188.1605c-2.12981,-0.15213 -4.56388,-0.30426 -7.15008,-0.38032c-1.2931,0 -2.66226,0.07606 -4.03143,0.15213c-1.36916,0.07606 -2.81439,0.07606 -4.18355,0.07606c-5.62878,0 -11.1815,-0.22819 -15.36506,-0.38032c-4.18355,-0.22819 -6.99795,-0.38032 -6.99795,-0.38032c0,0 2.81439,0.07606 6.99795,0.15213c2.05375,0.07606 4.56388,0.07606 7.15008,0.15213c2.66226,0 5.40059,0.07606 8.21498,0.07606c1.44523,0 2.81439,0 4.18355,-0.07606c1.36916,-0.07606 2.73833,-0.15213 4.03143,-0.07606c2.66226,0.07606 5.09633,0.22819 7.15008,0.45639c2.05375,0.22819 3.80323,0.45639 5.02027,0.60852c1.21703,0.15213 1.90162,0.22819 1.90162,0.22819c0,0 -2.73833,-0.30426 -6.92188,-0.60852z" id="Shape" fill="#4f3726"/><path d="M215.39049,186.56314c-1.44523,0 -3.19471,-0.07606 -5.02027,-0.07606c-0.91278,0 -1.82555,0 -2.81439,0c-0.91278,0 -1.90162,0 -2.89046,0.07606c-0.98884,0 -1.97768,0.07606 -2.89046,0.22819c-0.91278,0.15213 -1.82555,0.45639 -2.73833,0.60852c-1.82555,0.30426 -3.57504,0.30426 -5.02027,0.22819c-1.52129,0 -2.73833,-0.15213 -3.57504,-0.22819c-0.91278,-0.07606 -1.36916,-0.15213 -1.36916,-0.15213c0,0 1.90162,0.22819 4.86814,0.22819c1.44523,0 3.11865,0 4.9442,-0.30426c0.83671,-0.07606 1.74949,-0.45639 2.73833,-0.60852c0.98884,-0.15213 1.97768,-0.22819 2.96652,-0.30426c3.95536,-0.15213 7.83466,0 10.80118,0.15213c2.89046,0.22819 4.86814,0.38032 4.86814,0.38032c0,0 -1.97768,-0.07606 -4.86814,-0.22819z" id="Shape" fill="#4f3726"/><path d="M205.27389,188.00837c-0.30426,0.07606 -0.60852,0.07606 -0.98884,0.15213c-0.30426,0.07606 -0.68458,0.07606 -1.0649,0.15213c-0.38032,0 -0.76065,0.07606 -1.14097,0.07606c-0.38032,0 -0.68458,0 -0.98884,0c-0.53245,0 -0.91278,-0.07606 -0.91278,-0.07606c0,0 0.38032,-0.07606 0.91278,-0.15213c0.30426,-0.07606 0.60852,-0.15213 0.98884,-0.15213c0.30426,0 0.68458,-0.07606 1.0649,-0.07606c0.30426,0 0.68458,-0.07606 1.0649,-0.07606c0.38032,0 0.68458,0 0.98884,0c0.53245,0 0.91278,0 0.91278,0c0,0 -0.38032,0.07606 -0.83671,0.15213z" id="Shape" fill="#4f3726"/><path d="M195.53762,186.33494c-0.60852,0 -1.44523,0 -2.28194,0c-0.83671,0 -1.74949,0 -2.66226,0c-0.91278,0 -1.82555,0 -2.66226,0c-0.83671,0 -1.59736,0 -2.28194,0c-0.60852,0 -1.21703,0.07606 -1.59736,0.07606c-0.38032,0.07606 -0.60852,0.07606 -0.60852,0.07606c0,0 0.22819,-0.07606 0.60852,-0.15213c0.38032,-0.07606 0.91278,-0.15213 1.59736,-0.22819c0.60852,-0.07606 1.44523,-0.15213 2.28194,-0.15213c0.83671,0 1.74949,-0.07606 2.66226,-0.07606c0.91278,0 1.82555,0 2.66226,0c0.83671,0 1.59736,0.07606 2.28194,0.07606c1.36916,0.07606 2.28194,0.15213 2.28194,0.15213c0,0 -0.91278,0.07606 -2.28194,0.22819z" id="Shape" fill="#4f3726"/><path d="M223.5294,185.42217c0.60852,0.07606 1.2931,0.07606 1.97768,0.07606c0.76065,0 1.52129,0.07606 2.28194,0.07606c0.76065,0 1.59736,0.07606 2.28194,0.07606c0.76065,0 1.36916,0.07606 1.97768,0.07606c1.14097,0.07606 1.90162,0.15213 1.90162,0.15213c0,0 -0.76065,0.07606 -1.90162,0.07606c-0.60852,0 -1.2931,0 -1.97768,0c-0.76065,0 -1.52129,-0.07606 -2.28194,-0.07606c-0.76065,-0.07606 -1.59736,-0.07606 -2.28194,-0.15213c-0.76065,0 -1.36916,-0.07606 -1.97768,-0.15213c-1.14097,-0.15213 -1.90162,-0.22819 -1.90162,-0.22819c0,0 0.83671,0 1.90162,0.07606z" id="Shape" fill="#4f3726"/><path d="M234.78697,186.6392c0.53245,-0.07606 1.21703,-0.15213 1.90162,-0.22819c0.68458,-0.07606 1.44523,-0.07606 2.20587,-0.15213c0.76065,0 1.52129,0 2.20587,0c0.68458,0 1.36916,0 1.90162,0.07606c0.30426,0 0.53245,0 0.76065,0.07606c0.22819,0 0.45639,0 0.60852,0.07606c0.38032,0.07606 0.53245,0.15213 0.53245,0.15213c0,0 -0.22819,0 -0.53245,-0.07606c-0.15213,-0.07606 -0.38032,-0.07606 -0.60852,-0.07606c-0.22819,0 -0.45639,0 -0.76065,0c-0.53245,0 -1.21703,0 -1.90162,0c-0.68458,0 -1.44523,0.07606 -2.20587,0.07606c-0.76065,0 -1.52129,0 -2.20587,0.07606c-0.68458,0 -1.36916,0.07606 -1.90162,0.07606c-1.14097,0.07606 -1.90162,0.07606 -1.90162,0.07606c0,0 0.76065,-0.15213 1.90162,-0.15213z" id="Shape" fill="#4f3726"/><path d="M237.5253,185.72643c-0.15213,0.07606 -0.45639,0.07606 -0.76065,0.07606c-0.22819,0 -0.53245,-0.07606 -0.76065,-0.07606c-0.22819,-0.07606 -0.38032,-0.07606 -0.38032,-0.07606c0,0 0.15213,-0.07606 0.38032,-0.07606c0.15213,-0.07606 0.45639,-0.07606 0.76065,-0.07606c0.22819,0 0.53245,0.07606 0.76065,0.07606c0.22819,0.07606 0.38032,0.07606 0.38032,0.07606c0,0 -0.15213,0 -0.38032,0.07606z" id="Shape" fill="#4f3726"/><path d="M237.90562,188.92114c-0.22819,0.07606 -0.53245,0.07606 -0.83671,0.07606c-0.30426,0 -0.60852,0 -0.83671,0c-0.22819,-0.07606 -0.38032,-0.07606 -0.38032,-0.07606c0,0 0.15213,-0.07606 0.38032,-0.07606c0.22819,-0.07606 0.53245,-0.07606 0.83671,-0.07606c0.30426,0 0.60852,0.07606 0.83671,0.07606c0.22819,0.07606 0.38032,0.07606 0.38032,0.07606c0,0 -0.15213,0 -0.38032,0z" id="Shape" fill="#4f3726"/><path d="M224.97463,186.71527c-0.15213,0.07606 -0.45639,0.07606 -0.76065,0.07606c-0.22819,0 -0.53245,-0.07606 -0.76065,-0.07606c-0.22819,-0.07606 -0.38032,-0.07606 -0.38032,-0.07606c0,0 0.15213,-0.07606 0.38032,-0.07606c0.15213,-0.07606 0.45639,-0.07606 0.76065,-0.07606c0.22819,0 0.53245,0.07606 0.76065,0.07606c0.22819,0.07606 0.38032,0.07606 0.38032,0.07606c0,0 -0.15213,0 -0.38032,0.07606z" id="Shape" fill="#4f3726"/><path d="M201.09034,185.95462c-0.15213,0.07606 -0.45639,0.07606 -0.76065,0.07606c-0.22819,0 -0.53245,-0.07606 -0.76065,-0.07606c-0.22819,-0.07606 -0.38032,-0.07606 -0.38032,-0.07606c0,0 0.15213,-0.07606 0.38032,-0.07606c0.15213,-0.07606 0.45639,-0.07606 0.76065,-0.07606c0.22819,0 0.53245,0.07606 0.76065,0.07606c0.22819,0.07606 0.38032,0.07606 0.38032,0.07606c0,0 -0.15213,0 -0.38032,0.07606z" id="Shape" fill="#4f3726"/><path d="M220.63895,188.92114c-0.68458,0 -1.52129,-0.07606 -2.358,-0.07606c-0.83671,0 -1.74949,-0.07606 -2.66226,-0.07606c-3.6511,-0.22819 -7.3022,-0.38032 -7.3022,-0.38032c0,0 0.91278,-0.07606 2.28194,-0.07606c0.68458,0 1.52129,0 2.358,0c0.83671,0 1.74949,0.07606 2.66226,0.07606c0.91278,0.07606 1.82555,0.07606 2.66226,0.15213c0.91278,0 1.67342,0.07606 2.358,0.15213c1.36916,0.07606 2.28194,0.22819 2.28194,0.22819c0,0 -0.91278,0 -2.28194,0z" id="Shape" fill="#4f3726"/><path d="M246.34879,186.03069c-1.0649,-0.15213 -2.12981,-0.30426 -2.89046,-0.38032c-0.45639,0 -0.76065,-0.07606 -0.98884,-0.07606c-0.22819,-0.07606 -0.38032,-0.07606 -0.38032,-0.07606c0,0 0.53245,-0.07606 1.2931,-0.07606c0.38032,0.07606 0.83671,0.07606 1.36916,0.07606c0.45639,0 0.98884,0.07606 1.52129,0.15213c1.0649,0.15213 2.12981,0.38032 2.89046,0.60852c0.83671,0.15213 1.2931,0.38032 1.2931,0.38032c0,0 -2.12981,-0.30426 -4.10749,-0.60852z" id="Shape" fill="#4f3726"/><path d="M218.88946,185.87856c-0.76065,0 -1.74949,0 -2.81439,-0.07606c-0.98884,0 -2.05375,-0.07606 -2.81439,-0.15213c-0.76065,0 -1.2931,-0.07606 -1.2931,-0.07606c0,0 0.53245,-0.07606 1.2931,-0.15213c0.83671,-0.07606 1.82555,-0.07606 2.89046,0c0.98884,0 2.05375,0.15213 2.81439,0.22819c0.76065,0.15213 1.2931,0.22819 1.2931,0.22819c0,0 -0.53245,0 -1.36916,0z" id="Shape" fill="#4f3726"/><path d="M189.83277,188.23656c-0.60852,-0.07606 -1.52129,-0.15213 -2.43407,-0.22819c-0.91278,-0.07606 -1.74949,-0.22819 -2.43407,-0.30426c-0.68458,-0.07606 -1.14097,-0.15213 -1.14097,-0.15213c0,0 0.45639,0 1.14097,0c0.68458,0 1.59736,0.07606 2.51013,0.15213c0.91278,0.07606 1.74949,0.22819 2.43407,0.38032c0.68458,0.07606 1.14097,0.22819 1.14097,0.22819c0,0 -0.45639,0 -1.21703,-0.07606z" id="Shape" fill="#4f3726"/></g></g></g></svg>