<svg version="1.1" xmlns="http://www.w3.org/2000/svg" xmlns:xlink="http://www.w3.org/1999/xlink" width="140.91276" height="108.581" viewBox="0,0,140.91276,108.581"><defs><linearGradient x1="200.06062" y1="134.644" x2="200.06062" y2="220.586" gradientUnits="userSpaceOnUse" id="color-1"><stop offset="0" stop-color="#c8bec0"/><stop offset="1" stop-color="#ffffff"/></linearGradient><linearGradient x1="212.4525" y1="189.503" x2="212.4525" y2="204.236" gradientUnits="userSpaceOnUse" id="color-2"><stop offset="0" stop-color="#f0d2e2"/><stop offset="1" stop-color="#ffffff"/></linearGradient><linearGradient x1="181.0865" y1="152.551" x2="181.0865" y2="170.219" gradientUnits="userSpaceOnUse" id="color-3"><stop offset="0" stop-color="#f0d2e2"/><stop offset="1" stop-color="#ffffff"/></linearGradient><linearGradient x1="196.8445" y1="164.05" x2="196.8445" y2="198.906" gradientUnits="userSpaceOnUse" id="color-4"><stop offset="0" stop-color="#f0d2e2"/><stop offset="1" stop-color="#ffffff"/></linearGradient><linearGradient x1="197.3835" y1="131.769" x2="197.3835" y2="188.605" gradientUnits="userSpaceOnUse" id="color-5"><stop offset="0" stop-color="#82787a"/><stop offset="1" stop-color="#ffffff"/></linearGradient><linearGradient x1="278.72829" y1="137.405" x2="278.72829" y2="218.018" gradientUnits="userSpaceOnUse" id="color-6"><stop offset="0" stop-color="#c8bec0"/><stop offset="1" stop-color="#ffffff"/></linearGradient><linearGradient x1="265.5805" y1="191.606" x2="265.5805" y2="202.087" gradientUnits="userSpaceOnUse" id="color-7"><stop offset="0" stop-color="#f0d2e2"/><stop offset="1" stop-color="#ffffff"/></linearGradient><linearGradient x1="302.2785" y1="149.384" x2="302.2785" y2="165.075" gradientUnits="userSpaceOnUse" id="color-8"><stop offset="0" stop-color="#f0d2e2"/><stop offset="1" stop-color="#ffffff"/></linearGradient><linearGradient x1="278.642" y1="164.655" x2="278.642" y2="195.978" gradientUnits="userSpaceOnUse" id="color-9"><stop offset="0" stop-color="#f0d2e2"/><stop offset="1" stop-color="#ffffff"/></linearGradient><linearGradient x1="285.48152" y1="135.01" x2="285.48152" y2="185.138" gradientUnits="userSpaceOnUse" id="color-10"><stop offset="0" stop-color="#82787a"/><stop offset="1" stop-color="#ffffff"/></linearGradient><linearGradient x1="217.635" y1="193.354" x2="217.635" y2="222.88" gradientUnits="userSpaceOnUse" id="color-11"><stop offset="0" stop-color="#3c3234"/><stop offset="1" stop-color="#ffffff"/></linearGradient><linearGradient x1="262.48014" y1="197.487" x2="262.48014" y2="221.742" gradientUnits="userSpaceOnUse" id="color-12"><stop offset="0" stop-color="#3c3234"/><stop offset="1" stop-color="#ffffff"/></linearGradient><linearGradient x1="232.2075" y1="119.289" x2="232.2075" y2="122.583" gradientUnits="userSpaceOnUse" id="color-13"><stop offset="0" stop-color="#645a5c"/><stop offset="1" stop-color="#ffffff"/></linearGradient><linearGradient x1="230.79826" y1="119.828" x2="230.79826" y2="123.062" gradientUnits="userSpaceOnUse" id="color-14"><stop offset="0" stop-color="#645a5c"/><stop offset="1" stop-color="#ffffff"/></linearGradient><linearGradient x1="233.21394" y1="119.98548" x2="233.21394" y2="123.002" gradientUnits="userSpaceOnUse" id="color-15"><stop offset="0" stop-color="#645a5c"/><stop offset="1" stop-color="#ffffff"/></linearGradient><linearGradient x1="226.49236" y1="121.565" x2="226.49236" y2="177.802" gradientUnits="userSpaceOnUse" id="color-16"><stop offset="0" stop-color="#645a5c"/><stop offset="1" stop-color="#ffffff"/></linearGradient><linearGradient x1="226.49261" y1="128.273" x2="226.49261" y2="167.86" gradientUnits="userSpaceOnUse" id="color-17"><stop offset="0" stop-color="#3c3234"/><stop offset="1" stop-color="#ffffff"/></linearGradient><linearGradient x1="245.20198" y1="114.299" x2="245.20198" y2="117.534" gradientUnits="userSpaceOnUse" id="color-18"><stop offset="0" stop-color="#645a5c"/><stop offset="1" stop-color="#ffffff"/></linearGradient><linearGradient x1="244.06629" y1="115.138" x2="244.06629" y2="118.252" gradientUnits="userSpaceOnUse" id="color-19"><stop offset="0" stop-color="#645a5c"/><stop offset="1" stop-color="#ffffff"/></linearGradient><linearGradient x1="246.44732" y1="114.719" x2="246.44732" y2="117.953" gradientUnits="userSpaceOnUse" id="color-20"><stop offset="0" stop-color="#645a5c"/><stop offset="1" stop-color="#ffffff"/></linearGradient><linearGradient x1="250.65085" y1="116.56233" x2="250.65085" y2="181.017" gradientUnits="userSpaceOnUse" id="color-21"><stop offset="0" stop-color="#645a5c"/><stop offset="1" stop-color="#ffffff"/></linearGradient><linearGradient x1="250.26774" y1="122.64311" x2="250.26774" y2="171.734" gradientUnits="userSpaceOnUse" id="color-22"><stop offset="0" stop-color="#3c3234"/><stop offset="1" stop-color="#ffffff"/></linearGradient><linearGradient x1="239.16227" y1="155.90704" x2="239.16227" y2="219.15247" gradientUnits="userSpaceOnUse" id="color-23"><stop offset="0" stop-color="#645a5c"/><stop offset="1" stop-color="#ffffff"/></linearGradient><linearGradient x1="238.55878" y1="162.62" x2="238.55878" y2="174.32782" gradientUnits="userSpaceOnUse" id="color-24"><stop offset="0" stop-color="#9214f0"/><stop offset="1" stop-color="#ffffff"/></linearGradient><linearGradient x1="243.93914" y1="165.54914" x2="243.93914" y2="170.95122" gradientUnits="userSpaceOnUse" id="color-25"><stop offset="0" stop-color="#401e6e"/><stop offset="1" stop-color="#ffffff"/></linearGradient><linearGradient x1="233.34411" y1="165.54914" x2="233.34411" y2="170.95122" gradientUnits="userSpaceOnUse" id="color-26"><stop offset="0" stop-color="#401e6e"/><stop offset="1" stop-color="#ffffff"/></linearGradient><linearGradient x1="239.13457" y1="175.676" x2="239.13457" y2="189.58757" gradientUnits="userSpaceOnUse" id="color-27"><stop offset="0" stop-color="#1a1a1a"/><stop offset="1" stop-color="#ffffff"/></linearGradient><linearGradient x1="242.558" y1="175.676" x2="242.558" y2="179.988" gradientUnits="userSpaceOnUse" id="color-28"><stop offset="0" stop-color="#ffffff"/><stop offset="1" stop-color="#ffffff"/></linearGradient><linearGradient x1="235.25648" y1="176.215" x2="235.25648" y2="180.707" gradientUnits="userSpaceOnUse" id="color-29"><stop offset="0" stop-color="#ffffff"/><stop offset="1" stop-color="#ffffff"/></linearGradient><linearGradient x1="222.92809" y1="166.273" x2="222.92809" y2="170.465" gradientUnits="userSpaceOnUse" id="color-30"><stop offset="0" stop-color="#1a1a1a"/><stop offset="1" stop-color="#ffffff"/></linearGradient><linearGradient x1="254.212" y1="165.015" x2="254.212" y2="170.47713" gradientUnits="userSpaceOnUse" id="color-31"><stop offset="0" stop-color="#1a1a1a"/><stop offset="1" stop-color="#ffffff"/></linearGradient></defs><g transform="translate(-172.06124,-114.299)"><g data-paper-data="{&quot;isPaintingLayer&quot;:true}" fill="none" fill-rule="nonzero" stroke="none" stroke-width="1" stroke-linecap="butt" stroke-linejoin="miter" stroke-miterlimit="10" stroke-dasharray="" stroke-dashoffset="0" font-family="none" font-weight="none" font-size="none" text-anchor="none" style="mix-blend-mode: normal"><g><g data-paper-data="{&quot;index&quot;:null}" id="Group"><path d="M207.21,220.586c0,0 -0.959,-12.696 -5.872,-16.889c-4.913,-4.192 -14.26,-4.791 -14.26,-4.791c0,0 -0.899,-11.379 -3.355,-18.686c-1.558,-4.491 -3.415,-10.66 -9.407,-10.001c-3.116,-11.32 -2.337,-24.016 -1.558,-35.575c-0.12,2.036 4.194,5.27 5.512,6.648c0.719,0.778 5.692,5.33 5.273,6.228c0.36,0.779 44.278,40.366 44.517,41.085z" id="Path" fill="url(#color-1)"/><path d="M201.937,204.236l20.731,-14.733l0.3,6.768l-21.031,7.965" id="Path" fill="url(#color-2)"/><path d="M174.376,170.219l9.167,-17.668l4.254,4.432l-13.421,13.236" id="Path" fill="url(#color-3)"/><path d="M187.138,198.906l13.301,-34.856l6.112,9.882l-19.413,24.974" id="Path" fill="url(#color-4)"/><path d="M221.949,172.135c0,0 -0.3,11.559 -1.498,16.47c-1.917,-0.18 -14.859,-12.038 -16.956,-13.835c-4.014,-3.413 -7.789,-7.246 -11.504,-10.96c-4.194,-4.192 -7.909,-9.163 -11.444,-14.014c-2.996,-4.192 -7.25,-10.361 -7.729,-15.571c0.539,0.419 1.678,3.952 2.636,3.234c0.959,-0.719 -1.497,-3.893 -1.438,-5.031c0.54,0.419 2.697,4.013 3.476,3.593c0.479,-0.598 -1.498,-3.533 -1.498,-4.252c0.958,0.06 2.876,3.354 3.475,4.073c1.677,2.096 3.475,4.192 5.212,6.288c3.356,3.893 6.531,7.786 10.426,11.14c4.254,3.653 8.388,7.546 12.942,10.84c4.553,3.294 13.9,8.025 13.9,8.025z" id="Path" fill="url(#color-5)"/></g><g data-paper-data="{&quot;index&quot;:null}" id="Group"><path d="M310.577,165.135c-2.337,0.658 -11.324,5.09 -14.679,10.48c-5.333,8.505 -4.913,19.285 -5.692,20.363c-1.618,0.659 -13.182,-2.156 -16.597,6.109c-3.415,8.325 0,15.931 0,15.931c0,0 -24.805,-6.109 -29.059,-9.403l8.508,-30.664l31.755,-14.613c0,0 24.566,-21.68 28.041,-25.933c0.359,4.612 -1.199,23.477 -2.277,27.73z" id="Path" fill="url(#color-6)"/><path d="M273.669,202.087l-16.177,-6.109l2.996,-4.372l13.181,10.481" id="Path" fill="url(#color-7)"/><path d="M310.577,165.075l-16.597,-10.361l4.614,-5.33l11.983,15.691" id="Path" fill="url(#color-8)"/><path d="M290.266,195.978l-23.248,-24.675l8.688,-6.648l14.56,31.323" id="Path" fill="url(#color-9)"/><path d="M259.289,185.138c-0.659,-1.557 -1.498,-13.236 -1.258,-14.374c10.425,-4.072 20.132,-10.181 29.359,-16.41c4.254,-2.934 8.208,-6.228 11.923,-9.822c3.175,-2.994 6.411,-7.306 10.186,-9.522c0.119,0.659 -1.978,2.455 -1.558,2.994c0.419,0.539 3.055,-2.036 3.894,-2.515c0,0.779 -2.876,3.414 -2.037,4.013c0.839,0.599 2.696,-1.797 3.176,-2.097c-1.678,4.133 -4.973,7.966 -7.729,11.38c-3.955,4.851 -7.969,9.522 -12.763,13.535c-8.567,7.187 -22.168,20.183 -33.193,22.818z" id="Path" fill="url(#color-10)"/></g><path d="M229.738,209.225c-0.719,0.42 -11.384,6.708 -13.062,7.666c-3.115,1.857 -5.991,4.252 -9.167,5.989c-1.138,-0.838 -1.438,-3.533 -1.977,-4.731l0.12,-0.359l0.419,-0.06c0.42,0.778 0.779,1.497 1.019,2.335c2.516,-2.695 15.159,-26.711 15.159,-26.711c0,0 6.65,15.332 7.489,15.871z" data-paper-data="{&quot;index&quot;:null}" id="Path" fill="url(#color-11)"/><path d="M271.559,221.742c-7.669,-2.216 -15.099,-5.21 -22.229,-8.863c-0.179,-0.3 8.568,-15.392 8.568,-15.392l15.219,19.823c0,0 0.779,-3.353 2.337,-3.473l0.179,0.359c-1.018,2.336 -2.097,5.809 -4.074,7.546z" data-paper-data="{&quot;index&quot;:null}" id="Path" fill="url(#color-12)"/><g data-paper-data="{&quot;index&quot;:null,&quot;origPos&quot;:null}" id="Group"><g id="Path"><path d="M232.117,122.583l-0.359,-0.299c0.06,-0.24 0.06,-0.42 0.12,-0.599c0.06,-0.539 0.119,-1.138 0.119,-1.677c0.06,-0.42 0,-0.42 0.3,-0.719c0.3,0.12 0.36,0.18 0.36,0.419c-0.06,0.479 -0.12,0.899 -0.12,1.378c0,0.479 -0.12,0.718 -0.18,1.078c-0.12,0.12 -0.18,0.299 -0.24,0.419z" id="ID0.3089509615674615" fill="url(#color-13)"/><path d="M231.159,123.062l-0.42,-0.18c0,-0.239 0,-0.419 -0.06,-0.598c-0.06,-0.539 -0.12,-1.138 -0.239,-1.677c-0.12,-0.24 -0.06,-0.539 0.119,-0.779c0.36,0.06 0.42,0.12 0.42,0.359c0.06,0.479 0.12,0.899 0.18,1.378c0.06,0.359 0.06,0.719 0.06,1.078c0,0.12 0,0.299 -0.06,0.419z" id="ID0.40179869160056114" fill="url(#color-14)"/><path d="M232.477,122.463c0.12,-0.299 0.18,-0.599 0.359,-1.018c0.18,-0.419 0.36,-0.838 0.54,-1.258c0.119,-0.179 0.179,-0.239 0.539,-0.179c0.06,0.419 0.06,0.359 -0.12,0.778c-0.24,0.539 -0.419,1.018 -0.659,1.557c-0.06,0.18 -0.12,0.42 -0.18,0.599l-0.479,0.06c0,-0.12 0,-0.299 0,-0.539z" id="ID0.02544683637097478" fill="url(#color-15)"/></g><path d="M216.64,177.802c0,0 -0.06,-15.692 1.138,-23.298c0.959,-6.288 2.816,-12.337 4.793,-18.326c1.259,-3.893 4.734,-14.433 9.826,-14.613c5.393,3.294 3.835,19.464 3.416,24.555c-0.54,6.588 -2.577,23.417 -3.955,29.885c-3.235,0.838 -15.218,1.797 -15.218,1.797z" id="Path" fill="url(#color-16)"/><path d="M220.115,167.86c0,0 1.498,-15.033 4.434,-26.531c2.037,-7.966 4.793,-13.056 6.051,-13.056c3.116,0 2.217,13.056 1.917,16.35c-0.359,4.312 -2.217,18.026 -3.115,22.219c-2.097,0.539 -9.287,1.018 -9.287,1.018z" id="Path" fill="url(#color-17)"/></g><g data-paper-data="{&quot;index&quot;:null}" id="Group"><g id="Path"><path d="M245.507,117.534l-0.419,-0.18c0,-0.24 0,-0.419 -0.06,-0.599c-0.06,-0.539 -0.12,-1.138 -0.18,-1.677c-0.06,-0.419 -0.06,-0.419 0.12,-0.779c0.299,0.06 0.419,0.12 0.419,0.36c0.06,0.479 0.06,0.898 0.12,1.377c0,0.36 0.06,0.719 0.06,1.078c0.06,0.18 0,0.3 -0.06,0.42z" id="ID0.36000296706333756" fill="url(#color-18)"/><path d="M244.728,118.252l-0.479,-0.12c-0.06,-0.179 -0.12,-0.419 -0.18,-0.598c-0.18,-0.539 -0.36,-1.079 -0.539,-1.618c-0.12,-0.239 -0.18,-0.539 -0.06,-0.778c0.359,0 0.419,0 0.479,0.239c0.12,0.42 0.3,0.839 0.42,1.318c0.119,0.479 0.179,0.719 0.299,1.078c0.06,0.18 0.06,0.3 0.06,0.479z" id="ID0.5431281933560967" fill="url(#color-19)"/><path d="M245.926,117.414c0.06,-0.36 0.12,-0.659 0.18,-1.078c0.06,-0.42 0.12,-0.899 0.24,-1.318c0.06,-0.239 0.12,-0.299 0.479,-0.299c0.18,0.359 0.18,0.359 0.06,0.778c-0.12,0.599 -0.24,1.138 -0.359,1.677c0,0.18 0,0.36 -0.06,0.599l-0.42,0.18c-0.06,-0.18 -0.06,-0.36 -0.12,-0.539z" id="ID0.6233421890065074" fill="url(#color-20)"/></g><path d="M261.19,181.017c-2.936,-3.593 -17.196,-11.619 -18.095,-12.517c-1.797,-6.049 -6.53,-51.326 1.738,-51.925c7.01,-0.479 8.808,12.757 10.126,17.309c1.857,6.647 5.991,38.988 6.231,47.133z" id="Path" fill="url(#color-21)"/><path d="M247.289,171.734c-0.898,-11.259 -4.673,-44.977 -1.617,-48.571c3.055,-3.593 6.471,12.457 7.309,16.889c0.719,4.193 2.157,19.225 3.056,31.443z" id="Path" fill="url(#color-22)"/></g><path d="M252.985,214.615c-6.71,6.349 -17.375,5.57 -24.685,0.539c-7.01,-4.791 -11.144,-15.811 -11.624,-24.016c-0.479,-7.725 -1.977,-18.985 2.637,-25.692c5.033,-7.247 8.388,-9.283 18.274,-9.523c6.591,-0.239 13.002,2.216 17.795,6.708c3.894,3.713 6.231,9.582 6.71,14.853c1.079,11.918 -2.995,31.322 -9.107,37.131z" data-paper-data="{&quot;index&quot;:null}" id="Path" fill="url(#color-23)"/><g data-paper-data="{&quot;index&quot;:null}" id="Group"><path d="M246.183,172.023c-3.295,3.473 -12.163,2.575 -14.979,0.239c-2.396,-1.976 -1.857,-6.049 0.599,-7.965c2.457,-1.917 6.351,-1.557 9.227,-1.677c2.936,0.359 4.854,0.239 5.992,3.294c0.839,2.216 0.419,4.851 -0.839,6.109z" id="Path" fill="url(#color-24)"/><path d="M243.906,165.554c1.558,-0.119 1.618,1.977 1.558,2.935c-0.06,0.958 -0.12,2.575 -1.498,2.456c-1.378,-0.12 -1.617,-1.618 -1.558,-2.456c0.06,-0.838 -0.119,-2.875 1.498,-2.935z" id="Path" fill="url(#color-25)"/><path d="M233.301,165.554c1.558,-0.119 1.678,1.977 1.558,2.935c-0.12,0.958 -0.12,2.575 -1.498,2.456c-1.378,-0.12 -1.618,-1.618 -1.558,-2.456c0.06,-0.838 -0.06,-2.875 1.498,-2.935z" id="Path" fill="url(#color-26)"/><path d="M243.727,175.676c0,0 3.235,0.419 5.032,2.036c1.259,1.378 1.858,3.234 1.498,5.091c-0.838,2.455 -2.696,4.012 -4.973,5.031c-4.373,2.036 -10.784,2.754 -14.859,-0.36c-4.853,-3.833 -1.977,-8.265 2.637,-10.241l0.179,-0.06l0.839,-0.299l0.959,0.359l1.138,-0.958l5.093,-0.539z" id="Path" fill="url(#color-27)"/><path d="M243.786,175.676c0,0 -0.718,3.234 -1.138,4.312c-1.018,-1.617 -1.318,-4.312 -1.318,-4.312z" id="Path" fill="url(#color-28)"/><path d="M234.14,176.874c0.3,-0.18 0.659,-0.36 1.019,-0.42c0.419,-0.119 0.779,-0.179 1.198,-0.239c0.06,1.497 -0.06,2.994 -0.18,4.492c-0.18,-0.12 -2.037,-3.833 -2.037,-3.833z" id="Path" fill="url(#color-29)"/><path d="M221.558,166.812l0.299,-0.539c1.019,0.599 1.978,1.198 2.936,1.797c0.599,0.359 0.599,0.539 0.42,1.317l-4.314,1.078l-0.36,-0.299c0.06,-0.12 0.06,-0.3 0.18,-0.359c0.359,-0.18 0.719,-0.3 1.078,-0.42c0.6,-0.179 1.199,-0.239 1.798,-0.419c0.18,-0.06 0.359,-0.12 0.539,-0.239c-0.659,-0.959 -1.917,-1.019 -2.576,-1.917z" id="Path" fill="url(#color-30)"/><path d="M255.59,165.015l0.479,0.599c-0.839,1.078 -2.037,1.677 -2.876,2.635c0.06,0.42 0.36,0.779 0.779,0.839c0.599,0.239 1.139,0.419 1.738,0.539c0.359,0.12 0.719,0.12 0.839,0.659c-0.12,0.06 -0.3,0.239 -0.42,0.179c-1.438,-0.479 -2.996,-0.778 -4.254,-1.976c0.06,-0.24 0.12,-0.539 0.3,-0.659c1.258,-0.718 2.396,-1.677 3.415,-2.815z" id="Path" fill="url(#color-31)"/></g></g></g></g></svg>