<svg version="1.1" xmlns="http://www.w3.org/2000/svg" xmlns:xlink="http://www.w3.org/1999/xlink" width="32.50159" height="86.60884" viewBox="0,0,32.50159,86.60884"><g transform="translate(-221.02778,-120.15703)"><g data-paper-data="{&quot;isPaintingLayer&quot;:true}" fill="none" fill-rule="nonzero" stroke="none" stroke-width="1" stroke-linecap="butt" stroke-linejoin="miter" stroke-miterlimit="10" stroke-dasharray="" stroke-dashoffset="0" font-family="none" font-weight="none" font-size="none" text-anchor="none" style="mix-blend-mode: normal"><path d="M229.11046,152.21647c-0.51261,-0.14046 -0.65241,-0.51494 -0.74562,-0.983c-0.0932,-0.74897 -0.0466,-1.49794 -0.0932,-2.24691c-0.1398,-0.14046 -0.27961,-0.28082 -0.41941,-0.37449c-2.88926,-2.15324 -4.47369,-5.14913 -5.59212,-8.47262c-0.233,-0.70209 -0.51261,-1.40427 -0.51261,-2.15324c0,-0.14046 -0.0466,-0.3277 -0.1398,-0.42127c-0.51261,-0.51494 -0.51261,-1.12346 -0.55921,-1.77876c-0.0466,-0.56173 0,-1.12346 0,-1.68518c0,-0.3277 0.0932,-0.6553 0.37281,-0.88943c0.27961,-0.23403 0.41941,-0.60852 0.55921,-0.93612c0.60581,-1.9661 1.53783,-3.79164 2.74946,-5.47683c0.69901,-0.93621 1.53783,-1.68518 2.42325,-2.43406c2.60965,-2.20013 5.63872,-3.46394 8.94739,-4.02567c1.49123,-0.23403 3.02906,-0.23403 4.5669,-0.04679c1.16502,0.14036 2.23685,0.60852 3.26207,1.12336c3.26207,1.6384 5.63872,4.21291 7.31635,7.44283c0.32621,0.60852 0.51261,1.3107 0.69901,2.01279c0.1398,0.46815 0.32621,0.88943 0.79222,1.17024c0.41941,0.23412 0.60581,0.6554 0.69901,1.12346c0.0932,0.74897 0.0932,1.49794 0.0932,2.24691c0,0.23403 -0.0932,0.42127 -0.1864,0.60852c-0.41941,0.6553 -0.55921,1.35749 -0.60581,2.10646c-0.0466,1.59152 -0.55921,3.08946 -1.02522,4.5874c-0.1864,0.56163 -0.41941,1.12336 -0.74562,1.6383c-1.02522,1.68518 -2.09704,3.2767 -3.58827,4.5874c0,0.70209 -0.0466,1.45106 -0.0466,2.20003c0,0.28091 0,0.60852 -0.27961,0.79576c-0.233,0.18724 -0.1864,0.46815 -0.1864,0.74897c-0.0466,1.87243 -0.0466,3.74476 -0.0932,5.61719c-0.0466,4.16613 -0.0932,8.37904 -0.233,12.54508c-0.1398,4.07246 -0.1398,8.14492 -0.1864,12.21738c0,0.6554 -0.0932,1.26391 -0.0932,1.91921c0,3.18313 0,6.36616 -0.0466,9.54929c0,0.56163 0.0932,1.12336 -0.1864,1.6383c-0.0932,0.18724 -0.0466,0.42127 -0.0466,0.6553c0,2.34058 -0.0466,4.72786 -0.0466,7.06834c0,0.09367 0,0.23403 0,0.3277c0.0466,0.74897 -0.27961,1.12346 -0.93202,1.45106c-2.19025,1.07667 -4.47369,1.35749 -6.85034,0.84264c-0.60581,-0.14046 -1.21163,-0.37449 -1.77084,-0.70218c-0.41941,-0.23403 -0.60581,-0.60852 -0.65241,-1.07667c-0.1398,-1.40427 -0.32621,-2.80855 -0.46601,-4.2597c-0.0932,-1.02979 -0.0932,-2.10646 -0.32621,-3.13625c-0.51261,-2.24691 -0.46601,-4.54052 -0.83882,-6.78743c-0.1864,-1.26391 -0.46601,-2.48094 -0.60581,-3.74476c-0.1398,-1.35749 -0.37281,-2.66819 -0.55921,-3.97888c-0.32621,-2.38727 -0.55921,-4.82143 -0.93202,-7.2087c-0.55921,-3.13625 -0.93202,-6.27258 -1.30483,-9.40883c-0.1398,-1.07658 -0.27961,-2.15324 -0.41941,-3.22991c-0.1864,-1.68509 -0.37281,-3.41706 -0.55921,-5.10225c-0.0932,-0.93621 -0.27961,-1.82555 -0.37281,-2.76176c-0.1398,-0.983 -0.1398,-1.87243 -0.233,-2.90222zM230.27548,151.56108c0.55921,0.28091 1.11842,0.46815 1.72424,0.51494c1.21163,0.42127 2.46985,0.51494 3.72808,0.60852c1.58443,0.14046 3.21547,0.09367 4.7999,0.04679c1.81744,-0.04679 3.49507,-0.56173 5.21931,-1.12336c0.1864,-0.09367 0.37281,-0.18724 0.65241,-0.3277c0,-0.37449 0,-0.74897 0,-1.12346c0,-0.09357 -0.0466,-0.18724 -0.0932,-0.3277c-0.32621,0 -0.65241,0.04688 -0.97862,0.14046c-0.55921,0.14046 -1.07182,0.18724 -1.63103,0.3277c-1.39803,0.28082 -2.84266,0.14036 -4.24069,0.28082c-0.74562,0.04679 -1.49123,0.18724 -2.23685,0.14046c-1.63103,-0.14046 -3.26207,-0.04679 -4.8931,-0.37449c-0.41941,-0.09357 -0.88542,-0.18724 -1.30483,-0.28082c-0.1864,-0.28091 -0.55921,-0.18724 -0.79222,-0.28091c-0.27961,-0.14046 -0.55921,-0.28082 -1.07182,-0.23403c0.32621,0.60852 0.1864,1.21703 0.37281,1.77876c0.233,0.04679 0.41941,0.3277 0.74562,0.23403zM232.13952,153.15269c-1.07182,-0.42137 -1.35143,-0.46815 -1.95724,-0.37449c0.0466,0.56163 0.0932,1.07658 0.1398,1.6383c0,0.3277 0.1864,0.56173 0.46601,0.70218c0.1864,0.09357 0.41941,0.09357 0.60581,0.18724c0.69901,0.3276 1.49123,0.46806 2.23685,0.42127c0.32621,0.23403 0.69901,0.23403 1.07182,0.23403c2.09704,0.04679 4.14749,0.14046 6.24453,-0.04679c0.93202,-0.09367 1.86404,-0.23403 2.74946,-0.42127c0.69901,-0.18724 1.44463,-0.37449 2.00384,-0.93621c0,-0.60852 0,-1.21712 0,-1.82564c-0.37281,0.09367 -0.69901,0.18724 -0.97862,0.28091c-1.30483,0.37449 -2.60965,0.6553 -3.91448,0.74897c-1.67764,0.14036 -3.35527,0.04679 -5.03291,0c-0.79222,0 -1.53783,-0.28091 -2.33005,-0.23412c-0.41941,-0.3276 -0.88542,-0.37439 -1.30483,-0.37439zM237.91804,205.25211c0.65241,0.28082 1.30483,0.3277 1.95724,0.28082c0.0466,0.04688 0.1398,0.09367 0.1864,0.09367c1.11842,-0.04679 2.23685,-0.18724 3.26207,-0.60852c0.60581,-0.23403 1.21163,-0.42127 1.67764,-0.93621c0,-2.6214 0,-5.2427 0,-8.00446c-1.11842,0.51485 -2.23685,0.74888 -3.35527,0.93612c-0.97862,0.18724 -1.91064,0.04688 -2.88926,0.14046c-0.37281,0 -0.69901,-0.04679 -1.07182,-0.04679c-0.55921,-0.23403 -1.16502,-0.37449 -1.86404,-0.42127c0,1.40427 0.37281,2.71497 0.46601,4.02567c0.1398,1.35749 0.32621,2.71497 0.46601,4.02558c0.41941,0.3277 0.79222,0.42137 1.16502,0.51494zM236.75302,195.84328c0.32621,0.23412 0.69901,0.28091 1.07182,0.28091c0.37281,0.18724 0.79222,0.14046 1.21163,0.18724c1.30483,0.04679 2.60965,-0.14046 3.86788,-0.42127c0.74562,-0.18724 1.49123,-0.46815 2.14364,-0.93621c0,-0.18724 0.0466,-0.37449 0.0466,-0.56173c0,-2.2937 0,-4.54061 0.0466,-6.83422c0.0466,-2.43416 0.0932,-4.82143 0.1398,-7.25559c0.0466,-3.55752 0.1398,-7.06834 0.1864,-10.62586c0.0932,-3.97888 0.0466,-7.91089 0.233,-11.88968c0.0466,-0.6554 0,-1.35758 0,-2.05967c-0.51261,0.18724 -0.97862,0.46806 -1.49123,0.56173c-1.63103,0.42127 -3.30867,0.56173 -4.9863,0.60852c-1.49123,0 -2.98246,-0.04679 -4.47369,-0.09367c-0.60581,-0.09357 -1.16502,-0.14036 -1.77084,-0.23403c-0.37281,-0.28082 -0.79222,-0.18724 -1.16502,-0.28082c-0.41941,-0.09367 -0.79222,-0.28091 -1.25823,-0.23403c-0.0932,0.46806 0,0.84255 0.0466,1.17024c0.51261,2.76176 0.65241,5.57031 1.02522,8.33216c0.233,1.77876 0.46601,3.55752 0.74562,5.33628c0.32621,2.38737 0.69901,4.72786 1.02522,7.06834c0.27961,1.91921 0.55921,3.83843 0.79222,5.75764c0.27961,2.05958 0.51261,4.07246 0.74562,6.13204c0.233,1.87243 0.46601,3.79164 0.74562,5.71086c0.41941,0.04679 0.69901,0.3277 1.07182,0.28082zM252.31774,133.118c-1.02522,0.42127 -2.00384,0.60852 -2.98246,0.84255c-1.02522,0.23403 -2.00384,0.51494 -3.02906,0.70218c-0.97862,0.18724 -2.00384,0.28082 -2.98246,0.42127c-1.02522,0.14046 -2.05044,0.28091 -3.12227,0.37449c-0.97862,0.09357 -2.00384,0.14046 -2.98246,0.23403c-1.02522,0.04679 -2.05044,-0.09357 -3.07566,0.14046c-0.97862,-0.28091 -2.00384,-0.09367 -2.98246,-0.14046c-1.02522,-0.09357 -2.09704,-0.09357 -3.12227,-0.18724c-0.97862,-0.09357 -2.00384,-0.23403 -2.98246,-0.37449c-1.02522,-0.14036 -2.00384,-0.46806 -3.02906,-0.46806c-0.0932,1.12346 -0.0932,1.45106 0.27961,2.2937c0.55921,0.23403 1.11842,0.46806 1.77084,0.60852c0.79222,0.14046 1.58443,0.28082 2.42325,0.46806c1.58443,0.3277 3.12227,0.60852 4.7533,0.60852c1.11842,0 2.23685,-0.04679 3.35527,0.14046c0.233,0.04679 0.51261,0.04679 0.79222,-0.04679c0.55921,-0.14046 1.16502,-0.09367 1.72424,-0.09367c2.05044,0 4.10089,-0.28082 6.10473,-0.60852c2.65626,-0.37449 5.21931,-1.07658 7.78236,-1.91921c0.51261,-0.14036 1.02522,-0.28082 1.39803,-0.70209c0.0932,-0.70218 0.0466,-1.40437 -0.0932,-2.2937zM233.49095,127.54759c-0.37281,0.60852 -0.55921,1.21703 -0.79222,1.82564c-0.233,0.51485 -0.27961,1.07658 -0.0932,1.6383c0.27961,1.07667 0.41941,2.20003 0.37281,3.32349c0,0.09367 0.0466,0.23403 0.0466,0.28091c0.233,0.14036 0.41941,0.14036 0.65241,0c0.0466,-0.04688 0.0932,-0.14046 0.0932,-0.18724c0.1398,-1.35749 0.37281,-2.71497 0.69901,-4.07246c0.0466,-0.18724 0.0932,-0.46815 0,-0.6554c-0.1864,-0.74897 -0.37281,-1.49794 -0.97862,-2.15324zM230.69489,134.61594c0.1398,-1.26391 0.37281,-2.48094 0.65241,-3.65119c0.0932,-0.37449 0.0466,-0.70218 -0.0932,-1.07667c-0.233,-0.56173 -0.55921,-1.02979 -0.88542,-1.54473c-0.0932,-0.18724 -0.1864,-0.42127 -0.46601,-0.3277c-0.233,0.79585 -0.51261,1.54473 -0.65241,2.34058c0.79222,1.966 0.79222,1.966 0.83882,4.21282c0.1398,0.14046 0.32621,0.18724 0.60581,0.04688zM242.15873,139.25012c-0.1864,0.84255 -0.32621,1.68509 -0.46601,2.52773c-0.0466,0.18724 -0.0932,0.37449 -0.0466,0.56173c0.32621,0.74888 0.60581,1.49785 1.16502,2.10636c0.55921,-0.56163 0.69901,-1.26382 0.97862,-1.91912c0.1398,-0.3277 0.0932,-0.60861 -0.0466,-0.93621c-0.37281,-0.74897 -0.65241,-1.49794 -0.88542,-2.2937c0,-0.04679 -0.0932,-0.09367 -0.1864,-0.18724c-0.1398,0.04679 -0.32621,0.09357 -0.51261,0.14046zM242.81114,127.40714c-0.60581,0.74897 -0.88542,1.45115 -1.21163,2.15324c-0.0932,0.28091 -0.0466,0.51494 0,0.74897c0.27961,1.12346 0.41941,2.24691 0.37281,3.41716c0,0.14046 0.0466,0.28082 0.0466,0.42127c0.51261,0.04679 0.60581,0 0.60581,-0.37449c0,-1.21703 0.233,-2.38727 0.69901,-3.46394c0.27961,-0.6553 0.233,-1.21703 0,-1.82555c-0.1864,-0.3277 -0.32621,-0.60852 -0.51261,-1.07667zM236.1938,134.66272c0.233,0 0.27961,-0.18724 0.27961,-0.37449c0,-1.3107 0.37281,-2.57452 0.74562,-3.83843c0.27961,-1.02979 0.0932,-2.10646 -0.60581,-3.13625c-0.32621,0.42127 -0.37281,0.88933 -0.60581,1.3107c-0.46601,0.88933 -0.46601,1.77876 -0.27961,2.71497c0.1864,1.02979 0.41941,2.05958 0.32621,3.08946c0.0466,0.14036 0.0932,0.18724 0.1398,0.23403zM239.54907,127.45402c-0.27961,0.56163 -0.51261,0.93612 -0.69901,1.31061c-0.32621,0.60861 -0.37281,1.17024 -0.1864,1.82564c0.27961,0.88933 0.37281,1.82555 0.41941,2.76176c0.0466,0.3277 0.0466,0.70218 0.0466,1.02979c0.233,0.04688 0.27961,-0.09357 0.27961,-0.18724c0.233,-1.35749 0.51261,-2.71497 0.97862,-4.02558c0.0466,-0.23412 0.0932,-0.42137 0.0466,-0.6554c-0.233,-0.6553 -0.41941,-1.3107 -0.88542,-2.05958zM245.09459,138.78197c0.1864,0.88943 0.0466,1.73197 -0.0466,2.57461c0,0.23403 -0.1398,0.42127 -0.0466,0.6553c0.1398,0.37449 0.69901,1.12346 1.21163,1.54473c0.32621,-0.46815 0.41941,-1.02979 0.60581,-1.54473c0.1398,-0.42127 0.0932,-0.79576 -0.1398,-1.17024c-0.37281,-0.6554 -0.65241,-1.3107 -0.79222,-2.05967c0,-0.04679 -0.0932,-0.14046 -0.1398,-0.18724c-0.1864,-0.04679 -0.37281,-0.04679 -0.65241,0.18724zM229.15706,141.87143c0.27961,0.6554 0.233,1.45115 0.65241,2.05967c0.32621,-0.04679 0.46601,-0.28091 0.65241,-0.46815c0.32621,-0.37449 0.69901,-0.6553 0.93202,-1.17024c-0.27961,-0.84255 -0.1864,-1.77876 -0.41941,-2.66809c-0.233,-0.14046 -0.46601,-0.14046 -0.69901,-0.04688c-0.27961,0.79576 -0.65241,1.54473 -1.11842,2.2937zM236.61321,139.6714c-0.0932,0.46806 -0.1864,0.93621 -0.41941,1.26382c-0.55921,0.79576 -0.51261,1.59161 -0.1398,2.38737c0.1398,0.28082 0.1398,0.56173 0.41941,0.84255c0.46601,-0.46806 0.79222,-0.983 1.11842,-1.49794c0.0932,-0.14036 0.0932,-0.3276 0.0466,-0.56173c-0.1864,-0.70209 -0.32621,-1.35749 -0.51261,-2.05958c0,-0.14046 -0.0932,-0.3277 -0.51261,-0.37449zM233.67735,139.6714c-0.1864,1.02979 -0.46601,1.966 -1.07182,2.71497c-0.1398,0.14046 -0.0932,0.3277 -0.0932,0.51485c0.0466,0.42137 0.1398,0.84264 0.41941,1.26391c0.65241,-0.6553 1.07182,-1.3107 1.49123,-2.01279c0.1398,-0.23412 0.1864,-0.46815 0.1398,-0.74897c-0.0932,-0.51494 -0.1398,-1.02988 -0.233,-1.54473c0,-0.04679 -0.0932,-0.14046 -0.1398,-0.18724c-0.1398,0 -0.27961,0 -0.51261,0zM246.35282,129.70084c-0.1864,-0.46806 -0.37281,-0.983 -0.55921,-1.45106c-0.0466,-0.04688 -0.0932,-0.09367 -0.1864,-0.18724c-0.51261,0.42127 -0.79222,0.983 -0.97862,1.49785c0.32621,1.45115 0.65241,2.80864 0.65241,4.40016c0.65241,-0.74897 0.32621,-1.49794 0.46601,-2.10646c0.1398,-0.74897 0.37281,-1.45106 0.60581,-2.15324zM232.83853,126.42414c-0.46601,-0.56173 -0.83882,-1.12346 -1.49123,-1.45106c-0.1864,0.3276 -0.41941,0.56173 -0.55921,0.84255c-0.1398,0.28091 -0.32621,0.56173 -0.32621,0.88943c0.1398,0.42127 0.46601,0.70209 0.69901,1.02979c0.233,0.3277 0.37281,0.70218 0.74562,0.93621c0.32621,-0.74897 0.60581,-1.45115 0.93202,-2.24691zM227.71243,134.70951c0.1864,-1.40427 0.32621,-2.57452 0.46601,-3.74476c0,-0.09367 0.0466,-0.23403 -0.0466,-0.3277c-0.32621,-0.51494 -0.55921,-1.12346 -1.16502,-1.45106c-0.1864,0.6553 -0.37281,1.26382 -0.51261,1.87233c0.60581,1.07667 0.93202,2.24691 1.25823,3.65119zM239.54907,144.21192c0.41941,-0.3276 0.51261,-0.79576 0.69901,-1.17024c0.233,-0.42127 0.32621,-0.84255 0.1398,-1.35749c-0.233,-0.70209 -0.46601,-1.40427 -0.37281,-2.15324c-0.32621,-0.09357 -0.51261,-0.04679 -0.51261,0.23403c-0.0466,0.70218 -0.0932,1.45115 -0.37281,2.05967c-0.37281,0.88943 0,1.59152 0.41941,2.38727zM234.93558,143.18213c-0.60581,0.79576 -1.11842,1.40427 -1.58443,2.01279c0,0.3277 0.1398,0.51494 0.233,0.70218c0.1398,0.18724 0.233,0.46806 0.55921,0.56173c0.51261,-0.37449 0.97862,-0.84255 1.39803,-1.35749c-0.1398,-0.60852 -0.32621,-1.17024 -0.60581,-1.91921zM242.25193,145.47583c-0.41941,-0.70218 -0.79222,-1.3107 -1.16502,-1.966c-0.32621,0.60852 -0.65241,1.17024 -0.97862,1.73197c0.32621,0.60852 0.55921,1.17024 1.11842,1.59152c0.41941,-0.42127 0.69901,-0.88943 1.02522,-1.35749zM235.07538,124.92629c-0.55921,0.28082 -0.69901,0.88933 -0.97862,1.35749c-0.0932,0.14036 -0.0466,0.37439 0.0466,0.51485c0.27961,0.46815 0.51261,0.88943 0.79222,1.3107c0,0.04679 0.0932,0.04679 0.1864,0.04679c0.32621,-0.6553 0.60581,-1.35749 0.93202,-2.01279c-0.233,-0.46815 -0.60581,-0.84264 -0.97862,-1.21703zM242.20533,126.37735c-0.1864,-0.51494 -0.37281,-0.983 -0.88542,-1.3107c-0.37281,0.42127 -0.83882,0.84264 -1.07182,1.40437c0.1398,0.3276 0.1864,0.6553 0.37281,0.93612c0.1398,0.28091 0.0932,0.6554 0.51261,0.79576c0.37281,-0.60852 0.74562,-1.21703 1.07182,-1.82555zM243.55676,145.2418c0.1864,0.42127 0.60581,0.6553 1.02522,0.93612c0.37281,-0.56163 0.83882,-0.983 1.02522,-1.6383c-0.37281,-0.37449 -0.60581,-0.88943 -1.11842,-1.26391c-0.32621,0.6554 -0.60581,1.3107 -0.93202,1.9661zM247.98385,138.033c-0.0466,0.84264 0.0932,1.73197 -0.0466,2.57461c-0.0932,0.70209 0.233,1.07658 0.79222,1.45106c0.32621,-0.51494 0.41941,-1.02979 0.55921,-1.59152c-0.60581,-0.74897 -0.83882,-1.6384 -1.30483,-2.43416zM225.10277,134.05421c0.1864,-0.04688 0.1864,-0.18724 0.1864,-0.3277c0.0466,-0.60852 0.0466,-1.26391 0.1398,-1.87243c0.1864,-0.88933 -0.27961,-1.35749 -0.88542,-1.87233c-0.0932,0.3276 -0.1864,0.56173 -0.233,0.79576c-0.1398,0.56173 -0.1864,1.07658 0.233,1.59152c0.233,0.3277 0.32621,0.74897 0.41941,1.12346c-0.0466,0.18724 -0.1398,0.42127 0.1398,0.56173zM227.01341,142.99489c0.233,-0.18724 0.37281,-0.37449 0.51261,-0.51494c0.46601,-0.37449 0.60581,-0.79576 0.51261,-1.35749c-0.0932,-0.46806 -0.0466,-0.983 -0.0932,-1.45106c0,-0.14046 0.0466,-0.28091 -0.27961,-0.3277c-0.233,0.6553 -0.55921,1.3107 -0.97862,1.91921c-0.0932,0.14046 -0.0932,0.37449 -0.0932,0.56173c0.0932,0.37449 0.1864,0.70218 0.41941,1.17024zM238.85006,145.19492c-0.1864,-0.46806 -0.32621,-0.983 -0.65241,-1.40427c-0.46601,0.51494 -0.97862,0.93621 -1.30483,1.54473c0.27961,0.46815 0.41941,0.93621 0.93202,1.21703c0.37281,-0.42127 0.79222,-0.79576 1.02522,-1.35749zM238.05784,128.01566c0.46601,-0.51485 0.74562,-1.07658 0.93202,-1.6383c-0.27961,-0.46806 -0.51261,-0.88943 -0.93202,-1.3107c-0.37281,0.28091 -0.60581,0.6554 -0.79222,1.07667c0.27961,0.60852 0.51261,1.21703 0.79222,1.87233zM234.70257,147.34826c0.27961,0.3276 0.41941,0.56163 0.65241,0.74888c0.1398,0.14046 0.27961,0.23412 0.41941,0.3277c0.46601,-0.23403 0.88542,-0.56173 1.16502,-1.02979c-0.233,-0.46815 -0.46601,-0.93621 -0.93202,-1.26391c-0.41941,0.42127 -0.83882,0.74897 -1.30483,1.21712zM225.56878,138.96921c-0.51261,0.56173 -0.88542,0.93621 -1.30483,1.40427c-0.0466,0.18724 0,0.51494 0.1398,0.79585c0.0932,0.28082 0,0.60852 0.27961,0.84255c0.41941,-0.14046 0.69901,-0.37449 0.93202,-0.70218c-0.0466,-0.74897 -0.0466,-1.45106 -0.0466,-2.34049zM231.95311,124.13044c0.233,0.23412 0.46601,0.46815 0.69901,0.70218c0.233,0.23403 0.46601,0.42127 0.69901,0.6553c0.32621,-0.51485 0.65241,-0.88933 0.74562,-1.40427c-0.1398,-0.28082 -0.41941,-0.37449 -0.65241,-0.51494c-0.233,-0.14036 -0.46601,-0.42127 -0.79222,-0.37439c-0.27961,0.3276 -0.55921,0.56163 -0.69901,0.93612zM240.43449,147.62907c-0.37281,-0.46806 -0.60581,-1.02979 -1.16502,-1.40427c-0.32621,0.37449 -0.60581,0.74897 -0.93202,1.12346c0.37281,0.46806 0.65241,0.88933 1.21163,1.12336c0.32621,-0.23403 0.65241,-0.37449 0.88542,-0.84255zM228.45804,129.18599c0.27961,-0.84264 0.51261,-1.59161 0.74562,-2.34058c-0.1864,-0.28082 -0.32621,-0.56163 -0.65241,-0.6553c-0.51261,0.51494 -0.74562,1.17024 -1.02522,1.82555c0.1864,0.28091 0.37281,0.56173 0.60581,0.79585c0.0466,0.18724 0.1398,0.23403 0.32621,0.37449zM232.13952,145.19492c-0.27961,-0.51485 -0.27961,-1.07658 -0.65241,-1.45106c-0.51261,0.46806 -0.97862,0.88933 -1.35143,1.45106c0.32621,0.3277 0.32621,0.79576 0.79222,1.07667c0.46601,-0.23403 0.74562,-0.6553 1.21163,-1.07667zM245.23439,126.89229c-0.27961,-0.56173 -0.51261,-1.07667 -0.93202,-1.40437c-0.32621,0.28091 -0.60581,0.60861 -0.79222,0.98309c0.27961,0.56163 0.51261,1.12336 0.79222,1.77876c0.27961,-0.51494 0.55921,-0.88943 0.93202,-1.35749zM227.24642,144.02467c0.1864,0.60852 0.32621,1.12346 0.79222,1.49794c0.37281,-0.23403 0.69901,-0.42127 0.88542,-0.79576c-0.1864,-0.56173 -0.32621,-1.12346 -0.55921,-1.77876c-0.41941,0.3276 -0.79222,0.6553 -1.11842,1.07658zM239.73548,125.48793c0.32621,-0.56163 0.83882,-0.84255 0.93202,-1.35749c-0.27961,-0.46806 -0.65241,-0.74888 -1.07182,-0.983c-0.37281,0.3277 -0.74562,0.60852 -0.88542,1.12346c0.32621,0.37449 0.60581,0.74897 1.02522,1.21703zM243.88296,147.02056c-0.32621,-0.3277 -0.55921,-0.6554 -0.97862,-0.84264c-0.32621,0.51494 -0.83882,0.84264 -1.02522,1.45115c0.27961,0.3277 0.55921,0.51494 0.97862,0.56173c0.37281,-0.37449 0.69901,-0.79576 1.02522,-1.17024zM226.3144,128.34335c-0.27961,-0.37449 -0.51261,-0.56173 -0.83882,-0.70209c-0.32621,0.37439 -0.60581,0.84255 -0.60581,1.40427c0.27961,0.28082 0.55921,0.56173 0.83882,0.88933c0.37281,-0.51485 0.41941,-1.07658 0.60581,-1.59152zM250.87311,141.73097c-0.27961,-0.23403 -0.51261,-0.42127 -0.79222,-0.46806c-0.27961,0.46806 -0.46601,0.93621 -0.55921,1.45115c0.233,0.28082 0.46601,0.46806 0.79222,0.56163c0.32621,-0.46806 0.37281,-1.02979 0.55921,-1.54473zM236.65981,149.03335c0.27961,0.56173 0.65241,0.60852 1.07182,0.56173c0.32621,0 0.65241,-0.09357 0.79222,-0.46806c-0.27961,-0.37449 -0.55921,-0.70218 -0.97862,-0.93621c-0.32621,0.28082 -0.60581,0.56173 -0.88542,0.84255zM248.54306,129.74763c-0.1398,-0.42127 -0.1398,-0.79576 -0.46601,-1.02979c-0.93202,0.79576 -0.69901,1.68518 -0.233,2.66819c0.233,-0.56173 0.46601,-1.07667 0.69901,-1.6384zM232.32592,147.95677c0.41941,-0.18724 0.69901,-0.42137 0.97862,-0.84264c-0.32621,-0.23403 -0.37281,-0.70209 -0.74562,-0.88933c-0.27961,0.04679 -0.37281,0.23403 -0.55921,0.37449c-0.1864,0.18724 -0.41941,0.28082 -0.41941,0.60852c0.1864,0.28082 0.37281,0.56173 0.74562,0.74897zM237.26563,134.47548c0.51261,0.28082 0.79222,0.18724 0.83882,-0.23403c0.0466,-0.60852 0,-1.21712 -0.0466,-1.77885c0,-0.18715 -0.0466,-0.42127 -0.32621,-0.51485c-0.233,0.84255 -0.37281,1.68518 -0.46601,2.52773zM246.53922,147.11413c0.0932,0.28091 0.27961,0.42127 0.55921,0.46815c0.46601,-0.42127 1.02522,-0.79576 1.30483,-1.45115c-0.55921,-0.28082 -0.97862,-0.18724 -1.30483,0.28091c-0.1864,0.18724 -0.46601,0.3276 -0.55921,0.70209zM243.51016,134.00733c0.65241,0 0.79222,-0.09357 0.79222,-0.51485c-0.0466,-0.6554 -0.0932,-1.35749 -0.32621,-2.01288c-0.37281,0.84264 -0.69901,1.6384 -0.46601,2.52773zM250.4537,138.73518c-0.0466,0.37449 -0.0466,0.70218 -0.0932,1.02979c-0.0466,0.6554 -0.0466,0.6554 0.79222,0.88943c0.0932,-0.3277 0.233,-0.70218 0.27961,-0.88943c-0.37281,-0.37449 -0.65241,-0.70209 -0.97862,-1.02979zM237.63843,121.88362c-0.27961,0.23403 -0.69901,0.3276 -0.69901,0.84255c0.27961,0.23403 0.60581,0.42127 0.93202,0.70218c0.32621,-0.28091 0.69901,-0.51494 0.83882,-0.88943c-0.32621,-0.23403 -0.60581,-0.51494 -1.07182,-0.6553zM247.61104,142.43316c-0.233,0.60852 -0.51261,1.21703 -0.74562,1.82564c0.0932,0.23403 0.233,0.42127 0.51261,0.3276c0.41941,-0.42127 0.74562,-0.93621 0.88542,-1.54473c-0.1864,-0.28082 -0.37281,-0.46806 -0.65241,-0.60852zM245.7936,126.09653c0.32621,-0.04688 0.55921,-0.23412 0.74562,-0.51494c-0.0932,-0.18724 -0.1864,-0.37449 -0.27961,-0.56173c-0.1398,-0.23403 -0.233,-0.46806 -0.51261,-0.56173c-0.27961,0 -0.51261,0.09367 -0.69901,0.3277c0.233,0.42127 0.51261,0.88933 0.74562,1.3107zM236.61321,125.16032c0.32621,-0.28091 0.51261,-0.60852 0.65241,-0.983c-0.37281,-0.28091 -0.69901,-0.56173 -1.02522,-0.79576c-0.37281,0.14036 -0.55921,0.42127 -0.60581,0.70209c0.32621,0.37449 0.65241,0.74897 0.97862,1.07667zM247.65764,127.54759c-0.1398,-0.28082 -0.27961,-0.56173 -0.46601,-0.84255c-0.0466,-0.04688 -0.1398,-0.04688 -0.233,-0.09367c-0.1864,0.14046 -0.46601,0.23403 -0.60581,0.60852c0.1398,0.37449 0.233,0.84264 0.55921,1.21712c0.37281,-0.23412 0.55921,-0.51494 0.74562,-0.88943zM250.12749,131.57327c0.0466,-0.51494 0.55921,-0.60852 0.55921,-1.07667c-0.1864,-0.37449 -0.233,-0.79576 -0.60581,-1.17024c-0.32621,0.23403 -0.60581,0.46815 -0.46601,0.88943c0.1398,0.42127 0.0932,0.84255 0.51261,1.35749zM249.24208,145.14813c0.1864,-0.3277 0.41941,-0.6553 0.60581,-0.93621c0.0466,-0.04679 0,-0.14036 0,-0.23403c-0.233,-0.09357 -0.46601,-0.3277 -0.88542,-0.18724c-0.233,0.37449 -0.46601,0.79576 -0.74562,1.21703c0.32621,0.18724 0.60581,0.23412 1.02522,0.14046zM235.21518,122.72616c-0.27961,-0.28082 -0.55921,-0.60852 -0.79222,-0.84255c-0.41941,0.14036 -0.69901,0.37449 -0.93202,0.60852c0.0466,0.3277 0.37281,0.37449 0.55921,0.51494c0.1864,0.14036 0.37281,0.3276 0.69901,0.28082c0.1864,-0.09357 0.37281,-0.23403 0.46601,-0.56173zM228.45804,146.41204c0.233,0.3276 0.41941,0.56173 0.60581,0.79576c0.0466,0.09357 0.1864,0.14046 0.233,0.18724c0.32621,0 0.55921,-0.18724 0.74562,-0.46815c-0.233,-0.37449 -0.41941,-0.74897 -0.74562,-1.07658c-0.27961,0.14036 -0.51261,0.3276 -0.83882,0.56173zM251.71193,138.6884c0.1864,-0.60852 0.37281,-1.21712 0.233,-1.87243c-0.41941,0.14046 -0.79222,0.18724 -1.02522,0.56173c0.233,0.79576 0.233,0.79576 0.79222,1.3107zM233.11814,148.61207c0.79222,0.88943 0.83882,0.88943 1.67764,0.42127c-0.27961,-0.3276 -0.60581,-0.60852 -0.88542,-0.93621c-0.32621,0.04688 -0.55921,0.23412 -0.79222,0.51494zM243.64996,124.5518c-0.233,-0.37449 -0.46601,-0.6554 -0.83882,-0.84264c-0.0932,0.04679 -0.233,0.14046 -0.37281,0.23403c-0.0932,0.09367 -0.1864,0.23412 -0.27961,0.3277c0.233,0.37449 0.41941,0.79576 0.79222,1.02979c0.27961,-0.14036 0.51261,-0.42127 0.69901,-0.74888zM225.66198,144.21192c0.1398,-0.09357 0.32621,-0.23403 0.37281,-0.37449c0.1398,-0.51485 0.0466,-0.983 -0.27961,-1.49785c-0.27961,0.18724 -0.65241,0.28082 -0.79222,0.56163c0.1864,0.46815 0.233,0.98309 0.69901,1.3107zM227.75903,125.53481c-0.0466,-0.04688 -0.0932,-0.09367 -0.1864,-0.18724c-0.60581,0.37449 -1.07182,0.88933 -1.53783,1.40427c0.1398,0.3277 0.32621,0.46806 0.69901,0.51494c0.32621,-0.56173 0.69901,-1.12346 1.02522,-1.73197zM240.8539,132.13499c-0.27961,0.70209 -0.60581,1.35749 -0.55921,2.15324c0,0.04679 0.1864,0.14046 0.27961,0.14046c0.233,0 0.41941,-0.18724 0.41941,-0.42137c0.1398,-0.60852 0.0466,-1.21703 -0.1398,-1.87233zM242.11213,122.91341c-0.233,-0.28082 -0.46601,-0.56173 -0.79222,-0.74897c-0.32621,0 -0.55921,0.09367 -0.79222,0.42127c0.32621,0.28091 0.65241,0.60861 0.97862,0.84264c0.27961,-0.09367 0.46601,-0.23403 0.60581,-0.51494zM240.20149,149.36104c0.65241,0.04679 1.21163,0.09357 1.77084,-0.23403c-0.1398,-0.42127 -0.46601,-0.60852 -0.83882,-0.74897c-0.37281,0.28082 -0.69901,0.51485 -0.93202,0.983zM223.05233,139.999c0.41941,-0.28082 0.46601,-0.3276 0.46601,-0.46806c0.0466,-0.46806 -0.1864,-0.88943 -0.41941,-1.26382c-0.0932,-0.14046 -0.32621,-0.18724 -0.46601,0.09357c0.27961,0.42127 0.0932,1.02979 0.41941,1.6383zM229.62307,125.86241c0.37281,-0.56173 0.79222,-1.07658 0.83882,-1.87233c-0.65241,0.3276 -0.97862,0.88933 -1.30483,1.35749c0.0466,0.23403 0.1864,0.3276 0.46601,0.51485zM230.60169,147.72265c-0.233,0.14046 -0.46601,0.23412 -0.69901,0.37449c0.233,0.42137 0.51261,0.74897 1.02522,0.60861c0.1398,-0.04688 0.27961,-0.09367 0.32621,-0.28091c-0.0932,-0.28082 -0.32621,-0.46806 -0.65241,-0.70218zM246.63242,133.53927c0.41941,0 0.60581,-0.09357 0.55921,-0.46806c-0.0466,-0.3277 -0.0932,-0.6554 -0.1864,-0.983c-0.0466,-0.14046 -0.1398,-0.28091 -0.32621,-0.23412c-0.1398,0.56173 -0.1398,1.07667 -0.0466,1.68518zM228.92405,132.60305c-0.1864,0.60852 -0.27961,1.21712 -0.1398,1.82564c0,0.04679 0.1864,0.14036 0.233,0.14036c0.0932,0 0.1864,-0.14036 0.1864,-0.23403c-0.0466,-0.60852 0.0466,-1.17024 -0.27961,-1.73197zM226.6872,134.19457c-0.1398,-0.46806 -0.1398,-0.983 -0.41941,-1.49785c-0.233,0.60852 -0.32621,1.12346 -0.1864,1.40427c0.0932,0.28082 0.27961,0.28082 0.60581,0.09357zM244.72178,148.79932c0.55921,-0.14046 1.21163,-0.14046 1.53783,-0.70218c-0.83882,-0.37449 -1.16502,0.18724 -1.53783,0.70218zM244.06937,140.27991c0.0932,0 0.1398,-0.04679 0.233,-0.04679c-0.0466,-0.46815 0.1398,-0.88943 -0.0932,-1.3107c-0.27961,-0.04679 -0.41941,0 -0.55921,0.23403c0.1398,0.3277 0.27961,0.70218 0.41941,1.12346zM234.84238,132.7903c-0.1398,0.6554 -0.233,1.17024 -0.1864,1.73197c0,0.09367 0.0932,0.18724 0.233,0.18724c0.0466,0 0.1398,-0.04679 0.1864,-0.09357c0.1864,-0.60861 0.1864,-1.17024 -0.233,-1.82564zM226.4542,144.77364c-0.27961,0.09367 -0.41941,0.18724 -0.32621,0.3277c0.1398,0.3277 0.32621,0.6553 0.51261,0.983c0.1398,0.18724 0.27961,0.18724 0.41941,0c-0.1398,-0.51494 -0.27961,-0.93621 -0.60581,-1.3107zM239.64228,121.93041c0.1864,-0.14046 0.37281,-0.23403 0.55921,-0.37449c0.0466,-0.04679 0.0466,-0.14046 0.0932,-0.28082c-0.55921,0 -1.07182,-0.14046 -1.67764,0.04679c0.32621,0.28082 0.55921,0.46806 1.02522,0.60852zM231.99972,139.6714c0.0466,0.46806 0.0932,0.88933 0.1398,1.45106c0.46601,-0.46806 0.60581,-0.88933 0.55921,-1.35749c-0.233,-0.14036 -0.37281,-0.18724 -0.69901,-0.09357zM246.63242,138.50115c0.1864,0.3276 0.0932,0.84255 0.60581,1.12346c0.1398,-1.12346 0.1398,-1.35749 -0.0932,-1.45115c-0.233,0 -0.37281,0.09367 -0.51261,0.3277zM232.04632,132.88397c-0.55921,0.70209 -0.55921,1.26382 -0.37281,1.966c0.65241,-0.56173 0.27961,-1.21703 0.37281,-1.966zM249.05567,131.24557c-0.51261,0.6554 -0.51261,1.17024 -0.41941,1.73197c0,0.04679 0.0932,0.09367 0.1864,0.09367c0.1398,0 0.233,-0.09367 0.233,-0.18724c0.0466,-0.46815 0,-0.93621 0,-1.6384zM248.86927,137.79897c0.1398,0.42127 0.1864,0.88943 0.65241,1.21703c0.1398,-0.46806 0.0932,-0.88933 0.0466,-1.26382c-0.27961,-0.14046 -0.46601,-0.09367 -0.69901,0.04679zM249.70809,128.57738c-0.32621,-0.42127 -0.32621,-0.93612 -0.79222,-1.12336c-0.1398,0.6553 -0.1398,0.6553 0.37281,1.31061c0.0932,-0.04679 0.1864,-0.09357 0.41941,-0.18724zM245.32759,146.5524c0.65241,-0.14036 0.97862,-0.56173 1.25823,-1.02979c-0.1398,-0.28082 -0.32621,-0.28082 -0.46601,-0.14046c-0.233,0.37449 -0.51261,0.74897 -0.79222,1.17024zM244.34897,123.9432c0.27961,-0.04679 0.51261,-0.09357 0.65241,-0.37449c-0.1864,-0.23403 -0.37281,-0.46806 -0.65241,-0.51485c-0.233,0.04679 -0.37281,0.14046 -0.46601,0.3277c0.0932,0.23403 0.233,0.37439 0.46601,0.56163zM238.43065,140.6544c0.1398,-0.37449 0.233,-0.6554 0.1398,-0.93621c-0.0466,-0.09357 -0.1398,-0.14046 -0.233,-0.18724c-0.1398,0 -0.32621,0.09367 -0.27961,0.23403c0,0.28091 0,0.60852 0.37281,0.88943zM236.47341,121.36868c-0.41941,-0.14046 -0.79222,0.09367 -1.16502,0.18724c0.55921,0.60852 0.65241,0.60852 1.16502,-0.18724zM224.07755,134.14778c0.1864,-0.70209 0.1864,-0.70209 -0.233,-0.983c-0.0932,0.28091 -0.1864,0.60852 0.233,0.983zM241.27331,139.39049c-0.1864,-0.14036 -0.32621,-0.14036 -0.37281,-0.04679c-0.233,0.37449 -0.1864,0.51494 0.233,0.93621c0.1398,-0.3277 0.1398,-0.60852 0.1398,-0.88943zM251.01291,131.62005c-0.233,0.23403 -0.41941,0.46815 -0.32621,0.79576c0.74562,-0.14036 0.79222,-0.23403 0.32621,-0.79576zM223.09893,132.50948c-0.27961,0.3276 -0.32621,0.70209 -0.37281,1.02979c0,0.18724 0.1398,0.3277 0.41941,0.14046c0.0466,-0.3277 0.0932,-0.70218 -0.0466,-1.17024zM248.03045,126.00287c-0.0932,0.46815 0.0466,0.70218 0.41941,0.79576c0,0 0.0932,-0.04679 0.0932,-0.09357c0.0466,-0.28091 -0.233,-0.46815 -0.51261,-0.70218zM235.30838,140.27991c0.27961,-0.09367 0.37281,-0.28091 0.32621,-0.46806c0,-0.09367 -0.0932,-0.18724 -0.1864,-0.23412c-0.0932,-0.04679 -0.233,0.04688 -0.233,0.14046c-0.0466,0.14046 -0.0466,0.3277 0.0932,0.56173zM242.67134,122.2581c0.1864,0.3276 0.37281,0.46806 0.74562,0.28082c-0.233,-0.37449 -0.41941,-0.46806 -0.74562,-0.28082z" id="Shape" fill="#000000"/><path d="M234.74917,156.75699c1.49123,0.04679 2.98246,0.09367 4.47369,0.09367c1.67764,0 3.35527,-0.18724 4.9863,-0.60852c0.51261,-0.14046 0.93202,-0.37449 1.49123,-0.56173c0,0.74888 0.0466,1.40427 0,2.05958c-0.1864,3.9321 -0.1398,7.91089 -0.233,11.88977c-0.0932,3.55752 -0.1398,7.06825 -0.1864,10.62586c-0.0466,2.43406 -0.0932,4.82143 -0.1398,7.25549c-0.0466,2.2937 0,4.54061 -0.0466,6.83431c0,0.18724 0,0.37449 -0.0466,0.56173c-0.65241,0.51485 -1.35143,0.74888 -2.14364,0.93612c-1.25823,0.28091 -2.56305,0.46815 -3.86788,0.42137c-0.41941,0 -0.83882,0.04679 -1.21163,-0.18724c0.41941,-0.09367 0.88542,0.04679 1.39803,-0.18724c-0.32621,-0.74897 -0.1864,-1.54473 -0.233,-2.2937c0,-0.04679 0,-0.09367 -0.0466,-0.09367c-0.37281,-1.26382 -0.37281,-2.6213 -0.60581,-3.932c-0.0932,-0.46806 -0.32621,-0.93621 -0.233,-1.40427c0.0932,-0.93621 -0.32621,-1.82564 -0.233,-2.76185c0,-0.04679 -0.0466,-0.14036 -0.0466,-0.23403c-0.1398,-0.88933 -0.32621,-1.73197 -0.37281,-2.6213c0,-1.02988 -0.37281,-1.9661 -0.27961,-2.99588c-0.27961,-0.60852 -0.1864,-1.21703 -0.233,-1.87243c0,-0.09357 0,-0.14036 0,-0.23403c-0.37281,-0.93621 -0.1864,-1.91921 -0.37281,-2.85543c-0.1864,-0.93612 -0.0932,-1.91912 -0.233,-2.85533c-0.1398,-1.07667 -0.41941,-2.10646 -0.27961,-3.22991c0,-0.09367 0,-0.23403 -0.0466,-0.3277c-0.27961,-0.51485 -0.1398,-1.07658 -0.1864,-1.6383c0,-0.28091 0.0466,-0.60852 -0.0466,-0.88943c-0.1864,-0.42127 -0.1398,-0.79576 -0.1398,-1.21703c0,-0.23403 0.0466,-0.46815 -0.0466,-0.6554c-0.27961,-0.60852 -0.1864,-1.26382 -0.1864,-1.87233c0,-0.23403 0.0466,-0.46815 -0.0466,-0.6554c-0.233,-0.51485 -0.1864,-1.02979 -0.1864,-1.54473c0,-0.84255 -0.32621,-1.68509 -0.27961,-2.52773c0.0466,-0.14036 -0.0932,-0.28082 -0.1398,-0.42127z" id="Shape" fill="#87d7dc"/><path d="M234.74917,156.75699c0.0466,0.14046 0.1864,0.28091 0.1864,0.42127c-0.0466,0.84264 0.233,1.68518 0.27961,2.52773c0,0.51494 -0.0466,1.02988 0.1864,1.54473c0.0932,0.18724 0.0466,0.42137 0.0466,0.6554c0,0.60852 -0.0466,1.26382 0.1864,1.87233c0.0932,0.18724 0,0.42137 0.0466,0.6554c0,0.42127 0,0.79576 0.1398,1.21703c0.0932,0.28091 0.0466,0.60852 0.0466,0.88943c0.0466,0.56173 -0.0932,1.12346 0.1864,1.6383c0.0466,0.09367 0.0466,0.23403 0.0466,0.3277c-0.1398,1.07667 0.1398,2.15324 0.27961,3.22991c0.1398,0.983 0.0466,1.966 0.233,2.85533c0.1864,0.93621 0,1.91921 0.37281,2.85543c0.0466,0.04679 0,0.14046 0,0.23403c0,0.60861 -0.0466,1.26391 0.233,1.87243c-0.1398,1.02979 0.233,1.966 0.27961,2.99588c0,0.88933 0.233,1.73197 0.37281,2.6213c0,0.09367 0.0466,0.14046 0.0466,0.23403c-0.0932,0.93621 0.32621,1.82564 0.233,2.76185c-0.0466,0.51485 0.1864,0.93621 0.233,1.40427c0.1864,1.3107 0.233,2.66819 0.60581,3.932c0,0.04688 0.0466,0.09367 0.0466,0.09367c0.0466,0.74897 -0.0932,1.54473 0.233,2.2937c-0.46601,0.23403 -0.93202,0.04679 -1.39803,0.18724c-0.37281,0 -0.74562,0 -1.07182,-0.28091c0,-0.28082 0.0466,-0.60852 -0.0466,-0.88933c-0.32621,-0.98309 -0.27961,-1.9661 -0.37281,-2.9491c-0.0932,-0.983 -0.41941,-1.966 -0.27961,-2.99579c-0.27961,-0.60852 -0.1864,-1.21712 -0.233,-1.87243c0,-0.09357 0,-0.23403 -0.0466,-0.3277c-0.233,-0.42127 -0.1398,-0.88933 -0.1864,-1.31061c0,-0.23412 0,-0.46815 -0.0466,-0.6554c-0.233,-1.02979 -0.41941,-2.10646 -0.41941,-3.18303c0,-0.14046 0.0466,-0.3277 -0.0466,-0.42127c-0.233,-0.46815 -0.1864,-0.93621 -0.1864,-1.40437c0.0466,-0.51485 -0.27961,-0.983 -0.233,-1.54473c0.0466,-0.74897 -0.1864,-1.45106 -0.27961,-2.20003c-0.0932,-1.02979 -0.37281,-2.01279 -0.37281,-3.08946c0,-0.18724 0.0466,-0.42127 -0.0466,-0.56173c-0.1864,-0.37449 -0.1398,-0.79576 -0.1864,-1.21703c0,-0.37449 -0.0466,-0.74897 -0.1398,-1.07667c-0.1864,-0.60852 -0.27961,-1.21703 -0.27961,-1.87233c-0.0466,-0.98309 -0.37281,-1.9661 -0.233,-2.99588c0,-0.09357 -0.0466,-0.23403 -0.0466,-0.3277c-0.1398,-0.983 -0.32621,-1.966 -0.37281,-2.949c0,-1.02979 -0.37281,-2.05967 -0.27961,-3.08946c0,-0.14046 -0.0932,-0.28082 -0.1398,-0.42127c-0.0932,-0.60852 -0.1398,-1.26391 0,-1.87243c0.233,-0.04679 0.41941,-0.04679 0.60581,-0.09357c0.65241,0.14036 1.21163,0.23403 1.81744,0.28082z" id="Shape" fill="#b0eef2"/><path d="M252.31774,133.118c0.1398,0.88933 0.1864,1.59152 0,2.2937c-0.37281,0.37449 -0.88542,0.51485 -1.39803,0.70209c-2.56305,0.79585 -5.12611,1.54473 -7.78236,1.91921c-2.00384,0.28091 -4.05428,0.56173 -6.10473,0.60852c-0.55921,0 -1.16502,-0.04679 -1.72424,0.09367c-0.233,0.04679 -0.51261,0.04679 -0.79222,0.04679c-1.11842,-0.18724 -2.23685,-0.09357 -3.35527,-0.14046c-1.58443,-0.04679 -3.16887,-0.28082 -4.7533,-0.60852c-0.79222,-0.18724 -1.58443,-0.3276 -2.42325,-0.46806c-0.65241,-0.09367 -1.21163,-0.37449 -1.77084,-0.60852c-0.32621,-0.84264 -0.37281,-1.17024 -0.27961,-2.2937c1.02522,0.04679 2.00384,0.3277 3.02906,0.46806c0.97862,0.14046 2.00384,0.28091 2.98246,0.37449c1.02522,0.09367 2.09704,0.14046 3.12227,0.18724c0.97862,0.09367 2.00384,-0.09357 2.98246,0.14046c1.02522,-0.23403 2.05044,-0.09367 3.07566,-0.14046c0.97862,-0.04679 2.00384,-0.14046 2.98246,-0.23403c1.02522,-0.09357 2.05044,-0.23403 3.12227,-0.37449c0.97862,-0.14046 2.00384,-0.23403 2.98246,-0.42127c1.02522,-0.18724 2.00384,-0.46815 3.02906,-0.70218c1.07182,-0.23403 2.05044,-0.42127 3.07566,-0.84255z" id="Shape" fill="#d1eaeb"/><path d="M232.97834,156.52296c-0.1864,0.04679 -0.37281,0.04679 -0.60581,0.09357c-0.1398,0.60861 -0.1398,1.21712 0,1.87243c0.0466,0.14046 0.1398,0.28091 0.1398,0.42127c-0.0932,1.02988 0.233,2.05967 0.27961,3.08946c0,0.983 0.233,1.966 0.37281,2.9491c0,0.09357 0.0466,0.23403 0.0466,0.3276c-0.1398,1.02988 0.233,1.966 0.233,2.99588c0,0.60852 0.0932,1.26382 0.27961,1.87233c0.0932,0.37449 0.1398,0.74897 0.1398,1.07667c0,0.42127 -0.0466,0.79576 0.1864,1.21703c0.0932,0.14046 0.0466,0.37449 0.0466,0.56173c0,1.02988 0.27961,2.05967 0.37281,3.08946c0.0932,0.74897 0.32621,1.45115 0.27961,2.20013c-0.0466,0.51485 0.27961,0.983 0.233,1.54473c-0.0466,0.46806 -0.0932,0.983 0.1864,1.40427c0.0466,0.14046 0.0466,0.28082 0.0466,0.42127c0,1.07667 0.1864,2.10646 0.41941,3.18303c0.0466,0.23412 0,0.46815 0.0466,0.6554c0,0.42127 -0.0466,0.88933 0.1864,1.3107c0.0466,0.09357 0.0466,0.23403 0.0466,0.3276c0,0.60852 -0.0466,1.26391 0.233,1.87243c-0.1398,1.02979 0.1864,2.01279 0.27961,2.99588c0.0932,0.983 0.0466,2.01279 0.37281,2.949c0.0932,0.28082 0.0466,0.60852 0.0466,0.88933c-0.41941,0.04688 -0.69901,-0.23403 -1.02522,-0.28082c-0.233,-1.966 -0.51261,-3.83843 -0.74562,-5.71086c-0.27961,-2.05958 -0.51261,-4.07246 -0.74562,-6.13204c-0.233,-1.91921 -0.51261,-3.83843 -0.79222,-5.75764c-0.32621,-2.38727 -0.69901,-4.72786 -1.02522,-7.06834c-0.233,-1.77876 -0.46601,-3.55752 -0.74562,-5.33628c-0.37281,-2.76185 -0.55921,-5.5704 -1.02522,-8.33216c-0.0466,-0.37449 -0.1864,-0.74897 -0.0466,-1.17024c0.41941,0 0.83882,0.14036 1.25823,0.23403c0.233,0.09357 0.65241,0 1.02522,0.23403z" id="Shape" fill="#87d7dc"/><path d="M238.75686,197.24765c0.97862,-0.09367 1.91064,0 2.88926,-0.14046c1.11842,-0.18724 2.23685,-0.42127 3.35527,-0.93621c0,2.71497 0,5.38316 0,8.00446c-0.51261,0.51494 -1.11842,0.70218 -1.67764,0.93621c-1.07182,0.42127 -2.14364,0.51494 -3.26207,0.60852c-0.0466,0 -0.1398,-0.04679 -0.1864,-0.09357c0.41941,-0.28082 0.27961,-0.6553 0.1864,-1.02979c-0.233,-0.93621 -0.41941,-1.87243 -0.37281,-2.80864c0,-0.18724 0,-0.37449 -0.0466,-0.56173c-0.27961,-0.88933 -0.233,-1.82555 -0.37281,-2.71497c-0.0932,-0.51485 -0.1864,-0.88933 -0.51261,-1.26382z" id="Shape" fill="#61afb4"/><path d="M232.27932,150.29726c1.63103,0.28082 3.26207,0.23403 4.8931,0.37449c0.74562,0.04679 1.49123,-0.04688 2.23685,-0.14046c1.39803,-0.09367 2.84266,0 4.24069,-0.28082c0.55921,-0.09367 1.11842,-0.18724 1.63103,-0.3277c0.32621,-0.09367 0.65241,-0.14046 0.97862,-0.14046c0.0466,0.14046 0.0932,0.23403 0.0932,0.3277c0,0.37449 0,0.74897 0,1.12346c-0.233,0.14036 -0.41941,0.23403 -0.65241,0.3276c-1.67764,0.56173 -3.40187,1.12346 -5.21931,1.12346c-1.58443,0.04679 -3.21547,0.09367 -4.7999,-0.04679c-1.25823,-0.09367 -2.51645,-0.14046 -3.72808,-0.60852c0.233,-0.09367 0.51261,0.04679 0.69901,-0.23403c0.0932,-0.51494 0.233,-1.12346 -0.37281,-1.49794z" id="Shape" fill="#61aeb3"/><path d="M233.39775,153.4335c0.79222,-0.09367 1.53783,0.18724 2.33005,0.23403c1.67764,0.04679 3.35527,0.09367 5.03291,0c1.35143,-0.09357 2.65626,-0.37449 3.91448,-0.74897c0.32621,-0.09357 0.65241,-0.18724 0.97862,-0.28082c0,0.6553 0,1.21703 0,1.82555c-0.55921,0.56173 -1.25823,0.79576 -2.00384,0.93621c-0.88542,0.18724 -1.81744,0.37449 -2.74946,0.42127c-2.09704,0.18724 -4.14749,0.09367 -6.24453,0.04688c-0.37281,0 -0.74562,0 -1.07182,-0.23412c0,-0.23403 0.0466,-0.46806 -0.0466,-0.6553c-0.1864,-0.46806 -0.1398,-1.02979 -0.1398,-1.54473z" id="Shape" fill="#61aeb3"/><path d="M238.75686,197.24765c0.27961,0.3276 0.41941,0.70209 0.46601,1.17024c0.1398,0.88933 0.0932,1.82555 0.37281,2.71497c0.0466,0.18724 0.0466,0.37449 0.0466,0.56173c0,0.983 0.1864,1.87233 0.37281,2.80855c0.0932,0.3277 0.233,0.74897 -0.1864,1.02979c-0.69901,0.04688 -1.35143,-0.04679 -1.95724,-0.28082c-0.1398,-0.6553 -0.32621,-1.3107 -0.233,-1.966c0,-0.09367 -0.0466,-0.23403 -0.0466,-0.3277c-0.1398,-0.93621 -0.27961,-1.91921 -0.37281,-2.85543c-0.0466,-0.42127 -0.0466,-0.79576 -0.1398,-1.21703c-0.1398,-0.51494 -0.1864,-1.07658 0.0466,-1.59152c0.233,-0.04679 0.41941,-0.04679 0.60581,-0.09367c0.32621,0 0.69901,0.04688 1.02522,0.04688z" id="Shape" fill="#87d7dc"/><path d="M233.49095,127.54759c0.55921,0.6553 0.79222,1.40427 0.97862,2.15324c0.0466,0.18724 0.0466,0.46815 0,0.6554c-0.37281,1.35749 -0.55921,2.71497 -0.69901,4.07246c0,0.04679 -0.0466,0.14036 -0.0932,0.18724c-0.1864,0.14036 -0.41941,0.14036 -0.65241,0c0,-0.09367 -0.0466,-0.18724 -0.0466,-0.28091c0.0466,-1.12346 -0.0466,-2.24682 -0.37281,-3.32349c-0.1398,-0.56173 -0.1398,-1.07667 0.0932,-1.6383c0.27961,-0.60861 0.41941,-1.21712 0.79222,-1.82564z" id="Shape" fill="#cce5e6"/><path d="M230.69489,134.61594c-0.27961,0.14036 -0.46601,0.09357 -0.60581,-0.04688c-0.0932,-2.24682 -0.0932,-2.24682 -0.83882,-4.21282c0.0932,-0.79585 0.41941,-1.59161 0.65241,-2.34058c0.32621,-0.09357 0.37281,0.18724 0.46601,0.3277c0.32621,0.51494 0.65241,0.983 0.88542,1.54473c0.1398,0.37449 0.1864,0.70218 0.0932,1.07667c-0.27961,1.17024 -0.51261,2.38727 -0.65241,3.65119z" id="Shape" fill="#cce5e6"/><path d="M237.68503,197.20076c-0.1864,0.04688 -0.37281,0.04688 -0.60581,0.09367c-0.233,0.51494 -0.1864,1.07658 -0.0466,1.59152c0.0932,0.42127 0.0932,0.79576 0.1398,1.21703c0.0932,0.93621 0.233,1.91921 0.37281,2.85543c0,0.09367 0.0466,0.23403 0.0466,0.3277c-0.0466,0.70218 0.1398,1.3107 0.233,1.966c-0.37281,-0.09357 -0.69901,-0.18724 -1.07182,-0.46806c-0.1398,-1.3107 -0.37281,-2.66819 -0.46601,-4.02567c-0.1398,-1.3107 -0.46601,-2.6214 -0.46601,-4.02567c0.74562,0.04679 1.30483,0.23403 1.86404,0.46806z" id="Shape" fill="#60adb2"/><path d="M242.15873,139.25012c0.1864,-0.04688 0.32621,-0.09367 0.51261,-0.14046c0.0932,0.09357 0.1398,0.14046 0.1864,0.18724c0.1864,0.79576 0.51261,1.54473 0.88542,2.2937c0.1398,0.3276 0.1864,0.60852 0.0466,0.93621c-0.233,0.6553 -0.37281,1.35749 -0.97862,1.91912c-0.55921,-0.60852 -0.88542,-1.35749 -1.16502,-2.10636c-0.0466,-0.14046 0,-0.37449 0.0466,-0.56173c0.1398,-0.84264 0.27961,-1.68518 0.46601,-2.52773z" id="Shape" fill="#cce5e6"/><path d="M242.81114,127.40714c0.1864,0.46815 0.32621,0.74897 0.46601,1.07667c0.233,0.60852 0.27961,1.17024 0,1.82555c-0.41941,1.12346 -0.69901,2.2937 -0.69901,3.46394c0,0.37449 -0.0466,0.42127 -0.60581,0.37449c0,-0.14046 -0.0466,-0.28082 -0.0466,-0.42127c0.0466,-1.17024 -0.0932,-2.2937 -0.37281,-3.41716c-0.0466,-0.28082 -0.0932,-0.51485 0,-0.74897c0.37281,-0.70209 0.65241,-1.40427 1.25823,-2.15324z" id="Shape" fill="#cae2e3"/><path d="M236.1938,134.66272c-0.0466,-0.04679 -0.0932,-0.14046 -0.0932,-0.18724c0.0932,-1.07667 -0.0932,-2.10646 -0.32621,-3.08946c-0.1864,-0.93621 -0.1864,-1.82564 0.27961,-2.71497c0.233,-0.42127 0.27961,-0.93621 0.60581,-1.3107c0.74562,0.983 0.93202,2.10646 0.60581,3.13625c-0.37281,1.26391 -0.79222,2.48094 -0.74562,3.83843c-0.0466,0.14046 -0.0466,0.3277 -0.32621,0.3277z" id="Shape" fill="#c9e1e2"/><path d="M239.54907,127.45402c0.46601,0.74888 0.65241,1.40427 0.83882,2.10636c0.0466,0.23412 0.0466,0.46815 -0.0466,0.6554c-0.41941,1.3107 -0.74562,2.66819 -0.97862,4.02567c0,0.09357 -0.0466,0.23403 -0.27961,0.18724c0,-0.3277 0,-0.70218 -0.0466,-1.02988c-0.0466,-0.93621 -0.1398,-1.87233 -0.41941,-2.76176c-0.1864,-0.6553 -0.1398,-1.26382 0.1864,-1.82555c0.233,-0.42137 0.46601,-0.79585 0.74562,-1.35749z" id="Shape" fill="#c9e1e2"/><path d="M245.09459,138.78197c0.27961,-0.23403 0.51261,-0.23403 0.74562,-0.23403c0.0466,0.04679 0.0932,0.14046 0.1398,0.18724c0.0932,0.74897 0.37281,1.45106 0.79222,2.05967c0.233,0.37449 0.27961,0.74888 0.1398,1.17024c-0.1864,0.51485 -0.32621,1.07658 -0.60581,1.54473c-0.51261,-0.42137 -1.11842,-1.17024 -1.21163,-1.54473c-0.0932,-0.23412 0,-0.42137 0.0466,-0.6554c-0.0466,-0.79576 0.1398,-1.6383 -0.0466,-2.52773z" id="Shape" fill="#cae3e4"/><path d="M229.15706,141.87143c0.46601,-0.74897 0.79222,-1.49794 1.07182,-2.2937c0.27961,-0.09357 0.46601,-0.09357 0.69901,0.04688c0.233,0.84255 0.1398,1.82555 0.41941,2.66809c-0.233,0.51494 -0.60581,0.79576 -0.93202,1.17024c-0.1864,0.18724 -0.32621,0.42137 -0.65241,0.46815c-0.37281,-0.60852 -0.32621,-1.35749 -0.60581,-2.05967z" id="Shape" fill="#c8e0e1"/><path d="M236.61321,139.6714c0.41941,0.04679 0.46601,0.23403 0.51261,0.42127c0.1864,0.70218 0.37281,1.35749 0.51261,2.05967c0.0466,0.18724 0.0466,0.37449 -0.0466,0.56173c-0.32621,0.51485 -0.69901,1.02979 -1.11842,1.49785c-0.233,-0.28082 -0.27961,-0.56173 -0.41941,-0.84255c-0.41941,-0.84255 -0.46601,-1.6384 0.1398,-2.38727c0.27961,-0.37449 0.37281,-0.84264 0.41941,-1.3107z" id="Shape" fill="#cbe4e5"/><path d="M233.67735,139.6714c0.233,0 0.37281,0 0.51261,0c0.0466,0.09357 0.1398,0.14046 0.1398,0.18724c0.0932,0.51485 0.1398,1.02979 0.233,1.54473c0.0466,0.28082 0,0.51485 -0.1398,0.74897c-0.41941,0.70209 -0.88542,1.35749 -1.49123,2.01279c-0.32621,-0.42127 -0.37281,-0.84255 -0.41941,-1.26391c0,-0.18715 0,-0.37439 0.0932,-0.51485c0.60581,-0.74897 0.88542,-1.68518 1.07182,-2.71497z" id="Shape" fill="#c8e0e1"/><path d="M233.39775,153.4335c0,0.51494 -0.0466,1.07667 0.1864,1.59152c0.0932,0.18724 0.0466,0.42127 0.0466,0.6554c-0.79222,0.04679 -1.53783,-0.09367 -2.23685,-0.42137c0.0932,-0.6553 -0.0932,-1.31061 -0.1864,-1.87233c0.32621,-0.23403 0.65241,-0.09367 0.93202,-0.18724c0.41941,-0.04679 0.88542,0 1.25823,0.23403z" id="Shape" fill="#85d5d9"/><path d="M246.35282,129.70084c-0.233,0.70218 -0.46601,1.40427 -0.65241,2.15324c-0.1398,0.6554 0.233,1.40437 -0.46601,2.10646c0,-1.59152 -0.32621,-2.99579 -0.65241,-4.40016c0.233,-0.51485 0.51261,-1.07658 0.97862,-1.49785c0.0932,0.09357 0.1398,0.14036 0.1864,0.18724c0.233,0.46806 0.41941,0.93621 0.60581,1.45106z" id="Shape" fill="#c6dede"/><path d="M232.83853,126.42414c-0.32621,0.79576 -0.60581,1.49794 -0.93202,2.2937c-0.37281,-0.28082 -0.51261,-0.6553 -0.74562,-0.93621c-0.233,-0.3276 -0.55921,-0.60852 -0.69901,-1.02979c0,-0.3277 0.1864,-0.60852 0.32621,-0.88943c0.1398,-0.28082 0.32621,-0.56173 0.55921,-0.84255c0.65241,0.28082 1.02522,0.84255 1.49123,1.40427z" id="Shape" fill="#cae3e3"/><path d="M227.71243,134.70951c-0.32621,-1.40427 -0.65241,-2.57452 -1.25823,-3.69797c0.1864,-0.60852 0.32621,-1.21703 0.51261,-1.87243c0.60581,0.37449 0.83882,0.93621 1.16502,1.45115c0.0466,0.09357 0.0466,0.23403 0.0466,0.3277c-0.1398,1.17024 -0.27961,2.34049 -0.46601,3.79155z" id="Shape" fill="#cae3e4"/><path d="M239.54907,144.21192c-0.46601,-0.74897 -0.83882,-1.45106 -0.41941,-2.38727c0.27961,-0.6553 0.32621,-1.35749 0.37281,-2.05967c0,-0.28082 0.233,-0.3276 0.51261,-0.23403c-0.0932,0.74897 0.1398,1.45115 0.37281,2.15324c0.1864,0.51494 0.0932,0.93621 -0.1398,1.35749c-0.1864,0.37449 -0.27961,0.79576 -0.69901,1.17024z" id="Shape" fill="#c8e0e1"/><path d="M232.27932,150.29726c0.60581,0.42127 0.46601,0.983 0.41941,1.54473c-0.1864,0.28082 -0.46601,0.18724 -0.69901,0.23403c-0.60581,-0.04679 -1.16502,-0.23403 -1.72424,-0.51494c0.0466,-0.51485 -0.1398,-1.02979 0.0932,-1.49785c0.233,-0.04688 0.37281,-0.04688 0.55921,-0.04688c0.46601,0.09367 0.93202,0.18724 1.35143,0.28091z" id="Shape" fill="#85d4d9"/><path d="M234.93558,143.18213c0.27961,0.70218 0.46601,1.3107 0.69901,1.91921c-0.41941,0.56173 -0.88542,0.983 -1.39803,1.35749c-0.32621,-0.09367 -0.41941,-0.37449 -0.55921,-0.56173c-0.1398,-0.18724 -0.27961,-0.37449 -0.233,-0.70218c0.37281,-0.56173 0.88542,-1.21703 1.49123,-2.01279z" id="Shape" fill="#c7dfe0"/><path d="M242.25193,145.47583c-0.32621,0.46806 -0.60581,0.93621 -1.07182,1.35749c-0.55921,-0.42127 -0.79222,-0.983 -1.11842,-1.59152c0.32621,-0.56173 0.65241,-1.12346 0.97862,-1.73197c0.46601,0.6553 0.79222,1.26382 1.21163,1.966z" id="Shape" fill="#c8e0e1"/><path d="M235.07538,124.92629c0.37281,0.37439 0.74562,0.74888 0.97862,1.26382c-0.27961,0.6553 -0.60581,1.3107 -0.93202,2.01279c-0.0932,0 -0.1864,0 -0.1864,-0.04679c-0.27961,-0.42127 -0.55921,-0.88933 -0.79222,-1.3107c-0.0932,-0.18724 -0.1398,-0.37439 -0.0466,-0.51485c0.27961,-0.56173 0.41941,-1.12346 0.97862,-1.40427z" id="Shape" fill="#c4dcdd"/><path d="M242.20533,126.37735c-0.37281,0.60852 -0.69901,1.21703 -1.07182,1.82555c-0.37281,-0.14036 -0.37281,-0.51485 -0.51261,-0.79576c-0.1398,-0.28082 -0.233,-0.60852 -0.37281,-0.93612c0.233,-0.56173 0.69901,-0.93621 1.07182,-1.40437c0.51261,0.3277 0.69901,0.79576 0.88542,1.3107z" id="Shape" fill="#c8e0e1"/><path d="M243.55676,145.2418c0.32621,-0.6554 0.60581,-1.26391 0.93202,-1.9661c0.46601,0.37449 0.69901,0.88943 1.11842,1.26391c-0.1864,0.6553 -0.65241,1.07667 -1.02522,1.6383c-0.46601,-0.28082 -0.83882,-0.51485 -1.02522,-0.93612z" id="Shape" fill="#c6ddde"/><path d="M247.98385,138.033c0.46601,0.79576 0.69901,1.68518 1.30483,2.38737c-0.1398,0.56173 -0.233,1.07658 -0.55921,1.59152c-0.55921,-0.3277 -0.88542,-0.74897 -0.79222,-1.45115c0.1398,-0.84255 0.0466,-1.68509 0.0466,-2.52773z" id="Shape" fill="#b9cfd0"/><path d="M225.10277,134.05421c-0.27961,-0.14046 -0.1398,-0.37449 -0.1864,-0.56173c-0.0932,-0.42127 -0.1398,-0.84264 -0.41941,-1.12346c-0.37281,-0.51494 -0.32621,-1.02979 -0.233,-1.59152c0.0466,-0.23403 0.1398,-0.46815 0.233,-0.79576c0.60581,0.51485 1.07182,0.983 0.88542,1.87233c-0.1398,0.60852 -0.0932,1.26391 -0.1398,1.87243c0,0.14046 0,0.28082 -0.1398,0.3277z" id="Shape" fill="#c0d8d8"/><path d="M227.01341,142.99489c-0.233,-0.42127 -0.32621,-0.79576 -0.32621,-1.17024c0,-0.18724 0,-0.42127 0.0932,-0.56173c0.41941,-0.60852 0.69901,-1.26391 0.97862,-1.91921c0.32621,0 0.27961,0.18724 0.27961,0.3277c0,0.46806 0,0.983 0.0932,1.45106c0.0932,0.60852 -0.0466,1.02988 -0.51261,1.35749c-0.233,0.14046 -0.37281,0.28091 -0.60581,0.51494z" id="Shape" fill="#c1d9d9"/><path d="M238.85006,145.19492c-0.27961,0.51494 -0.65241,0.88943 -1.02522,1.35749c-0.51261,-0.28082 -0.65241,-0.79576 -0.93202,-1.21703c0.32621,-0.60852 0.83882,-1.02979 1.30483,-1.54473c0.32621,0.46815 0.46601,0.93621 0.65241,1.40427z" id="Shape" fill="#c3dbdc"/><path d="M238.05784,128.01566c-0.27961,-0.6553 -0.51261,-1.26382 -0.79222,-1.87233c0.1864,-0.42127 0.37281,-0.79576 0.79222,-1.07667c0.41941,0.37449 0.65241,0.84264 0.93202,1.3107c-0.1864,0.60852 -0.46601,1.12346 -0.93202,1.6383z" id="Shape" fill="#c3dadb"/><path d="M234.70257,147.34826c0.46601,-0.42137 0.88542,-0.79585 1.30483,-1.17034c0.46601,0.3277 0.69901,0.79585 0.93202,1.26391c-0.32621,0.42127 -0.69901,0.74897 -1.16502,1.02979c-0.1398,-0.09357 -0.32621,-0.23403 -0.41941,-0.3276c-0.233,-0.28091 -0.37281,-0.51494 -0.65241,-0.79576z" id="Shape" fill="#c4dbdc"/><path d="M225.56878,138.96921c0,0.88943 0,1.59152 0,2.34049c-0.233,0.3277 -0.51261,0.56173 -0.93202,0.70218c-0.27961,-0.23403 -0.1864,-0.56173 -0.27961,-0.84255c-0.0932,-0.28091 -0.1398,-0.56173 -0.1398,-0.79585c0.46601,-0.46806 0.83882,-0.84255 1.35143,-1.40427z" id="Shape" fill="#c2d9da"/><path d="M231.95311,124.13044c0.1864,-0.37449 0.41941,-0.6553 0.69901,-0.84255c0.37281,-0.04679 0.55921,0.23403 0.79222,0.37449c0.233,0.14046 0.51261,0.18724 0.65241,0.51494c-0.0932,0.46806 -0.41941,0.88933 -0.74562,1.40427c-0.233,-0.23403 -0.46601,-0.46815 -0.69901,-0.6553c-0.233,-0.28091 -0.46601,-0.56173 -0.69901,-0.79585z" id="Shape" fill="#c5ddde"/><path d="M240.43449,147.62907c-0.233,0.46806 -0.60581,0.60852 -0.88542,0.88943c-0.51261,-0.23412 -0.83882,-0.6554 -1.21163,-1.12346c0.32621,-0.37449 0.65241,-0.74897 0.93202,-1.12346c0.55921,0.3277 0.79222,0.88943 1.16502,1.35749z" id="Shape" fill="#c3dbdc"/><path d="M228.45804,129.18599c-0.1864,-0.14046 -0.27961,-0.23412 -0.37281,-0.3277c-0.1864,-0.23403 -0.37281,-0.51494 -0.60581,-0.79576c0.32621,-0.6554 0.51261,-1.3107 1.02522,-1.82564c0.32621,0.09367 0.46601,0.3277 0.65241,0.6554c-0.1864,0.70209 -0.41941,1.49785 -0.69901,2.2937z" id="Shape" fill="#c7dfe0"/><path d="M232.13952,145.19492c-0.46601,0.37449 -0.74562,0.84264 -1.25823,1.07667c-0.41941,-0.28091 -0.46601,-0.79576 -0.79222,-1.07667c0.41941,-0.60852 0.88542,-0.983 1.35143,-1.45106c0.46601,0.42127 0.46601,0.93621 0.69901,1.45106z" id="Shape" fill="#c7dee0"/><path d="M232.13952,153.15269c-0.27961,0.09357 -0.60581,-0.04688 -0.93202,0.18715c0.0932,0.60861 0.233,1.26391 0.1864,1.87243c-0.1864,-0.04679 -0.41941,-0.09357 -0.60581,-0.18724c-0.27961,-0.14046 -0.46601,-0.37449 -0.46601,-0.70209c-0.0466,-0.56173 -0.0932,-1.07667 -0.1398,-1.6384c0.60581,0 0.88542,0.04679 1.95724,0.46815z" id="Shape" fill="#61acb1"/><path d="M245.23439,126.89229c-0.32621,0.46806 -0.60581,0.84255 -0.97862,1.31061c-0.27961,-0.60852 -0.55921,-1.17024 -0.79222,-1.77876c0.233,-0.37449 0.46601,-0.70209 0.79222,-0.983c0.46601,0.42127 0.69901,0.88943 0.97862,1.45115z" id="Shape" fill="#c2dada"/><path d="M227.24642,144.02467c0.32621,-0.46806 0.69901,-0.74897 1.11842,-1.12346c0.1864,0.6554 0.37281,1.21712 0.55921,1.77885c-0.1864,0.42127 -0.51261,0.56173 -0.88542,0.79576c-0.41941,-0.3277 -0.55921,-0.84264 -0.79222,-1.45115z" id="Shape" fill="#c1d9d9"/><path d="M239.73548,125.48793c-0.41941,-0.46806 -0.69901,-0.84255 -1.02522,-1.21703c0.1398,-0.46806 0.51261,-0.79576 0.88542,-1.12346c0.41941,0.23412 0.79222,0.51494 1.07182,0.983c-0.1398,0.56173 -0.60581,0.79585 -0.93202,1.35749z" id="Shape" fill="#c6dedf"/><path d="M243.88296,147.02056c-0.32621,0.42127 -0.69901,0.79576 -1.02522,1.17024c-0.41941,-0.04679 -0.69901,-0.23403 -0.97862,-0.56173c0.1864,-0.60852 0.69901,-0.93621 1.02522,-1.45115c0.41941,0.18724 0.65241,0.51494 0.97862,0.84264z" id="Shape" fill="#c0d7d7"/><path d="M226.3144,128.34335c-0.1864,0.51494 -0.233,1.07667 -0.65241,1.54473c-0.27961,-0.3277 -0.55921,-0.60852 -0.83882,-0.88933c0,-0.56173 0.233,-1.02988 0.60581,-1.40437c0.37281,0.14046 0.60581,0.37449 0.88542,0.74897z" id="Shape" fill="#c3dadb"/><path d="M230.97449,150.01635c-0.1864,0 -0.37281,0.04688 -0.55921,0.04688c-0.233,0.46806 -0.0466,0.983 -0.0932,1.49785c-0.32621,0.04688 -0.51261,-0.23403 -0.83882,-0.28082c-0.1864,-0.60852 -0.0466,-1.17024 -0.37281,-1.77876c0.46601,-0.04688 0.74562,0.09357 1.07182,0.23403c0.233,0.09357 0.55921,0 0.79222,0.28082z" id="Shape" fill="#5aa0a4"/><path d="M250.87311,141.73097c-0.1864,0.51494 -0.233,1.07667 -0.60581,1.49794c-0.32621,-0.09357 -0.51261,-0.28082 -0.79222,-0.56173c0.0932,-0.51485 0.27961,-1.02979 0.55921,-1.45106c0.32621,0.09357 0.51261,0.23403 0.83882,0.51485z" id="Shape" fill="#bdd3d4"/><path d="M236.65981,149.03335c0.32621,-0.28082 0.60581,-0.56173 0.88542,-0.84255c0.41941,0.23403 0.69901,0.56173 0.97862,0.93621c-0.1398,0.37449 -0.46601,0.46806 -0.79222,0.46806c-0.41941,0 -0.83882,0 -1.07182,-0.56173z" id="Shape" fill="#bdd4d5"/><path d="M248.54306,129.74763c-0.233,0.56173 -0.46601,1.07667 -0.69901,1.6384c-0.46601,-0.983 -0.69901,-1.87243 0.233,-2.66819c0.27961,0.23403 0.32621,0.60852 0.46601,1.02979z" id="Shape" fill="#bbd2d3"/><path d="M232.32592,147.95677c-0.37281,-0.18724 -0.55921,-0.46815 -0.74562,-0.74897c0,-0.3277 0.233,-0.42127 0.41941,-0.60852c0.1398,-0.14046 0.27961,-0.3277 0.55921,-0.37449c0.37281,0.18724 0.37281,0.6553 0.74562,0.88933c-0.27961,0.42127 -0.60581,0.6554 -0.97862,0.84264z" id="Shape" fill="#c3dadb"/><path d="M237.26563,134.47548c0.0932,-0.84255 0.1864,-1.68518 0.46601,-2.52773c0.27961,0.04679 0.32621,0.28082 0.32621,0.51485c0.0466,0.60861 0.0466,1.21712 0.0466,1.77885c0,0.42127 -0.27961,0.51485 -0.83882,0.23403z" id="Shape" fill="#b1c6c7"/><path d="M246.53922,147.11413c0.0932,-0.37449 0.37281,-0.51485 0.55921,-0.74897c0.32621,-0.46806 0.74562,-0.51485 1.30483,-0.28082c-0.27961,0.6553 -0.83882,1.07667 -1.30483,1.45106c-0.32621,-0.04679 -0.46601,-0.14036 -0.55921,-0.42127z" id="Shape" fill="#bbd2d3"/><path d="M243.51016,134.00733c-0.1864,-0.88933 0.1398,-1.68509 0.41941,-2.52773c0.27961,0.6554 0.27961,1.35749 0.32621,2.01288c0.0466,0.42127 -0.0932,0.51485 -0.74562,0.51485z" id="Shape" fill="#bad1d2"/><path d="M250.4537,138.73518c0.32621,0.37449 0.65241,0.6553 0.97862,1.02979c-0.0466,0.23403 -0.1864,0.56173 -0.27961,0.88943c-0.83882,-0.23403 -0.83882,-0.28091 -0.79222,-0.88943c0,-0.3276 0.0466,-0.6553 0.0932,-1.02979z" id="Shape" fill="#b5cbcc"/><path d="M237.63843,121.88362c0.46601,0.14036 0.74562,0.37449 1.02522,0.60852c-0.1398,0.42127 -0.51261,0.60852 -0.83882,0.88943c-0.32621,-0.23412 -0.60581,-0.46815 -0.93202,-0.70218c0.0466,-0.42127 0.46601,-0.51494 0.74562,-0.79576z" id="Shape" fill="#c0d7d8"/><path d="M247.61104,142.43316c0.27961,0.09367 0.46601,0.3277 0.65241,0.60852c-0.1398,0.60852 -0.46601,1.12346 -0.88542,1.54473c-0.32621,0.04679 -0.41941,-0.09357 -0.51261,-0.3276c0.233,-0.60861 0.46601,-1.21712 0.74562,-1.82564z" id="Shape" fill="#bdd4d4"/><path d="M245.7936,126.09653c-0.27961,-0.42137 -0.51261,-0.88943 -0.79222,-1.3107c0.1864,-0.23403 0.41941,-0.3277 0.69901,-0.3277c0.27961,0.09367 0.37281,0.3277 0.51261,0.56173c0.0932,0.18724 0.1864,0.37449 0.27961,0.56173c-0.1398,0.28082 -0.32621,0.46806 -0.69901,0.51494z" id="Shape" fill="#b6cccc"/><path d="M236.61321,125.16032c-0.32621,-0.37449 -0.60581,-0.70218 -0.97862,-1.07667c0.0466,-0.28082 0.1864,-0.56173 0.60581,-0.70209c0.32621,0.23403 0.65241,0.51485 1.02522,0.79576c-0.1864,0.37449 -0.32621,0.70209 -0.65241,0.983z" id="Shape" fill="#c1d9d9"/><path d="M247.65764,127.54759c-0.1864,0.37449 -0.37281,0.6553 -0.69901,0.88943c-0.32621,-0.37449 -0.41941,-0.84264 -0.55921,-1.21712c0.0932,-0.37449 0.37281,-0.46806 0.60581,-0.60852c0.1398,0.04679 0.233,0.04679 0.233,0.09367c0.1398,0.28082 0.27961,0.56173 0.41941,0.84255z" id="Shape" fill="#b7cdce"/><path d="M250.12749,131.57327c-0.37281,-0.51494 -0.37281,-0.93621 -0.46601,-1.35749c-0.1398,-0.46815 0.1398,-0.6554 0.46601,-0.88943c0.32621,0.37449 0.41941,0.79576 0.60581,1.17024c-0.0932,0.46815 -0.55921,0.60852 -0.60581,1.07667z" id="Shape" fill="#b6cccc"/><path d="M249.24208,145.14813c-0.41941,0.04679 -0.69901,0.04679 -1.02522,-0.18724c0.27961,-0.42127 0.51261,-0.84255 0.74562,-1.21703c0.41941,-0.14046 0.60581,0.14046 0.88542,0.18724c0,0.09357 0.0466,0.18724 0,0.23403c-0.233,0.37449 -0.41941,0.6553 -0.60581,0.983z" id="Shape" fill="#c2dada"/><path d="M235.21518,122.72616c-0.1398,0.3277 -0.27961,0.46815 -0.51261,0.56173c-0.27961,0.04679 -0.46601,-0.14046 -0.69901,-0.28082c-0.1864,-0.14046 -0.51261,-0.18724 -0.55921,-0.51494c0.233,-0.28091 0.51261,-0.51494 0.93202,-0.60852c0.32621,0.28082 0.55921,0.56173 0.83882,0.84255z" id="Shape" fill="#bbd2d3"/><path d="M228.45804,146.41204c0.32621,-0.23412 0.55921,-0.42137 0.83882,-0.60852c0.32621,0.3276 0.51261,0.70209 0.74562,1.07658c-0.1864,0.28091 -0.41941,0.46815 -0.74562,0.46815c-0.0932,-0.04688 -0.1864,-0.09367 -0.233,-0.18724c-0.1864,-0.18724 -0.37281,-0.42137 -0.60581,-0.74897z" id="Shape" fill="#bbd2d3"/><path d="M251.71193,138.6884c-0.55921,-0.51494 -0.55921,-0.51494 -0.79222,-1.3107c0.233,-0.37449 0.60581,-0.42127 1.02522,-0.56173c0.1398,0.6553 -0.0932,1.26391 -0.233,1.87243z" id="Shape" fill="#adc2c3"/><path d="M233.11814,148.61207c0.1864,-0.28082 0.46601,-0.46806 0.79222,-0.51494c0.32621,0.3277 0.60581,0.60861 0.88542,0.93621c-0.79222,0.46815 -0.83882,0.46815 -1.67764,-0.42127z" id="Shape" fill="#b5cbcc"/><path d="M243.64996,124.5518c-0.233,0.3276 -0.41941,0.56163 -0.74562,0.79576c-0.37281,-0.23412 -0.51261,-0.6554 -0.79222,-1.02988c0.0932,-0.14036 0.1864,-0.23403 0.27961,-0.3276c0.0932,-0.09367 0.233,-0.14046 0.37281,-0.23412c0.41941,0.14046 0.65241,0.42137 0.88542,0.79585z" id="Shape" fill="#bbd1d2"/><path d="M225.66198,144.21192c-0.46601,-0.3276 -0.51261,-0.88933 -0.74562,-1.26382c0.1864,-0.3277 0.51261,-0.37449 0.79222,-0.56173c0.32621,0.51485 0.41941,0.983 0.27961,1.49794c0,0.14036 -0.1864,0.23403 -0.32621,0.3276z" id="Shape" fill="#b6cccd"/><path d="M227.75903,125.53481c-0.32621,0.60852 -0.69901,1.17024 -1.02522,1.73197c-0.32621,-0.04688 -0.51261,-0.18724 -0.69901,-0.51494c0.46601,-0.51494 0.93202,-1.02979 1.53783,-1.40427c0.0932,0.09357 0.1398,0.14036 0.1864,0.18724z" id="Shape" fill="#acc1c2"/><path d="M240.8539,132.13499c0.1398,0.60852 0.233,1.21703 0.1398,1.82555c-0.0466,0.23403 -0.1864,0.42127 -0.41941,0.42127c-0.0932,0 -0.27961,-0.09357 -0.27961,-0.14036c-0.0466,-0.70218 0.27961,-1.40437 0.55921,-2.10646z" id="Shape" fill="#a7bbbb"/><path d="M242.11213,122.91341c-0.0932,0.28091 -0.32621,0.42127 -0.60581,0.56173c-0.32621,-0.28082 -0.65241,-0.56173 -0.97862,-0.84255c0.1864,-0.37449 0.46601,-0.42137 0.79222,-0.42137c0.27961,0.14046 0.55921,0.42137 0.79222,0.70218z" id="Shape" fill="#b7cdcd"/><path d="M240.20149,149.36104c0.233,-0.46815 0.55921,-0.70218 0.93202,-0.93621c0.37281,0.14046 0.65241,0.3277 0.83882,0.74897c-0.55921,0.28082 -1.11842,0.23403 -1.77084,0.18724z" id="Shape" fill="#b7cece"/><path d="M223.05233,139.999c-0.32621,-0.56163 -0.1398,-1.17024 -0.37281,-1.6383c0.1864,-0.28082 0.37281,-0.23403 0.46601,-0.09357c0.233,0.37439 0.41941,0.79576 0.41941,1.26382c-0.0466,0.14046 -0.0466,0.18724 -0.51261,0.46806z" id="Shape" fill="#b4cacb"/><path d="M229.62307,125.86241c-0.27961,-0.14036 -0.41941,-0.28082 -0.51261,-0.51485c0.32621,-0.46815 0.65241,-0.983 1.30483,-1.35749c0.0466,0.79576 -0.37281,1.26382 -0.79222,1.87233z" id="Shape" fill="#b2c8c9"/><path d="M230.60169,147.72265c0.32621,0.23412 0.55921,0.42137 0.65241,0.70218c-0.0466,0.18724 -0.1864,0.23403 -0.32621,0.28091c-0.55921,0.18715 -0.79222,-0.14046 -1.02522,-0.60861c0.233,-0.09357 0.46601,-0.23403 0.69901,-0.37449z" id="Shape" fill="#b5cbcb"/><path d="M246.63242,133.53927c-0.0466,-0.60852 -0.0466,-1.12346 0.0932,-1.68518c0.233,-0.04679 0.32621,0.09367 0.32621,0.23412c0.0466,0.3276 0.1398,0.6553 0.1864,0.983c0,0.37449 -0.1864,0.46806 -0.60581,0.46806z" id="Shape" fill="#91a3a3"/><path d="M228.92405,132.60305c0.32621,0.56173 0.27961,1.17024 0.27961,1.73197c0,0.09367 -0.0932,0.18724 -0.1864,0.23403c-0.0932,0 -0.233,-0.09357 -0.233,-0.14036c-0.1398,-0.6554 -0.0466,-1.26391 0.1398,-1.82564z" id="Shape" fill="#99abac"/><path d="M226.6872,134.19457c-0.32621,0.18724 -0.55921,0.18724 -0.65241,-0.04679c-0.0932,-0.3276 0,-0.79576 0.1864,-1.40427c0.32621,0.46806 0.32621,0.983 0.46601,1.45106z" id="Shape" fill="#93a5a6"/><path d="M244.72178,148.79932c0.37281,-0.51494 0.69901,-1.07667 1.53783,-0.70218c-0.37281,0.56173 -0.97862,0.56173 -1.53783,0.70218z" id="Shape" fill="#9aadad"/><path d="M244.06937,140.27991c-0.1398,-0.37449 -0.27961,-0.79576 -0.41941,-1.12346c0.1398,-0.23403 0.27961,-0.28082 0.55921,-0.23403c0.233,0.42127 0.0466,0.88943 0.0932,1.3107c-0.0932,0 -0.1398,0 -0.233,0.04679z" id="Shape" fill="#c5dddd"/><path d="M234.84238,132.7903c0.41941,0.60852 0.41941,1.21703 0.233,1.82564c0,0.04679 -0.0932,0.09357 -0.1864,0.09357c-0.1398,0.04679 -0.233,-0.09357 -0.233,-0.18724c-0.0466,-0.51494 0.0932,-1.07658 0.1864,-1.73197z" id="Shape" fill="#aec2c3"/><path d="M226.4542,144.77364c0.32621,0.37449 0.46601,0.84264 0.60581,1.26391c-0.1398,0.23403 -0.32621,0.18724 -0.41941,0c-0.1864,-0.3277 -0.37281,-0.60852 -0.51261,-0.983c-0.0932,-0.09367 0.0466,-0.23412 0.32621,-0.28091z" id="Shape" fill="#9caeaf"/><path d="M239.64228,121.93041c-0.41941,-0.14046 -0.69901,-0.3277 -1.02522,-0.60852c0.60581,-0.18724 1.11842,-0.04679 1.67764,-0.04679c-0.0466,0.14036 -0.0466,0.23403 -0.0932,0.28082c-0.1864,0.14046 -0.37281,0.23403 -0.55921,0.37449z" id="Shape" fill="#a9bebf"/><path d="M231.99972,139.6714c0.32621,-0.09367 0.51261,-0.04679 0.69901,0.09357c0.0466,0.46815 -0.0932,0.88943 -0.55921,1.35749c-0.0932,-0.56173 -0.0932,-0.983 -0.1398,-1.45106z" id="Shape" fill="#b9cfd0"/><path d="M246.63242,138.50115c0.1398,-0.23403 0.32621,-0.28091 0.51261,-0.3277c0.233,0.09367 0.233,0.3277 0.0932,1.45115c-0.55921,-0.28091 -0.41941,-0.79585 -0.60581,-1.12346z" id="Shape" fill="#869797"/><path d="M232.04632,132.88397c-0.1398,0.74897 0.27961,1.40427 -0.37281,1.966c-0.1864,-0.70218 -0.1398,-1.26391 0.37281,-1.966z" id="Shape" fill="#93a4a5"/><path d="M249.05567,131.24557c0,0.70218 0,1.17024 0,1.6384c0,0.09357 -0.0932,0.18724 -0.233,0.18724c-0.0466,0 -0.1398,-0.04688 -0.1864,-0.09367c-0.0932,-0.56173 -0.0932,-1.07658 0.41941,-1.73197z" id="Shape" fill="#94a5a6"/><path d="M248.86927,137.79897c0.27961,-0.18724 0.41941,-0.23403 0.65241,-0.04679c0.0466,0.37449 0.0932,0.79576 -0.0466,1.26382c-0.46601,-0.3276 -0.46601,-0.79576 -0.60581,-1.21703z" id="Shape" fill="#abbfc0"/><path d="M249.70809,128.57738c-0.233,0.09367 -0.32621,0.14046 -0.41941,0.14046c-0.51261,-0.6553 -0.51261,-0.6553 -0.37281,-1.3107c0.46601,0.28091 0.46601,0.74897 0.79222,1.17024z" id="Shape" fill="#acc0c1"/><path d="M245.32759,146.5524c0.27961,-0.37449 0.51261,-0.79576 0.83882,-1.17024c0.1398,-0.14036 0.32621,-0.14036 0.46601,0.14046c-0.32621,0.46806 -0.65241,0.88943 -1.30483,1.02979z" id="Shape" fill="#9fb2b2"/><path d="M244.34897,123.9432c-0.233,-0.18724 -0.37281,-0.3276 -0.46601,-0.56163c0.0932,-0.18724 0.233,-0.28091 0.46601,-0.3277c0.27961,0.04679 0.46601,0.28082 0.65241,0.51485c-0.0932,0.28091 -0.37281,0.3277 -0.65241,0.37449z" id="Shape" fill="#aec2c3"/><path d="M238.43065,140.6544c-0.37281,-0.23403 -0.37281,-0.56173 -0.41941,-0.88943c0,-0.14036 0.1398,-0.23403 0.27961,-0.23403c0.0932,0 0.233,0.09367 0.233,0.18724c0.1398,0.28082 0.0466,0.56173 -0.0932,0.93621z" id="Shape" fill="#91a2a3"/><path d="M236.47341,121.36868c-0.51261,0.79576 -0.55921,0.84255 -1.16502,0.18724c0.37281,-0.09357 0.69901,-0.3277 1.16502,-0.18724z" id="Shape" fill="#869696"/><path d="M224.07755,134.14778c-0.41941,-0.37449 -0.27961,-0.6553 -0.233,-0.983c0.41941,0.23403 0.41941,0.23403 0.233,0.983z" id="Shape" fill="#555f5f"/><path d="M241.27331,139.39049c0,0.23412 0,0.56173 -0.1398,0.88943c-0.41941,-0.42127 -0.41941,-0.60852 -0.233,-0.93621c0.0466,-0.09357 0.1864,-0.09357 0.37281,0.04679z" id="Shape" fill="#93a5a6"/><path d="M251.01291,131.62005c0.46601,0.56173 0.41941,0.6554 -0.32621,0.79576c-0.0932,-0.3276 0.0932,-0.56173 0.32621,-0.79576z" id="Shape" fill="#8b9b9c"/><path d="M223.09893,132.50948c0.1398,0.46806 0.0932,0.84255 0.0466,1.21703c-0.27961,0.14046 -0.41941,0.04679 -0.41941,-0.14046c0,-0.37449 0.0466,-0.74897 0.37281,-1.07658z" id="Shape" fill="#9aacad"/><path d="M248.03045,126.00287c0.27961,0.23403 0.55921,0.37449 0.51261,0.74897c0,0.04679 -0.0466,0.09357 -0.0932,0.09357c-0.41941,-0.09357 -0.51261,-0.37439 -0.41941,-0.84255z" id="Shape" fill="#5f6a6b"/><path d="M235.30838,140.27991c-0.1398,-0.18724 -0.1398,-0.37449 -0.0932,-0.56173c0.0466,-0.09357 0.1398,-0.18724 0.233,-0.14046c0.0932,0.04688 0.1864,0.14046 0.1864,0.23412c0,0.18715 -0.0466,0.37439 -0.32621,0.46806z" id="Shape" fill="#636e6f"/><path d="M242.67134,122.2581c0.32621,-0.14046 0.55921,-0.09367 0.74562,0.28082c-0.37281,0.18724 -0.55921,0.04679 -0.74562,-0.28082z" id="Shape" fill="#4a5354"/></g></g></svg>