<svg version="1.1" xmlns="http://www.w3.org/2000/svg" xmlns:xlink="http://www.w3.org/1999/xlink" width="51.38715" height="132.87411" viewBox="0,0,51.38715,132.87411"><g transform="translate(-211.10654,-96.03879)"><g data-paper-data="{&quot;isPaintingLayer&quot;:true}" fill="none" fill-rule="nonzero" stroke="none" stroke-width="1" stroke-linecap="butt" stroke-linejoin="miter" stroke-miterlimit="10" stroke-dasharray="" stroke-dashoffset="0" font-family="none" font-weight="none" font-size="none" text-anchor="none" style="mix-blend-mode: normal"><path d="M234.34416,168.53584c0,-17.67108 0,-35.34226 0,-53.10763c-0.09391,-0.28278 -0.46957,-0.42412 -0.70436,-0.7068c-0.75131,-0.70689 -1.6435,-1.31949 -2.01916,-2.40336c-0.09391,-0.23554 -0.28174,-0.32983 -0.46957,-0.42402c-1.12697,-0.70689 -1.45567,-1.79076 -0.79827,-3.01596c0.14087,-0.32983 0.42261,-0.51831 0.70436,-0.7068c0.23479,-0.14134 0.46957,-0.23563 0.6574,-0.32983c0.14087,-0.32992 -0.23479,-0.32992 -0.28174,-0.56555c-0.04696,-0.18849 -0.18783,-0.32983 -0.28174,-0.47117c-0.46957,-0.84823 -0.28174,-1.69647 0.14087,-2.45041c0.18783,-0.32992 0.46957,-0.56546 0.89218,-0.65975c0.23479,-0.04714 0.42261,-0.0942 0.75131,-0.18849c-0.93914,-0.80109 -1.17393,-1.69647 -0.89218,-2.73309c0.28174,-1.13101 1.12697,-1.60218 2.20698,-1.74361c0.37566,-0.37697 0.37566,-0.84823 0.46957,-1.27226c0.18783,-0.94252 0.75131,-1.41369 1.69046,-1.55513c1.22088,-0.14134 2.44177,-0.28268 3.70961,0c0.23479,0.04714 0.46957,0.04714 0.6574,0.04714c0.89218,0 1.54958,0.51831 2.20698,1.03672c0.42261,0.32983 0.6574,0.80109 0.79827,1.3194c0.09391,0.42412 0.09391,0.89538 0.46957,1.31949c1.08001,0.14134 1.9722,0.6126 2.20698,1.79066c0.23479,1.03672 0.09391,1.932 -0.89218,2.59175c0.14087,0.04714 0.23479,0.14134 0.3287,0.14134c0.6574,0.09429 1.12697,0.37707 1.40871,0.94252c0.37566,0.75394 0.42261,1.50789 0.04696,2.26192c-0.18783,0.32983 -0.28174,0.7068 -0.6574,0.84814c0.18783,0.28278 0.46957,0.32992 0.70436,0.47126c0.9861,0.42412 1.50263,2.21478 0.6574,3.2515c-0.09391,0.0942 -0.14087,0.23563 -0.23479,0.23563c-0.75131,0.32983 -1.03306,0.98957 -1.45567,1.60218c-0.28174,0.47117 -0.79827,0.80109 -1.22088,1.17806c-0.18783,0.14134 -0.3287,0.28278 -0.51653,0.42412c-0.28174,0.23563 -0.37566,0.51831 -0.37566,0.89528c0,2.02629 0.04696,4.05259 0.04696,6.03183c0,1.88486 -0.09391,3.81695 -0.04696,5.70181c0,0.98957 0.04696,2.02629 0.04696,3.01587c0,0.84823 0,1.64932 0,2.49755c0,1.27235 -0.04696,2.5447 -0.04696,3.81695c0,1.03672 -0.04696,2.12058 0,3.1573c0.09391,1.69637 -0.09391,3.34569 0,5.04216c0.04696,0.75394 0,1.50789 0,2.26183c-0.04696,0.98967 0,2.02629 0.04696,3.01596c0.04696,0.80109 0,1.55503 0,2.35612c0,1.932 0,3.91115 0,5.84325c0,1.69647 -0.04696,3.43998 -0.04696,5.13645c0,0.0942 0.04696,0.23554 0.04696,0.32983c0.3287,0.14134 0.42261,-0.14134 0.51653,-0.28278c0.9861,-1.41369 2.16003,-2.68595 3.287,-4.00544c2.01916,-2.35612 3.9444,-4.80653 6.10442,-7.06845c0.3287,-0.32983 0.70436,-0.65975 1.08001,-0.98957c0.84523,-0.65975 2.01916,-0.70689 2.77047,0.04714c0.84523,0.80109 1.69046,1.60218 2.58264,2.35612c0.46957,0.37697 0.61044,0.89538 0.46957,1.50798c-0.23479,1.17806 -0.6574,2.30897 -1.08001,3.43998c-0.79827,2.30897 -1.59654,4.61804 -2.39481,6.92702c-0.61044,1.79066 -1.26784,3.62847 -1.87828,5.41913c-0.42261,1.41369 -0.89218,2.78033 -1.36176,4.19402c-0.18783,0.51831 -0.37566,1.03672 -0.56349,1.60218c-0.56349,1.60218 -0.56349,3.15721 0.04696,4.75938c0.51653,1.36655 1.17393,2.68604 1.83133,4.00544c1.83133,3.67561 3.6157,7.44552 5.30615,11.21533c0.37566,0.80109 0.75131,1.64932 1.17393,2.40326c0.3287,0.56546 0.3287,1.17806 0.28174,1.74352c-0.04696,0.65975 -0.28174,1.2252 -0.84523,1.64932c-0.46957,0.32992 -0.9861,0.70689 -1.50263,0.98957c-4.74267,2.6389 -9.53229,5.27779 -14.27496,7.91669c-7.79488,4.33536 -15.5428,8.67063 -23.33768,12.95884c-1.69046,0.94243 -3.33395,1.83781 -5.02441,2.78024c-0.18783,0.09429 -0.3287,0.18849 -0.51653,0.23563c-0.9861,0.42412 -1.92524,0.56546 -2.81743,-0.23563c-0.42261,-0.37697 -0.93914,-0.6126 -1.40871,-0.94243c-0.28174,-0.18849 -0.51653,-0.42412 -0.79827,-0.6126c-0.89218,-0.6126 -1.03306,-1.932 -0.61044,-2.82738c0.79827,-1.64932 1.54958,-3.34569 2.34785,-4.99501c0.84523,-1.79066 1.69046,-3.58142 2.58264,-5.37208c0.79827,-1.60218 1.54958,-3.2515 2.34785,-4.85367c1.08001,-2.21478 2.20698,-4.42956 3.24004,-6.69148c1.08001,-2.40326 2.3009,-4.71224 3.38091,-7.1155c1.03306,-2.21478 2.06611,-4.38251 3.09917,-6.59728c0.61044,-1.36655 0.75131,-2.73309 0.37566,-4.19393c-0.18783,-0.75394 -0.28174,-1.55503 -0.42261,-2.30907c-0.04696,-0.42402 -0.14087,-0.80109 -0.18783,-1.22511c-0.23479,-1.2252 -0.37566,-2.45041 -0.56349,-3.67561c-0.04696,-0.28278 -0.09391,-0.6126 -0.18783,-0.89538c-0.42261,-1.3194 -0.04696,-2.54461 0.46957,-3.72266c0.61044,-1.41369 1.78437,-2.30907 3.19308,-2.82738c0.75131,-0.28278 1.59654,-0.47126 2.34785,-0.70689c0.42261,-0.04714 0.70436,-0.14134 0.9861,-0.23563zM236.69202,178.57311c0,0.47117 0,0.89528 0,1.36655c-0.04696,0.23563 -0.09391,0.42412 0,0.65975c0.04696,0.14134 0.18783,0.23554 0.37566,0.18849c0.09391,-0.04714 0.18783,-0.09429 0.23479,-0.18849c0.04696,-0.04714 0.04696,-0.14143 0.04696,-0.23563c0,-1.83781 0,-3.67561 0,-5.51342c0,-0.14134 -0.04696,-0.28278 -0.23479,-0.28278c-0.04696,-0.04705 -0.14087,-0.04705 -0.18783,0c-0.18783,0 -0.23479,0.09429 -0.23479,0.28278c0,1.17806 0,2.45041 0,3.72276zM238.899,176.97084c0.09391,-0.23554 -0.14087,-0.42402 -0.14087,-0.61251c0,-0.18858 0.18783,-0.37707 0.18783,-0.6126c0,-0.37707 0,-0.75404 -0.09391,-1.13101c-0.04696,-0.18849 -0.23479,-0.14134 -0.37566,-0.14134c-0.3287,0.0942 -0.23479,0.32983 -0.23479,0.51831c0,1.60218 0.04696,3.2515 0.04696,4.85367c0,0.09429 0,0.23563 -0.04696,0.32992c-0.04696,0.37697 0.14087,0.42412 0.42261,0.37697c0.18783,0 0.23479,-0.14143 0.23479,-0.28278c0,-0.37697 -0.04696,-0.7068 -0.04696,-1.08377c0.04696,-0.04714 0.04696,-0.14143 0,-0.23563c0.14087,-0.6126 0.14087,-1.31949 0.04696,-1.97924zM255.52181,155.81262c0.18783,0.28278 0.14087,0.56546 0.04696,0.84823c-0.6574,2.16763 -1.40871,4.24107 -2.25394,6.36165c-0.46957,1.17806 -1.08001,2.30897 -1.50263,3.53418c-0.84523,2.40326 -1.87828,4.71233 -2.53568,7.16274c-0.14087,0.56546 -0.42261,1.13091 -0.6574,1.69637c-0.51653,1.46084 -1.03306,2.96872 -1.54958,4.42956c-0.37566,1.08386 -0.79827,2.07344 -1.3148,3.11016c-0.23479,0.42412 -0.37566,0.89528 -0.61044,1.3194c-0.14087,0.28278 -0.3287,0.37697 -0.61044,0.37697c-0.28174,0 -0.61044,0 -0.89218,0c-0.75131,-0.04705 -1.45567,0.23563 -2.16003,0.42412c-0.18783,0.89538 -0.04696,1.79066 -0.09391,2.6389c0,0.56546 0.09391,1.03672 0.70436,1.27235c0.3287,0.09429 0.42261,0.37697 0.42261,0.7068c0,0.18858 0,0.37707 0,0.56555c0.04696,0.65965 -0.28174,1.08377 -0.89218,1.2252c-0.04696,0 -0.09391,0.0942 -0.18783,0.14134c-0.04696,0.28278 -0.09391,0.56546 0,0.84823c0.04696,0.04714 0.09391,0.14134 0.18783,0.14134c0.89218,0.42412 0.89218,0.42412 0.93914,1.36655c0,0.09429 0,0.23563 0,0.32992c-0.04696,0.84814 -0.28174,1.08377 -1.17393,1.13091c-0.84523,0.04714 -1.69046,-0.04714 -2.58264,0c-0.84523,0.04714 -1.73741,0 -2.58264,0c-0.51653,0 -1.03306,-0.04714 -1.50263,-0.28278c-0.23479,-0.47117 -0.23479,-0.94243 -0.23479,-1.41369c0,-0.42402 0.14087,-0.6126 0.42261,-0.84814c0.09391,-0.09429 0.28174,-0.14143 0.42261,-0.18849c0.37566,-0.09429 0.46957,-0.37707 0.46957,-0.70689c0,-0.18849 0,-0.37697 -0.09391,-0.51831c-0.04696,-0.04714 -0.14087,-0.09429 -0.18783,-0.09429c-1.12697,-0.23563 -1.50263,-1.88495 -0.42261,-2.54461c0.18783,-0.09429 0.42261,-0.18849 0.51653,-0.51841c0,-0.89528 0,-1.88486 0,-2.82738c0,-0.51831 -0.14087,-0.6126 -0.70436,-0.56546c-0.42261,0.04714 -0.61044,-0.0942 -0.6574,-0.42412c0,-0.0942 0,-0.14134 0,-0.23563c0.04696,-1.17806 -0.14087,-2.40326 0.18783,-3.58132c0.04696,-0.23563 0.04696,-0.47126 0,-0.65975c-0.14087,-0.7068 0.14087,-1.41369 -0.14087,-2.12049c-0.04696,-0.09429 0,-0.23563 0,-0.32992c0.28174,-1.03662 -0.18783,-2.07334 0.09391,-3.06292c-0.23479,-1.50798 -0.23479,-3.06301 0,-4.57099c0.04696,-0.18849 -0.09391,-0.37697 -0.37566,-0.51831c-0.70436,0.47117 -1.6435,0.6126 -2.53568,0.84823c-1.78437,0.51831 -2.91134,1.88486 -3.09917,3.67552c-0.14087,1.27235 0.09391,2.5447 0.3287,3.7699c0.3287,1.64932 0.6574,3.29855 0.89218,4.94787c0.09391,0.6126 0.09391,1.17806 0.23479,1.79066c0.42261,1.60218 0.09391,3.1573 -0.56349,4.61814c-0.6574,1.55503 -1.50263,3.01587 -2.20698,4.52375c-1.08001,2.21478 -2.11307,4.4767 -3.14613,6.73863c-0.93914,1.932 -1.9722,3.81695 -2.81743,5.74896c-0.89218,2.02629 -1.9722,3.95839 -2.81743,5.98468c-0.56349,1.3194 -1.26784,2.59175 -1.92524,3.91115c-0.6574,1.31949 -1.26784,2.6389 -1.87828,3.95839c-0.46957,1.03672 -1.03306,2.02629 -1.50263,3.01587c-0.28174,0.65975 -0.6574,1.27235 -0.61044,2.02629c0.04696,0.94243 0.70436,1.3194 1.54958,0.98957c0.18783,-0.09429 0.42261,-0.18849 0.61044,-0.28278c2.6296,-1.46074 5.2592,-2.87443 7.88879,-4.33527c0.84523,-0.47126 1.69046,-0.94252 2.58264,-1.41369c1.59654,-0.89538 3.19308,-1.83781 4.78962,-2.73318c1.87828,-1.03672 3.80353,-2.07334 5.72877,-3.11006c3.05221,-1.69647 6.05747,-3.39293 9.10968,-5.13645c1.54958,-0.84823 3.09917,-1.69637 4.6018,-2.54461c2.3009,-1.31949 4.64875,-2.59175 6.94965,-3.95839c0.89218,-0.51831 1.87828,-0.89528 2.67655,-1.64932c0,-0.75394 0.18783,-1.50789 -0.18783,-2.21478c-0.84523,-1.79066 -1.69046,-3.58132 -2.53568,-5.37199c-0.6574,-1.36655 -1.40871,-2.73309 -1.9722,-4.14678c-0.37566,-0.94252 -0.84523,-1.83781 -1.26784,-2.78033c-0.84523,-1.79066 -1.87828,-3.48703 -2.53568,-5.37199c-0.42261,-1.13101 -0.61044,-2.30907 -0.3287,-3.53427c0.04696,-0.18849 0.04696,-0.37697 0.04696,-0.56546c0,-0.56546 0.18783,-1.13091 0.37566,-1.64932c0.09391,-0.23563 0.18783,-0.47117 0.28174,-0.7068c0.70436,-2.02629 1.40871,-4.09973 2.11307,-6.12602c0.84523,-2.35612 1.69046,-4.71233 2.48873,-7.06845c0.70436,-2.02629 1.3148,-4.05259 2.01916,-6.07888c0.14087,-0.47117 0.09391,-0.94243 0.28174,-1.41369c0.14087,-0.37697 -0.18783,-0.89528 -0.51653,-1.03672c-0.37566,-0.14134 -0.75131,-0.14134 -1.08001,0.14143c-0.18783,0.18849 -0.42261,0.32983 -0.56349,0.51831c-0.93914,1.03672 -1.83133,2.07344 -2.72351,3.11016c-0.84523,0.98957 -1.6435,2.02629 -2.53568,3.01587c-1.26784,1.41369 -2.48873,2.92158 -3.70961,4.38241c-0.70436,0.84823 -1.40871,1.74352 -2.34785,2.40326c-0.46957,0.32992 -0.89218,0.65975 -1.3148,0.98957c0,0.32992 -0.09391,0.65975 0.14087,0.94252c0.28174,0.0942 0.61044,0.0942 0.89218,-0.04714c0.61044,-0.32992 1.26784,-0.6126 1.73741,-1.17806c0.70436,-0.84823 1.50263,-1.60218 2.16003,-2.45041c0.93914,-1.2252 2.01916,-2.30907 2.81743,-3.62847c0.37566,-0.6126 0.84523,-1.13101 1.36176,-1.64932c0.84523,-0.84823 1.54958,-1.74352 2.25394,-2.68604c0.23479,-0.32983 0.56349,-0.6126 0.89218,-0.89528c0.04696,-0.04714 0.23479,-0.04714 0.42261,0.0942zM258.7149,154.06911c-0.18783,0.37697 -0.3287,0.65975 -0.42261,0.94243c-0.46957,1.55503 -0.9861,3.11016 -1.50263,4.66519c-0.89218,2.78024 -1.9722,5.46628 -2.86438,8.24651c-0.42261,1.36655 -1.08001,2.6389 -1.3148,4.05259c-0.56349,1.03672 -0.75131,2.26192 -1.17393,3.39284c-0.37566,0.94252 -0.70436,1.88495 -0.61044,2.92167c0,0.0942 0,0.23563 0,0.32983c-0.18783,0.84823 0.04696,1.60218 0.3287,2.35621c0.28174,0.7068 0.61044,1.36655 0.93914,2.02629c0.46957,0.94243 0.9861,1.88486 1.40871,2.82738c0.3287,0.7068 0.61044,1.41369 1.03306,2.12049c0.23479,0.37697 0.46957,0.80109 0.56349,1.2252c0.09391,0.32983 0.23479,0.6126 0.37566,0.89538c0.70436,1.36655 1.45567,2.68595 2.01916,4.14678c0.6574,1.55503 1.40871,3.06301 2.16003,4.52385c0.09391,0.18849 0.18783,0.32983 0.18783,0.51831c0.04696,0.65975 0.04696,1.27235 -0.3287,1.83781c-0.46957,0.84823 -1.17393,1.41369 -2.06611,1.79066c-0.56349,0.23563 -1.08001,0.47126 -1.59654,0.75394c-1.3148,0.70689 -2.58264,1.46084 -3.89744,2.16773c-1.22088,0.65965 -2.44177,1.27226 -3.6157,1.97915c-1.87828,1.17806 -3.80353,2.16763 -5.77572,3.15721c-1.59654,0.80109 -3.14613,1.69647 -4.69571,2.6389c-0.46957,0.28278 -1.03306,0.42412 -1.50263,0.75404c-2.06611,1.50789 -4.36701,2.54461 -6.57399,3.81695c-1.69046,0.98957 -3.42787,1.83781 -5.11832,2.82738c-2.3009,1.3194 -4.6018,2.6389 -6.99661,3.81695c-1.03306,0.51831 -2.01916,1.08377 -3.05221,1.64932c-0.18783,0.0942 -0.28174,0.23554 -0.28174,0.51831c0.46957,0.42412 1.08001,0.70689 1.6435,1.03672c0.37566,-0.14134 0.70436,-0.18849 0.9861,-0.37697c0.9861,-0.56546 1.92524,-1.13101 2.9583,-1.60218c1.12697,-0.56555 2.20698,-1.2252 3.33395,-1.88495c0.89218,-0.51831 1.83133,-0.98957 2.77047,-1.50798c1.54958,-0.89528 3.09917,-1.79066 4.69571,-2.6388c1.08001,-0.6126 2.20698,-1.13101 3.24004,-1.79076c0.84523,-0.51831 1.78437,-0.94243 2.67655,-1.46074c1.54958,-0.89538 3.09917,-1.79076 4.69571,-2.6389c1.08001,-0.6126 2.20698,-1.13101 3.24004,-1.79066c0.84523,-0.51841 1.83133,-0.89538 2.67655,-1.46084c1.78437,-1.17806 3.70961,-2.07344 5.54094,-3.1573c1.69046,-0.98957 3.42787,-1.83771 5.11832,-2.82738c0.9861,-0.56546 1.9722,-1.03662 2.86438,-1.74352c0.79827,-0.6126 1.03306,-1.17806 0.79827,-2.21478c-0.09391,-0.42412 -0.23479,-0.84823 -0.42261,-1.27235c-0.61044,-1.3194 -1.22088,-2.6389 -1.87828,-3.9583c-0.70436,-1.50798 -1.40871,-3.06301 -2.16003,-4.52385c-0.56349,-1.17806 -1.08001,-2.35612 -1.69046,-3.53418c-0.75131,-1.36655 -1.36176,-2.82738 -2.01916,-4.24107c-0.28174,-0.65975 -0.61044,-1.31949 -0.6574,-2.02629c-0.09391,-1.2252 -0.14087,-2.49755 0.23479,-3.67561c0.14087,-0.47126 0.28174,-0.94243 0.46957,-1.36655c0.46957,-1.36664 0.89218,-2.78033 1.36176,-4.14688c0.3287,-1.03672 0.75131,-2.02629 1.12697,-3.06301c0.70436,-1.932 1.40871,-3.86401 2.16003,-5.7961c0.42261,-1.13091 0.89218,-2.21478 1.17393,-3.39284c0.23479,-0.89538 0.46957,-1.79066 0.89218,-2.6389c0.14087,-0.28278 0.23479,-0.56546 0.28174,-0.84823c0.04696,-0.37697 0.14087,-0.75394 -0.14087,-1.08377c-0.56349,-0.32992 -0.9861,-0.84823 -1.59654,-1.27235zM236.03462,97.28586c-0.09391,0.18849 -0.14087,0.28268 -0.18783,0.37697c-0.56349,1.83781 -1.08001,3.67561 -1.50263,5.56047c-0.61044,2.73318 -1.22088,5.41922 -1.87828,8.15232c-0.14087,0.65975 0,1.17806 0.51653,1.60218c0.51653,0.47126 1.03306,0.98957 1.59654,1.41369c0.28174,0.23563 0.56349,0.47126 0.93914,0.56546c1.78437,0.32992 3.56874,0.32992 5.35311,0.04714c0.28174,-0.04714 0.56349,-0.14134 0.79827,-0.32983c1.03306,-0.89538 2.01916,-1.74361 3.05221,-2.6389c-0.14087,-0.80109 -0.28174,-1.50798 -0.46957,-2.26192c-0.56349,-2.45041 -1.12697,-4.90082 -1.73741,-7.35123c-0.3287,-1.36655 -0.70436,-2.68595 -1.17393,-4.00544c-0.51653,-1.36655 -0.42261,-1.03672 -1.73741,-1.41369c-0.18783,-0.04714 -0.37566,0 -0.56349,-0.04714c-0.9861,-0.14134 -1.9722,0.04714 -3.00525,0.32992zM244.67472,183.66232c0.09391,-0.23554 0.18783,-0.42412 0.23479,-0.56546c0.6574,-1.36655 1.22088,-2.82738 1.69046,-4.28822c0.42261,-1.41369 0.93914,-2.73309 1.40871,-4.14678c0.28174,-0.98957 0.6574,-1.9321 1.03306,-2.87453c0.51653,-1.41369 0.9861,-2.82738 1.50263,-4.24107c0.61044,-1.55503 1.26784,-3.06301 1.87828,-4.5709c0.56349,-1.41369 1.08001,-2.78033 1.59654,-4.19402c0.09391,-0.23554 0.23479,-0.47117 0.09391,-0.75394c-0.28174,0.04714 -0.42261,0.32992 -0.56349,0.51841c-1.45567,1.97915 -3.00525,3.91115 -4.55484,5.84325c-0.37566,0.51831 -0.89218,0.89528 -1.26784,1.41369c-0.61044,0.80109 -1.36176,1.50789 -2.06611,2.21478c-0.37566,0.37697 -0.79827,0.65975 -1.3148,0.80109c-0.46957,0.14134 -1.03306,0.23563 -1.45567,0.56546c-0.09391,0.70689 -0.04696,1.41369 -0.04696,2.12058c0,0.65965 0.14087,1.27226 0.04696,1.932c-0.09391,0.89538 -0.09391,1.79066 -0.09391,2.68604c0,2.26183 -0.04696,4.52375 0.14087,6.73853c0,0.23563 -0.14087,0.51841 0.14087,0.75404c0.46957,0.14134 0.9861,0.18849 1.59654,0.04705zM243.64167,165.70846c0,0 -0.14087,-0.0942 -0.09391,-0.18849c0.09391,-1.08377 0.28174,-2.12049 0.04696,-3.20435c0.18783,-0.37697 0.09391,-0.80109 0.09391,-1.2252c0,-2.02629 0,-4.05259 0,-6.12602c0,-0.65965 0.09391,-1.36655 -0.14087,-2.02629c-0.09391,-0.18849 -0.09391,-0.47117 0,-0.65965c0.18783,-0.51841 0.14087,-1.03672 0.14087,-1.55513c0,-5.46628 0.04696,-10.93255 0,-16.39873c0,-1.50798 0.18783,-3.01596 -0.14087,-4.4767c-0.04696,-0.09429 0,-0.23563 0.04696,-0.32992c0.14087,-0.32983 0.09391,-0.65965 0.09391,-0.98957c0,-0.98957 0.09391,-1.932 -0.18783,-2.92158c0.09391,-2.12058 -0.14087,-4.28822 0.14087,-6.4088c0,-0.0942 0,-0.23554 -0.04696,-0.32983c-0.18783,-0.42412 -0.09391,-0.89538 -0.09391,-1.3194c0,-0.28278 0,-0.6126 -0.04696,-0.89538c-0.04696,-0.28278 -0.23479,-0.47126 -0.56349,-0.37697c-0.04696,0.0942 -0.09391,0.18849 -0.09391,0.32983c-0.09391,0.70689 0.09391,1.41369 -0.18783,2.12058c-0.04696,0.0942 0,0.23563 0.04696,0.32983c0.18783,0.37697 0.09391,0.75394 0.14087,1.13091c0,0.80118 0.09391,1.60227 0,2.35621c-0.09391,0.80109 0.04696,1.55503 0,2.30897c0,0.70689 0.04696,1.41369 0,2.16773c-0.04696,0.7068 0,1.41369 0,2.12049c0,1.17806 0,2.35621 0,3.48713c0,1.17806 -0.04696,2.35612 0,3.48713c0.04696,1.13091 -0.28174,2.30897 0,3.43998c0.04696,0.18849 -0.04696,0.37697 -0.04696,0.56546c0,0.14134 -0.09391,0.32983 -0.04696,0.42412c0.23479,0.65965 0.09391,1.36655 0.14087,2.02629c0,0.37697 -0.09391,0.75394 -0.09391,1.13091c0,0.42412 0.14087,0.80109 -0.04696,1.2252c-0.09391,0.18849 0,0.37697 0.04696,0.56546c0.14087,0.32992 0.14087,0.65975 0.04696,0.98957c-0.04696,0.18849 -0.04696,0.32992 -0.04696,0.51841c0.04696,0.84823 -0.14087,1.69637 0.09391,2.54461c0.04696,0.14143 -0.04696,0.28278 -0.09391,0.42412c-0.04696,0.14134 -0.09391,0.28278 0,0.42412c0.18783,0.37697 0.09391,0.75394 0.09391,1.13091c0,1.79076 0,3.62847 0,5.41922c0,0.84814 -0.04696,1.74352 0,2.59175c0,0.42412 -0.23479,0.80109 -0.14087,1.2252c0.3287,1.3194 -0.04696,2.68595 0.09391,4.00544c-0.28174,0.51831 0,1.03672 0.04696,1.50789c0,0.04714 0.09391,0.09429 0.14087,0.14143c0.28174,-0.14143 0.42261,-0.32992 0.6574,-0.70689zM240.49554,169.90238c0.04696,-0.23554 0.14087,-0.42402 0.14087,-0.65965c0,-0.23563 -0.09391,-0.51841 -0.04696,-0.75404c0.09391,-0.80109 0.04696,-1.60218 0,-2.40326c-0.04696,-0.6126 -0.04696,-1.27226 -0.04696,-1.88486c0,-0.94252 0.14087,-1.83781 0.04696,-2.78033c-0.04696,-0.6126 0.14087,-1.2252 0,-1.88486c-0.18783,-0.98957 0,-2.07344 -0.04696,-3.11016c-0.04696,-1.13091 0,-2.30897 0,-3.43998c0,-2.12049 0.09391,-4.19393 0.04696,-6.31451c0,-0.94243 0.04696,-1.83771 0,-2.78024c-0.04696,-1.36655 0.04696,-2.73309 0.04696,-4.14678c0,-0.65975 0,-1.27235 -0.09391,-1.9321c-0.09391,-0.47117 0.18783,-0.89528 0.09391,-1.3194c-0.23479,-0.98957 0,-1.9321 -0.09391,-2.92167c-0.04696,-0.6126 -0.09391,-1.27226 0,-1.88486c0.14087,-0.98967 -0.04696,-1.9321 0.09391,-2.87453c0.04696,-0.18849 -0.04696,-0.37697 -0.04696,-0.56546c-0.04696,-0.51841 -0.09391,-1.03672 -0.09391,-1.55513c0.04696,-1.79066 0.09391,-3.53418 0.14087,-5.32484c0,-0.65975 -0.04696,-1.36664 -0.04696,-2.02629c0,-0.37697 0.09391,-0.75404 0.09391,-1.13101c0,-0.37697 0.04696,-0.75394 -0.04696,-1.08377c-0.14087,-0.37697 0.14087,-0.75404 -0.04696,-1.03672c-0.28174,-0.14143 -0.46957,0 -0.75131,0.14134c0,0.32983 0,0.70689 0,1.08386c0,3.48703 0,6.97416 0,10.50844c0,5.84325 0,11.68649 0,17.4826c0,5.89039 0,11.82793 0,17.71832c0,2.16763 0,4.38241 0,6.55005c0,0.09429 0.04696,0.18849 0.09391,0.28278c0.18783,0.0942 0.3287,0.14134 0.56349,0.04705zM237.34942,169.90238c0,-0.51831 0.04696,-0.94243 0.04696,-1.36655c0,-4.99501 0,-10.03717 0,-15.03219c0,-5.32494 0,-10.60273 0,-15.92766c0,-2.78024 0.04696,-5.56047 0,-8.34071c0,-0.42412 0.18783,-0.80109 0.09391,-1.2252c-0.18783,-0.65975 -0.09391,-1.36655 -0.09391,-2.02629c0,-3.06301 0,-6.07888 0,-9.14189c0,-0.23563 0.09391,-0.51831 -0.09391,-0.75394c-0.28174,-0.04714 -0.46957,0.14134 -0.70436,0.37697c0.23479,1.3194 -0.04696,2.68604 0.04696,4.05259c0.09391,1.3194 0,2.68604 0,4.00544c0,1.36655 0.23479,2.78024 -0.09391,4.14688c0.3287,1.3194 0.09391,2.68595 0.14087,4.05249c0.04696,1.41369 0,2.78033 0,4.19402c0.04696,1.36655 -0.09391,2.78024 0,4.14678c0.09391,1.36655 0,2.73318 0,4.05259c0,1.41369 0,2.78024 0,4.19393c0,1.41369 0,2.78033 0,4.19402c0,1.36655 0,2.73309 0,4.05259c-0.04696,1.36655 0.04696,2.78024 0,4.14678c-0.04696,1.36655 0.04696,2.73318 0,4.05259c0,1.36655 -0.04696,2.78024 0.04696,4.09973c0.18783,0.14134 0.3287,0.0942 0.61044,0.04705zM238.85204,116.1351c-0.3287,-0.04714 -0.56349,-0.04714 -0.61044,0.23554c-0.04696,0.23563 0,0.51841 0,0.80109c0,3.01587 0.04696,6.03183 0.04696,9.04769c0,7.39828 0,14.8437 -0.04696,22.24208c0,6.73853 0,13.47716 0,20.21578c0,0.42402 -0.09391,0.84814 0.09391,1.22511c0.18783,0.04714 0.3287,0.23563 0.56349,0.04714c0.04696,-3.58132 0.09391,-7.16265 0.04696,-10.79112c-0.14087,-14.23119 0,-28.46239 -0.04696,-42.69349c0.04696,-0.04714 0,-0.18849 -0.04696,-0.32983zM235.2833,115.94652c-0.18783,0.14143 -0.14087,0.32992 -0.14087,0.51841c0,0.65975 0,1.27235 0,1.932c0,5.0893 0,10.17861 0,15.26791c0,6.97416 0,13.94842 0,20.87544c0,4.80662 0,9.61315 0,14.46682c0,0.32983 -0.23479,0.94243 0.28174,0.94243c0.61044,0 0.3287,-0.65975 0.3287,-0.98957c0.04696,-2.92158 0,-5.7961 0,-8.71777c0,-7.58676 0,-15.22067 0,-22.80753c0,-6.83282 0,-13.71279 0,-20.54561c0,-0.23563 0,-0.47126 -0.04696,-0.65975c-0.04696,-0.23563 -0.23479,-0.32983 -0.42261,-0.28278zM241.81034,170.04382c0.04696,-0.09429 0.04696,-0.18849 0.09391,-0.28278c0.23479,-1.27235 0.09391,-2.54461 0.14087,-3.81695c0.09391,-1.932 0,-3.91124 0,-5.84325c0.04696,-1.83781 0,-3.67561 0,-5.56057c0,-1.88486 0,-3.76981 0,-5.60762c0,-3.06301 -0.04696,-6.17307 -0.04696,-9.23609c0,-1.88495 0.04696,-3.76981 0.04696,-5.60762c0,-2.02629 -0.09391,-4.00544 0,-6.03173c0.04696,-0.89538 -0.09391,-1.79076 -0.04696,-2.68604c0.04696,-1.03672 0,-2.07344 0.04696,-3.1573c0.04696,-1.17806 -0.04696,-2.35612 0.04696,-3.53418c0.04696,-0.80109 0,-1.55503 -0.04696,-2.35612c0,-0.23563 -0.18783,-0.42412 -0.46957,-0.32992c-0.14087,0.14143 -0.14087,0.28278 -0.14087,0.42412c0,2.21478 0,4.42956 0,6.64434c0,5.13645 0,10.22575 0,15.36211c0,4.71233 0,9.42467 0,14.1369c0,5.41913 -0.04696,10.83836 -0.04696,16.25749c0,0.28268 0,0.6126 0.04696,0.89528c0.04696,0.18849 0.14087,0.37707 0.37566,0.32992zM235.2833,194.64201c2.16003,0.04714 4.32005,0 6.43312,0c0.09391,-0.7068 0.09391,-0.80109 -0.04696,-0.89538c-0.18783,-0.18849 -0.42261,-0.14134 -0.61044,-0.14134c-1.87828,0 -3.75657,0 -5.58789,0c-0.04696,0 -0.14087,0.04714 -0.23479,0.09429c-0.14087,0.18849 -0.09391,0.47117 0.04696,0.94243zM240.49554,174.47338c-0.3287,-0.04714 -0.51653,0 -0.56349,0.18849c-0.04696,0.28268 -0.04696,0.6126 -0.04696,0.89528c0,1.17815 0,2.30907 0,3.48713c0,0.37697 0,0.75394 0,1.13101c0,0.28268 0.18783,0.47117 0.37566,0.42412c0.23479,-0.04714 0.28174,-0.18858 0.28174,-0.42412c0,-0.09429 0,-0.23563 0,-0.32992c0,-1.3194 0,-2.6389 0,-3.9583c0,-0.37697 0,-0.89538 -0.04696,-1.41369zM235.65896,174.70901c-0.37566,-0.14143 -0.51653,0 -0.51653,0.28268c0,1.83781 0,3.67561 0,5.46628c0,0.04714 0,0.14143 0.04696,0.18849c0.04696,0.04714 0.09391,0.09429 0.14087,0.14143c0.14087,0.04705 0.23479,-0.04714 0.28174,-0.14143c0.04696,-0.0942 0.04696,-0.23563 0.04696,-0.32983c0,-1.83781 0,-3.72276 0,-5.60762zM245.66082,107.93564c0.46957,-0.0942 0.75131,-0.23563 0.89218,-0.56546c0.18783,-0.42412 0.14087,-0.89538 0.04696,-1.31949c-0.14087,-0.6126 -0.70436,-0.80109 -1.6435,-0.56546c-0.04696,0.84823 0.23479,1.64932 0.70436,2.45041zM242.65557,115.23972c0.75131,0.42412 1.26784,0.18849 1.69046,-0.18849c0.51653,-0.42412 0.93914,-0.94243 1.40871,-1.41369c0.14087,-0.14134 0.14087,-0.32983 0.09391,-0.51841c-0.18783,-0.18849 -0.37566,-0.32983 -0.75131,-0.32983c-0.61044,0.84823 -1.40871,1.69647 -2.44177,2.45041zM243.97037,100.86718c-0.09391,0.84823 0,1.36655 0.3287,2.21478c0.18783,0.47126 0.56349,0.56546 0.93914,0.23563c0.37566,-0.32983 0.37566,-0.80109 0.28174,-1.2252c-0.14087,-0.89538 -0.56349,-1.2252 -1.54958,-1.2252zM239.83814,185.1703c0.04696,1.2252 -0.09391,2.35612 0.09391,3.48713c0.6574,0.04705 0.61044,0.04705 0.70436,-0.47126c0.04696,-0.47126 0.18783,-0.94243 0.14087,-1.41369c-0.04696,-0.37697 -0.04696,-0.70689 0,-1.08386c0,-0.47117 -0.14087,-0.56546 -0.93914,-0.51831zM246.50605,112.03537c0.6574,-0.14134 0.89218,-0.42412 0.9861,-0.89538c0.09391,-0.51831 -0.14087,-1.03672 -0.51653,-1.27226c-0.18783,-0.14143 -0.42261,-0.14143 -0.6574,-0.04714c-0.23479,0.04714 -0.42261,0.23563 -0.37566,0.47117c0.09391,0.6126 0.18783,1.2252 0.56349,1.74361zM236.64506,185.21744c0.09391,1.17806 -0.18783,2.30897 0.09391,3.39284c0.3287,0.14134 0.56349,0.0942 0.56349,-0.18849c0.04696,-1.03672 0.04696,-2.02629 0,-3.06301c0.04696,-0.28278 -0.23479,-0.28278 -0.6574,-0.14134zM238.94596,188.65742c0,-1.08386 0,-2.16773 0,-3.20445c0,-0.32983 -0.14087,-0.37697 -0.6574,-0.14134c0,1.08386 -0.04696,2.21478 0,3.29864c0.18783,0.14134 0.37566,0.0942 0.6574,0.04714zM240.68337,170.98625c-0.6574,-0.0942 -0.84523,-0.04714 -0.84523,0.18849c-0.04696,0.75394 -0.14087,1.55503 0.04696,2.30907c0.56349,0 0.6574,-0.04714 0.70436,-0.37697c0.04696,-0.65975 0.09391,-1.36664 0.09391,-2.12058zM241.90425,174.52052c-0.3287,0.04705 -0.42261,0.23554 -0.37566,0.32983c0.09391,0.65975 0,1.27235 0,1.88495c0,1.13091 0,2.30897 0.04696,3.43998c0,0.18849 -0.04696,0.42412 0.37566,0.47117c0,-1.97915 0,-4.05259 -0.04696,-6.12593zM233.02936,104.5428c-0.79827,0 -0.9861,0.14134 -1.08001,0.7068c-0.09391,0.42412 -0.09391,0.89538 0.14087,1.31949c0.09391,0.14134 0.23479,0.28268 0.46957,0.23563c0.18783,-0.70689 0.37566,-1.46084 0.46957,-2.26192zM242.13904,97.99266c0.14087,0.56555 0.37566,1.03672 0.42261,1.60218c0,0.18849 0.14087,0.32992 0.18783,0.51841c0.09391,0.18849 0.28174,0.23563 0.46957,0.18849c0.14087,-0.04714 0.23479,-0.18849 0.18783,-0.37697c-0.14087,-0.70689 -0.37566,-1.41369 -0.84523,-2.02629c-0.04696,-0.14134 -0.18783,-0.09429 -0.42261,0.0942zM236.64506,173.29532c0.18783,0.23554 0.37566,0.28268 0.70436,0.04705c0,-0.80109 0.09391,-1.60218 -0.09391,-2.45032c-0.23479,-0.04714 -0.42261,-0.09429 -0.61044,0.14134c-0.09391,0.75394 0.04696,1.55503 0,2.26192zM238.94596,172.30574c0,-0.42412 0,-0.75404 0,-1.08386c0,-0.14134 -0.09391,-0.28278 -0.28174,-0.28278c-0.23479,-0.04705 -0.37566,0.09429 -0.37566,0.28278c0,0.65975 -0.04696,1.3194 0,2.02629c0,0.18849 0.23479,0.28268 0.42261,0.28268c0.23479,0 0.3287,-0.18849 0.3287,-0.37697c0,-0.32983 -0.04696,-0.6126 -0.09391,-0.84814zM239.8851,181.82451c-0.04696,0.75404 -0.09391,1.55513 0.09391,2.35621c0.18783,0.04714 0.3287,0.0942 0.56349,-0.09429c0.14087,-0.75394 0.18783,-1.55503 0,-2.30897c-0.28174,-0.14143 -0.42261,-0.09429 -0.6574,0.04705zM236.73897,184.22787c0.18783,0 0.3287,0 0.46957,-0.04714c0.04696,0 0.14087,-0.09429 0.14087,-0.14143c0.04696,-0.14134 0.14087,-0.28268 0.14087,-0.42402c-0.14087,-0.47126 -0.04696,-0.94252 -0.09391,-1.41369c0,-0.09429 0,-0.23563 -0.04696,-0.32992c-0.04696,-0.14134 -0.18783,-0.23563 -0.37566,-0.18849c-0.09391,0.04714 -0.23479,0.09429 -0.23479,0.18849c-0.04696,0.75394 -0.18783,1.55513 0,2.35621zM235.14243,184.60484c0.56349,-0.28278 0.51653,-0.80109 0.46957,-1.17806c-0.04696,-0.6126 0.23479,-1.27235 -0.28174,-1.83781c-0.28174,0.23554 -0.42261,0.56546 -0.37566,0.80109c0.14087,0.7068 -0.23479,1.46074 0.18783,2.21478zM242.09208,183.144c0,0 -0.04696,0 0,0c-0.04696,-0.37697 -0.04696,-0.75394 -0.04696,-1.13091c0,-0.14143 -0.14087,-0.28278 -0.28174,-0.28278c-0.14087,0 -0.28174,0.0942 -0.28174,0.28278c-0.04696,0.47117 -0.04696,0.94243 -0.04696,1.46074c0,0.23563 0.09391,0.42412 0.14087,0.6126c0.04696,0.04714 0.18783,0.09429 0.28174,0.14143c0.14087,0 0.23479,-0.09429 0.23479,-0.18858c0,-0.28268 0,-0.61251 0,-0.89528zM238.94596,181.82451c-0.37566,-0.14134 -0.56349,-0.14134 -0.6574,0.18858c0,0.04705 0,0.0942 0,0.0942c0,0.51831 -0.04696,1.03672 -0.04696,1.55503c0,0.37697 0.18783,0.6126 0.37566,0.56555c0.28174,-0.04714 0.3287,-0.28278 0.3287,-0.51841c0,-0.6126 0,-1.2252 0,-1.88495zM233.40502,102.37516c0.37566,-0.70689 0.56349,-1.36664 0.61044,-2.45041c-0.70436,0.18849 -0.89218,0.75394 -0.9861,1.3194c-0.09391,0.42412 -0.18783,0.89538 0.37566,1.13101zM232.09022,108.87807c-0.70436,-0.04705 -0.93914,0.32992 -1.03306,0.75404c-0.18783,0.56546 0,0.89528 0.61044,1.27226c0.14087,-0.6126 0.28174,-1.27226 0.42261,-2.02629zM235.51809,170.89205c-0.14087,0.04705 -0.23479,0.04705 -0.23479,0.0942c-0.23479,0.65975 -0.09391,1.31949 -0.09391,1.97915c0,0.18849 -0.04696,0.47126 0.23479,0.56546c0.18783,0 0.23479,-0.18849 0.23479,-0.32983c-0.09391,-0.75394 0.04696,-1.55503 -0.14087,-2.30897zM239.69727,192.52152c0.84523,0.0942 0.84523,0.0942 1.03306,-0.09429c0,-0.23563 0,-0.47126 0,-0.70689c0,-0.04705 -0.09391,-0.14134 -0.14087,-0.18849c-0.89218,-0.0942 -0.89218,-0.04705 -0.89218,0.98967zM241.8573,170.98625c-0.3287,0.04714 -0.42261,0.18849 -0.42261,0.32983c0,0.65975 0.04696,1.31949 0.09391,1.97924c0,0.0942 0.14087,0.23554 0.42261,0.0942c-0.09391,-0.80109 0.04696,-1.60218 -0.09391,-2.40326zM236.50419,191.579c-0.04696,0.32992 -0.09391,0.6126 0.04696,0.89538c0.09391,0.23563 0.37566,0.32983 0.56349,0.18849c0.3287,-0.23563 0.37566,-0.89538 0.14087,-1.17806c-0.28174,-0.04714 -0.46957,-0.09429 -0.75131,0.0942zM238.14769,192.52152c0.3287,0.0942 0.61044,0.14134 0.89218,-0.04714c-0.04696,-0.32992 -0.09391,-0.65975 -0.18783,-0.94252c-0.28174,-0.18849 -0.51653,-0.18849 -0.75131,0.04714c-0.09391,0.32992 -0.09391,0.6126 0.04696,0.94252zM236.87985,189.647c-0.28174,0 -0.42261,0.18849 -0.37566,0.51831c0,0.28278 0.14087,0.42412 0.37566,0.42412c0.28174,0 0.46957,-0.14134 0.46957,-0.47126c0,-0.32983 -0.14087,-0.51831 -0.46957,-0.47117zM238.5703,189.647c-0.3287,0 -0.51653,0.14134 -0.51653,0.42412c0,0.32983 0.14087,0.47117 0.46957,0.47117c0.3287,0 0.42261,-0.14134 0.42261,-0.51831c0,-0.28278 -0.14087,-0.37697 -0.37566,-0.37697zM239.93206,190.49523c0.79827,-0.09429 0.84523,-0.14143 0.6574,-0.80118c-0.23479,-0.04705 -0.51653,-0.0942 -0.75131,0.09429c-0.04696,0.23563 -0.09391,0.42412 0.09391,0.70689zM235.37722,189.647c-0.23479,0 -0.37566,0.18849 -0.3287,0.47117c0,0.18849 0.04696,0.37707 0.28174,0.42412c0.23479,0.04714 0.46957,-0.18849 0.42261,-0.51831c0,-0.23563 -0.14087,-0.37697 -0.37566,-0.37697zM241.95121,190.11817c0,-0.04705 -0.04696,-0.18849 -0.09391,-0.28268c-0.04696,-0.04714 -0.09391,-0.09429 -0.18783,-0.09429c-0.14087,-0.04714 -0.18783,0.09429 -0.23479,0.18849c0,0.14143 0,0.28278 0.04696,0.42412c0.04696,0.09429 0.18783,0.14143 0.23479,0.14143c0.04696,0 0.14087,-0.14143 0.18783,-0.23563c0.04696,-0.04714 0,-0.09429 0.04696,-0.14143z" id="Shape" fill="#000001"/><path d="M255.52181,155.81262c-0.18783,-0.14134 -0.37566,-0.0942 -0.51653,0.04714c-0.28174,0.28278 -0.61044,0.56546 -0.89218,0.89538c-0.70436,0.94243 -1.40871,1.83771 -2.25394,2.68595c-0.51653,0.51841 -0.9861,1.03672 -1.36176,1.64932c-0.84523,1.31949 -1.87828,2.40326 -2.81743,3.62847c-0.6574,0.84823 -1.45567,1.60218 -2.16003,2.45041c-0.46957,0.56546 -1.12697,0.84823 -1.73741,1.17806c-0.28174,0.14134 -0.56349,0.14134 -0.89218,0.04714c-0.23479,-0.28278 -0.14087,-0.56546 -0.14087,-0.94243c0.42261,-0.32992 0.89218,-0.65975 1.3148,-0.98967c0.89218,-0.65965 1.59654,-1.55503 2.34785,-2.40326c1.22088,-1.46074 2.44177,-2.96872 3.70961,-4.38241c0.89218,-0.98957 1.6435,-2.02629 2.53568,-3.01587c0.89218,-1.03672 1.83133,-2.07344 2.72351,-3.11016c0.18783,-0.18849 0.37566,-0.37697 0.56349,-0.51831c0.3287,-0.28278 0.70436,-0.28278 1.08001,-0.14134c0.3287,0.14134 0.6574,0.7068 0.51653,1.03672c-0.18783,0.47117 -0.14087,0.94243 -0.28174,1.41369c-0.70436,2.0262 -1.3148,4.05249 -2.01916,6.07878c-0.79827,2.35621 -1.69046,4.71233 -2.48873,7.06845c-0.70436,2.02629 -1.40871,4.09973 -2.11307,6.12602c-0.09391,0.23563 -0.18783,0.47126 -0.28174,0.70689c-0.23479,0.51831 -0.42261,1.03672 -0.37566,1.64923c0,0.18858 0,0.37707 -0.04696,0.56555c-0.3287,1.2252 -0.09391,2.40326 0.3287,3.53418c0.6574,1.88495 1.69046,3.58132 2.53568,5.37208c0.42261,0.89528 0.89218,1.83771 1.26784,2.78024c0.56349,1.41369 1.3148,2.78024 1.9722,4.14678c0.84523,1.79066 1.69046,3.58142 2.53568,5.37208c0.3287,0.7068 0.18783,1.46074 0.18783,2.21478c-0.79827,0.75394 -1.78437,1.13091 -2.67655,1.64932c-2.3009,1.3194 -4.6018,2.6389 -6.94965,3.9583c-1.54958,0.84823 -3.09917,1.69647 -4.6018,2.54461c-3.05221,1.69647 -6.05747,3.43998 -9.10968,5.13645c-1.87828,1.03672 -3.80353,2.07344 -5.72877,3.11016c-1.59654,0.89528 -3.19308,1.79066 -4.78962,2.73309c-0.84523,0.47126 -1.69046,0.94243 -2.58264,1.41369c-2.6296,1.46084 -5.2592,2.87453 -7.88879,4.33536c-0.18783,0.0942 -0.42261,0.18849 -0.61044,0.28268c-0.84523,0.37697 -1.45567,-0.04714 -1.54958,-0.98957c-0.04696,-0.75394 0.28174,-1.36655 0.61044,-2.02629c0.46957,-1.03672 1.03306,-2.02629 1.50263,-3.01587c0.6574,-1.3194 1.26784,-2.6389 1.87828,-3.9583c0.61044,-1.31949 1.36176,-2.59184 1.92524,-3.91124c0.84523,-2.02629 1.9722,-3.9583 2.81743,-5.98459c0.84523,-1.97924 1.87828,-3.81695 2.81743,-5.74905c1.08001,-2.21478 2.11307,-4.4767 3.14613,-6.73863c0.70436,-1.50789 1.54958,-3.01587 2.20698,-4.52375c0.61044,-1.46084 0.9861,-2.96872 0.56349,-4.61804c-0.14087,-0.56555 -0.14087,-1.17806 -0.23479,-1.79066c-0.28174,-1.64932 -0.61044,-3.29864 -0.89218,-4.94796c-0.23479,-1.2252 -0.42261,-2.49755 -0.3287,-3.76981c0.18783,-1.79066 1.36176,-3.1573 3.09917,-3.67561c0.89218,-0.23563 1.83133,-0.37697 2.53568,-0.84823c0.28174,0.14134 0.42261,0.28278 0.37566,0.51841c-0.23479,1.55503 -0.23479,3.06292 0,4.5709c-0.28174,0.98957 0.18783,2.07344 -0.09391,3.06301c-0.04696,0.0942 -0.04696,0.23563 0,0.32983c0.28174,0.70689 0,1.41369 0.14087,2.12058c0.04696,0.23554 0.04696,0.47117 0,0.65965c-0.28174,1.17815 -0.09391,2.40326 -0.18783,3.58142c0,0.0942 0,0.14134 0,0.23554c0.04696,0.32992 0.23479,0.42412 0.6574,0.42412c0.56349,-0.04705 0.70436,0.04714 0.70436,0.56555c0,0.98957 0,1.97915 0,2.82738c-0.09391,0.32983 -0.37566,0.42402 -0.51653,0.51831c-1.08001,0.65975 -0.70436,2.30907 0.42261,2.54461c0.04696,0 0.14087,0.04714 0.18783,0.09429c0.14087,0.14134 0.09391,0.32983 0.09391,0.51831c0,0.32992 -0.09391,0.56555 -0.46957,0.70689c-0.14087,0.04714 -0.28174,0.0942 -0.42261,0.18849c-0.23479,0.23563 -0.42261,0.42412 -0.42261,0.84823c0,0.51831 0,0.94243 0.23479,1.41369c0.46957,0.23563 0.9861,0.32983 1.50263,0.28268c0.84523,0 1.73741,0.04714 2.58264,0c0.84523,-0.04705 1.69046,0.04714 2.58264,0c0.89218,-0.04705 1.12697,-0.28268 1.17393,-1.13091c0,-0.09429 0,-0.23563 0,-0.32983c0,-0.98967 0,-0.98967 -0.93914,-1.36664c-0.04696,-0.04705 -0.09391,-0.0942 -0.18783,-0.14134c-0.09391,-0.28278 -0.04696,-0.56546 0,-0.84823c0.04696,-0.04714 0.09391,-0.14134 0.18783,-0.14134c0.6574,-0.14134 0.93914,-0.56546 0.89218,-1.2252c0,-0.18849 0,-0.37697 0,-0.56546c0,-0.32992 -0.14087,-0.6126 -0.42261,-0.70689c-0.61044,-0.23563 -0.70436,-0.7068 -0.70436,-1.27226c0.04696,-0.84823 -0.09391,-1.74361 0.09391,-2.6389c0.70436,-0.18849 1.40871,-0.47126 2.16003,-0.42412c0.28174,0 0.61044,0 0.89218,0c0.28174,0 0.51653,-0.14143 0.61044,-0.37697c0.18783,-0.42412 0.37566,-0.89538 0.61044,-1.31949c0.51653,-0.98957 0.93914,-2.02629 1.3148,-3.11006c0.46957,-1.50798 0.9861,-2.96882 1.54958,-4.42965c0.18783,-0.56546 0.46957,-1.08377 0.6574,-1.69637c0.6574,-2.45041 1.73741,-4.75948 2.53568,-7.16274c0.42261,-1.2252 1.03306,-2.35612 1.50263,-3.53418c0.79827,-2.07344 1.59654,-4.19393 2.25394,-6.36165c0.18783,-0.42412 0.23479,-0.75394 0.04696,-0.98957zM247.16345,189.45851c0.23479,-0.04714 0.56349,0 0.89218,-0.18849c0.6574,-0.28278 0.89218,-0.84823 1.17393,-1.46084c0.23479,-0.47126 0.04696,-0.89538 -0.18783,-1.27235c-0.04696,-0.0942 -0.09391,-0.18849 -0.14087,-0.32983c-0.42261,-0.98957 -1.12697,-1.41369 -2.20698,-1.31949c-0.79827,0.04714 -1.69046,0.89538 -1.87828,1.74361c-0.3287,1.55503 0.6574,2.78024 2.34785,2.82738zM249.74609,195.53739c0.79827,0.04705 1.40871,-0.28278 1.78437,-0.94252c0.37566,-0.6126 0.70436,-1.27226 0.14087,-1.97915c-0.04696,-0.0942 -0.09391,-0.18849 -0.14087,-0.32983c-0.42261,-0.98957 -1.17393,-1.41369 -2.20698,-1.31949c-0.79827,0.09429 -1.69046,0.94252 -1.83133,1.74361c-0.28174,1.60218 0.70436,2.82738 2.25394,2.82738zM252.37569,197.13957c-1.36176,0 -2.44177,0.84814 -2.48873,1.88486c-0.04696,1.31949 1.12697,2.5447 2.44177,2.59184c0.9861,0.04705 2.16003,-1.2252 2.20698,-2.35621c-0.04696,-1.2252 -0.93914,-2.12049 -2.16003,-2.12049z" id="Shape" fill="#661379"/><path d="M258.7149,154.06911c0.6574,0.42412 1.03306,0.94243 1.50263,1.36655c0.28174,0.32983 0.18783,0.70689 0.14087,1.08386c-0.04696,0.28268 -0.14087,0.6126 -0.28174,0.84814c-0.42261,0.84823 -0.6574,1.74361 -0.89218,2.6389c-0.3287,1.13101 -0.79827,2.26192 -1.17393,3.39293c-0.70436,1.932 -1.40871,3.8641 -2.16003,5.7961c-0.37566,1.03672 -0.79827,2.02629 -1.12697,3.06301c-0.46957,1.36655 -0.89218,2.78024 -1.36176,4.14678c-0.14087,0.47126 -0.3287,0.94252 -0.46957,1.36664c-0.37566,1.22511 -0.28174,2.45032 -0.23479,3.67552c0.04696,0.70689 0.3287,1.36664 0.6574,2.02629c0.6574,1.41369 1.26784,2.87453 2.01916,4.24107c0.6574,1.13101 1.12697,2.35621 1.69046,3.53427c0.75131,1.50789 1.45567,3.01587 2.16003,4.52375c0.61044,1.31949 1.22088,2.6389 1.87828,3.95839c0.18783,0.42412 0.3287,0.80109 0.42261,1.27235c0.23479,1.08377 0.04696,1.60218 -0.79827,2.21478c-0.89218,0.7068 -1.92524,1.17806 -2.86438,1.74352c-1.69046,0.98957 -3.42787,1.83781 -5.11832,2.82738c-1.83133,1.08386 -3.75657,2.02629 -5.54094,3.15721c-0.84523,0.56555 -1.78437,0.89538 -2.67655,1.46084c-1.03306,0.65975 -2.16003,1.17806 -3.24004,1.79066c-1.54958,0.89538 -3.09917,1.79066 -4.69571,2.6389c-0.89218,0.51841 -1.78437,0.94252 -2.67655,1.46084c-1.03306,0.65975 -2.16003,1.17806 -3.24004,1.79066c-1.54958,0.89538 -3.09917,1.79066 -4.69571,2.6389c-0.89218,0.51831 -1.83133,0.98957 -2.77047,1.50798c-1.12697,0.6126 -2.16003,1.3194 -3.33395,1.88486c-1.03306,0.47126 -1.9722,1.03672 -2.9583,1.60218c-0.28174,0.14143 -0.61044,0.23563 -0.9861,0.37697c-0.56349,-0.32983 -1.17393,-0.56546 -1.6435,-1.03662c0,-0.28278 0.09391,-0.42412 0.28174,-0.51841c1.03306,-0.56546 2.01916,-1.13091 3.05221,-1.64932c2.39481,-1.17806 4.69571,-2.49746 6.99661,-3.81695c1.69046,-0.94243 3.42787,-1.83781 5.11832,-2.82738c2.20698,-1.27235 4.50788,-2.35612 6.57399,-3.81695c0.46957,-0.32983 1.03306,-0.42412 1.50263,-0.75394c1.54958,-0.94252 3.09917,-1.79066 4.69571,-2.6389c1.92524,-0.98957 3.89744,-1.97915 5.77572,-3.1573c1.17393,-0.7068 2.39481,-1.3194 3.6157,-1.97915c1.3148,-0.7068 2.58264,-1.46074 3.89744,-2.16763c0.51653,-0.28278 1.08001,-0.51831 1.59654,-0.75394c0.89218,-0.37697 1.59654,-0.94252 2.06611,-1.79066c0.3287,-0.6126 0.3287,-1.2252 0.3287,-1.83781c0,-0.18849 -0.14087,-0.32992 -0.18783,-0.51841c-0.75131,-1.50789 -1.50263,-2.96872 -2.16003,-4.52375c-0.56349,-1.41369 -1.3148,-2.78033 -2.01916,-4.14688c-0.14087,-0.28268 -0.28174,-0.56546 -0.37566,-0.89528c-0.14087,-0.42412 -0.3287,-0.84823 -0.56349,-1.2252c-0.42261,-0.65975 -0.70436,-1.36664 -1.03306,-2.12058c-0.42261,-0.94243 -0.93914,-1.88495 -1.40871,-2.82738c-0.3287,-0.65975 -0.6574,-1.3194 -0.93914,-2.02629c-0.28174,-0.75394 -0.51653,-1.55503 -0.3287,-2.35612c0.04696,-0.09429 0,-0.23563 0,-0.32992c-0.09391,-1.03662 0.23479,-2.0262 0.61044,-2.92158c0.46957,-1.08386 0.61044,-2.30907 1.17393,-3.39284c0.23479,-1.41369 0.89218,-2.68604 1.3148,-4.05259c0.89218,-2.78024 1.92524,-5.51342 2.86438,-8.24651c0.51653,-1.55513 0.9861,-3.11016 1.50263,-4.66519c0.18783,-0.37697 0.3287,-0.6126 0.51653,-1.03672z" id="Shape" fill="#4c0c5b"/><path d="M236.03462,97.28586c1.03306,-0.28278 2.01916,-0.47126 3.05221,-0.32992c0.18783,0 0.37566,0 0.56349,0.04714c1.3148,0.37697 1.22088,0.04714 1.73741,1.41369c0.46957,1.31949 0.84523,2.6389 1.17393,4.00544c0.61044,2.45041 1.17393,4.90082 1.73741,7.35123c0.18783,0.70689 0.3287,1.46084 0.46957,2.26192c-1.03306,0.89528 -2.01916,1.74352 -3.05221,2.6389c-0.23479,0.18849 -0.51653,0.28268 -0.79827,0.32983c-1.78437,0.28278 -3.56874,0.28278 -5.35311,-0.04714c-0.37566,-0.0942 -0.6574,-0.32983 -0.93914,-0.56546c-0.51653,-0.47117 -1.03306,-0.94243 -1.59654,-1.41369c-0.51653,-0.42412 -0.6574,-0.98957 -0.51653,-1.60218c0.61044,-2.68604 1.26784,-5.41913 1.87828,-8.15232c0.42261,-1.88486 0.93914,-3.72266 1.50263,-5.56047c0,-0.14134 0.04696,-0.23563 0.14087,-0.37697zM241.99817,110.19756c-0.56349,0 -0.84523,0.37697 -0.79827,0.98957c0,0.47126 0.3287,0.75394 0.79827,0.70689c0.51653,0 0.9861,-0.47126 0.9861,-0.89538c0,-0.47126 -0.42261,-0.80109 -0.9861,-0.80109zM235.09548,110.00907c-0.46957,0 -0.89218,0.42412 -0.84523,0.84823c0,0.42412 0.51653,0.89528 0.9861,0.89528c0.42261,0 0.79827,-0.47117 0.75131,-0.94243c-0.04696,-0.47126 -0.37566,-0.80109 -0.89218,-0.80109zM242.56165,107.04035c0.04696,-0.42412 -0.37566,-0.84823 -0.84523,-0.84823c-0.37566,0 -0.6574,0.32983 -0.70436,0.75394c-0.04696,0.42412 0.3287,0.80109 0.75131,0.84823c0.37566,0 0.75131,-0.32992 0.79827,-0.75394zM235.23635,107.46437c0.37566,0.04714 0.89218,-0.42402 0.89218,-0.84814c0.04696,-0.37697 -0.28174,-0.70689 -0.70436,-0.75404c-0.46957,-0.04705 -0.79827,0.23563 -0.84523,0.70689c-0.04696,0.47126 0.28174,0.89528 0.6574,0.89528zM241.34077,103.45893c0.3287,0 0.61044,-0.32983 0.61044,-0.7068c0,-0.37697 -0.42261,-0.84823 -0.75131,-0.80109c-0.3287,0 -0.70436,0.51831 -0.6574,0.89528c0,0.32992 0.42261,0.6126 0.79827,0.6126zM236.5981,102.46936c0,-0.32983 -0.28174,-0.6126 -0.6574,-0.6126c-0.51653,-0.04714 -0.84523,0.23563 -0.84523,0.65975c0,0.37697 0.28174,0.7068 0.70436,0.7068c0.37566,0.04714 0.75131,-0.32983 0.79827,-0.75394z" id="Shape" fill="#ffc941"/><path d="M244.67472,183.66232c-0.56349,0.09429 -1.08001,0.09429 -1.59654,0.04714c-0.28174,-0.23563 -0.14087,-0.51831 -0.14087,-0.75394c-0.18783,-2.26192 -0.14087,-4.52385 -0.14087,-6.73863c0,-0.89528 -0.04696,-1.79066 0.09391,-2.68604c0.09391,-0.61251 -0.04696,-1.27226 -0.04696,-1.932c0,-0.7068 -0.09391,-1.41369 0.04696,-2.12049c0.46957,-0.32992 0.9861,-0.42412 1.45567,-0.56555c0.51653,-0.18849 0.93914,-0.42412 1.3148,-0.80109c0.70436,-0.75394 1.40871,-1.46074 2.06611,-2.21478c0.37566,-0.51831 0.89218,-0.89528 1.26784,-1.41369c1.50263,-1.932 3.05221,-3.8641 4.55484,-5.84325c0.14087,-0.18849 0.28174,-0.47117 0.56349,-0.51831c0.14087,0.28268 0,0.51831 -0.09391,0.75394c-0.51653,1.41369 -1.03306,2.82738 -1.59654,4.19393c-0.61044,1.55513 -1.26784,3.01587 -1.87828,4.57099c-0.51653,1.41369 -0.9861,2.82738 -1.50263,4.24107c-0.3287,0.94243 -0.70436,1.88486 -1.03306,2.87443c-0.42261,1.41369 -0.93914,2.78033 -1.40871,4.14688c-0.46957,1.46084 -1.03306,2.87453 -1.69046,4.28822c-0.09391,0.04705 -0.14087,0.23563 -0.23479,0.47117zM249.41739,167.075c0.6574,0 1.26784,-0.65965 1.22088,-1.3194c-0.04696,-0.65975 -0.75131,-1.03672 -1.3148,-0.65975c-0.23479,0.18849 -0.46957,0.37697 -0.61044,0.65975c-0.18783,0.28278 -0.28174,0.6126 -0.04696,0.94243c0.18783,0.23563 0.42261,0.37697 0.75131,0.37697z" id="Shape" fill="#ffffff"/><path d="M243.64167,165.70846c-0.18783,0.32992 -0.37566,0.51841 -0.6574,0.56546c-0.04696,-0.04705 -0.14087,-0.0942 -0.14087,-0.14134c-0.04696,-0.51831 -0.3287,-0.98957 -0.04696,-1.50789c-0.14087,-1.31949 0.18783,-2.68604 -0.09391,-4.00553c-0.09391,-0.37697 0.14087,-0.80109 0.14087,-1.2252c-0.04696,-0.84814 0,-1.74352 0,-2.59175c0,-1.79066 0,-3.62847 0,-5.41913c0,-0.37697 0.09391,-0.75394 -0.09391,-1.13091c-0.09391,-0.14143 -0.04696,-0.28278 0,-0.42412c0.04696,-0.14134 0.14087,-0.28278 0.09391,-0.42412c-0.23479,-0.84823 -0.04696,-1.69647 -0.09391,-2.5447c0,-0.18849 0,-0.37697 0.04696,-0.51831c0.09391,-0.32983 0.09391,-0.65975 -0.04696,-0.98957c-0.09391,-0.18849 -0.14087,-0.37697 -0.04696,-0.56546c0.18783,-0.42412 0.04696,-0.80109 0.04696,-1.2252c0,-0.37697 0.09391,-0.75394 0.09391,-1.13101c-0.04696,-0.65965 0.14087,-1.36655 -0.14087,-2.02629c-0.04696,-0.0942 0.04696,-0.28268 0.04696,-0.42402c0.04696,-0.18858 0.09391,-0.37707 0.04696,-0.56555c-0.23479,-1.13091 0.09391,-2.30897 0,-3.43998c-0.04696,-1.17806 0,-2.35612 0,-3.48703c0,-1.17815 0,-2.35621 0,-3.48713c0,-0.70689 -0.09391,-1.41369 0,-2.12058c0.04696,-0.7068 0,-1.41369 0,-2.16763c0,-0.75394 -0.14087,-1.55503 0,-2.30897c0.09391,-0.75404 0.04696,-1.60227 0,-2.35621c0,-0.37697 0.09391,-0.75394 -0.14087,-1.13091c-0.04696,-0.09429 -0.09391,-0.23563 -0.04696,-0.32992c0.28174,-0.7068 0.09391,-1.41369 0.18783,-2.12049c0,-0.09429 0.04696,-0.18849 0.09391,-0.32983c0.3287,-0.09429 0.51653,0.14134 0.56349,0.37697c0.04696,0.28268 0,0.6126 0.04696,0.89528c0,0.42412 -0.09391,0.89538 0.09391,1.31949c0.04696,0.0942 0.04696,0.23563 0.04696,0.32983c-0.28174,2.12058 -0.04696,4.28822 -0.14087,6.4087c0.28174,0.94252 0.18783,1.9321 0.18783,2.92167c0,0.32983 0.04696,0.65975 -0.09391,0.98957c-0.04696,0.09429 -0.09391,0.23563 -0.04696,0.32983c0.3287,1.50798 0.14087,3.01587 0.14087,4.4767c0.04696,5.46628 0,10.93255 0,16.39883c0,0.51841 0.04696,1.03672 -0.14087,1.55503c-0.09391,0.18849 -0.09391,0.47126 0,0.65975c0.23479,0.65975 0.14087,1.31949 0.14087,2.02629c0,2.02629 0,4.05259 0,6.12602c0,0.42412 0.09391,0.84823 -0.09391,1.2252c0.23479,1.08377 0.04696,2.12049 -0.04696,3.20435c-0.04696,0.23563 0.09391,0.32983 0.09391,0.32983z" id="Shape" fill="#480b56"/><path d="M240.49554,169.90238c-0.23479,0.09429 -0.37566,0.09429 -0.56349,0c-0.04696,-0.0942 -0.09391,-0.18849 -0.09391,-0.28268c0,-2.16763 0,-4.38241 0,-6.55014c0,-5.89039 0,-11.82784 0,-17.71823c0,-5.84325 0,-11.68649 0,-17.48269c0,-3.48703 0,-6.97416 0,-10.50844c0,-0.37697 0,-0.75394 0,-1.08377c0.23479,-0.14134 0.42261,-0.28278 0.75131,-0.14134c0.18783,0.28268 -0.09391,0.65965 0.04696,1.03662c0.14087,0.32992 0.04696,0.75404 0.04696,1.08386c0,0.37697 -0.09391,0.75394 -0.09391,1.13091c0,0.65975 0.09391,1.31949 0.04696,2.02629c-0.04696,1.79076 -0.09391,3.53427 -0.14087,5.32494c0,0.51841 0.04696,1.03672 0.09391,1.55503c0,0.18849 0.09391,0.37707 0.04696,0.56555c-0.14087,0.94243 0.04696,1.932 -0.09391,2.87443c-0.09391,0.6126 -0.09391,1.27235 0,1.88495c0.09391,0.98957 -0.14087,1.932 0.09391,2.92167c0.09391,0.42402 -0.18783,0.89528 -0.09391,1.3194c0.14087,0.6126 0.14087,1.27235 0.09391,1.932c0,1.36664 -0.14087,2.73318 -0.04696,4.14688c0.04696,0.94243 0,1.83781 0,2.78024c0.04696,2.12058 -0.04696,4.19393 -0.04696,6.31451c0,1.13091 -0.04696,2.30907 0,3.43998c0.04696,1.03672 -0.14087,2.07344 0.04696,3.11016c0.14087,0.65965 -0.04696,1.27226 0,1.88486c0.09391,0.89538 -0.04696,1.83781 -0.04696,2.78024c0,0.6126 0,1.27235 0.04696,1.88495c0.04696,0.80109 0.09391,1.60218 0,2.40326c-0.04696,0.23563 0.09391,0.51841 0.04696,0.75394c0,0.14143 -0.09391,0.37707 -0.14087,0.6126z" id="Shape" fill="#92816e"/><path d="M237.34942,169.90238c-0.28174,0.04714 -0.42261,0.09429 -0.61044,-0.04705c-0.09391,-1.31949 -0.04696,-2.68604 -0.04696,-4.09973c0,-1.36655 -0.04696,-2.73309 0,-4.05259c0.04696,-1.36655 -0.04696,-2.78024 0,-4.14678c0.04696,-1.36664 0,-2.73318 0,-4.05259c0,-1.41369 0,-2.78033 0,-4.19402c0,-1.41369 0,-2.78024 0,-4.19393c0,-1.36655 0.09391,-2.73309 0,-4.05259c-0.09391,-1.36655 0.04696,-2.78024 0,-4.14678c-0.04696,-1.41369 0.04696,-2.78033 0,-4.19402c-0.04696,-1.36655 0.18783,-2.68595 -0.14087,-4.05249c0.3287,-1.36664 0.09391,-2.78033 0.09391,-4.14688c0,-1.3194 0.09391,-2.68604 0,-4.00544c-0.09391,-1.36655 0.14087,-2.73318 -0.04696,-4.05259c0.23479,-0.23563 0.42261,-0.42412 0.70436,-0.37697c0.18783,0.23563 0.09391,0.51831 0.09391,0.75394c0,3.06301 0,6.07888 0,9.14189c0,0.65975 -0.09391,1.36655 0.09391,2.02629c0.09391,0.37697 -0.09391,0.80109 -0.09391,1.2252c0.04696,2.78024 0,5.56047 0,8.34071c0,5.32494 0,10.60273 0,15.92766c0,4.99501 0,10.03717 0,15.03219c-0.04696,0.42412 -0.04696,0.84823 -0.04696,1.36655z" id="Shape" fill="#9a8874"/><path d="M238.85204,116.1351c0.04696,0.14134 0.09391,0.28268 0.09391,0.37697c0.09391,14.2311 -0.04696,28.46229 0.04696,42.69339c0.04696,3.62847 -0.04696,7.20989 -0.04696,10.79121c-0.28174,0.14134 -0.42261,0 -0.56349,-0.04714c-0.18783,-0.37697 -0.09391,-0.80109 -0.09391,-1.2252c0,-6.73853 0,-13.47716 0,-20.21578c0,-7.39828 0,-14.8437 0.04696,-22.24208c0,-3.01587 0,-6.03173 -0.04696,-9.0476c0,-0.28268 0,-0.51831 0,-0.80109c0,-0.32983 0.23479,-0.32983 0.56349,-0.28268z" id="Shape" fill="#988672"/><path d="M235.2833,115.94652c0.18783,-0.04705 0.37566,0.04714 0.42261,0.23563c0.04696,0.18849 0.04696,0.42412 0.04696,0.65975c0,6.83282 0,13.71279 0,20.54561c0,7.58686 0,15.22077 0,22.80753c0,2.92167 0,5.7962 0,8.71777c0,0.32992 0.23479,0.98957 -0.3287,0.98957c-0.46957,0 -0.28174,-0.6126 -0.28174,-0.94243c0,-4.80653 0,-9.61306 0,-14.46673c0,-6.97426 0,-13.94842 0,-20.87553c0,-5.0893 0,-10.17861 0,-15.26782c0,-0.65975 0,-1.27235 0,-1.9321c0,-0.0942 -0.04696,-0.32983 0.14087,-0.47126z" id="Shape" fill="#988672"/><path d="M241.81034,170.04382c-0.23479,0 -0.37566,-0.14143 -0.37566,-0.32992c-0.04696,-0.28268 -0.04696,-0.6126 -0.04696,-0.89528c0,-5.41913 0.04696,-10.83836 0.04696,-16.25749c0,-4.71224 0,-9.42457 0,-14.1369c0,-5.13636 0,-10.22566 0,-15.36211c0,-2.21478 0,-4.42956 0,-6.64434c0,-0.14134 -0.04696,-0.28268 0.14087,-0.42412c0.23479,-0.0942 0.42261,0.04714 0.46957,0.32992c0.04696,0.80109 0.09391,1.55503 0.04696,2.35612c-0.04696,1.17806 0.04696,2.35612 -0.04696,3.53418c-0.04696,1.03672 0,2.07344 -0.04696,3.1573c-0.04696,0.89528 0.09391,1.79066 0.04696,2.68604c-0.04696,2.02629 0,4.00544 0,6.03173c0,1.88486 -0.04696,3.76981 -0.04696,5.60762c0,3.06301 0.04696,6.17307 0.04696,9.23609c0,1.88495 0,3.7699 0,5.60762c0,1.83781 0.04696,3.67561 0,5.56057c-0.04696,1.932 0.04696,3.91124 0,5.84325c-0.04696,1.27235 0.09391,2.54461 -0.14087,3.81695c0,0.09429 -0.04696,0.18849 -0.09391,0.28278z" id="Shape" fill="#91806d"/><path d="M235.2833,194.64201c-0.09391,-0.47126 -0.14087,-0.75394 0,-0.98957c0.09391,-0.04714 0.14087,-0.09429 0.23479,-0.09429c1.87828,0 3.75657,0 5.58789,0c0.23479,0 0.46957,-0.04705 0.61044,0.14143c0.14087,0.14134 0.14087,0.23563 0.04696,0.89528c-2.16003,0 -4.32005,0.09429 -6.48008,0.04714z" id="Shape" fill="#efbe40"/><path d="M240.49554,174.47338c0.04696,0.51831 0.04696,0.98957 0.04696,1.46084c0,1.3194 0,2.6389 0,3.9583c0,0.09429 0,0.23563 0,0.32983c0,0.18849 -0.04696,0.37707 -0.28174,0.42412c-0.18783,0.04714 -0.37566,-0.14134 -0.37566,-0.42412c0,-0.37697 0,-0.75394 0,-1.13091c0,-1.17806 0,-2.30907 0,-3.48713c0,-0.28268 0,-0.6126 0.04696,-0.89528c0.04696,-0.23563 0.23479,-0.23563 0.56349,-0.23563z" id="Shape" fill="#f6f6f6"/><path d="M235.65896,174.70901c0,1.88486 0,3.76981 0,5.60762c0,0.0942 0,0.23563 -0.04696,0.32983c-0.04696,0.09429 -0.14087,0.18849 -0.28174,0.14143c-0.04696,-0.04714 -0.14087,-0.04714 -0.14087,-0.14143c-0.04696,-0.04705 -0.04696,-0.14134 -0.04696,-0.18849c0,-1.83781 0,-3.67561 0,-5.46628c0,-0.28268 0.14087,-0.42412 0.51653,-0.28268z" id="Shape" fill="#ebebeb"/><path d="M245.66082,107.93564c-0.46957,-0.80109 -0.75131,-1.60218 -0.70436,-2.45041c0.93914,-0.23563 1.50263,-0.04714 1.6435,0.56546c0.09391,0.42412 0.14087,0.89538 -0.04696,1.31949c-0.14087,0.32983 -0.42261,0.47126 -0.89218,0.56546z" id="Shape" fill="#e5e5e5"/><path d="M242.65557,115.23972c1.03306,-0.75394 1.83133,-1.55503 2.48873,-2.45041c0.37566,0 0.56349,0.18849 0.75131,0.32983c0.09391,0.18858 0.04696,0.37707 -0.09391,0.51841c-0.46957,0.47126 -0.93914,0.98957 -1.40871,1.41369c-0.46957,0.37697 -0.93914,0.6126 -1.73741,0.18849z" id="Shape" fill="#490d55"/><path d="M243.97037,100.86718c0.9861,0 1.40871,0.37697 1.54958,1.2252c0.04696,0.42412 0.09391,0.89538 -0.28174,1.2252c-0.37566,0.32983 -0.75131,0.23563 -0.93914,-0.23563c-0.3287,-0.89528 -0.42261,-1.36655 -0.3287,-2.21478z" id="Shape" fill="#e6e6e6"/><path d="M239.83814,185.1703c0.79827,0 0.93914,0.04714 0.89218,0.47126c-0.04696,0.37697 -0.04696,0.7068 0,1.08377c0.04696,0.47126 -0.04696,0.94252 -0.14087,1.41369c-0.04696,0.51841 -0.04696,0.51841 -0.70436,0.47126c-0.14087,-1.08386 0,-2.21478 -0.04696,-3.43998z" id="Shape" fill="#5a166a"/><path d="M246.50605,112.03537c-0.37566,-0.51841 -0.51653,-1.13101 -0.56349,-1.79066c-0.04696,-0.23563 0.14087,-0.42412 0.37566,-0.47126c0.23479,-0.04714 0.42261,-0.04714 0.6574,0.04714c0.37566,0.23563 0.61044,0.75394 0.51653,1.27235c-0.04696,0.51831 -0.3287,0.80109 -0.9861,0.94243z" id="Shape" fill="#e9e9e9"/><path d="M236.64506,185.21744c0.37566,-0.14143 0.6574,-0.14143 0.6574,0.14134c0.04696,1.03672 0,2.02629 0,3.06301c0,0.28268 -0.23479,0.32983 -0.56349,0.18849c-0.23479,-1.08386 0,-2.21478 -0.09391,-3.39284z" id="Shape" fill="#611772"/><path d="M238.94596,188.65742c-0.28174,0.04705 -0.42261,0.0942 -0.6574,-0.09429c-0.09391,-1.03672 -0.04696,-2.16763 0,-3.29864c0.51653,-0.23554 0.6574,-0.18849 0.6574,0.14143c0,1.08377 0,2.16763 0,3.2515z" id="Shape" fill="#5f186f"/><path d="M240.68337,170.98625c-0.04696,0.75394 -0.04696,1.46084 -0.09391,2.16763c0,0.32992 -0.14087,0.37697 -0.70436,0.37697c-0.18783,-0.75394 -0.09391,-1.55503 -0.04696,-2.30897c0.04696,-0.28278 0.23479,-0.32983 0.84523,-0.23563z" id="Shape" fill="#cca33b"/><path d="M241.90425,174.52052c0.04696,2.07334 0.04696,4.14678 0,6.17307c-0.42261,-0.04714 -0.37566,-0.28278 -0.37566,-0.47126c0,-1.13091 -0.04696,-2.30897 -0.04696,-3.43998c0,-0.6126 0.09391,-1.27226 0,-1.88486c0.04696,-0.14143 0.09391,-0.32992 0.42261,-0.37697z" id="Shape" fill="#f7f7f7"/><path d="M238.71117,180.5994c-0.28174,0.04705 -0.51653,0 -0.42261,-0.37707c0,-0.0942 0,-0.23554 0.04696,-0.32983c0.28174,-0.23563 0.18783,-0.51831 0.18783,-0.84823c0,-1.50789 0,-3.06301 0,-4.5709c0.14087,0 0.3287,-0.04714 0.37566,0.14134c0.04696,0.37697 0.09391,0.75394 0.09391,1.13101c0,0.18849 -0.18783,0.42402 -0.18783,0.6126c0,0.18849 0.23479,0.37697 0.14087,0.61251c-0.3287,0.56555 -0.09391,1.17815 -0.14087,1.79076c0,0.0942 0.09391,0.18849 0.18783,0.28268c0.04696,0.09429 0.04696,0.14143 0,0.23563c-0.18783,0.09429 -0.18783,0.28278 -0.18783,0.47126c-0.09391,0.28268 -0.09391,0.56546 -0.09391,0.84823z" id="Shape" fill="#f7f7f7"/><path d="M233.02936,104.5428c-0.09391,0.80109 -0.23479,1.50789 -0.46957,2.26192c-0.28174,0.04705 -0.37566,-0.09429 -0.46957,-0.23563c-0.23479,-0.42412 -0.18783,-0.84823 -0.14087,-1.31949c0.09391,-0.56546 0.28174,-0.65965 1.08001,-0.7068z" id="Shape" fill="#e3e3e3"/><path d="M242.13904,97.99266c0.23479,-0.18849 0.42261,-0.18849 0.46957,-0.0942c0.46957,0.56546 0.70436,1.27235 0.84523,2.02629c0.04696,0.14134 -0.04696,0.28268 -0.18783,0.37697c-0.18783,0.04714 -0.37566,0.04714 -0.46957,-0.18849c-0.09391,-0.18849 -0.18783,-0.32992 -0.18783,-0.51841c-0.09391,-0.56546 -0.3287,-1.08377 -0.46957,-1.60218z" id="Shape" fill="#430a50"/><path d="M236.64506,173.29532c0,-0.75404 -0.09391,-1.50798 0.04696,-2.21478c0.18783,-0.23563 0.37566,-0.18849 0.61044,-0.14143c0.18783,0.80109 0.09391,1.64932 0.09391,2.45041c-0.3287,0.18849 -0.51653,0.14134 -0.75131,-0.0942z" id="Shape" fill="#ecbb40"/><path d="M238.94596,172.30574c0.04696,0.23554 0.09391,0.51831 0.09391,0.80109c0,0.18849 -0.09391,0.37697 -0.3287,0.37697c-0.18783,0 -0.42261,-0.09429 -0.42261,-0.28278c0,-0.65975 0,-1.3194 0,-2.02629c0,-0.23563 0.18783,-0.32983 0.37566,-0.28268c0.18783,0 0.28174,0.14134 0.28174,0.28268c0,0.37697 0,0.70689 0,1.13101z" id="Shape" fill="#e2b43e"/><path d="M239.8851,181.82451c0.23479,-0.14134 0.37566,-0.14134 0.61044,0c0.18783,0.75404 0.14087,1.55513 0,2.30907c-0.18783,0.14134 -0.3287,0.09429 -0.56349,0.09429c-0.14087,-0.84823 -0.09391,-1.64932 -0.04696,-2.40336z" id="Shape" fill="#edbc41"/><path d="M236.73897,184.22787c-0.14087,-0.80109 -0.04696,-1.55513 0,-2.30907c0,-0.04714 0.14087,-0.14134 0.23479,-0.18849c0.14087,-0.04714 0.28174,0.04714 0.37566,0.18849c0.04696,0.09429 0.04696,0.18849 0.04696,0.32983c0.04696,0.47126 -0.04696,0.94252 0.09391,1.41369c0.04696,0.09429 -0.04696,0.28278 -0.14087,0.42412c-0.04696,0.04714 -0.09391,0.14143 -0.14087,0.14143c-0.14087,-0.04714 -0.28174,-0.04714 -0.46957,0z" id="Shape" fill="#eebd41"/><path d="M235.14243,184.60484c-0.37566,-0.70689 -0.04696,-1.50798 -0.18783,-2.21478c-0.04696,-0.23563 0.09391,-0.56555 0.37566,-0.80109c0.51653,0.56546 0.23479,1.2252 0.28174,1.83781c0.04696,0.37697 0.09391,0.84814 -0.46957,1.17806z" id="Shape" fill="#f0bf41"/><path d="M242.09208,183.144c0,0.28278 0,0.6126 0,0.89528c0,0.09429 -0.09391,0.23563 -0.23479,0.18858c-0.09391,0 -0.23479,-0.04714 -0.28174,-0.14143c-0.09391,-0.18849 -0.14087,-0.42412 -0.14087,-0.6126c0,-0.47117 0,-0.94243 0.04696,-1.46074c0,-0.14143 0.14087,-0.28278 0.28174,-0.28278c0.14087,0 0.28174,0.0942 0.28174,0.28278c0,0.37697 0,0.75394 0.04696,1.13091c-0.04696,0 0,0 0,0z" id="Shape" fill="#cca33a"/><path d="M238.94596,181.82451c0,0.65975 0,1.31949 0,1.9321c0,0.23563 -0.04696,0.47126 -0.3287,0.51831c-0.23479,0.04714 -0.37566,-0.18849 -0.37566,-0.56546c0,-0.51831 0,-1.03672 0.04696,-1.55503c0,-0.04714 0,-0.09429 0,-0.09429c0.09391,-0.37697 0.28174,-0.42412 0.6574,-0.23563z" id="Shape" fill="#e8b940"/><path d="M237.11463,174.52052c0.18783,0 0.23479,0.14134 0.23479,0.28268c0,1.83781 0,3.67561 0,5.51342c0,0.0942 0,0.18849 -0.04696,0.23563c-0.04696,0.0942 -0.14087,0.18849 -0.23479,0.18849c-0.14087,0.04714 -0.28174,0 -0.37566,-0.18849c-0.09391,-0.23563 -0.04696,-0.42412 0,-0.65975c0.28174,0.04714 0.04696,0.47126 0.42261,0.51831c0,-1.97915 0,-3.91115 0,-5.8903z" id="Shape" fill="#bcbcbc"/><path d="M237.11463,174.52052c0,1.97915 0,3.91115 0,5.8903c-0.3287,-0.04705 -0.14087,-0.47117 -0.42261,-0.51831c0,-0.47126 0,-0.89538 0,-1.36655c0.23479,-0.14143 0.18783,-0.37697 0.18783,-0.6126c0,-1.13101 0,-2.30907 0.04696,-3.43998c0.04696,0 0.14087,0 0.18783,0.04714z" id="Shape" fill="#f5f5f5"/><path d="M233.40502,102.37516c-0.56349,-0.23563 -0.46957,-0.70689 -0.37566,-1.13101c0.09391,-0.56546 0.28174,-1.13091 0.9861,-1.3194c-0.09391,1.08377 -0.23479,1.74352 -0.61044,2.45041z" id="Shape" fill="#f1f1f1"/><path d="M232.09022,108.87807c-0.18783,0.75404 -0.3287,1.36664 -0.46957,2.02629c-0.61044,-0.37697 -0.75131,-0.7068 -0.61044,-1.27226c0.18783,-0.42412 0.37566,-0.80109 1.08001,-0.75404z" id="Shape" fill="#e4e4e4"/><path d="M238.52334,174.52052c0,1.50789 0,3.06292 0,4.5709c0,0.28278 0.09391,0.6126 -0.18783,0.84823c0,-1.60218 -0.04696,-3.2515 -0.04696,-4.85367c-0.04696,-0.23563 -0.09391,-0.47126 0.23479,-0.56546z" id="Shape" fill="#afafaf"/><path d="M235.51809,170.89205c0.23479,0.75394 0.09391,1.55503 0.09391,2.30897c0,0.14134 -0.04696,0.28278 -0.23479,0.32983c-0.28174,-0.0942 -0.23479,-0.32983 -0.23479,-0.56546c0,-0.65965 -0.14087,-1.3194 0.09391,-1.97915c0.04696,-0.04714 0.14087,-0.04714 0.28174,-0.0942z" id="Shape" fill="#c49e3d"/><path d="M239.69727,192.52152c0,-1.08386 0,-1.08386 0.93914,-0.98967c0.04696,0.04714 0.09391,0.09429 0.14087,0.18849c0,0.23563 0,0.51841 0,0.70689c-0.23479,0.18849 -0.23479,0.18849 -1.08001,0.09429z" id="Shape" fill="#5e186f"/><path d="M241.8573,170.98625c0.18783,0.84823 0,1.64932 0.04696,2.40326c-0.23479,0.18849 -0.37566,0.04714 -0.42261,-0.0942c-0.04696,-0.65975 -0.04696,-1.31949 -0.09391,-1.97924c0.04696,-0.18849 0.14087,-0.28268 0.46957,-0.32983z" id="Shape" fill="#c19b3c"/><path d="M236.50419,191.579c0.28174,-0.18849 0.46957,-0.18849 0.70436,-0.0942c0.28174,0.28268 0.18783,0.98957 -0.14087,1.17806c-0.18783,0.14134 -0.46957,0 -0.56349,-0.18849c-0.09391,-0.23563 -0.04696,-0.56546 0,-0.89538z" id="Shape" fill="#521860"/><path d="M238.14769,192.52152c-0.14087,-0.37707 -0.14087,-0.65975 -0.04696,-0.94252c0.23479,-0.23563 0.46957,-0.18849 0.75131,-0.04714c0.04696,0.28278 0.09391,0.6126 0.18783,0.94252c-0.28174,0.18849 -0.56349,0.14134 -0.89218,0.04714z" id="Shape" fill="#601871"/><path d="M236.9268,174.52052c0,1.13091 0,2.30897 -0.04696,3.43998c0,0.23554 0.04696,0.47117 -0.18783,0.6126c0,-1.27235 0,-2.49755 -0.04696,-3.7699c0.04696,-0.18849 0.09391,-0.28268 0.28174,-0.28268z" id="Shape" fill="#bcbcbc"/><path d="M236.87985,189.647c0.28174,0 0.46957,0.14134 0.46957,0.47117c0,0.32992 -0.18783,0.47126 -0.46957,0.47126c-0.23479,0 -0.37566,-0.14134 -0.37566,-0.42412c0,-0.37697 0.09391,-0.51831 0.37566,-0.51831z" id="Shape" fill="#c09a39"/><path d="M238.5703,189.647c0.28174,0 0.37566,0.14134 0.42261,0.42412c0,0.32983 -0.14087,0.51831 -0.42261,0.51831c-0.3287,0 -0.46957,-0.14134 -0.46957,-0.47126c-0.04696,-0.32983 0.09391,-0.47117 0.46957,-0.47117z" id="Shape" fill="#c9a13d"/><path d="M239.93206,190.49523c-0.18783,-0.28278 -0.18783,-0.51841 -0.09391,-0.70689c0.23479,-0.18849 0.46957,-0.14134 0.75131,-0.09429c0.18783,0.70689 0.18783,0.75404 -0.6574,0.80118z" id="Shape" fill="#c7a03e"/><path d="M235.37722,189.647c0.23479,0 0.37566,0.14134 0.37566,0.37697c0,0.32983 -0.18783,0.56546 -0.42261,0.51831c-0.23479,-0.04705 -0.28174,-0.23563 -0.28174,-0.42412c0,-0.32983 0.14087,-0.47117 0.3287,-0.47117z" id="Shape" fill="#be983a"/><path d="M238.94596,178.99713c-0.04696,-0.0942 -0.18783,-0.18849 -0.18783,-0.28268c0.04696,-0.6126 -0.18783,-1.2252 0.14087,-1.79066c0.09391,0.7068 0.09391,1.41369 0.04696,2.07334z" id="Shape" fill="#afafaf"/><path d="M241.95121,190.11817c0,0.09429 0,0.09429 0,0.14143c-0.04696,0.0942 -0.09391,0.23563 -0.18783,0.23563c-0.09391,0 -0.23479,-0.09429 -0.23479,-0.14143c-0.04696,-0.14134 -0.04696,-0.28268 -0.04696,-0.42412c0,-0.0942 0.09391,-0.18849 0.23479,-0.18849c0.04696,0 0.14087,0.04714 0.18783,0.09429c0,0.0942 0,0.18849 0.04696,0.28268z" id="Shape" fill="#7e704e"/><path d="M238.71117,180.5994c0,-0.28278 0,-0.6126 0,-0.89538c0,-0.18849 0,-0.37697 0.18783,-0.47126c0,0.37697 0.04696,0.70689 0.04696,1.08386c0,0.14134 -0.04696,0.28278 -0.23479,0.28278z" id="Shape" fill="#afafaf"/><path d="M247.16345,189.45851c-1.6435,0 -2.6296,-1.27235 -2.34785,-2.82738c0.14087,-0.80109 1.08001,-1.64932 1.87828,-1.74361c1.08001,-0.0942 1.78437,0.37697 2.20698,1.31949c0.04696,0.0942 0.09391,0.18849 0.14087,0.32983c0.23479,0.42412 0.42261,0.80109 0.18783,1.27235c-0.28174,0.56546 -0.51653,1.13091 -1.17393,1.46084c-0.37566,0.14134 -0.6574,0.14134 -0.89218,0.18849zM248.43129,187.24373c0,-0.84823 -0.70436,-1.64932 -1.50263,-1.64932c-0.70436,-0.04714 -1.50263,0.84823 -1.50263,1.64932c0,0.84814 0.75131,1.50789 1.73741,1.50789c0.84523,-0.04714 1.26784,-0.51831 1.26784,-1.50789z" id="Shape" fill="#080505"/><path d="M249.74609,195.53739c-1.54958,0 -2.53568,-1.2252 -2.25394,-2.82738c0.14087,-0.80109 1.08001,-1.64932 1.83133,-1.74361c1.03306,-0.0942 1.83133,0.37697 2.20698,1.31949c0.04696,0.0942 0.04696,0.23563 0.14087,0.32983c0.51653,0.70689 0.18783,1.36655 -0.14087,1.97915c-0.37566,0.65975 -0.9861,0.98957 -1.78437,0.94252zM251.1548,193.36966c0,-0.84814 -0.70436,-1.64932 -1.50263,-1.64932c-0.70436,-0.04705 -1.50263,0.80118 -1.54958,1.64932c0,0.84823 0.75131,1.50798 1.73741,1.50798c0.84523,-0.04714 1.3148,-0.56546 1.3148,-1.50798z" id="Shape" fill="#080505"/><path d="M252.37569,197.13957c1.22088,0 2.11307,0.94243 2.11307,2.12049c0,1.08386 -1.17393,2.35621 -2.20698,2.35621c-1.3148,-0.04714 -2.48873,-1.27235 -2.44177,-2.59184c0.04696,-1.03672 1.17393,-1.88486 2.53568,-1.88486zM250.63828,199.16586c0,0.89528 0.70436,1.79066 1.36176,1.79066c0.9861,-0.04714 1.73741,-0.70689 1.78437,-1.64932c0.04696,-0.70689 -0.75131,-1.46084 -1.54958,-1.46084c-0.89218,-0.04714 -1.59654,0.51841 -1.59654,1.31949z" id="Shape" fill="#070505"/><path d="M241.99817,110.19756c0.56349,0 0.9861,0.32983 0.9861,0.80109c0,0.42412 -0.51653,0.84823 -0.9861,0.89538c-0.46957,0 -0.79827,-0.28278 -0.79827,-0.70689c-0.04696,-0.6126 0.23479,-0.94243 0.79827,-0.98957z" id="Shape" fill="#0c0a03"/><path d="M235.09548,110.00907c0.51653,0 0.84523,0.28268 0.89218,0.80109c0.04696,0.47126 -0.3287,0.94243 -0.75131,0.94243c-0.46957,0 -0.9861,-0.47117 -0.9861,-0.89528c-0.04696,-0.42412 0.37566,-0.84823 0.84523,-0.84823z" id="Shape" fill="#151006"/><path d="M242.56165,107.04035c-0.04696,0.42402 -0.42261,0.75394 -0.84523,0.75394c-0.42261,-0.04714 -0.75131,-0.47126 -0.75131,-0.84823c0.04696,-0.42412 0.3287,-0.75394 0.70436,-0.75394c0.46957,0 0.89218,0.37697 0.89218,0.84823z" id="Shape" fill="#0d0a04"/><path d="M235.23635,107.46437c-0.37566,-0.04705 -0.70436,-0.47117 -0.6574,-0.89528c0.04696,-0.42412 0.42261,-0.70689 0.84523,-0.70689c0.42261,0.04714 0.75131,0.37707 0.70436,0.75404c0,0.42412 -0.46957,0.89528 -0.89218,0.84814z" id="Shape" fill="#100d04"/><path d="M241.34077,103.45893c-0.37566,0.04714 -0.79827,-0.28268 -0.84523,-0.6126c-0.04696,-0.37697 0.3287,-0.89528 0.6574,-0.89528c0.3287,0 0.75131,0.42412 0.75131,0.80109c0,0.32983 -0.28174,0.65975 -0.56349,0.7068z" id="Shape" fill="#1a1407"/><path d="M236.5981,102.46936c0,0.42412 -0.42261,0.80109 -0.79827,0.75394c-0.37566,-0.04705 -0.70436,-0.37697 -0.70436,-0.7068c0,-0.42412 0.3287,-0.65975 0.84523,-0.65975c0.37566,0 0.6574,0.28278 0.6574,0.6126z" id="Shape" fill="#141006"/><path d="M249.41739,167.075c-0.3287,0 -0.56349,-0.14134 -0.75131,-0.42402c-0.23479,-0.32992 -0.09391,-0.65975 0.04696,-0.94252c0.14087,-0.23563 0.37566,-0.47117 0.61044,-0.65975c0.51653,-0.37697 1.26784,0 1.3148,0.65975c0.04696,0.70689 -0.56349,1.36655 -1.22088,1.36655zM249.55826,165.61426c-0.04696,0.23563 -0.3287,0.32983 -0.14087,0.6126c0.04696,0.0942 0.18783,0.0942 0.28174,0c0.18783,-0.14143 0.23479,-0.32992 -0.14087,-0.6126z" id="Shape" fill="#100f0e"/><path d="M248.43129,187.24373c0,0.98957 -0.42261,1.46074 -1.26784,1.50789c-0.9861,0 -1.78437,-0.65975 -1.73741,-1.50789c0,-0.84823 0.79827,-1.69647 1.50263,-1.64932c0.79827,0.04714 1.50263,0.80109 1.50263,1.64932z" id="Shape" fill="#fbc640"/><path d="M251.1548,193.36966c0,0.94252 -0.42261,1.46084 -1.26784,1.46084c-0.9861,0 -1.78437,-0.65975 -1.73741,-1.50789c0,-0.84823 0.79827,-1.69647 1.54958,-1.64932c0.75131,0.04705 1.45567,0.84823 1.45567,1.69637z" id="Shape" fill="#fbc640"/><path d="M250.63828,199.16586c0,-0.75404 0.70436,-1.36664 1.59654,-1.36664c0.79827,0 1.59654,0.75404 1.54958,1.46084c-0.04696,0.94243 -0.79827,1.60218 -1.78437,1.64932c-0.6574,0.04714 -1.36176,-0.89538 -1.36176,-1.74352z" id="Shape" fill="#f9c540"/><path d="M249.55826,165.61426c0.37566,0.28268 0.3287,0.47117 0.09391,0.6126c-0.09391,0.04705 -0.18783,0.0942 -0.28174,0c-0.14087,-0.28278 0.14087,-0.37697 0.18783,-0.6126z" id="Shape" fill="#a98938"/></g></g></svg>