<svg version="1.1" xmlns="http://www.w3.org/2000/svg" xmlns:xlink="http://www.w3.org/1999/xlink" width="139.83185" height="77.60285" viewBox="0,0,139.83185,77.60285"><g transform="translate(-170.95187,-150.00957)"><g data-paper-data="{&quot;isPaintingLayer&quot;:true}" fill="none" fill-rule="nonzero" stroke="none" stroke-width="1" stroke-linecap="butt" stroke-linejoin="miter" stroke-miterlimit="10" stroke-dasharray="" stroke-dashoffset="0" font-family="none" font-weight="none" font-size="none" text-anchor="none" style="mix-blend-mode: normal"><g data-paper-data="{&quot;index&quot;:null,&quot;origRot&quot;:0}" id="Group"><path d="M226.02283,178.34074l-25.86738,5.68894l1.87029,-6.08145c0,0 0.2927,-5.27495 -0.26488,-7.26731c-2.12445,-7.30703 -10.10135,-7.53742 -14.02609,-6.42097c-3.42283,-2.71371 -8.86109,-3.79008 -13.10859,-4.42092c1.77291,-1.52249 15.35824,-5.37327 17.58798,-5.80576c0,0 20.08027,-1.6716 39.31643,2.4601c19.23616,4.1317 18.55919,10.5387 18.55919,10.5387c-6.99685,1.65097 -24.06697,11.30867 -24.06697,11.30867z" id="Path" fill="#c8c8be"/><path d="M197.07437,184.9841c0,0 14.6477,-25.49303 28.08743,-28.14666l8.03409,3.17228c0,0 -15.50489,3.80979 -22.72036,10.07714c-3.85345,3.39849 -11.70489,14.15329 -11.70489,14.15329z" id="Path" fill="#f0e6d2"/><path d="M199.45714,154.90813l10.3343,-0.55946c-9.6783,0.75351 -22.05667,9.91128 -22.05667,9.91128c2.90904,-4.13883 6.93989,-7.4135 11.72237,-9.35182z" id="Path" fill="#f0e6d2"/><path d="M265.93364,169.83103l-23.1991,-4.0363c-1.79831,-0.09842 -3.81094,-1.4017 -5.47646,-2.09742c-2.61762,-1.07614 -5.24164,-1.85235 -7.92437,-2.68983c-6.14015,-1.93155 -12.1898,-2.48086 -18.53042,-3.45648c-12.32259,-1.88356 -24.27396,-1.47867 -36.17711,2.28802c-0.17355,-0.30378 2.18769,-1.27358 1.71933,-1.8237c-0.46836,-0.55013 -3.81757,1.71887 -4.10854,1.29256c-0.29096,-0.42631 3.58788,-2.20389 3.11824,-2.69403c-0.46964,-0.49014 -3.74221,1.00032 -4.28593,1.16875l-0.11741,-0.12254c2.57452,-2.5256 18.26216,-9.27216 46.36627,-7.29159c8.03176,0.47161 15.98432,1.84174 23.73513,4.22779c3.27747,1.09023 6.42856,2.47784 9.45455,4.10282c10.09133,5.19667 15.19099,10.88686 15.42581,11.13193z" id="Path" fill="#828278"/></g><g data-paper-data="{&quot;index&quot;:null,&quot;origRot&quot;:0}" id="Group"><path d="M219.09148,221.88266c-6.30113,-0.01455 -12.54227,-0.02783 -18.78212,-0.10108c-4.38028,-0.03354 -9.43451,0.57867 -13.73815,-0.23341c-3.28772,-0.61034 -6.46036,-3.79882 -9.11874,-5.77603c1.69627,-0.74395 5.67074,-1.37922 7.67848,-2.65664c2.06772,-1.27614 3.66708,-3.1024 4.73297,-5.24013c0,0 6.8459,2.60678 9.89669,-2.54925c3.05079,-5.15603 -2.59981,-15.95915 -2.59981,-15.95915l21.31239,8.07693l33.76497,12.3038c0,0 -21.21197,12.50991 -22.58781,12.30048c-3.41025,-0.49293 -7.07839,-0.15118 -10.55887,-0.16551z" id="Path" fill="#c8c8be"/><path d="M196.80601,189.11932c0,0 16.29348,29.51465 41.94607,28.26213l-13.22541,3.85847c-9.42892,-5.30255 -17.55201,-12.7377 -23.60225,-21.68893c-2.15287,-3.16669 -3.45953,-6.61538 -5.11842,-10.43167z" id="Path" fill="#f0e6d2"/><path d="M189.92391,207.87664c0,0 18.00989,16.58835 32.232,13.83142l-4.17365,1.53123c0,0 -14.40335,2.81308 -28.05835,-15.36264z" id="Path" fill="#f0e6d2"/><path d="M190.43934,225.89175c-3.35027,-0.49165 -6.44137,-1.87797 -9.47248,-3.26301c-2.13901,-1.0059 -7.8567,-3.04846 -8.76523,-5.46841c0.71984,0.01537 2.65839,1.97722 3.33489,1.21149c0.25788,-0.83468 -1.70501,-1.65679 -1.99213,-2.26305c0.72496,-0.22457 3.3413,0.91156 4.06754,0.627c0.12382,-0.1774 -1.65527,-1.17561 -1.46891,-1.4717c3.47664,0.19428 6.8664,1.647 10.33407,2.26118c3.58765,0.61675 7.17402,1.29348 10.76551,1.73027c7.42165,0.93869 14.98633,0.80019 22.33413,-0.42319c6.26292,-1.00649 12.36126,-2.73667 18.17375,-5.1331c2.78499,-1.14079 10.55677,-5.3558 10.55677,-5.3558l18.87665,-4.2779c0.02696,1.50092 -5.03134,5.11373 -6.19286,6.10915c-3.67093,3.28236 -7.69408,6.19712 -12.00692,8.62558c-5.40284,2.88529 -11.2115,5.10176 -17.18217,6.47458c-6.33444,1.54509 -18.39064,4.04822 -41.3626,0.61691z" id="Path" fill="#828278"/></g><path d="M202.2714,186.11534c0,0 -5.15114,-0.4701 -9.41145,-0.50108l0.0205,-0.95978c2.15823,0.10611 4.13777,0.14839 4.13777,0.14839c0,0 3.38637,-4.0086 4.85423,-5.29755c4.76862,-4.09911 17.53207,-8.80764 22.28636,-9.42626l-6.86627,12.39621c-1.81112,0.50144 -15.02115,3.64008 -15.02115,3.64008z" data-paper-data="{&quot;index&quot;:null,&quot;origRot&quot;:0}" id="Path" fill="#3c3c32"/><path d="M221.51538,203.93032c-3.77401,-0.32066 -13.71486,-4.1338 -17.67757,-6.85904c-4.43748,-2.97543 -6.75365,-6.92579 -7.0318,-7.95197c-1.13974,-0.02434 -2.81808,-0.1202 -3.95782,-0.14455l0.02306,-1.07975c1.67834,0.09586 9.17406,0.37598 9.17406,0.37598c0,0 15.34474,3.6885 15.5247,3.69235z" data-paper-data="{&quot;index&quot;:null,&quot;origRot&quot;:0}" id="Path" fill="#3c3c32"/><g data-paper-data="{&quot;index&quot;:null,&quot;origRot&quot;:0}" id="Group"><g id="Path" fill="#64645a"><path d="M307.47807,177.5599l0.24891,-0.41478c0.23995,0.00512 0.4199,0.00897 0.59986,0.01281c0.53988,0.01153 1.14102,-0.03564 1.6809,-0.02411c0.30121,-0.05358 0.53988,0.01153 0.77598,0.19661c-0.06639,0.29865 -0.12894,0.41734 -0.36889,0.41222c-0.47989,-0.01025 -0.90108,0.04077 -1.38097,0.03052c-0.47989,-0.01025 -0.71984,-0.01537 -1.07975,-0.02306c-0.17868,-0.06383 -0.29737,-0.12638 -0.47605,-0.19021z" id="ID0.9009404038079083"/><path d="M306.89615,176.70728l0.13022,-0.47733c0.18124,-0.05614 0.42119,-0.05102 0.60243,-0.10716c0.54244,-0.10844 1.08616,-0.27687 1.62988,-0.4453c0.42247,-0.111 0.42247,-0.111 0.77982,0.01666c-0.00769,0.35992 -0.06895,0.41862 -0.31018,0.47348c-0.42247,0.111 -0.90492,0.22073 -1.32739,0.33173c-0.42247,0.111 -0.72368,0.16458 -1.08488,0.21688c-0.11997,-0.00256 -0.29993,-0.00641 -0.4199,-0.00897z" id="ID0.18977740360423923"/><path d="M307.52781,178.04108c0.35864,0.06767 0.65729,0.13407 1.07463,0.26301c0.41734,0.12894 0.89467,0.25916 1.31201,0.3881c0.23866,0.06511 0.29737,0.12638 0.28968,0.4863c-0.24251,0.11485 -0.54244,0.10844 -0.77982,-0.01666c-0.53603,-0.19149 -1.07207,-0.38298 -1.60938,-0.51448c-0.17868,-0.06383 -0.41862,-0.06895 -0.5973,-0.13278l-0.10972,-0.48245c0.18124,-0.05614 0.30121,-0.05358 0.4199,0.00897z" id="ID0.24484720826148987"/></g><path d="M250.77376,168.72706c0,0 15.58386,-1.88766 23.31953,-1.60241c6.35599,0.25578 12.57407,1.34881 18.7883,2.62179c4.00371,0.80568 14.88022,2.95842 15.73238,8.01777c-2.6437,5.76486 -18.91537,6.13749 -24.01933,6.26854c-6.66617,0.2177 -23.64998,0.21504 -30.23823,-0.40578c-1.25436,-3.08749 -3.58265,-14.8999 -3.58265,-14.8999z" id="Path" fill="#64645a"/><path d="M261.04784,170.98696c0,0 15.12936,-0.277 26.91976,1.23511c8.13892,1.07404 13.55412,3.23016 13.70717,4.49372c0.41327,3.12954 -12.74295,3.74875 -16.04605,3.85824c-4.32414,0.1477 -18.18226,-0.08827 -22.43488,-0.47917c-0.85752,-1.99877 -2.146,-9.1079 -2.146,-9.1079z" id="Path" fill="#3c3c32"/></g><g data-paper-data="{&quot;index&quot;:null,&quot;origRot&quot;:0}" id="Group"><g id="Path" fill="#64645a"><path d="M307.14194,198.9176l0.24891,-0.41478c0.23995,0.00512 0.4199,0.00897 0.59986,0.01281c0.53988,0.01153 1.14102,-0.03564 1.6809,-0.02411c0.30121,-0.05358 0.53988,0.01153 0.77598,0.19661c-0.06639,0.29865 -0.12894,0.41734 -0.36889,0.41222c-0.47989,-0.01025 -0.90108,0.04077 -1.38097,0.03052c-0.35992,-0.00769 -0.71984,-0.01537 -1.07975,-0.02306c-0.17868,-0.06383 -0.35736,-0.12766 -0.47605,-0.19021z" id="ID0.16098821721971035"/><path d="M306.50003,198.06369l0.13022,-0.47733c0.24123,-0.05486 0.42119,-0.05102 0.60243,-0.10716c0.54244,-0.10844 1.08616,-0.27687 1.62988,-0.4453c0.42247,-0.111 0.42247,-0.111 0.77982,0.01666c-0.00769,0.35992 -0.06895,0.41862 -0.25019,0.47477c-0.42247,0.111 -0.90492,0.22073 -1.32739,0.33173c-0.42247,0.111 -0.72368,0.16458 -1.08488,0.21688c-0.17996,-0.00384 -0.29993,-0.00641 -0.47989,-0.01025z" id="ID0.7715142779052258"/><path d="M307.13169,199.39749c0.35864,0.06767 0.65729,0.13407 1.07463,0.26301c0.41734,0.12894 0.89467,0.25916 1.31201,0.3881c0.23866,0.06511 0.29737,0.12638 0.28968,0.4863c-0.24251,0.11485 -0.54244,0.10844 -0.77982,-0.01666c-0.53603,-0.19149 -1.07207,-0.38298 -1.60938,-0.51448c-0.17868,-0.06383 -0.41862,-0.06895 -0.5973,-0.13278l-0.10972,-0.48245c0.17996,0.00384 0.30121,-0.05358 0.4199,0.00897z" id="ID0.2585688652470708"/></g><path d="M242.5255,209.30018c3.83679,-2.61867 13.00944,-16.2259 13.98716,-17.04521c6.20934,-1.30771 51.77995,-2.25484 51.66314,6.02456c-0.0912,7.07967 -13.48864,7.75374 -18.12937,8.67485c-6.74922,1.29618 -39.36791,2.75999 -47.52093,2.3458z" id="Path" fill="#64645a"/><path d="M252.88891,196.13848c11.28127,0.06091 45.2694,-0.89355 48.61944,2.41874c3.35004,3.31229 -12.95879,5.42452 -17.46929,5.86831c-4.21057,0.45019 -19.39608,0.54595 -31.63713,0.46455z" id="Path" fill="#3c3c32"/></g><path d="M215.27703,200.97644c-6.21506,-6.85428 -5.20718,-17.51518 -0.01202,-24.72589c4.94881,-6.9159 16.07469,-10.81922 24.30307,-11.12358c7.74848,-0.31462 19.05794,-1.57341 25.67776,3.18903c7.15072,5.19388 9.11851,8.59667 9.14706,18.49954c0.09901,6.60362 -2.49751,12.96963 -7.09898,17.67244c-3.80243,3.81968 -9.73106,6.03358 -15.0201,6.40073c-11.96034,0.82479 -31.30878,-3.66939 -36.99678,-9.91227z" data-paper-data="{&quot;index&quot;:null,&quot;origRot&quot;:0}" id="Path" fill="#64645a"/><g data-paper-data="{&quot;index&quot;:null,&quot;origRot&quot;:0}" id="Group"><path d="M247.00395,179.44901c0.23866,0.06511 0.47989,0.01025 0.51938,0.97131c0.23715,2.94574 -0.07093,8.94052 -0.05578,11.04133c0.01514,2.1008 -0.39474,4.43258 -0.9946,4.41977c-0.59986,-0.01281 -1.00439,-0.74162 -0.97749,-2.00133c-0.0113,-2.28076 0.03739,-4.56024 0.14478,-6.77845c0.03972,-1.85958 0.13814,-3.65788 0.29655,-5.45491c0.07408,-0.65857 0.11252,-2.45816 1.06717,-2.19771z" id="Path" fill="#000000"/><path d="M247.51984,191.82285c-0.02306,1.07975 -0.09458,1.61835 -0.09458,1.61835c-0.77213,-0.37657 -3.08598,-1.62627 -3.07829,-1.98618c0.00897,-0.4199 2.43276,-1.5084 3.22027,-1.85166c0,0 -0.041,1.91956 -0.0474,2.21949z" id="Path" fill="#ffffff"/><path d="M252.67331,194.99361c-3.40874,-3.37356 -2.31933,-12.23231 0.08036,-15.0017c2.0308,-2.35717 6.09834,-1.73017 7.96537,0.77026c1.86703,2.50044 1.42384,6.39186 1.48231,9.27377c-0.4227,2.93164 -0.34372,4.85377 -3.42737,5.92817c-2.23743,0.7924 -4.86786,0.31613 -6.10067,-0.97049z" id="Path" fill="#f01446"/><path d="M259.20052,192.8525c0.08666,1.56221 -2.01414,1.57735 -2.97264,1.49687c-0.9585,-0.08049 -2.57685,-0.17506 -2.42741,-1.55219c0.14944,-1.37712 1.65422,-1.58504 2.49275,-1.50711c0.83853,0.07792 2.88191,-0.05847 2.9073,1.56244z" id="Path" fill="#6e1e3c"/><path d="M259.42729,182.23492c0.08666,1.56221 -2.01542,1.63734 -2.97264,1.49687c-0.95722,-0.14047 -2.57685,-0.17506 -2.42741,-1.55219c0.14944,-1.37712 1.65422,-1.58504 2.49275,-1.50711c0.83853,0.07792 2.88062,0.00151 2.9073,1.56244z" id="Path" fill="#6e1e3c"/><path d="M256.22972,171.78426c0.00769,-0.35992 0.25276,-0.59474 0.61396,-0.64704c0.54244,-0.10844 1.08232,-0.09691 1.62219,-0.08538c0.5386,0.07152 0.70959,0.49526 0.8793,0.979c-0.54756,0.34839 -1.26868,0.393 -1.8647,0.20023c-0.47989,-0.01025 -0.95978,-0.0205 -1.25074,-0.44681z" id="Path" fill="#000000"/><path d="M255.36816,203.69314c0.37785,-0.83212 1.03514,-0.69806 1.7537,-0.62269c0.77982,0.01666 0.83725,0.13791 1.1218,0.86415c-0.73649,0.76445 -1.87751,0.80009 -2.64196,0.0636c-0.05742,-0.12125 -0.11613,-0.18252 -0.23354,-0.30506z" id="Path" fill="#000000"/><path d="M247.68127,184.26457l-0.02819,1.3197c-0.94825,-0.56038 -2.54866,-1.49476 -2.54226,-1.79469c0.00641,-0.29993 1.524,-1.10771 2.55402,-1.56582c-0.00128,0.05999 0.01771,1.98083 0.01643,2.04082z" id="Path" fill="#ffffff"/></g></g></g></svg>