<svg version="1.1" xmlns="http://www.w3.org/2000/svg" xmlns:xlink="http://www.w3.org/1999/xlink" width="84.07756" height="112.53743" viewBox="0,0,84.07756,112.53743"><g transform="translate(-187.66993,-100.9719)"><g data-paper-data="{&quot;isPaintingLayer&quot;:true}" fill="none" fill-rule="nonzero" stroke="#000000" stroke-width="none" stroke-linecap="none" stroke-linejoin="miter" stroke-miterlimit="10" stroke-dasharray="" stroke-dashoffset="0" font-family="none" font-weight="none" font-size="none" text-anchor="none" style="mix-blend-mode: normal"><path d="M259.2752,209.8272l-48.9853,2.944l-5.1318,-97.6352l65.3497,-1.1416z" data-paper-data="{&quot;index&quot;:null}" id="ID0.1406416855752468" fill="#00cccc" stroke-width="1.32374" stroke-linecap="round"/><path d="M205.0377,115.0599l4.8315,97.3508l-12.9874,-11.132l-8.1411,-99.2935l16.3118,11.9029z" data-paper-data="{&quot;index&quot;:null}" id="ID0.1406416855752468" fill="#009999" stroke-width="0.96714" stroke-linecap="round"/><g data-paper-data="{&quot;index&quot;:null}" id="ID0.8624390144832432" stroke-linecap="butt"><path d="M247.7274,172.2188c3.2489,3.2489 5.2583,7.7341 5.2583,12.6825c0,4.9484 -2.0094,9.4336 -5.2583,12.6825c-3.2489,3.2489 -7.7341,5.2582 -12.6825,5.2582c-4.9484,0 -9.4336,-2.0093 -12.6825,-5.2582c-3.2489,-3.2489 -5.2583,-7.7341 -5.2583,-12.6825c0,-4.9484 2.0094,-9.4336 5.2583,-12.6825c3.2489,-3.2489 7.7341,-5.2583 12.6825,-5.2583c4.9484,0 9.4336,2.0094 12.6825,5.2583z" id="ID0.6190396044403315" fill="#666666" stroke-width="3.26196"/><path d="M240.8201,178.8898c1.4558,1.4558 2.3562,3.4655 2.3562,5.6828c0,2.2173 -0.9004,4.2271 -2.3562,5.6829c-1.4558,1.4558 -3.4655,2.3561 -5.6828,2.3561c-2.2173,0 -4.2271,-0.9003 -5.6828,-2.3561c-1.4558,-1.4558 -2.3562,-3.4656 -2.3562,-5.6829c0,-2.2173 0.9004,-4.227 2.3562,-5.6828c1.4557,-1.4558 3.4655,-2.3561 5.6828,-2.3561c2.2173,0 4.227,0.9003 5.6828,2.3561z" id="ID0.6190396044403315" fill="#dddfea" stroke-width="1.46163"/></g><path d="M270.0455,113.7498l-64.4973,0.9998l-16.5257,-13.25l60.1818,0.0032z" data-paper-data="{&quot;index&quot;:null}" id="ID0.1406416855752468" fill="#00ffff" stroke-width="0.95049" stroke-linecap="round"/><g data-paper-data="{&quot;index&quot;:null}" id="ID0.8624390144832432" stroke-linecap="butt"><path d="M248.8274,127.8188c3.2489,3.2489 5.2583,7.7341 5.2583,12.6825c0,4.9484 -2.0094,9.4336 -5.2583,12.6825c-3.2489,3.2489 -7.7341,5.2582 -12.6825,5.2582c-4.9484,0 -9.4336,-2.0093 -12.6825,-5.2582c-3.2489,-3.2489 -5.2583,-7.7341 -5.2583,-12.6825c0,-4.9484 2.0094,-9.4336 5.2583,-12.6825c3.2489,-3.2489 7.7341,-5.2583 12.6825,-5.2583c4.9484,0 9.4336,2.0094 12.6825,5.2583z" id="ID0.6190396044403315" fill="#666666" stroke-width="3.26196"/><path d="M241.9201,134.4898c1.4558,1.4558 2.3562,3.4655 2.3562,5.6828c0,2.2173 -0.9004,4.2271 -2.3562,5.6829c-1.4558,1.4558 -3.4655,2.3561 -5.6828,2.3561c-2.2173,0 -4.2271,-0.9003 -5.6828,-2.3561c-1.4558,-1.4558 -2.3562,-3.4656 -2.3562,-5.6829c0,-2.2173 0.9004,-4.227 2.3562,-5.6828c1.4557,-1.4558 3.4655,-2.3561 5.6828,-2.3561c2.2173,0 4.227,0.9003 5.6828,2.3561z" id="ID0.6190396044403315" fill="#dddfea" stroke-width="1.46163"/></g></g></g></svg>