<svg version="1.1" xmlns="http://www.w3.org/2000/svg" xmlns:xlink="http://www.w3.org/1999/xlink" width="59.14297" height="155.02843" viewBox="0,0,59.14297,155.02843"><g transform="translate(-203.98426,-110.03056)"><g data-paper-data="{&quot;isPaintingLayer&quot;:true}" fill="none" fill-rule="nonzero" stroke="none" stroke-width="1" stroke-linecap="butt" stroke-linejoin="miter" stroke-miterlimit="10" stroke-dasharray="" stroke-dashoffset="0" font-family="none" font-weight="none" font-size="none" text-anchor="none" style="mix-blend-mode: normal"><g data-paper-data="{&quot;origPos&quot;:null}" id="Group"><g id="Shape"><path d="M254.62735,205.72104l-0.53458,-2.13833l6.14771,-2.88675c0,0 0.05346,0.32075 0.21383,0.80188c0.21383,0.6415 0.74842,2.03142 1.44338,2.94021c0.6415,0.85533 0.48113,1.71067 -0.48113,1.49683c0,0.05346 0,0.05346 0,0.10692c0.16038,1.01571 0.16038,1.60375 -0.96225,1.60375c0,0 -0.26729,1.12263 -1.60375,0.69496c0,0 -0.90879,0.85533 -1.97796,0.42767c0,0 -0.6415,0.37421 -1.76413,-0.69496c-0.6415,-0.58804 -1.33646,-1.76413 -0.48113,-2.35217z" fill="#c5886b"/><g><g><path d="M255.80343,206.7902c-0.16038,-0.85533 0.10692,-1.38992 0.37421,-1.44338c0.69496,-0.10692 0.96225,1.22954 1.283,1.87104c0.32075,0.6415 0.6415,0.53458 0.6415,0.53458c-0.90879,-1.22954 -0.53458,-2.45909 -0.37421,-2.51254c0.48113,-0.21383 0.74842,0 0.85533,0.21383c-0.10692,-0.69496 0.53458,-0.85533 0.85533,-0.85533c0.6415,0.05346 1.44338,2.35217 1.44338,2.35217c0.05346,0.16038 0.05346,0.42767 0,0.69496c-0.10692,0 -0.26729,0.05346 -0.42767,0.05346c0,0 -0.26729,1.12263 -1.60375,0.69496c0,0 -0.90879,0.85533 -1.97796,0.42767c0,0 -0.6415,0.37421 -1.76413,-0.69496c-0.58804,-0.58804 -1.283,-1.65721 -0.53458,-2.24525c0.10692,-0.05346 0.21383,-0.05346 0.32075,-0.05346c0.58804,-0.10692 0.85533,0.6415 0.90879,0.96225z" fill="#c5886b"/><path d="M260.56123,207.64554c-0.21383,-0.05346 -0.48113,-0.10692 -0.74842,-0.32075c-0.26729,-0.21383 -0.53458,-0.53458 -0.74842,-0.85533c-0.16038,-0.16038 -0.21383,-0.32075 -0.32075,-0.53458c-0.10692,-0.16038 -0.21383,-0.37421 -0.26729,-0.58804c-0.05346,-0.26729 0.10692,-0.53458 0.32075,-0.69496c0.21383,-0.10692 0.42767,-0.21383 0.69496,-0.16038c0.10692,0 0.21383,0.05346 0.32075,0.16038c0.05346,0.10692 0.10692,0.16038 0.16038,0.26729c0.10692,0.16038 0.21383,0.26729 0.26729,0.42767c0.26729,0.58804 0.42767,0.96225 0.42767,0.96225c0,0 -0.21383,-0.32075 -0.58804,-0.85533c-0.10692,-0.16038 -0.21383,-0.26729 -0.32075,-0.42767c-0.16038,-0.16038 -0.21383,-0.26729 -0.37421,-0.26729c-0.10692,0 -0.32075,0.05346 -0.42767,0.16038c-0.10692,0.10692 -0.21383,0.26729 -0.16038,0.37421c0.05346,0.16038 0.16038,0.37421 0.21383,0.53458c0.10692,0.16038 0.16038,0.37421 0.26729,0.53458c0.05346,0.16038 0.16038,0.32075 0.26729,0.48113c0.10692,0.16038 0.21383,0.26729 0.32075,0.37421c0.21383,0.21383 0.42767,0.32075 0.58804,0.37421c0.16038,0.05346 0.26729,0.05346 0.26729,0.05346c0,0 -0.10692,0 -0.16038,0z" fill="#a95947"/><path d="M258.42289,205.18645c-0.16038,-0.05346 -0.37421,-0.10692 -0.53458,0c-0.16038,0.05346 -0.26729,0.32075 -0.26729,0.58804c0,0.10692 0.05346,0.26729 0.05346,0.42767c0,0.16038 0.05346,0.32075 0.10692,0.48113c0.05346,0.16038 0.10692,0.26729 0.16038,0.42767c0.05346,0.10692 0.16038,0.26729 0.21383,0.37421c0.21383,0.26729 0.37421,0.42767 0.58804,0.53458c0.16038,0.10692 0.37421,0.16038 0.48113,0.21383c0.16038,0.05346 0.21383,0.05346 0.21383,0.05346v0.21383c0,0 -0.37421,0 -0.85533,-0.21383c-0.26729,-0.10692 -0.48113,-0.32075 -0.69496,-0.58804c-0.10692,-0.10692 -0.21383,-0.26729 -0.26729,-0.42767c-0.10692,-0.16038 -0.16038,-0.32075 -0.21383,-0.48113c-0.05346,-0.16038 -0.10692,-0.32075 -0.10692,-0.48113c0,-0.16038 0,-0.32075 0,-0.48113c0.05346,-0.16038 0.05346,-0.32075 0.16038,-0.48113c0.10692,-0.16038 0.21383,-0.26729 0.37421,-0.32075c0.32075,-0.05346 0.53458,0.05346 0.6415,0.16038c0.10692,0.05346 0.16038,0.16038 0.16038,0.16038c0,0 -0.05346,-0.05346 -0.21383,-0.16038z" fill="#a95947"/><path d="M257.46064,208.87508c-0.21383,0 -0.53458,0 -0.90879,-0.21383c-0.21383,-0.10692 -0.37421,-0.21383 -0.48113,-0.42767c-0.10692,-0.16038 -0.21383,-0.42767 -0.26729,-0.6415c-0.10692,-0.42767 -0.26729,-0.90879 -0.26729,-1.44338c0.05346,-0.21383 0,-0.53458 0.26729,-0.80188c0.10692,-0.16038 0.26729,-0.16038 0.42767,-0.16038c0.05346,0 0.10692,0 0.21383,0.05346c0.05346,0 0.16038,0.05346 0.21383,0.10692c0.26729,0.16038 0.32075,0.37421 0.42767,0.58804c0.10692,0.21383 0.16038,0.42767 0.21383,0.58804c0.21383,0.74842 0.26729,1.22954 0.26729,1.22954c0,0 -0.05346,-0.10692 -0.10692,-0.32075c-0.05346,-0.21383 -0.16038,-0.53458 -0.32075,-0.85533c-0.10692,-0.16038 -0.16038,-0.37421 -0.26729,-0.53458c-0.10692,-0.16038 -0.21383,-0.37421 -0.37421,-0.48113c-0.16038,-0.10692 -0.37421,-0.10692 -0.48113,0c-0.10692,0.10692 -0.10692,0.37421 -0.10692,0.58804c0,0.48113 0.10692,0.96225 0.21383,1.38992c0.05346,0.21383 0.10692,0.42767 0.21383,0.58804c0.10692,0.21383 0.26729,0.32075 0.37421,0.42767c0.26729,0.21383 0.58804,0.26729 0.80188,0.26729c0.21383,0 0.32075,0 0.32075,0c0,0 -0.10692,0.05346 -0.37421,0.05346z" fill="#a95947"/><path d="M255.64306,206.62983c0,0 -0.05346,-0.10692 -0.21383,-0.21383c-0.05346,-0.05346 -0.10692,-0.16038 -0.21383,-0.21383c-0.05346,-0.05346 -0.16038,-0.10692 -0.26729,-0.16038c-0.05346,0 -0.10692,-0.05346 -0.16038,-0.05346c0,0 -0.05346,0 -0.10692,0c-0.05346,0 -0.16038,0.05346 -0.21383,0.10692c-0.05346,0.05346 -0.10692,0.10692 -0.16038,0.16038c-0.05346,0.05346 -0.05346,0.05346 -0.05346,0.05346c0,0 0,-0.05346 0,-0.10692c0,-0.10692 0,-0.16038 0.05346,-0.26729c0.05346,-0.05346 0.05346,-0.10692 0.10692,-0.16038c0,-0.10692 0.10692,-0.10692 0.16038,-0.16038c0.16038,-0.05346 0.32075,-0.05346 0.48113,0c0.32075,0.10692 0.48113,0.32075 0.6415,0.48113c0.16038,0.16038 0.21383,0.26729 0.21383,0.26729z" fill="#a95947"/></g><g><path d="M260.40085,204.75879c-2.566,-3.47479 -0.96225,-2.94021 -0.32075,-3.10059c0.10692,-0.05346 0.26729,0 0.48113,0.10692c0.26729,0.69496 0.69496,1.87104 1.33646,2.72638c0.6415,0.85533 0.48113,1.71067 -0.48113,1.49683c-0.42767,-0.26729 -0.6415,-0.69496 -1.01571,-1.22954z" fill="#c5886b"/><path d="M261.68386,205.98833c-0.10692,0 -0.21383,-0.05346 -0.37421,-0.10692c-0.10692,-0.05346 -0.26729,-0.16038 -0.42767,-0.26729c-0.16038,-0.10692 -0.32075,-0.26729 -0.42767,-0.42767c-0.21383,-0.26729 -0.42767,-0.6415 -0.53458,-0.90879c-0.10692,-0.26729 -0.16038,-0.48113 -0.16038,-0.48113c0,0 0.16038,0.16038 0.32075,0.37421c0.16038,0.21383 0.42767,0.53458 0.6415,0.80188c0.21383,0.32075 0.48113,0.58804 0.69496,0.74842c0.10692,0.10692 0.21383,0.16038 0.26729,0.21383c0.05346,0.05346 0.10692,0.05346 0.10692,0.05346c0,0 -0.05346,0 -0.10692,0z" fill="#a95947"/></g></g></g><g id="Shape"><path d="M248.05197,178.6711c2.51254,-0.48113 4.38359,-0.42767 6.14771,1.87104c1.71067,2.29871 2.19179,5.93388 2.94021,8.44642c0.80188,2.566 5.93388,9.19484 5.93388,9.19484c-1.55029,5.82696 -11.92122,6.415 -11.92122,6.415c0,0 -4.91817,-10.15709 -6.89613,-20.52801c-0.53458,-2.566 1.06917,-4.86471 3.79554,-5.3993z" fill="#224363"/><path d="M254.36006,180.75598c0.16038,0.21383 0.42767,0.58804 0.6415,1.01571c0.21383,0.42767 0.48113,0.96225 0.69496,1.55029c0.21383,0.58804 0.42767,1.22954 0.58804,1.87104c0.16038,0.6415 0.26729,1.283 0.37421,1.9245c0.10692,0.6415 0.10692,1.22954 0.16038,1.71067c0,0.53458 0,0.96225 0,1.22954c0,0.32075 0,0.48113 0,0.48113c0,0 0,-0.21383 -0.05346,-0.48113c-0.05346,-0.26729 -0.10692,-0.69496 -0.16038,-1.17608c-0.05346,-0.26729 -0.05346,-0.53458 -0.10692,-0.80188c-0.05346,-0.26729 -0.10692,-0.53458 -0.16038,-0.85533c-0.10692,-0.58804 -0.26729,-1.22954 -0.42767,-1.87104c-0.16038,-0.6415 -0.32075,-1.283 -0.53458,-1.87104c-0.21383,-0.58804 -0.37421,-1.12263 -0.58804,-1.60375c-0.21383,-0.42767 -0.37421,-0.80188 -0.53458,-1.06917c-0.10692,-0.26729 -0.21383,-0.42767 -0.21383,-0.42767c0,0 0.10692,0.16038 0.32075,0.37421z" fill="#1a324a"/><path d="M260.50777,194.70861l1.283,1.65721c0.42767,0.58804 0.85533,1.12263 1.283,1.65721l0.05346,0.05346v0.05346c-0.10692,0.32075 -0.21383,0.6415 -0.37421,0.96225c-0.16038,0.26729 -0.32075,0.58804 -0.53458,0.85533c-0.16038,0.26729 -0.42767,0.53458 -0.6415,0.80188c-0.10692,0.16038 -0.26729,0.26729 -0.37421,0.37421l-0.37421,0.32075c-0.26729,0.21383 -0.53458,0.42767 -0.85533,0.58804c-0.32075,0.21383 -0.58804,0.32075 -0.90879,0.48113c-0.32075,0.16038 -0.6415,0.26729 -0.96225,0.37421c-0.32075,0.10692 -0.6415,0.16038 -0.96225,0.26729l0.48113,-0.16038c0.16038,-0.05346 0.32075,-0.10692 0.48113,-0.16038c0.32075,-0.16038 0.6415,-0.26729 0.90879,-0.42767c0.26729,-0.10692 0.58804,-0.26729 0.85533,-0.48113c0.26729,-0.16038 0.53458,-0.37421 0.80188,-0.58804c0.21383,-0.21383 0.48113,-0.42767 0.69496,-0.69496c0.26729,-0.21383 0.48113,-0.48113 0.6415,-0.74842c0.16038,-0.26729 0.32075,-0.58804 0.48113,-0.85533c0.16038,-0.32075 0.32075,-0.58804 0.37421,-0.90879l0.05346,0.16038c-0.42767,-0.53458 -0.85533,-1.06917 -1.283,-1.65721c-0.42767,-0.58804 -0.85533,-1.12263 -1.22954,-1.71067c-0.80188,-1.17608 -1.55029,-2.35217 -2.24525,-3.58171c0.80188,1.12263 1.60375,2.29871 2.35217,3.36788z" fill="#1a324a"/><path d="M245.0583,187.70557c0.10692,0.48113 0.26729,1.17608 0.53458,2.03142c0.26729,0.85533 0.58804,1.81758 0.90879,2.88675c0.37421,1.06917 0.74842,2.13833 1.17608,3.26096c0.37421,1.06917 0.80188,2.19179 1.22954,3.2075c0.42767,1.01571 0.80188,1.97796 1.12263,2.77984c0.69496,1.65721 1.12263,2.72638 1.12263,2.72638c0,0 -0.16038,-0.26729 -0.37421,-0.74842c-0.21383,-0.48113 -0.53458,-1.12263 -0.90879,-1.9245c-0.37421,-0.80188 -0.80188,-1.76413 -1.22954,-2.77984c-0.42767,-1.01571 -0.85533,-2.08488 -1.283,-3.2075c-0.42767,-1.06917 -0.80188,-2.19179 -1.12263,-3.26096c-0.32075,-1.01571 -0.58804,-2.03142 -0.80188,-2.88675c-0.21383,-0.85533 -0.32075,-1.55029 -0.42767,-2.08488c-0.10692,-0.53458 -0.10692,-0.80188 -0.10692,-0.80188c0,0 0.05346,0.26729 0.16038,0.80188z" fill="#1a324a"/></g><g id="Shape"><path d="M243.7753,181.77169c-1.9245,-3.36788 -3.15404,-24.05627 -0.80188,-26.51535c2.51254,-2.67292 7.59109,-2.45909 9.2483,2.99367c1.283,4.22321 0.85533,12.24197 0.96225,15.18218c0.10692,2.94021 0.16038,2.19179 0.80188,4.22321c0.6415,2.03142 0.21383,2.40563 -0.10692,3.04713c-0.32075,0.6415 -2.03142,1.76413 -4.7578,2.24525c-2.72638,0.42767 -4.27667,0.6415 -5.34584,-1.17608z" fill="#224363"/><path d="M245.32559,183.21506c-0.10692,-0.05346 -0.26729,-0.05346 -0.48113,-0.16038c-0.10692,-0.05346 -0.21383,-0.10692 -0.32075,-0.21383c-0.10692,-0.10692 -0.21383,-0.21383 -0.32075,-0.32075c-0.21383,-0.21383 -0.37421,-0.53458 -0.58804,-0.85533c-0.16038,-0.37421 -0.32075,-0.74842 -0.48113,-1.17608c-0.16038,-0.42767 -0.32075,-0.85533 -0.42767,-1.33646c-0.16038,-0.42767 -0.21383,-0.96225 -0.32075,-1.44338c-0.10692,-0.48113 -0.21383,-0.96225 -0.26729,-1.49683c-0.05346,-0.53458 -0.10692,-1.06917 -0.16038,-1.55029c-0.05346,-0.53458 -0.05346,-1.01571 -0.10692,-1.49683c0,-0.48113 -0.05346,-0.96225 -0.05346,-1.38992c-0.05346,-0.42767 -0.05346,-0.85533 -0.05346,-1.22954c0,-1.55029 0.05346,-2.566 0.05346,-2.566c0,0 0.10692,1.01571 0.16038,2.566c0.05346,0.37421 0.05346,0.80188 0.10692,1.22954c0.05346,0.42767 0.05346,0.90879 0.10692,1.38992c0.05346,0.48113 0.10692,1.01571 0.16038,1.49683c0,0.48113 0.05346,1.01571 0.16038,1.49683c0.05346,0.48113 0.10692,1.01571 0.21383,1.49683c0.05346,0.48113 0.16038,0.96225 0.26729,1.44338c0.10692,0.48113 0.21383,0.90879 0.37421,1.33646c0.10692,0.37421 0.26729,0.74842 0.42767,1.12263c0.16038,0.32075 0.32075,0.6415 0.53458,0.85533c0.05346,0.16038 0.16038,0.21383 0.26729,0.32075c0.05346,0.10692 0.16038,0.16038 0.26729,0.21383c0.21383,0.10692 0.37421,0.16038 0.48113,0.16038c0.10692,0 0.16038,0 0.16038,0c0,0 -0.05346,0 -0.16038,0.10692z" fill="#1a324a"/><path d="M253.18397,172.84414c0.05346,0.53458 0.10692,1.17608 0.16038,1.81758c0.05346,0.32075 0.10692,0.69496 0.16038,1.01571c0.05346,0.37421 0.16038,0.69496 0.32075,0.96225c0.32075,0.69496 0.48113,1.38992 0.53458,2.08488c0.05346,0.69496 -0.10692,1.33646 -0.37421,1.81758c-0.26729,0.53458 -0.69496,0.74842 -0.96225,0.90879c-0.10692,0.05346 -0.21383,0.10692 -0.32075,0.10692c-0.05346,0.05346 -0.10692,0.05346 -0.10692,0.05346c0,0 0.16038,-0.05346 0.42767,-0.21383c0.26729,-0.16038 0.58804,-0.42767 0.80188,-0.90879c0.26729,-0.48113 0.32075,-1.06917 0.26729,-1.71067c-0.05346,-0.6415 -0.21383,-1.33646 -0.53458,-1.9245c-0.16038,-0.32075 -0.26729,-0.74842 -0.32075,-1.06917c-0.05346,-0.32075 -0.10692,-0.69496 -0.10692,-1.01571c-0.05346,-0.6415 -0.05346,-1.283 -0.05346,-1.81758c0,-1.06917 0.10692,-1.76413 0.10692,-1.76413c0,0 0,0.69496 0,1.65721z" fill="#1a324a"/></g></g><g data-paper-data="{&quot;origPos&quot;:null}" id="Group"><g id="Shape"><path d="M233.19054,257.36182c0,0 2.77984,2.94021 4.38359,3.68863c1.60375,0.74842 2.51254,3.15404 0.6415,3.79554c-2.13833,0.69496 -11.76084,-0.26729 -13.63188,-3.52825c-1.81758,-3.31442 3.90246,-7.9653 8.6068,-3.95592z" fill="#382a1e"/><path d="M233.19054,256.39957c0,0 2.29871,2.94021 3.90246,3.68863c1.60375,0.74842 3.26096,3.36788 1.06917,3.79554c-2.19179,0.37421 -11.76084,-0.26729 -13.63188,-3.52825c-1.81758,-3.31442 3.90246,-7.9653 8.66026,-3.95592z" fill="#4d3a29"/><path d="M235.11504,259.39324c-0.10692,0.05346 -0.21383,0.16038 -0.32075,0.26729c-0.16038,0.10692 -0.26729,0.21383 -0.37421,0.32075c-0.21383,0.21383 -0.42767,0.48113 -0.6415,0.6415c-0.16038,0.16038 -0.32075,0.26729 -0.32075,0.26729c0,0 0.05346,-0.21383 0.16038,-0.42767c0.16038,-0.26729 0.32075,-0.53458 0.58804,-0.80188c0.26729,-0.26729 0.58804,-0.48113 0.85533,-0.53458c0.10692,-0.05346 0.26729,0 0.32075,0c0.05346,0 0.10692,0.05346 0.10692,0.05346c0,0 -0.16038,0 -0.37421,0.21383z" fill="#382a1e"/><path d="M234.04588,258.32408c-0.10692,0.05346 -0.21383,0.16038 -0.32075,0.26729c-0.16038,0.10692 -0.26729,0.21383 -0.37421,0.32075c-0.21383,0.21383 -0.42767,0.48113 -0.6415,0.6415c-0.16038,0.16038 -0.32075,0.26729 -0.32075,0.26729c0,0 0.05346,-0.21383 0.16038,-0.42767c0.16038,-0.26729 0.32075,-0.53458 0.58804,-0.80188c0.26729,-0.26729 0.58804,-0.48113 0.85533,-0.53458c0.10692,-0.05346 0.26729,0 0.32075,0c0.05346,0 0.10692,0.05346 0.10692,0.05346c0,0 -0.21383,-0.05346 -0.37421,0.21383z" fill="#382a1e"/></g><g id="Shape"><g><path d="M247.30355,255.65116c0,0 2.77984,2.94021 4.38359,3.68863c1.60375,0.74842 2.51254,3.15404 0.6415,3.79554c-2.13833,0.69496 -11.76084,-0.26729 -13.63188,-3.52825c-1.87104,-3.26096 3.849,-7.91184 8.6068,-3.95592z" fill="#382a1e"/><path d="M247.2501,254.68891c0,0 2.29871,2.94021 3.90246,3.68863c1.60375,0.74842 3.26096,3.36788 1.06917,3.79554c-2.19179,0.37421 -11.76084,-0.26729 -13.63188,-3.52825c-1.81758,-3.31442 3.95592,-7.91184 8.66026,-3.95592z" fill="#4d3a29"/><path d="M249.1746,257.73603c-0.10692,0.05346 -0.21383,0.16038 -0.32075,0.26729c-0.16038,0.10692 -0.26729,0.21383 -0.37421,0.32075c-0.21383,0.21383 -0.42767,0.48113 -0.6415,0.6415c-0.16038,0.16038 -0.32075,0.26729 -0.32075,0.26729c0,0 0.05346,-0.21383 0.16038,-0.42767c0.16038,-0.26729 0.32075,-0.53458 0.58804,-0.80188c0.26729,-0.26729 0.58804,-0.48113 0.85533,-0.53458c0.10692,-0.05346 0.26729,0 0.32075,0c0.05346,0 0.10692,0.05346 0.10692,0.05346c0,0 -0.16038,-0.05346 -0.37421,0.21383z" fill="#382a1e"/><path d="M248.10543,256.61341c-0.10692,0.05346 -0.21383,0.16038 -0.32075,0.26729c-0.16038,0.10692 -0.26729,0.21383 -0.37421,0.32075c-0.21383,0.21383 -0.42767,0.48113 -0.6415,0.6415c-0.16038,0.16038 -0.32075,0.26729 -0.32075,0.26729c0,0 0.05346,-0.21383 0.16038,-0.42767c0.16038,-0.26729 0.32075,-0.53458 0.58804,-0.80188c0.26729,-0.26729 0.58804,-0.48113 0.85533,-0.53458c0.10692,-0.05346 0.26729,0 0.32075,0c0.05346,0 0.10692,0.05346 0.10692,0.05346c0,0 -0.21383,0 -0.37421,0.21383z" fill="#382a1e"/></g><path d="M245.64634,256.2392c0,0 -3.2075,1.49683 -7.27034,0.48113l-0.48113,-12.13505l8.55334,1.38992z" fill="#382a1e"/></g><g id="Shape"><g><path d="M229.87612,255.11657l6.6823,-8.12567l12.24197,-0.90879l4.59742,8.33951l-2.94021,4.22321l-5.3993,1.12263l-0.21383,-7.59109l-8.33951,1.9245l-1.17608,5.98734z" fill="#1c3752"/><path d="M250.51106,184.87227c0,0 3.04713,4.70434 3.31442,18.33622c0.26729,13.63188 2.61946,47.20374 6.0408,52.17537c0,0 -1.33646,6.78921 -13.63188,4.97163c-4.97163,-0.74842 8.28605,-2.77984 4.43704,-5.34584c-3.849,-2.566 -19.19156,1.97796 -16.25135,3.90246c2.94021,1.97796 -1.60375,3.68863 -9.99672,2.566c-8.39296,-1.12263 -9.62251,1.17608 -13.95264,0.42767c-8.66026,-1.49683 -6.14771,-5.61313 -6.14771,-5.61313c0,0 6.30809,-5.7735 7.16342,-16.25135c0.85533,-10.47784 8.33951,-52.12191 13.63188,-55.48979c5.98734,-3.849 19.03118,-7.00305 25.39273,0.32075z" fill="#264a6e"/><path d="M250.77835,253.99395c-0.26729,-1.12263 -0.6415,-2.72638 -1.06917,-4.70434c-0.37421,-1.97796 -0.85533,-4.27667 -1.283,-6.73575c-0.42767,-2.45909 -0.85533,-5.07855 -1.22954,-7.75146c-0.16038,-1.33646 -0.37421,-2.61946 -0.48113,-3.95592c-0.10692,-1.33646 -0.26729,-2.61946 -0.37421,-3.849c-0.10692,-1.22954 -0.21383,-2.40563 -0.26729,-3.58171c-0.05346,-1.17608 -0.16038,-2.24525 -0.16038,-3.26096c0,-1.01571 -0.05346,-1.9245 -0.05346,-2.72638c0,-0.80188 0.05346,-1.49683 0.05346,-2.08488c0.05346,-1.12263 0.05346,-1.81758 0.05346,-1.81758c0,0 0,0.6415 0,1.81758c0.05346,0.58804 0,1.283 0.05346,2.08488c0,0.80188 0.05346,1.71067 0.10692,2.72638c0.05346,0.96225 0.16038,2.08488 0.21383,3.2075c0.05346,1.12263 0.21383,2.35217 0.32075,3.58171c0.10692,1.283 0.26729,2.566 0.42767,3.849c0.10692,1.283 0.32075,2.61946 0.48113,3.95592c0.37421,2.61946 0.74842,5.29238 1.17608,7.75146c0.37421,2.45909 0.80188,4.7578 1.17608,6.73575c0.42767,1.97796 0.69496,3.63517 0.96225,4.7578c0.21383,1.17608 0.37421,1.81758 0.37421,1.81758c0,0 -0.16038,-0.69496 -0.48113,-1.81758z" fill="#1a324a"/><path d="M234.25971,254.47507c0.10692,-1.12263 0.16038,-2.40563 0.26729,-3.79554c0.10692,-1.38992 0.16038,-2.88675 0.26729,-4.38359c0.10692,-1.49683 0.21383,-2.99367 0.26729,-4.38359c0.05346,-1.38992 0.10692,-2.67292 0.16038,-3.79554c0,-0.53458 0.05346,-1.06917 0.05346,-1.49683c0,-0.48113 0,-0.85533 0,-1.17608c0,-0.6415 0,-1.01571 0,-1.01571c0,0 0,0.37421 0.05346,1.01571c0.05346,0.32075 0.05346,0.74842 0.05346,1.17608c0,0.48113 0,1.01571 0,1.55029c0,1.12263 0,2.40563 -0.05346,3.79554c-0.05346,1.38992 -0.10692,2.88675 -0.21383,4.38359c-0.10692,1.49683 -0.21383,2.99367 -0.32075,4.38359c-0.10692,1.38992 -0.26729,2.67292 -0.37421,3.79554c-0.21383,2.19179 -0.42767,3.68863 -0.42767,3.68863c0,0 0.10692,-1.49683 0.26729,-3.74209z" fill="#1a324a"/><path d="M225.9202,189.36278c-0.10692,0.10692 -0.21383,0.32075 -0.37421,0.58804c-0.16038,0.26729 -0.32075,0.58804 -0.48113,0.96225c-0.16038,0.42767 -0.32075,0.85533 -0.48113,1.33646c-0.16038,0.48113 -0.32075,1.01571 -0.48113,1.60375c-0.16038,0.58804 -0.32075,1.17608 -0.48113,1.81758c-0.10692,0.6415 -0.32075,1.283 -0.42767,1.9245c-0.10692,0.69496 -0.26729,1.33646 -0.37421,2.03142c-0.10692,0.69496 -0.26729,1.38992 -0.37421,2.03142c-0.10692,0.69496 -0.21383,1.33646 -0.32075,1.97796c-0.21383,1.283 -0.37421,2.45909 -0.53458,3.47479c-0.26729,2.08488 -0.48113,3.42134 -0.48113,3.42134c0,0 0.10692,-1.38992 0.32075,-3.42134c0.05346,-0.53458 0.16038,-1.06917 0.21383,-1.65721c0.10692,-0.58804 0.16038,-1.22954 0.26729,-1.87104c0.16038,-1.283 0.37421,-2.67292 0.6415,-4.00938c0.10692,-0.69496 0.26729,-1.38992 0.42767,-2.03142c0.16038,-0.6415 0.32075,-1.283 0.48113,-1.9245c0.16038,-0.6415 0.37421,-1.22954 0.53458,-1.81758c0.16038,-0.58804 0.32075,-1.12263 0.53458,-1.60375c0.10692,-0.26729 0.16038,-0.48113 0.26729,-0.69496c0.10692,-0.21383 0.16038,-0.37421 0.26729,-0.58804c0.21383,-0.37421 0.37421,-0.69496 0.53458,-0.96225c0.16038,-0.21383 0.32075,-0.42767 0.42767,-0.53458c0.10692,-0.10692 0.16038,-0.16038 0.16038,-0.16038c0,0 -0.10692,0.05346 -0.26729,0.10692z" fill="#1a324a"/><path d="M241.53005,189.41623c0.05346,0.10692 0.21383,0.26729 0.37421,0.48113c0.16038,0.21383 0.32075,0.48113 0.53458,0.80188c0.16038,0.32075 0.37421,0.6415 0.58804,1.06917c0.21383,0.42767 0.37421,0.85533 0.58804,1.33646c0.16038,0.48113 0.37421,1.01571 0.53458,1.55029c0.16038,0.53458 0.37421,1.06917 0.48113,1.65721c0.05346,0.26729 0.16038,0.58804 0.21383,0.85533l0.16038,0.90879c0.10692,0.58804 0.21383,1.17608 0.26729,1.76413c0.05346,0.26729 0.05346,0.58804 0.10692,0.85533c0,0.26729 0.05346,0.58804 0.05346,0.85533c0.05346,0.53458 0.10692,1.06917 0.10692,1.60375c0,0.48113 0.05346,1.01571 0.05346,1.44338c0.05346,0.90879 0,1.65721 0,2.19179c0,0.48113 0,0.80188 0,0.80188c0,0 -0.05346,-0.26729 -0.05346,-0.80188c-0.05346,-0.53458 -0.05346,-1.283 -0.10692,-2.19179c-0.05346,-0.42767 -0.05346,-0.90879 -0.10692,-1.44338c-0.05346,-0.53458 -0.10692,-1.06917 -0.16038,-1.60375c-0.05346,-0.26729 -0.05346,-0.58804 -0.10692,-0.85533c0,-0.26729 -0.05346,-0.58804 -0.10692,-0.85533c-0.05346,-0.58804 -0.16038,-1.17608 -0.26729,-1.76413l-0.16038,-0.85533c-0.10692,-0.26729 -0.16038,-0.58804 -0.21383,-0.85533c-0.10692,-0.58804 -0.26729,-1.12263 -0.42767,-1.65721c-0.16038,-0.53458 -0.32075,-1.06917 -0.48113,-1.55029c-0.16038,-0.48113 -0.32075,-0.90879 -0.53458,-1.33646c-0.37421,-0.85533 -0.74842,-1.49683 -1.01571,-1.9245c-0.26729,-0.42767 -0.48113,-0.6415 -0.48113,-0.6415c0,0 0.05346,0.05346 0.16038,0.16038z" fill="#1a324a"/></g><g><path d="M251.41985,184.65844c0,0 1.44338,1.44338 0.10692,2.13833c-3.26096,1.65721 -8.49988,2.24525 -15.23564,2.29871c-6.73575,0 -14.48722,-0.58804 -13.20422,-4.38359c0.37421,-1.06917 0.96225,1.283 3.47479,1.71067c2.566,0.42767 15.71676,1.33646 20.20726,-0.21383c4.54396,-1.60375 3.79554,-1.9245 4.65088,-1.55029z" fill="#4d3a29"/><path d="M222.87308,185.29994c0,0.42767 0.10692,1.06917 0.6415,1.55029c0.26729,0.21383 0.6415,0.37421 1.01571,0.53458c0.37421,0.16038 0.80188,0.26729 1.22954,0.42767c0.90879,0.26729 1.81758,0.42767 2.77984,0.58804c0.96225,0.16038 1.9245,0.26729 2.83329,0.32075c0.90879,0.05346 1.71067,0.10692 2.45909,0.16038c1.44338,0.05346 2.40563,0.10692 2.40563,0.10692c0,0 -0.21383,0.05346 -0.6415,0.05346c-0.42767,0.05346 -1.01571,0.05346 -1.76413,0.05346c-0.74842,0 -1.60375,0 -2.51254,-0.05346c-0.90879,-0.05346 -1.87104,-0.10692 -2.83329,-0.26729c-0.96225,-0.10692 -1.9245,-0.37421 -2.77984,-0.6415c-0.42767,-0.10692 -0.85533,-0.32075 -1.22954,-0.48113c-0.37421,-0.16038 -0.74842,-0.37421 -1.01571,-0.6415c-0.26729,-0.26729 -0.42767,-0.58804 -0.48113,-0.90879c-0.05346,-0.32075 -0.05346,-0.58804 -0.05346,-0.80188c0.05346,-0.42767 0.16038,-0.6415 0.16038,-0.6415c0,0 -0.05346,0.21383 -0.21383,0.6415z" fill="#33221b"/><path d="M251.90097,185.40686c0.05346,0.05346 0.10692,0.16038 0.16038,0.26729c0.05346,0.10692 0.10692,0.26729 0.05346,0.48113c-0.05346,0.16038 -0.16038,0.37421 -0.32075,0.53458c-0.16038,0.16038 -0.37421,0.32075 -0.58804,0.42767c-0.21383,0.10692 -0.48113,0.21383 -0.74842,0.32075c-0.53458,0.21383 -1.06917,0.37421 -1.65721,0.53458c-0.53458,0.16038 -1.12263,0.26729 -1.65721,0.37421c-0.53458,0.10692 -1.06917,0.16038 -1.49683,0.21383c-0.85533,0.10692 -1.44338,0.10692 -1.44338,0.10692c0,0 0.58804,-0.16038 1.44338,-0.32075c0.42767,-0.10692 0.90879,-0.21383 1.44338,-0.32075c0.53458,-0.10692 1.12263,-0.21383 1.65721,-0.37421c0.58804,-0.16038 1.12263,-0.32075 1.65721,-0.48113c0.26729,-0.05346 0.48113,-0.16038 0.69496,-0.26729c0.26729,-0.10692 0.42767,-0.21383 0.58804,-0.37421c0.16038,-0.10692 0.26729,-0.26729 0.32075,-0.42767c0.05346,-0.16038 0.05346,-0.32075 0.05346,-0.42767c-0.05346,-0.26729 -0.16038,-0.37421 -0.16038,-0.37421c0,0 0.05346,0 0,0.10692z" fill="#33221b"/></g></g></g><g data-paper-data="{&quot;origPos&quot;:null}" id="Group"><g id="Shape"><path d="M250.56451,157.23429c3.849,5.7735 4.33013,27.4776 0.32075,28.86752c-4.00938,1.38992 -6.94959,0.6415 -6.94959,0.6415c-6.36155,2.566 -17.80164,2.29871 -20.47456,-1.60375c-1.71067,-2.45909 -3.2075,-20.63493 -1.12263,-26.8361c2.08488,-6.20117 8.28605,-8.55334 8.28605,-8.55334c5.98734,-2.03142 16.09097,1.71067 19.93997,7.48417z" fill="#264a6e"/><path d="M246.66205,184.81881c-0.21383,0.21383 -0.48113,0.53458 -0.85533,0.85533c-0.37421,0.32075 -0.85533,0.69496 -1.38992,1.01571c-0.26729,0.16038 -0.53458,0.26729 -0.85533,0.42767c-0.26729,0.10692 -0.58804,0.26729 -0.90879,0.37421c-0.32075,0.10692 -0.6415,0.26729 -0.96225,0.32075c-0.32075,0.05346 -0.6415,0.16038 -0.96225,0.21383c-0.32075,0.05346 -0.6415,0.10692 -0.90879,0.16038c-0.26729,0 -0.53458,0.05346 -0.80188,0.05346c-0.53458,0.05346 -0.96225,0.05346 -1.22954,0.05346c-0.32075,0 -0.48113,0 -0.48113,0c0,0 0.21383,0 0.48113,-0.05346c0.26729,-0.05346 0.69496,-0.05346 1.17608,-0.16038c0.26729,0 0.53458,-0.05346 0.80188,-0.10692c0.26729,-0.10692 0.53458,-0.16038 0.85533,-0.21383c0.26729,-0.10692 0.58804,-0.16038 0.90879,-0.26729c0.26729,-0.10692 0.58804,-0.21383 0.90879,-0.32075c0.32075,-0.10692 0.58804,-0.26729 0.90879,-0.37421c0.26729,-0.16038 0.58804,-0.26729 0.85533,-0.42767c0.26729,-0.16038 0.53458,-0.26729 0.74842,-0.42767c0.21383,-0.10692 0.42767,-0.26729 0.6415,-0.42767c0.21383,-0.16038 0.37421,-0.32075 0.53458,-0.42767c0.16038,-0.10692 0.26729,-0.21383 0.37421,-0.32075c0.21383,-0.21383 0.32075,-0.32075 0.32075,-0.32075c0,0 -0.10692,0.10692 -0.16038,0.37421z" fill="#1a324a"/><path d="M247.8916,182.7874c-0.48113,0.37421 -1.12263,0.90879 -1.81758,1.33646c-0.69496,0.48113 -1.44338,0.85533 -2.03142,1.06917c-0.16038,0.05346 -0.32075,0.10692 -0.42767,0.10692c-0.10692,0 -0.21383,0.05346 -0.32075,0.05346c-0.16038,0 -0.26729,0 -0.26729,0c0,0 0.10692,0 0.26729,-0.05346c0.10692,0 0.21383,-0.05346 0.32075,-0.10692c0.10692,0 0.21383,-0.10692 0.37421,-0.16038c0.53458,-0.26729 1.22954,-0.69496 1.9245,-1.12263c0.69496,-0.42767 1.33646,-0.90879 1.87104,-1.22954c0.48113,-0.32075 0.85533,-0.53458 0.85533,-0.53458c0,0 -0.26729,0.32075 -0.74842,0.6415z" fill="#1a324a"/><path d="M227.25666,151.99537c-0.26729,0.21383 -0.53458,0.42767 -0.85533,0.69496c-0.32075,0.26729 -0.6415,0.53458 -0.90879,0.85533c-0.10692,0.16038 -0.26729,0.32075 -0.42767,0.48113c-0.16038,0.16038 -0.26729,0.37421 -0.42767,0.53458c-0.32075,0.32075 -0.53458,0.74842 -0.80188,1.12263c-0.26729,0.42767 -0.48113,0.85533 -0.69496,1.22954c-0.16038,0.42767 -0.37421,0.85533 -0.53458,1.22954c-0.16038,0.42767 -0.32075,0.80188 -0.42767,1.17608c-0.10692,0.37421 -0.16038,0.74842 -0.26729,1.06917c-0.10692,0.32075 -0.16038,0.6415 -0.21383,0.90879c-0.05346,0.32075 -0.05346,0.53458 -0.10692,0.74842c-0.05346,0.42767 -0.10692,0.6415 -0.10692,0.6415c0,0 0,-0.21383 0.05346,-0.6415c0,-0.21383 0.05346,-0.48113 0.05346,-0.74842c0.05346,-0.32075 0.10692,-0.6415 0.16038,-0.96225c0.05346,-0.37421 0.10692,-0.74842 0.21383,-1.12263c0.10692,-0.37421 0.21383,-0.80188 0.37421,-1.22954c0.16038,-0.42767 0.37421,-0.85533 0.53458,-1.283c0.21383,-0.37421 0.48113,-0.80188 0.69496,-1.22954c0.26729,-0.42767 0.48113,-0.80188 0.80188,-1.17608c0.16038,-0.16038 0.26729,-0.37421 0.42767,-0.53458c0.16038,-0.16038 0.32075,-0.32075 0.48113,-0.48113c0.32075,-0.32075 0.6415,-0.58804 0.96225,-0.85533c0.32075,-0.26729 0.58804,-0.48113 0.90879,-0.69496c1.17608,-0.74842 2.08488,-1.01571 2.08488,-1.01571c0,0 -0.90879,0.32075 -1.97796,1.283z" fill="#1a324a"/><path d="M227.52396,187.65211c-0.21383,-0.05346 -0.42767,-0.10692 -0.6415,-0.16038c-0.21383,-0.05346 -0.48113,-0.16038 -0.69496,-0.26729c-0.26729,-0.10692 -0.48113,-0.26729 -0.74842,-0.37421c-0.21383,-0.10692 -0.48113,-0.26729 -0.69496,-0.42767c-0.21383,-0.21383 -0.48113,-0.37421 -0.6415,-0.58804c-0.21383,-0.21383 -0.37421,-0.42767 -0.53458,-0.6415c-0.05346,-0.10692 -0.16038,-0.21383 -0.21383,-0.32075c-0.05346,-0.10692 -0.10692,-0.21383 -0.16038,-0.32075c-0.10692,-0.21383 -0.21383,-0.42767 -0.26729,-0.6415c-0.05346,-0.16038 -0.10692,-0.37421 -0.16038,-0.53458c-0.05346,-0.16038 -0.05346,-0.32075 -0.05346,-0.42767c-0.05346,-0.21383 -0.05346,-0.37421 -0.05346,-0.37421c0,0 0.05346,0.16038 0.10692,0.37421c0.05346,0.10692 0.05346,0.26729 0.10692,0.42767c0.05346,0.16038 0.16038,0.32075 0.21383,0.53458c0.05346,0.21383 0.16038,0.37421 0.26729,0.58804c0.05346,0.10692 0.10692,0.21383 0.16038,0.32075c0.05346,0.05346 0.16038,0.16038 0.21383,0.26729c0.10692,0.21383 0.32075,0.42767 0.48113,0.58804c0.16038,0.21383 0.37421,0.37421 0.58804,0.53458c0.21383,0.16038 0.42767,0.26729 0.6415,0.42767c0.26729,0.16038 0.48113,0.26729 0.69496,0.37421c0.21383,0.16038 0.42767,0.21383 0.6415,0.32075c0.16038,0.10692 0.37421,0.16038 0.58804,0.21383c0.42767,0.10692 0.74842,0.21383 0.96225,0.26729c0.26729,0.05346 0.37421,0.10692 0.37421,0.10692c0,0 -0.53458,0 -1.17608,-0.26729z" fill="#1a324a"/><path d="M252.91668,182.73394c0,0.21383 -0.05346,0.53458 -0.16038,0.90879c-0.10692,0.37421 -0.26729,0.80188 -0.48113,1.22954c-0.16038,0.21383 -0.26729,0.42767 -0.42767,0.6415c-0.16038,0.21383 -0.37421,0.42767 -0.58804,0.58804c-0.42767,0.32075 -0.90879,0.53458 -1.38992,0.6415c-0.26729,0.10692 -0.48113,0.10692 -0.69496,0.16038c-0.21383,0 -0.42767,0.05346 -0.6415,0.05346c-0.37421,0.05346 -0.69496,0 -0.90879,0c-0.26729,-0.05346 -0.37421,-0.05346 -0.37421,-0.05346c0,0 0.16038,-0.05346 0.37421,-0.05346c0.21383,0 0.53458,-0.05346 0.90879,-0.10692c0.37421,-0.05346 0.80188,-0.16038 1.22954,-0.32075c0.42767,-0.16038 0.90879,-0.37421 1.283,-0.6415c0.21383,-0.16038 0.37421,-0.26729 0.53458,-0.48113c0.10692,-0.21383 0.26729,-0.37421 0.37421,-0.58804c0.21383,-0.42767 0.42767,-0.80188 0.53458,-1.17608c0.26729,-0.74842 0.37421,-1.22954 0.37421,-1.22954c0,0 0,0.10692 0.05346,0.42767z" fill="#1a324a"/></g><g id="Shape"><g><path d="M231.15913,150.01741c1.87104,1.01571 2.72638,1.22954 4.06284,4.38359c2.99367,7.05651 2.45909,30.68511 2.45909,30.68511c-2.29871,1.71067 -7.85838,0.37421 -7.85838,0.37421c6.30809,-32.18194 -2.67292,-33.62532 -2.67292,-33.62532c0.53458,-1.33646 4.00938,-1.81758 4.00938,-1.81758z" fill="#724a96"/><path d="M232.33521,185.88798c-0.48113,-0.05346 -0.90879,-0.05346 -1.33646,-0.10692c-0.42767,-0.05346 -0.85533,-0.16038 -1.283,-0.26729l-0.10692,-0.05346l0.05346,-0.10692c0.21383,-0.85533 0.42767,-1.81758 0.58804,-2.72638c0.16038,-0.90879 0.32075,-1.87104 0.48113,-2.77984c0.16038,-0.90879 0.26729,-1.87104 0.37421,-2.77984c0.16038,-0.90879 0.21383,-1.81758 0.32075,-2.77984c0.10692,-0.96225 0.16038,-1.87104 0.21383,-2.83329l0.10692,-1.38992l0.05346,-1.38992c0.05346,-0.96225 0,-1.87104 0.05346,-2.83329c0,-0.42767 0,-0.90879 0,-1.38992v-1.38992l0.05346,1.38992c0,0.42767 0.05346,0.90879 0.05346,1.38992c0,0.96225 0,1.87104 0,2.83329c0,0.96225 0,1.87104 -0.05346,2.83329c0,0.96225 -0.10692,1.87104 -0.16038,2.83329c-0.05346,0.96225 -0.16038,1.87104 -0.26729,2.83329c-0.10692,0.90879 -0.21383,1.87104 -0.37421,2.77984c-0.26729,1.87104 -0.6415,3.74209 -1.17608,5.55967l-0.05346,-0.16038c0.80188,0.26729 1.71067,0.32075 2.566,0.42767c0.85533,0.05346 1.76413,0.10692 2.61946,0.10692c-0.90879,0.05346 -1.76413,0.05346 -2.72638,0z" fill="#3b2656"/><path d="M233.29746,152.90417c0.16038,0.26729 0.32075,0.58804 0.48113,0.96225c0.21383,0.37421 0.37421,0.80188 0.53458,1.283c0.21383,0.48113 0.37421,1.01571 0.53458,1.55029c0.16038,0.53458 0.32075,1.12263 0.48113,1.76413c0.16038,0.6415 0.26729,1.283 0.42767,1.9245c0.16038,0.6415 0.26729,1.33646 0.37421,1.97796c0.10692,0.69496 0.16038,1.38992 0.26729,2.03142c0.10692,0.6415 0.16038,1.283 0.21383,1.9245c0.16038,1.283 0.16038,2.45909 0.26729,3.47479c0.05346,0.53458 0.05346,0.96225 0.05346,1.38992c0.05346,0.42767 0.05346,0.74842 0.05346,1.06917c0,0.58804 0,0.90879 0,0.90879c0,0 -0.10692,-1.33646 -0.32075,-3.36788c-0.05346,-0.53458 -0.10692,-1.06917 -0.16038,-1.65721c-0.05346,-0.58804 -0.16038,-1.17608 -0.21383,-1.81758c-0.10692,-0.58804 -0.16038,-1.283 -0.26729,-1.9245c-0.10692,-0.6415 -0.21383,-1.33646 -0.32075,-1.97796c-0.10692,-0.6415 -0.16038,-1.33646 -0.32075,-1.97796c-0.16038,-0.6415 -0.26729,-1.283 -0.42767,-1.9245c-0.16038,-0.58804 -0.26729,-1.17608 -0.42767,-1.76413c-0.16038,-0.53458 -0.32075,-1.06917 -0.48113,-1.55029c-0.16038,-0.48113 -0.26729,-0.90879 -0.42767,-1.283c-0.16038,-0.37421 -0.32075,-0.69496 -0.42767,-0.96225c-0.26729,-0.53458 -0.42767,-0.80188 -0.42767,-0.80188c0,0 0.21383,0.26729 0.53458,0.74842z" fill="#3b2656"/></g><path d="M231.74717,183.1616c1.60375,0 2.94021,-1.283 2.94021,-2.94021c0,-0.69496 -0.21383,-1.283 -0.6415,-1.81758c1.22954,0.32075 2.13833,1.49683 2.13833,2.83329c0,1.60375 -1.283,2.94021 -2.94021,2.94021c-0.90879,0 -1.76413,-0.42767 -2.29871,-1.12263c0.32075,0.05346 0.53458,0.10692 0.80188,0.10692z" fill="#e6af50"/></g><g id="Shape"><g><path d="M247.94505,150.87275c0.85533,0.74842 0.90879,0.74842 1.81758,3.04713c2.83329,7.10996 3.74209,30.57819 3.74209,30.57819c-2.29871,1.71067 -7.85838,0.37421 -7.85838,0.37421c1.97796,-20.47456 -1.01571,-33.41148 -1.01571,-33.41148c0.48113,-1.33646 3.31442,-0.58804 3.31442,-0.58804z" fill="#724a96"/><path d="M248.31926,185.3534c-0.48113,-0.05346 -0.90879,-0.05346 -1.33646,-0.10692c-0.42767,-0.05346 -0.85533,-0.16038 -1.283,-0.26729h-0.10692v-0.10692c0.10692,-0.90879 0.16038,-1.87104 0.21383,-2.77984c0.05346,-0.90879 0.05346,-1.87104 0.10692,-2.77984c0.05346,-0.90879 0.05346,-1.87104 0.05346,-2.77984v-1.38992c0,-0.48113 0,-0.90879 0,-1.38992c0,-1.87104 -0.05346,-3.74209 -0.16038,-5.61313l-0.16038,-2.77984l-0.16038,-2.77984l0.32075,2.77984c0.10692,0.90879 0.21383,1.87104 0.26729,2.77984c0.05346,0.90879 0.10692,1.87104 0.16038,2.77984c0.05346,0.90879 0.10692,1.81758 0.10692,2.77984c0,0.42767 0,0.90879 0,1.38992c0,0.42767 0,0.90879 0,1.38992c0,0.96225 0,1.87104 -0.05346,2.83329c-0.10692,1.87104 -0.21383,3.74209 -0.48113,5.61313l-0.05346,-0.10692c0.80188,0.26729 1.71067,0.32075 2.566,0.42767c0.85533,0.05346 1.76413,0.10692 2.61946,0.10692c-0.90879,0 -1.76413,0.05346 -2.61946,0z" fill="#3b2656"/><path d="M249.1746,152.36958c0.16038,0.26729 0.32075,0.58804 0.48113,0.96225c0.21383,0.37421 0.37421,0.80188 0.53458,1.283c0.21383,0.48113 0.37421,1.01571 0.53458,1.55029c0.16038,0.53458 0.32075,1.12263 0.48113,1.76413c0.16038,0.6415 0.26729,1.283 0.42767,1.9245c0.16038,0.6415 0.26729,1.33646 0.37421,1.97796c0.10692,0.69496 0.16038,1.38992 0.26729,2.03142c0.10692,0.6415 0.16038,1.283 0.21383,1.9245c0.16038,1.283 0.16038,2.45909 0.26729,3.47479c0.05346,0.53458 0.05346,0.96225 0.05346,1.38992c0.05346,0.42767 0.05346,0.74842 0.05346,1.06917c0,0.58804 0,0.90879 0,0.90879c0,0 -0.10692,-1.33646 -0.32075,-3.36788c-0.05346,-0.53458 -0.10692,-1.06917 -0.16038,-1.65721c-0.05346,-0.58804 -0.16038,-1.17608 -0.21383,-1.81758c-0.10692,-0.58804 -0.16038,-1.283 -0.26729,-1.9245c-0.10692,-0.6415 -0.21383,-1.33646 -0.32075,-1.97796c-0.10692,-0.6415 -0.16038,-1.33646 -0.32075,-1.97796c-0.16038,-0.6415 -0.26729,-1.283 -0.42767,-1.9245c-0.16038,-0.58804 -0.26729,-1.17608 -0.42767,-1.76413c-0.16038,-0.53458 -0.32075,-1.06917 -0.48113,-1.55029c-0.16038,-0.48113 -0.26729,-0.90879 -0.42767,-1.283c-0.16038,-0.37421 -0.32075,-0.69496 -0.42767,-0.96225c-0.26729,-0.53458 -0.42767,-0.80188 -0.42767,-0.80188c0,0 0.21383,0.26729 0.53458,0.74842z" fill="#3b2656"/></g><path d="M248.42618,181.2371c-0.69496,-0.58804 -1.22954,-1.06917 -1.22954,-1.06917c0.48113,-0.21383 1.12263,-0.26729 1.81758,-0.32075c0.48113,-1.01571 0.90879,-1.81758 0.90879,-1.81758c0.21383,0.42767 0.53458,1.12263 0.74842,1.87104c0.85533,0.05346 1.55029,0.16038 1.55029,0.16038c-0.10692,0.37421 -0.48113,0.85533 -1.01571,1.33646c0.37421,1.12263 0.6415,2.08488 0.6415,2.08488c-0.32075,0 -1.12263,-0.48113 -1.9245,-1.06917c-1.17608,0.80188 -2.24525,1.12263 -2.24525,1.12263c0.10692,-0.6415 0.32075,-1.33646 0.74842,-2.29871z" fill="#e6af50"/></g></g><g data-paper-data="{&quot;origPos&quot;:null}" id="Group"><g id="Shape"><path d="M231.58679,202.40662c0,0 0.74842,4.38359 0.80188,5.3993c0.05346,1.01571 0.05346,1.60375 -1.06917,1.55029c0,0 -0.32075,1.12263 -1.65721,0.58804c0,0 -0.96225,0.80188 -2.03142,0.32075c0,0 -1.12263,0.6415 -2.19179,-0.53458c-0.58804,-0.6415 -0.69496,-2.08488 0.21383,-2.61946l-0.42767,-2.19179" fill="#c5886b"/><path d="M231.64025,202.88774c0,0 0.48113,2.08488 1.33646,3.42134c0.6415,1.01571 0.26729,2.03142 -1.06917,1.17608" fill="#c5886b"/><path d="M225.49254,206.25562c0.10692,0.26729 0.21383,0.69496 0.32075,1.12263c0.10692,0.37421 0.21383,0.80188 0.26729,1.12263c0.05346,0.16038 0.05346,0.26729 0.10692,0.37421c0.05346,0.10692 0.05346,0.16038 0.05346,0.16038c0,0 -0.05346,-0.05346 -0.10692,-0.10692c-0.05346,-0.05346 -0.16038,-0.16038 -0.21383,-0.32075c-0.10692,-0.26729 -0.26729,-0.69496 -0.37421,-1.12263c-0.10692,-0.42767 -0.16038,-0.85533 -0.16038,-1.17608c0,-0.32075 0,-0.53458 0,-0.53458c0,0 0.10692,0.16038 0.10692,0.48113z" fill="#a95947"/><path d="M228.16546,209.35621c0,0.16038 -0.05346,0.42767 -0.16038,0.6415c-0.10692,0.16038 -0.16038,0.21383 -0.26729,0.32075c-0.10692,0.10692 -0.21383,0.16038 -0.32075,0.16038c-0.21383,0.05346 -0.32075,0 -0.32075,0c0,0 0,0 0.05346,-0.05346c0.05346,0 0.10692,-0.05346 0.16038,-0.10692c0.05346,-0.05346 0.10692,-0.16038 0.16038,-0.21383c0.05346,-0.10692 0.10692,-0.16038 0.16038,-0.26729c0.10692,-0.16038 0.16038,-0.37421 0.26729,-0.53458c0.10692,-0.16038 0.16038,-0.26729 0.16038,-0.26729c0,0 0.05346,0.10692 0.10692,0.32075z" fill="#a95947"/><path d="M230.14342,209.14237c0,0.21383 -0.05346,0.48113 -0.16038,0.69496c-0.10692,0.10692 -0.16038,0.26729 -0.26729,0.32075c-0.10692,0.05346 -0.21383,0.10692 -0.32075,0.16038c-0.21383,0.10692 -0.32075,0.05346 -0.32075,0.05346c0,0 0,0 0.05346,-0.05346c0.05346,-0.05346 0.10692,-0.10692 0.16038,-0.16038c0.10692,-0.16038 0.21383,-0.32075 0.32075,-0.48113c0.10692,-0.16038 0.21383,-0.37421 0.26729,-0.53458c0.05346,-0.16038 0.10692,-0.26729 0.10692,-0.26729c0,0 0.05346,0.10692 0.16038,0.26729z" fill="#a95947"/><path d="M231.58679,208.60779c0.05346,0.16038 0,0.42767 -0.05346,0.6415c-0.05346,0.21383 -0.21383,0.48113 -0.37421,0.58804c-0.05346,0.05346 -0.16038,0.10692 -0.21383,0.10692c-0.05346,0 -0.10692,0 -0.10692,0c0,0 0,0 0.05346,-0.05346c0.05346,0 0.05346,-0.10692 0.10692,-0.16038c0.10692,-0.10692 0.16038,-0.32075 0.21383,-0.53458c0.05346,-0.21383 0.16038,-0.42767 0.21383,-0.58804c0.05346,-0.16038 0.10692,-0.26729 0.10692,-0.26729c0,0 0,0.16038 0.05346,0.26729z" fill="#a95947"/><path d="M225.97366,208.23358c0,0.10692 -0.05346,0.16038 -0.10692,0.26729c-0.05346,0.10692 -0.16038,0.16038 -0.21383,0.21383c-0.10692,0.05346 -0.16038,0.10692 -0.16038,0.10692c0,0 -0.05346,-0.05346 -0.05346,-0.16038c0,-0.10692 0.05346,-0.21383 0.10692,-0.32075c0.10692,-0.10692 0.16038,-0.16038 0.26729,-0.21383c0.10692,-0.05346 0.16038,-0.05346 0.16038,-0.05346c0,0 0,0.10692 0,0.16038z" fill="#a95947"/><path d="M232.22829,208.18012c0,-0.37421 -0.05346,-0.85533 -0.10692,-1.33646c-0.05346,-0.48113 -0.10692,-0.96225 -0.16038,-1.33646c-0.05346,-0.16038 -0.05346,-0.32075 -0.05346,-0.42767c0,-0.10692 0,-0.16038 0,-0.16038c0,0 0.16038,0.21383 0.26729,0.58804c0.16038,0.37421 0.26729,0.85533 0.32075,1.33646c0.05346,0.48113 0.05346,0.96225 0,1.33646c-0.05346,0.37421 -0.16038,0.58804 -0.16038,0.58804c0,0 0,-0.21383 -0.10692,-0.58804z" fill="#a95947"/></g><g id="Shape"><path d="M223.88879,179.15223c2.566,0.05346 4.38359,0.53458 5.55967,3.15404c1.17608,2.61946 0.85533,6.25463 1.06917,8.87409c0.21383,2.67292 3.79554,10.26401 3.79554,10.26401c-2.77984,5.34584 -12.99038,3.68863 -12.99038,3.68863c0,0 -2.61946,-10.95897 -2.29871,-21.49027c0.05346,-2.61946 2.08488,-4.54396 4.86471,-4.4905z" fill="#264a6e"/><path d="M229.55537,182.5201c0.10692,0.32075 0.26729,0.69496 0.37421,1.17608c0.16038,0.48113 0.26729,1.01571 0.37421,1.65721c0.05346,0.6415 0.10692,1.283 0.16038,1.97796c0,0.69496 0,1.33646 -0.05346,1.97796c-0.05346,0.6415 -0.10692,1.22954 -0.21383,1.71067c-0.05346,0.48113 -0.16038,0.90879 -0.21383,1.17608c-0.05346,0.26729 -0.10692,0.42767 -0.10692,0.42767c0,0 0.05346,-0.21383 0.05346,-0.48113c0,-0.26729 0.05346,-0.69496 0.10692,-1.17608c0,-0.26729 0.05346,-0.53458 0.05346,-0.80188c0,-0.32075 0.05346,-0.58804 0.05346,-0.90879c0,-0.58804 0,-1.283 0,-1.9245c0,-0.6415 -0.05346,-1.283 -0.10692,-1.9245c-0.10692,-0.58804 -0.16038,-1.17608 -0.26729,-1.65721c-0.10692,-0.48113 -0.16038,-0.90879 -0.26729,-1.17608c-0.05346,-0.26729 -0.10692,-0.42767 -0.10692,-0.42767c0,0 0.05346,0.16038 0.16038,0.37421z" fill="#1a324a"/><path d="M232.76288,197.59536l0.85533,1.9245c0.26729,0.58804 0.58804,1.22954 0.90879,1.87104l0.05346,0.05346l-0.05346,0.05346c-0.16038,0.32075 -0.37421,0.58804 -0.58804,0.85533c-0.21383,0.26729 -0.42767,0.53458 -0.69496,0.74842c-0.26729,0.26729 -0.53458,0.42767 -0.80188,0.6415c-0.16038,0.10692 -0.26729,0.21383 -0.42767,0.26729l-0.42767,0.21383c-0.32075,0.10692 -0.6415,0.26729 -0.96225,0.37421c-0.32075,0.10692 -0.6415,0.21383 -0.96225,0.26729c-0.32075,0.10692 -0.69496,0.10692 -1.01571,0.16038c-0.32075,0.05346 -0.69496,0.05346 -1.01571,0.05346l0.48113,-0.05346c0.16038,0 0.32075,0 0.48113,-0.05346c0.32075,-0.05346 0.6415,-0.10692 0.96225,-0.21383c0.32075,-0.10692 0.6415,-0.21383 0.96225,-0.32075c0.32075,-0.10692 0.58804,-0.26729 0.90879,-0.42767c0.32075,-0.16038 0.58804,-0.32075 0.85533,-0.53458c0.26729,-0.21383 0.53458,-0.42767 0.74842,-0.6415c0.26729,-0.21383 0.48113,-0.42767 0.69496,-0.69496c0.21383,-0.26729 0.37421,-0.53458 0.53458,-0.80188v0.16038c-0.32075,-0.6415 -0.6415,-1.283 -0.90879,-1.9245c-0.32075,-0.6415 -0.58804,-1.283 -0.85533,-1.9245c-0.53458,-1.283 -1.06917,-2.61946 -1.44338,-3.95592c0.53458,1.283 1.06917,2.566 1.71067,3.90246z" fill="#1a324a"/><path d="M219.02407,187.2779c0,0.53458 0.05346,1.283 0.10692,2.13833c0.05346,0.85533 0.16038,1.9245 0.26729,2.99367c0.10692,1.06917 0.26729,2.24525 0.42767,3.42134c0.10692,1.17608 0.32075,2.35217 0.48113,3.42134c0.16038,1.12263 0.32075,2.13833 0.48113,2.99367c0.26729,1.71067 0.48113,2.88675 0.48113,2.88675c0,0 -0.10692,-0.32075 -0.21383,-0.80188c-0.10692,-0.53458 -0.32075,-1.22954 -0.48113,-2.08488c-0.16038,-0.85533 -0.37421,-1.87104 -0.58804,-2.94021c-0.16038,-1.06917 -0.37421,-2.24525 -0.53458,-3.42134c-0.16038,-1.12263 -0.26729,-2.29871 -0.37421,-3.42134c-0.10692,-1.06917 -0.16038,-2.08488 -0.16038,-2.99367c0,-0.90879 0.05346,-1.60375 0.05346,-2.13833c0,-0.53458 0.05346,-0.80188 0.05346,-0.80188c0,0 0,0.26729 0,0.74842z" fill="#1a324a"/></g><g id="Shape"><path d="M219.07753,181.2371c-1.17608,-3.68863 2.13833,-24.16318 4.91817,-26.08769c2.99367,-2.08488 7.9653,-0.74842 8.39296,4.91817c0.32075,4.38359 -1.76413,12.13505 -2.29871,15.0218c-0.53458,2.88675 -0.26729,2.13833 -0.10692,4.27667c0.16038,2.13833 -0.32075,2.40563 -0.80188,2.94021c-0.42767,0.53458 -2.35217,1.33646 -5.132,1.17608c-2.77984,-0.10692 -4.33013,-0.21383 -4.97163,-2.24525z" fill="#264a6e"/><path d="M220.41399,183.00123c-0.10692,-0.05346 -0.32075,-0.10692 -0.48113,-0.26729c-0.10692,-0.05346 -0.21383,-0.16038 -0.26729,-0.26729c-0.10692,-0.10692 -0.21383,-0.21383 -0.26729,-0.37421c-0.21383,-0.26729 -0.32075,-0.58804 -0.42767,-0.96225c-0.10692,-0.37421 -0.21383,-0.80188 -0.26729,-1.22954c-0.05346,-0.42767 -0.10692,-0.90879 -0.10692,-1.38992c-0.05346,-0.48113 0,-0.96225 0,-1.49683c0,-0.53458 0.05346,-1.01571 0.10692,-1.55029c0.05346,-0.53458 0.10692,-1.06917 0.16038,-1.55029c0.10692,-0.53458 0.16038,-1.01571 0.21383,-1.49683c0.10692,-0.48113 0.21383,-0.96225 0.26729,-1.38992c0.05346,-0.42767 0.10692,-0.85533 0.21383,-1.22954c0.32075,-1.49683 0.58804,-2.51254 0.58804,-2.51254c0,0 -0.16038,1.01571 -0.42767,2.51254c-0.05346,0.37421 -0.10692,0.80188 -0.16038,1.22954c-0.05346,0.48113 -0.16038,0.90879 -0.21383,1.38992c-0.05346,0.42767 -0.10692,0.96225 -0.16038,1.44338c-0.10692,0.48113 -0.10692,0.96225 -0.16038,1.49683c-0.05346,0.48113 -0.10692,1.01571 -0.10692,1.49683c0,0.53458 -0.05346,1.01571 0,1.49683c0,0.48113 0,0.96225 0.05346,1.38992c0,0.48113 0.10692,0.85533 0.16038,1.22954c0.10692,0.37421 0.16038,0.69496 0.32075,0.96225c0.05346,0.16038 0.16038,0.26729 0.21383,0.37421c0.05346,0.10692 0.10692,0.21383 0.21383,0.26729c0.16038,0.16038 0.32075,0.21383 0.42767,0.26729c0.10692,0.05346 0.16038,0.05346 0.16038,0.05346c0,0 -0.05346,0.05346 -0.05346,0.10692z" fill="#1a324a"/><path d="M230.25033,174.60827c-0.10692,0.48113 -0.21383,1.12263 -0.26729,1.76413c-0.05346,0.32075 -0.10692,0.69496 -0.10692,1.01571c0,0.37421 0,0.69496 0.10692,1.01571c0.16038,0.74842 0.16038,1.44338 0.05346,2.13833c-0.10692,0.69496 -0.37421,1.283 -0.74842,1.71067c-0.37421,0.42767 -0.80188,0.58804 -1.12263,0.6415c-0.16038,0.05346 -0.26729,0.05346 -0.37421,0.05346c-0.05346,0 -0.10692,0 -0.10692,0c0,0 0.21383,0 0.48113,-0.10692c0.32075,-0.05346 0.69496,-0.26729 1.01571,-0.69496c0.32075,-0.37421 0.48113,-0.96225 0.58804,-1.60375c0.10692,-0.6415 0.05346,-1.33646 -0.10692,-1.97796c-0.10692,-0.37421 -0.10692,-0.74842 -0.10692,-1.12263c0,-0.32075 0.05346,-0.69496 0.10692,-1.01571c0.10692,-0.6415 0.26729,-1.22954 0.37421,-1.76413c0.26729,-1.01571 0.48113,-1.71067 0.48113,-1.71067c0,0 -0.10692,0.69496 -0.26729,1.65721z" fill="#1a324a"/></g></g><g data-paper-data="{&quot;origPos&quot;:null}" id="Group"><path d="M262.21844,139.27228c0.58804,0.37421 -14.3803,3.31442 -20.90222,3.68863c-6.52192,0.37421 -25.23235,0.69496 -24.75123,0.10692c0.48113,-0.58804 18.12239,-7.21688 21.59718,-7.43071c3.47479,-0.26729 22.55943,2.61946 24.05627,3.63517z" id="Shape" fill="#1a324a"/><g><path d="M240.19359,131.20007c5.88042,-0.16038 8.6068,4.43704 10.05017,10.79859c1.283,5.7735 0.74842,12.08159 -8.98101,12.34888c-8.39296,0.26729 -10.95897,-5.45275 -9.99672,-11.22626c1.01571,-6.09425 3.04713,-11.76084 8.92755,-11.92122z" id="Shape" fill="#c5886b"/><g id="Shape"><path d="M244.79101,151.03312c0,0.16038 -0.10692,0.32075 -0.26729,0.37421c-0.16038,0.05346 -0.32075,0.05346 -0.42767,0.05346c-0.16038,0 -0.21383,-0.05346 -0.21383,-0.05346c0,0 0.05346,-0.05346 0.16038,-0.10692c0.05346,-0.05346 0.16038,-0.10692 0.26729,-0.16038c0.10692,-0.05346 0.21383,-0.10692 0.26729,-0.16038c0.05346,-0.05346 0.10692,-0.10692 0.10692,-0.10692c0,0 0.05346,0.05346 0.10692,0.16038z" fill="#99918a"/><path d="M228.16546,158.99842c1.87104,-0.90879 1.76413,-2.72638 1.76413,-2.72638c-0.16038,2.03142 -3.10059,1.71067 -3.10059,1.71067c2.24525,0 2.99367,-3.63517 1.9245,-4.65088c-1.06917,-1.01571 -0.42767,-3.849 -0.42767,-3.849c-0.48113,0.05346 -0.69496,1.65721 -0.69496,1.65721c0,0 -0.85533,-2.40563 1.01571,-3.42134c1.87104,-1.01571 1.33646,-3.10059 1.76413,-8.98101c0.42767,-5.82696 6.94959,-7.69801 8.98101,-7.64455c0.37421,0 0.69496,0 0.90879,0.10692c0.32075,-0.37421 1.06917,-0.32075 1.87104,-0.32075c1.38992,-0.05346 4.27667,1.49683 5.45275,2.40563c3.47479,2.83329 4.11629,9.99672 4.16975,11.33317c0.05346,1.33646 1.65721,1.33646 1.65721,1.33646c-1.12263,0.21383 -1.9245,-0.10692 -1.9245,-0.10692c1.60375,1.71067 0.58804,3.52825 0.58804,3.52825c0.58804,1.12263 0.48113,3.31442 -0.16038,4.86471c-0.69496,1.55029 1.44338,2.40563 1.44338,2.40563c-1.60375,0.21383 -1.97796,-0.58804 -2.03142,-0.80188c0.42767,1.65721 0.80188,3.2075 0.05346,4.38359c-0.80188,1.17608 1.17608,2.566 1.17608,2.566c-0.6415,0 -1.9245,-0.37421 -1.9245,-0.37421c-0.69496,1.71067 2.19179,1.97796 2.19179,1.97796c-1.9245,0.48113 -2.77984,-0.16038 -2.77984,-0.16038c0.69496,1.9245 0.32075,3.04713 -0.21383,4.27667c-0.48113,1.17608 1.01571,2.67292 1.01571,2.67292c-1.44338,0.26729 -2.40563,-1.65721 -2.40563,-1.65721c0.90879,3.2075 -1.38992,4.11629 -1.38992,4.11629c0.80188,-1.17608 -0.16038,-2.67292 -0.16038,-2.67292c0.05346,1.22954 -0.48113,3.58171 -1.9245,3.95592c-1.44338,0.37421 -0.96225,2.45909 -0.96225,2.45909c-1.06917,-0.10692 -0.80188,-2.13833 -0.74842,-2.29871c-0.53458,3.36788 -3.2075,2.99367 -3.2075,2.99367c-1.06917,1.87104 -4.11629,1.12263 -4.11629,1.12263c1.17608,0.10692 2.13833,-0.90879 2.13833,-0.90879c-2.45909,1.38992 -3.95592,-0.21383 -4.00938,-1.55029c-0.05346,-1.33646 1.81758,-1.06917 1.81758,-1.06917c0,0 -2.13833,0.37421 -0.32075,1.76413c1.81758,1.38992 3.2075,-2.566 1.76413,-3.10059c-1.44338,-0.53458 -1.12263,-2.03142 -1.12263,-2.03142c-1.12263,-0.37421 -2.88675,-1.81758 -2.566,-3.26096c0.32075,-1.22954 -0.26729,-2.51254 -0.26729,-2.51254c0.80188,1.65721 -0.74842,1.97796 -0.74842,1.97796c0.16038,-1.01571 -0.32075,-1.87104 -1.60375,-2.566c-0.96225,-0.53458 -0.6415,-1.81758 -0.42767,-2.45909c-0.53458,0.58804 -2.13833,0.21383 -2.13833,0.21383c0.90879,-0.05346 2.24525,-1.38992 1.17608,-2.19179c-1.06917,-0.85533 -0.69496,-1.65721 -0.69496,-1.65721c-1.55029,0.80188 -0.26729,2.13833 -0.26729,2.13833c-1.22954,0 -2.40563,-2.08488 -0.53458,-2.99367zM234.20625,145.31308c1.76413,2.40563 1.33646,3.04713 1.33646,3.04713c0,0 2.08488,-1.17608 3.47479,0.37421l2.99367,1.60375l2.61946,-0.96225c0,0 1.38992,-2.40563 4.16975,-2.24525c0,0 1.22954,-0.53458 0.74842,-2.08488c0,0 -0.32075,1.06917 -1.60375,0.53458c0,0 1.71067,-0.48113 1.283,-2.45909c-0.37421,-2.03142 -1.12263,-3.2075 -2.35217,-5.34584c-1.81758,-3.2075 -4.22321,-2.94021 -5.61313,-4.22321c-0.58804,1.65721 -4.4905,3.26096 -6.0408,5.23892c0,0.05346 -2.77984,4.11629 -1.01571,6.52192z" fill="#c8bdb4"/><path d="M241.10238,132.0554c-0.05346,-0.10692 -0.16038,-0.26729 -0.32075,-0.37421c-0.05346,-0.05346 -0.16038,-0.10692 -0.26729,-0.16038c-0.10692,-0.05346 -0.21383,-0.05346 -0.32075,-0.10692c-0.10692,-0.05346 -0.26729,-0.05346 -0.37421,-0.10692c-0.10692,-0.05346 -0.26729,-0.05346 -0.37421,-0.05346c-0.26729,-0.05346 -0.53458,0 -0.80188,0c-0.26729,0 -0.48113,0.05346 -0.69496,0.05346c-0.42767,0.05346 -0.69496,0.05346 -0.69496,0.05346c0,0 0.21383,-0.10692 0.6415,-0.26729c0.16038,-0.05346 0.42767,-0.10692 0.69496,-0.16038c0.16038,0 0.26729,-0.05346 0.42767,-0.05346c0.16038,0 0.26729,0 0.42767,0c0.32075,0 0.58804,0.05346 0.85533,0.16038c0.16038,0.05346 0.26729,0.16038 0.37421,0.21383c0.10692,0.10692 0.21383,0.16038 0.26729,0.26729c0.10692,0.16038 0.16038,0.37421 0.21383,0.48113c0,0.16038 0,0.21383 0,0.21383c0,0 -0.05346,-0.05346 -0.05346,-0.16038z" fill="#99918a"/><path d="M241.36967,133.01765c0,0.10692 0,0.21383 0,0.32075c0,0.10692 -0.05346,0.26729 -0.10692,0.37421c-0.05346,0.16038 -0.10692,0.26729 -0.21383,0.42767c-0.10692,0.16038 -0.21383,0.32075 -0.32075,0.42767c-0.21383,0.26729 -0.48113,0.53458 -0.74842,0.74842c-0.53458,0.48113 -1.17608,0.85533 -1.65721,1.12263c-0.48113,0.21383 -0.80188,0.37421 -0.80188,0.37421c0,0 0.26729,-0.21383 0.69496,-0.53458c0.21383,-0.16038 0.48113,-0.32075 0.74842,-0.53458c0.26729,-0.21383 0.53458,-0.42767 0.80188,-0.6415c0.26729,-0.21383 0.53458,-0.48113 0.74842,-0.69496c0.10692,-0.16038 0.21383,-0.26729 0.32075,-0.37421c0.10692,-0.10692 0.21383,-0.21383 0.26729,-0.32075c0.05346,-0.10692 0.10692,-0.21383 0.16038,-0.32075c0.05346,-0.10692 0.05346,-0.21383 0.05346,-0.26729c0,-0.10692 -0.05346,-0.21383 -0.05346,-0.21383c0,0 0.05346,0.10692 0.10692,0.10692z" fill="#99918a"/><path d="M235.27542,146.70299c0.10692,0.16038 0.21383,0.37421 0.32075,0.6415c0.10692,0.26729 0.16038,0.58804 0.16038,0.85533c0,0.32075 -0.05346,0.58804 -0.16038,0.85533c0,0.16038 -0.10692,0.26729 -0.16038,0.37421c-0.05346,0.10692 -0.16038,0.21383 -0.21383,0.26729c-0.10692,0.10692 -0.16038,0.16038 -0.21383,0.21383c-0.05346,0.05346 -0.10692,0.10692 -0.16038,0.16038c-0.10692,0.05346 -0.16038,0.10692 -0.16038,0.10692c0,0 0.05346,-0.05346 0.10692,-0.16038c0,-0.05346 0.05346,-0.10692 0.10692,-0.16038c0.05346,-0.05346 0.10692,-0.10692 0.16038,-0.21383c0.05346,-0.05346 0.10692,-0.16038 0.16038,-0.26729c0.05346,-0.10692 0.10692,-0.21383 0.10692,-0.32075c0,-0.10692 0.05346,-0.26729 0.05346,-0.37421c0.05346,-0.10692 0.05346,-0.26729 0.05346,-0.37421c0.05346,-0.10692 0,-0.26729 0,-0.37421c0,-0.10692 0,-0.26729 -0.05346,-0.37421c-0.05346,-0.21383 -0.16038,-0.42767 -0.21383,-0.6415c-0.16038,-0.37421 -0.26729,-0.6415 -0.26729,-0.6415c0,0 0.21383,0.21383 0.37421,0.42767z" fill="#99918a"/><path d="M248.05197,145.68729c0.10692,0 0.26729,0 0.42767,0c0.10692,0 0.16038,0 0.26729,-0.05346c0.10692,0 0.16038,-0.05346 0.26729,-0.10692c0.05346,-0.05346 0.16038,-0.10692 0.21383,-0.21383c0.10692,-0.10692 0.16038,-0.16038 0.21383,-0.26729c0.05346,-0.05346 0.10692,-0.16038 0.16038,-0.26729c0.05346,-0.10692 0.05346,-0.21383 0.10692,-0.32075c0.05346,-0.21383 0.10692,-0.42767 0.16038,-0.58804c0.10692,-0.37421 0.16038,-0.58804 0.16038,-0.58804c0,0 0.05346,0.21383 0.05346,0.58804c0,0.21383 0,0.42767 -0.05346,0.58804c-0.05346,0.16038 -0.05346,0.26729 -0.10692,0.37421c-0.05346,0.16038 -0.10692,0.26729 -0.16038,0.37421c-0.10692,0.10692 -0.16038,0.21383 -0.26729,0.32075c-0.10692,0.10692 -0.21383,0.16038 -0.32075,0.21383c-0.21383,0.10692 -0.42767,0.10692 -0.6415,0.10692c-0.37421,-0.05346 -0.58804,-0.21383 -0.58804,-0.21383c0,0 0.05346,0.05346 0.10692,0.05346z" fill="#99918a"/><path d="M253.0236,146.00804c-0.32075,0.10692 -0.69496,0.10692 -1.12263,0.05346c-0.21383,-0.05346 -0.42767,-0.10692 -0.58804,-0.21383c-0.16038,-0.10692 -0.32075,-0.21383 -0.42767,-0.32075c-0.21383,-0.21383 -0.26729,-0.42767 -0.26729,-0.42767c0,0 0.05346,0.05346 0.10692,0.10692c0.05346,0.10692 0.16038,0.16038 0.26729,0.21383c0.05346,0.05346 0.16038,0.05346 0.21383,0.10692c0.05346,0.05346 0.16038,0.05346 0.21383,0.10692c0.16038,0.10692 0.37421,0.10692 0.53458,0.16038c0.37421,0.05346 0.74842,0.10692 1.01571,0.10692c0.26729,0.05346 0.48113,0.05346 0.48113,0.05346c0,0 -0.16038,0.10692 -0.42767,0.05346z" fill="#99918a"/><path d="M230.51762,141.73137c0,0.80188 -0.05346,1.76413 -0.10692,2.77984c-0.05346,0.26729 -0.05346,0.48113 -0.10692,0.74842c-0.05346,0.26729 -0.05346,0.48113 -0.10692,0.74842c-0.05346,0.26729 -0.16038,0.48113 -0.26729,0.69496c-0.16038,0.21383 -0.26729,0.32075 -0.42767,0.48113c-0.16038,0.16038 -0.32075,0.21383 -0.42767,0.32075c-0.16038,0.10692 -0.26729,0.16038 -0.37421,0.21383c-0.21383,0.10692 -0.32075,0.16038 -0.32075,0.16038c0,0 0.10692,-0.10692 0.26729,-0.21383c0.16038,-0.10692 0.37421,-0.32075 0.6415,-0.58804c0.21383,-0.26729 0.42767,-0.6415 0.48113,-1.06917c0,-0.21383 0.05346,-0.42767 0.05346,-0.69496c0,-0.26729 0.05346,-0.48113 0.05346,-0.74842c0.05346,-0.48113 0.10692,-0.96225 0.16038,-1.44338c0.05346,-0.48113 0.10692,-0.90879 0.16038,-1.283c0.05346,-0.74842 0.16038,-1.22954 0.16038,-1.22954c0,0 0,0.53458 0.16038,1.12263z" fill="#99918a"/><path d="M228.16546,149.9105c-0.05346,0.26729 -0.05346,0.6415 -0.05346,1.12263c0.05346,0.42767 0.10692,0.96225 0.32075,1.49683c0.10692,0.26729 0.26729,0.48113 0.42767,0.74842c0.21383,0.26729 0.37421,0.58804 0.42767,0.90879c0.05346,0.32075 0.05346,0.6415 0.05346,0.96225c-0.05346,0.32075 -0.10692,0.6415 -0.21383,0.90879c-0.05346,0.32075 -0.21383,0.58804 -0.37421,0.80188c-0.16038,0.21383 -0.37421,0.42767 -0.53458,0.58804c-0.16038,0.16038 -0.37421,0.32075 -0.53458,0.37421c-0.16038,0.10692 -0.37421,0.10692 -0.48113,0.16038c-0.16038,0 -0.26729,0 -0.32075,0c-0.05346,0 -0.10692,0 -0.10692,0c0,0 0.05346,0 0.10692,0c0.10692,0 0.21383,0 0.32075,-0.05346c0.10692,-0.05346 0.26729,-0.10692 0.42767,-0.21383c0.05346,-0.05346 0.16038,-0.10692 0.21383,-0.16038c0.05346,-0.05346 0.16038,-0.10692 0.21383,-0.21383c0.16038,-0.16038 0.32075,-0.37421 0.42767,-0.58804c0.10692,-0.21383 0.26729,-0.48113 0.32075,-0.74842c0.10692,-0.26729 0.16038,-0.58804 0.16038,-0.85533c0.05346,-0.26729 0,-0.58804 -0.05346,-0.85533c-0.05346,-0.32075 -0.16038,-0.53458 -0.32075,-0.80188c-0.16038,-0.21383 -0.32075,-0.53458 -0.42767,-0.80188c-0.16038,-0.26729 -0.16038,-0.58804 -0.21383,-0.85533c0,-0.26729 0,-0.53458 0,-0.74842c0.05346,-0.48113 0.16038,-0.85533 0.21383,-1.12263c0.10692,-0.26729 0.16038,-0.42767 0.16038,-0.42767c0,0 -0.05346,0.16038 -0.16038,0.37421z" fill="#99918a"/><path d="M228.16546,161.67134c-0.05346,-0.16038 -0.16038,-0.32075 -0.21383,-0.53458c0,-0.10692 0,-0.21383 0,-0.32075c0,-0.10692 0,-0.21383 0.05346,-0.32075c0.05346,-0.10692 0.10692,-0.21383 0.16038,-0.32075c0.05346,-0.05346 0.10692,-0.16038 0.21383,-0.21383c0.16038,-0.10692 0.32075,-0.21383 0.48113,-0.26729c0.16038,-0.05346 0.26729,-0.05346 0.37421,-0.10692c0.10692,-0.05346 0.16038,-0.05346 0.16038,-0.05346c0,0 -0.05346,0.05346 -0.10692,0.10692c-0.05346,0.05346 -0.16038,0.10692 -0.26729,0.21383c-0.05346,0.05346 -0.10692,0.10692 -0.16038,0.16038c-0.05346,0.05346 -0.10692,0.10692 -0.16038,0.16038c-0.05346,0.05346 -0.10692,0.16038 -0.16038,0.21383c-0.05346,0.05346 -0.05346,0.16038 -0.10692,0.21383c0,0.10692 -0.05346,0.16038 -0.05346,0.26729c0,0.10692 0,0.16038 0,0.26729c0,0.16038 0.05346,0.32075 0.10692,0.48113c0.10692,0.32075 0.21383,0.48113 0.21383,0.48113c0,0 -0.16038,-0.10692 -0.53458,-0.42767z" fill="#99918a"/><path d="M229.12771,163.80967c0.21383,-0.05346 0.42767,-0.05346 0.69496,-0.10692c0.10692,0 0.26729,-0.05346 0.37421,-0.10692c0.10692,-0.05346 0.21383,-0.05346 0.32075,-0.16038c0.10692,-0.10692 0.16038,-0.16038 0.26729,-0.26729c0.10692,-0.10692 0.16038,-0.21383 0.21383,-0.32075c0.05346,-0.10692 0.10692,-0.21383 0.16038,-0.32075c0.05346,-0.10692 0.05346,-0.21383 0.10692,-0.32075c0.05346,-0.16038 0.05346,-0.37421 0.10692,-0.48113c0.05346,-0.16038 0.05346,-0.21383 0.05346,-0.21383c0,0 0.05346,0.10692 0.05346,0.21383c0,0.10692 0.05346,0.32075 0,0.53458c0,0.10692 0,0.26729 -0.05346,0.37421c0,0.10692 -0.05346,0.26729 -0.10692,0.37421c-0.10692,0.10692 -0.16038,0.26729 -0.26729,0.37421c-0.05346,0.10692 -0.16038,0.21383 -0.32075,0.32075c-0.16038,0.10692 -0.26729,0.16038 -0.42767,0.21383c-0.16038,0.05346 -0.26729,0.10692 -0.42767,0.10692c-0.26729,0.05346 -0.53458,0.05346 -0.74842,0c-0.42767,-0.10692 -0.69496,-0.21383 -0.69496,-0.21383c0,0 0.32075,0.05346 0.69496,0z" fill="#99918a"/><path d="M245.86018,132.21578c-0.32075,-0.10692 -0.6415,-0.26729 -1.01571,-0.42767c-0.37421,-0.16038 -0.74842,-0.26729 -1.17608,-0.42767c-0.16038,-0.05346 -0.37421,-0.10692 -0.58804,-0.16038c-0.21383,-0.05346 -0.37421,-0.16038 -0.58804,-0.16038c-0.21383,0 -0.42767,-0.05346 -0.58804,-0.05346c-0.21383,0 -0.37421,0 -0.53458,0c-0.32075,0.05346 -0.58804,0.10692 -0.74842,0.16038c-0.16038,0.10692 -0.26729,0.16038 -0.26729,0.16038c0,0 0.05346,-0.10692 0.21383,-0.21383c0.16038,-0.10692 0.42767,-0.21383 0.74842,-0.26729c0.16038,0 0.32075,-0.05346 0.53458,-0.05346c0.16038,0 0.37421,0.05346 0.58804,0.05346c0.21383,0 0.42767,0.05346 0.6415,0.10692c0.21383,0.05346 0.42767,0.10692 0.6415,0.16038c0.16038,0.05346 0.37421,0.16038 0.58804,0.21383c0.21383,0.05346 0.42767,0.16038 0.58804,0.26729c0.37421,0.16038 0.69496,0.37421 0.96225,0.53458c0.26729,0.16038 0.48113,0.32075 0.6415,0.42767c0.16038,0.10692 0.26729,0.16038 0.26729,0.16038c0,0 -0.42767,-0.16038 -0.90879,-0.48113z" fill="#99918a"/><path d="M253.39781,156.69971c-0.10692,0.05346 -0.26729,0.10692 -0.48113,0.10692c-0.10692,0 -0.21383,0 -0.32075,0c-0.10692,0 -0.26729,0 -0.37421,-0.05346c-0.16038,-0.05346 -0.26729,-0.10692 -0.37421,-0.16038c-0.10692,-0.05346 -0.21383,-0.10692 -0.32075,-0.21383c-0.10692,-0.10692 -0.21383,-0.21383 -0.26729,-0.32075c-0.10692,-0.10692 -0.16038,-0.21383 -0.21383,-0.32075c-0.10692,-0.21383 -0.16038,-0.42767 -0.21383,-0.6415c-0.05346,-0.21383 -0.05346,-0.37421 -0.05346,-0.48113c0,-0.10692 0,-0.16038 0,-0.16038c0,0 0,0.05346 0.05346,0.16038c0.05346,0.10692 0.05346,0.26729 0.16038,0.42767c0,0.10692 0.05346,0.16038 0.10692,0.26729c0.05346,0.05346 0.10692,0.16038 0.16038,0.26729c0.05346,0.10692 0.16038,0.16038 0.21383,0.26729c0.05346,0.10692 0.16038,0.16038 0.21383,0.26729c0.10692,0.05346 0.16038,0.16038 0.26729,0.21383c0.05346,0.05346 0.16038,0.10692 0.26729,0.16038c0.21383,0.10692 0.42767,0.16038 0.58804,0.16038c0.16038,0.05346 0.32075,0.05346 0.42767,0.05346c0.10692,0 0.16038,0 0.16038,0c0,0 -0.05346,0 0,0z" fill="#99918a"/><path d="M252.59593,148.19983c0,0.32075 0,0.74842 -0.21383,1.12263c-0.10692,0.16038 -0.21383,0.37421 -0.37421,0.48113c-0.10692,0.05346 -0.16038,0.10692 -0.26729,0.16038c-0.10692,0.05346 -0.16038,0.10692 -0.26729,0.10692c-0.16038,0.05346 -0.26729,0.05346 -0.37421,0.05346c-0.10692,0 -0.16038,0 -0.16038,0c0,0 0,0 0.10692,-0.05346c0.05346,0 0.10692,-0.05346 0.16038,-0.05346c0.05346,-0.05346 0.10692,-0.05346 0.16038,-0.10692c0.05346,0 0.10692,-0.05346 0.16038,-0.10692c0.05346,-0.05346 0.10692,-0.10692 0.16038,-0.16038c0.05346,-0.05346 0.10692,-0.16038 0.16038,-0.21383c0,-0.05346 0.05346,-0.10692 0.10692,-0.21383c0.10692,-0.21383 0.16038,-0.37421 0.21383,-0.53458c0.05346,-0.16038 0.05346,-0.32075 0.10692,-0.48113c0.05346,-0.26729 0.10692,-0.48113 0.10692,-0.48113c0,0 0.10692,0.21383 0.21383,0.48113z" fill="#99918a"/><path d="M251.41985,162.79396c-0.32075,0 -0.6415,-0.10692 -1.01571,-0.21383c-0.16038,-0.10692 -0.37421,-0.16038 -0.53458,-0.26729c-0.16038,-0.10692 -0.32075,-0.21383 -0.48113,-0.37421c-0.10692,-0.05346 -0.16038,-0.10692 -0.21383,-0.21383c-0.05346,-0.10692 -0.10692,-0.16038 -0.16038,-0.26729c-0.05346,-0.10692 -0.10692,-0.16038 -0.16038,-0.26729c-0.05346,-0.05346 -0.05346,-0.16038 -0.10692,-0.26729c0,-0.10692 -0.05346,-0.16038 -0.05346,-0.26729c0,-0.10692 0,-0.16038 0,-0.26729c0,-0.16038 0,-0.32075 0.05346,-0.48113c0.10692,-0.58804 0.32075,-0.96225 0.32075,-0.96225c0,0 0,0.10692 -0.05346,0.26729c0,0.16038 -0.05346,0.42767 -0.05346,0.69496c0,0.16038 0,0.32075 0,0.48113c0,0.05346 0.05346,0.16038 0.05346,0.21383c0.05346,0.10692 0.05346,0.21383 0.10692,0.26729c0.05346,0.10692 0.05346,0.16038 0.10692,0.26729l0.16038,0.21383c0.05346,0.05346 0.10692,0.16038 0.16038,0.21383c0.10692,0.10692 0.16038,0.16038 0.21383,0.21383c0.10692,0.10692 0.26729,0.21383 0.42767,0.32075c0.16038,0.10692 0.32075,0.21383 0.48113,0.26729c0.32075,0.16038 0.6415,0.26729 0.90879,0.32075c0.58804,0.10692 0.96225,0.16038 0.96225,0.16038c0,0 -0.37421,0.05346 -1.12263,-0.05346z" fill="#99918a"/><path d="M252.22172,164.71847c-0.21383,0.05346 -0.48113,0.10692 -0.74842,0.10692c-0.16038,-0.05346 -0.26729,0 -0.42767,-0.05346c-0.16038,-0.05346 -0.26729,-0.05346 -0.42767,-0.10692c-0.16038,-0.05346 -0.26729,-0.10692 -0.42767,-0.16038c-0.16038,-0.05346 -0.26729,-0.16038 -0.37421,-0.21383c-0.10692,-0.05346 -0.21383,-0.16038 -0.32075,-0.21383c-0.10692,-0.05346 -0.21383,-0.16038 -0.26729,-0.21383c-0.16038,-0.16038 -0.26729,-0.32075 -0.32075,-0.42767c-0.05346,-0.10692 -0.10692,-0.16038 -0.10692,-0.16038c0,0 0.05346,0.05346 0.16038,0.10692c0.05346,0.05346 0.10692,0.10692 0.16038,0.16038c0.05346,0.05346 0.10692,0.10692 0.21383,0.16038c0.05346,0.05346 0.16038,0.10692 0.26729,0.16038c0.10692,0.05346 0.21383,0.10692 0.32075,0.16038c0.26729,0.10692 0.48113,0.21383 0.74842,0.26729c0.48113,0.16038 1.01571,0.16038 1.44338,0.16038c0.42767,0 0.69496,-0.05346 0.69496,-0.05346c0,0 -0.26729,0.16038 -0.58804,0.32075z" fill="#99918a"/><path d="M250.4576,170.91964c-0.21383,-0.21383 -0.48113,-0.48113 -0.6415,-0.85533c-0.10692,-0.16038 -0.16038,-0.37421 -0.16038,-0.53458c0,-0.16038 0,-0.32075 0,-0.48113c0.05346,-0.10692 0.10692,-0.26729 0.10692,-0.32075c0.05346,-0.05346 0.05346,-0.10692 0.05346,-0.10692c0,0 0,0.21383 0.05346,0.48113c0.05346,0.26729 0.10692,0.58804 0.26729,0.90879c0.16038,0.32075 0.32075,0.6415 0.48113,0.85533c0.16038,0.21383 0.26729,0.37421 0.26729,0.37421c0,0 -0.21383,-0.10692 -0.42767,-0.32075z" fill="#99918a"/><path d="M248.80039,170.3316c0.05346,0.21383 0.10692,0.53458 0.10692,0.80188c-0.05346,0.10692 -0.05346,0.26729 -0.05346,0.42767c-0.05346,0.16038 -0.05346,0.32075 -0.10692,0.48113c0,0.16038 -0.10692,0.26729 -0.16038,0.42767c-0.05346,0.16038 -0.21383,0.26729 -0.26729,0.37421c-0.05346,0.16038 -0.16038,0.21383 -0.26729,0.32075c-0.10692,0.10692 -0.21383,0.16038 -0.32075,0.21383c-0.16038,0.16038 -0.37421,0.21383 -0.48113,0.26729c-0.16038,0.10692 -0.21383,0.10692 -0.21383,0.10692c0,0 0.05346,-0.05346 0.16038,-0.16038c0.05346,-0.05346 0.10692,-0.10692 0.16038,-0.16038c0.05346,-0.05346 0.16038,-0.16038 0.21383,-0.21383c0.05346,-0.10692 0.16038,-0.16038 0.21383,-0.26729c0.05346,-0.10692 0.16038,-0.21383 0.21383,-0.32075c0.05346,-0.16038 0.16038,-0.26729 0.21383,-0.37421c0.05346,-0.10692 0.10692,-0.21383 0.16038,-0.37421c0.10692,-0.26729 0.10692,-0.53458 0.16038,-0.80188c0,-0.26729 0,-0.53458 0,-0.74842c-0.05346,-0.42767 -0.10692,-0.74842 -0.10692,-0.74842c0,0 0.21383,0.26729 0.37421,0.74842z" fill="#99918a"/><path d="M243.7753,177.44156c-0.05346,0 -0.16038,0 -0.21383,-0.05346c-0.05346,0 -0.16038,-0.10692 -0.21383,-0.16038c-0.10692,-0.05346 -0.16038,-0.16038 -0.21383,-0.26729c-0.05346,-0.10692 -0.05346,-0.26729 -0.10692,-0.37421c-0.05346,-0.16038 -0.05346,-0.26729 -0.05346,-0.42767c0,-0.16038 0,-0.26729 0,-0.42767c0.05346,-0.32075 0.10692,-0.53458 0.16038,-0.80188c0.10692,-0.21383 0.21383,-0.48113 0.26729,-0.6415c0.16038,-0.37421 0.32075,-0.58804 0.32075,-0.58804c0,0 0,0.26729 -0.10692,0.6415c-0.05346,0.16038 -0.10692,0.42767 -0.16038,0.6415c-0.05346,0.26729 -0.10692,0.48113 -0.10692,0.74842c0,0.26729 0,0.53458 0,0.74842c0,0.10692 0,0.21383 0.05346,0.32075c0,0.10692 0.05346,0.16038 0.10692,0.26729c0.05346,0.10692 0.10692,0.16038 0.16038,0.21383c0.05346,0.05346 0.10692,0.10692 0.16038,0.10692c0.10692,0.05346 0.16038,0.05346 0.16038,0.05346c0,0 -0.05346,0 -0.21383,0z" fill="#99918a"/><path d="M243.02688,176.53277c-0.05346,0.10692 -0.10692,0.26729 -0.21383,0.37421c-0.05346,0.10692 -0.16038,0.26729 -0.26729,0.37421c-0.10692,0.10692 -0.21383,0.21383 -0.37421,0.32075c-0.10692,0.10692 -0.26729,0.21383 -0.42767,0.26729c-0.16038,0.10692 -0.32075,0.16038 -0.48113,0.21383c-0.16038,0.05346 -0.32075,0.05346 -0.48113,0.10692c-0.16038,0 -0.32075,0 -0.48113,0c-0.16038,0 -0.32075,-0.05346 -0.42767,-0.05346c-0.26729,0 -0.42767,-0.10692 -0.58804,-0.16038c-0.16038,-0.05346 -0.21383,-0.10692 -0.21383,-0.10692c0,0 0.05346,0 0.21383,0c0.16038,0 0.32075,0.05346 0.58804,0.05346c0.10692,0 0.21383,0 0.37421,0c0.16038,0 0.26729,-0.05346 0.42767,-0.05346c0.10692,-0.05346 0.26729,-0.05346 0.42767,-0.10692c0.16038,-0.05346 0.32075,-0.05346 0.42767,-0.16038c0.10692,-0.05346 0.26729,-0.10692 0.37421,-0.21383c0.16038,-0.05346 0.26729,-0.16038 0.37421,-0.26729c0.05346,-0.10692 0.16038,-0.21383 0.26729,-0.32075c0.05346,-0.10692 0.16038,-0.21383 0.21383,-0.32075c0.16038,-0.16038 0.26729,-0.37421 0.32075,-0.48113c0.05346,-0.16038 0.10692,-0.21383 0.10692,-0.21383c0,0 -0.05346,0.32075 -0.16038,0.74842z" fill="#99918a"/><path d="M237.14646,178.77802c-0.16038,0 -0.32075,0.05346 -0.48113,0.10692c-0.16038,0.05346 -0.32075,0.05346 -0.53458,0.05346c-0.10692,0 -0.21383,0 -0.32075,0c-0.10692,0 -0.21383,0 -0.32075,-0.05346c-0.21383,-0.05346 -0.42767,-0.16038 -0.58804,-0.26729l-0.26729,-0.21383c-0.10692,-0.05346 -0.16038,-0.16038 -0.21383,-0.21383c-0.16038,-0.10692 -0.21383,-0.32075 -0.32075,-0.48113c-0.16038,-0.32075 -0.26729,-0.69496 -0.21383,-1.01571c0.05346,-0.32075 0.21383,-0.53458 0.37421,-0.6415c0.16038,-0.10692 0.26729,-0.10692 0.26729,-0.10692c0,0 -0.10692,0.05346 -0.21383,0.16038c-0.10692,0.10692 -0.21383,0.32075 -0.21383,0.58804c0.05346,0.26729 0.16038,0.53458 0.32075,0.85533c0.10692,0.16038 0.21383,0.32075 0.32075,0.42767c0.05346,0.10692 0.10692,0.16038 0.16038,0.21383l0.21383,0.16038c0.16038,0.05346 0.32075,0.16038 0.48113,0.21383c0.10692,0 0.16038,0.05346 0.26729,0.05346c0.10692,0.05346 0.16038,0.05346 0.26729,0.05346c0.37421,0.05346 0.69496,0 0.96225,-0.05346c0.32075,-0.10692 0.53458,-0.16038 0.69496,-0.21383c0.16038,-0.05346 0.26729,-0.10692 0.26729,-0.10692c0,0 -0.32075,0.26729 -0.90879,0.48113z" fill="#99918a"/><path d="M238.05526,174.66172c-0.10692,0 -0.26729,0 -0.48113,-0.05346c-0.10692,-0.05346 -0.21383,-0.05346 -0.32075,-0.10692c-0.10692,-0.05346 -0.21383,-0.10692 -0.32075,-0.16038c-0.10692,-0.05346 -0.21383,-0.16038 -0.32075,-0.26729c-0.10692,-0.10692 -0.16038,-0.21383 -0.26729,-0.32075c-0.05346,-0.10692 -0.10692,-0.21383 -0.16038,-0.37421c-0.05346,-0.10692 -0.10692,-0.26729 -0.10692,-0.37421c0,-0.26729 0,-0.48113 0,-0.69496c0,-0.21383 0.10692,-0.37421 0.10692,-0.48113c0.05346,-0.10692 0.05346,-0.16038 0.05346,-0.16038c0,0 0,0.05346 0,0.16038c0,0.10692 0,0.26729 0.05346,0.48113c0,0.10692 0.05346,0.21383 0.05346,0.32075c0,0.10692 0.05346,0.21383 0.05346,0.32075c0,0.10692 0.05346,0.21383 0.10692,0.32075c0.05346,0.10692 0.10692,0.21383 0.16038,0.32075c0.05346,0.05346 0.10692,0.16038 0.21383,0.26729c0.10692,0.10692 0.16038,0.21383 0.26729,0.26729c0.16038,0.16038 0.37421,0.26729 0.53458,0.32075c0.16038,0.10692 0.32075,0.16038 0.42767,0.16038c0.10692,0.05346 0.16038,0.05346 0.16038,0.05346c0,0 -0.05346,0 -0.21383,0z" fill="#99918a"/><path d="M233.03017,168.35364c0.10692,-0.10692 0.21383,-0.21383 0.26729,-0.37421c0.05346,-0.10692 0.05346,-0.16038 0.10692,-0.26729c0,-0.05346 0.05346,-0.16038 0.05346,-0.26729c0.10692,-0.37421 0.10692,-0.74842 0.16038,-1.06917c0,-0.32075 0.05346,-0.53458 0.05346,-0.53458c0,0 0.10692,0.16038 0.16038,0.48113c0,0.16038 0.05346,0.32075 0.05346,0.53458c0,0.10692 0,0.21383 0,0.32075c0,0.10692 0,0.21383 -0.05346,0.32075c-0.05346,0.10692 -0.05346,0.21383 -0.10692,0.32075c-0.05346,0.10692 -0.10692,0.16038 -0.16038,0.26729c-0.05346,0.05346 -0.16038,0.16038 -0.21383,0.21383c-0.05346,0.05346 -0.16038,0.10692 -0.21383,0.16038c-0.16038,0.05346 -0.26729,0.10692 -0.37421,0.10692c-0.10692,0 -0.16038,0 -0.16038,0c0,0 0.21383,-0.05346 0.42767,-0.21383z" fill="#99918a"/><path d="M246.55514,172.68376c0.05346,-0.32075 0.10692,-0.80188 0.16038,-1.283c0.05346,-0.21383 0.05346,-0.48113 0.05346,-0.69496c0,-0.10692 0,-0.21383 0,-0.32075c-0.05346,-0.10692 -0.05346,-0.16038 -0.05346,-0.26729c-0.05346,-0.16038 -0.05346,-0.32075 -0.10692,-0.42767c-0.05346,-0.10692 -0.05346,-0.16038 -0.05346,-0.16038c0,0 0.05346,0.05346 0.10692,0.16038c0.05346,0.10692 0.16038,0.26729 0.21383,0.42767c0.05346,0.21383 0.10692,0.42767 0.16038,0.6415c0,0.26729 0,0.48113 0,0.74842c-0.05346,0.53458 -0.16038,1.01571 -0.32075,1.33646c-0.16038,0.32075 -0.26729,0.53458 -0.26729,0.53458c0,0 0.05346,-0.26729 0.10692,-0.69496z" fill="#99918a"/></g><g><path d="M238.05284,143.13047c-0.01903,-0.6197 0.20477,-1.12941 0.49987,-1.13847c0.2951,-0.00906 0.54976,0.48596 0.56879,1.10566c0.01903,0.6197 -0.20477,1.12941 -0.49987,1.13847c-0.2951,0.00906 -0.54976,-0.48596 -0.56879,-1.10566z" id="Oval" fill="#592f25"/><path d="M245.07478,142.91857c-0.01903,-0.6197 0.20477,-1.12941 0.49987,-1.13847c0.2951,-0.00906 0.54976,0.48596 0.56879,1.10566c0.01903,0.6197 -0.20477,1.12941 -0.49987,1.13847c-0.2951,0.00906 -0.54976,-0.48596 -0.56879,-1.10566z" id="Oval" fill="#592f25"/><path d="M237.3603,142.21249c-0.96225,0 -1.44338,0.6415 -1.44338,0.6415c0.05346,-0.48113 0.58804,-0.85533 0.58804,-0.85533l-0.80188,0.16038c0.53458,-1.283 2.29871,-1.06917 2.29871,-1.06917l-0.58804,-0.16038c1.06917,-0.42767 2.45909,-0.16038 2.45909,-0.16038l-0.48113,-0.32075c1.12263,-0.10692 1.81758,0.6415 1.55029,1.22954c-0.26729,0.48113 -2.566,0.6415 -3.58171,0.53458z" id="Shape" fill="#c8bdb4"/><path d="M243.1338,141.73137c-0.32075,-0.58804 0.26729,-1.33646 1.44338,-1.38992l-0.42767,0.37421c0,0 1.33646,-0.37421 2.45909,-0.05346l-0.58804,0.21383c0,0 1.71067,-0.37421 2.35217,0.85533l-0.85533,-0.05346c0,0 0.53458,0.32075 0.69496,0.80188c0,0 -0.53458,-0.6415 -1.49683,-0.48113c-0.96225,0.10692 -3.31442,0.21383 -3.58171,-0.26729z" id="Shape" fill="#c8bdb4"/><path d="M239.07096,144.08353c-0.16038,0.10692 -0.42767,0.21383 -0.6415,0.26729c-0.21383,0.05346 -0.48113,0.10692 -0.6415,0.16038c-0.05346,0.05346 -0.16038,0.05346 -0.21383,0.05346c-0.05346,0 -0.10692,0 -0.10692,0c0,0 0.05346,-0.10692 0.21383,-0.21383c0.16038,-0.10692 0.37421,-0.26729 0.6415,-0.32075c0.26729,-0.05346 0.48113,-0.10692 0.69496,-0.10692c0.21383,0 0.32075,0.05346 0.32075,0.05346c0,0 -0.10692,0.10692 -0.26729,0.10692z" id="Shape" fill="#a95947"/><path d="M246.18093,144.13699c-0.16038,0 -0.42767,0 -0.6415,-0.05346c-0.21383,-0.05346 -0.42767,-0.10692 -0.58804,-0.16038c-0.16038,-0.05346 -0.26729,-0.10692 -0.26729,-0.10692c0,0 0.16038,-0.05346 0.32075,-0.10692c0.16038,-0.05346 0.42767,-0.05346 0.6415,0c0.21383,0.05346 0.42767,0.10692 0.58804,0.21383c0.16038,0.10692 0.26729,0.16038 0.26729,0.16038c0,0 -0.10692,0.05346 -0.32075,0.05346z" id="Shape" fill="#a95947"/><g id="Shape"><path d="M244.89793,147.93254c0,0 0.80188,-0.21383 1.38992,0.69496c0.58804,0.90879 1.12263,0.80188 1.12263,0.80188c0,0 -0.58804,0.58804 -1.283,0.21383c0,0 0.6415,0.96225 -0.21383,1.60375c0,0 0,-0.74842 -0.26729,-1.12263c0,0 0.21383,1.283 -0.96225,1.55029c0,0 0,-0.32075 0,-0.80188c0,0 -0.05346,0.37421 -0.80188,0.58804l-0.05346,-1.12263c0.16038,0.96225 -0.85533,1.33646 -0.85533,1.33646c-0.37421,-0.37421 -0.10692,-1.33646 -0.10692,-1.33646c-0.26729,0.16038 -0.37421,1.44338 -0.37421,1.44338c-0.32075,-0.32075 -0.37421,-1.44338 -0.37421,-1.44338c0.16038,1.22954 -1.12263,1.60375 -1.12263,1.60375c0.26729,-0.26729 -0.32075,-1.60375 -0.32075,-1.60375c0.16038,1.17608 -0.48113,1.60375 -0.48113,1.60375c-0.48113,-0.26729 -0.37421,-1.17608 -0.37421,-1.17608l-0.58804,1.17608c-0.80188,-0.53458 -0.16038,-1.44338 -0.16038,-1.44338c-0.26729,0.16038 -0.6415,0.96225 -0.6415,0.96225c-0.05346,-0.69496 0.26729,-1.55029 0.26729,-1.55029c-0.21383,0.37421 -1.06917,0.16038 -1.06917,0.16038c0.26729,0 0.80188,-0.58804 1.17608,-1.01571c1.44338,-1.76413 3.849,-1.12263 3.849,-1.12263" fill="#c8bdb4"/><path d="M246.92935,149.32246c-0.16038,-0.05346 -0.32075,-0.16038 -0.42767,-0.26729c-0.16038,-0.10692 -0.26729,-0.26729 -0.37421,-0.37421c-0.21383,-0.26729 -0.48113,-0.48113 -0.69496,-0.58804c-0.16038,-0.05346 -0.26729,-0.10692 -0.32075,-0.10692c-0.05346,-0.05346 -0.10692,-0.05346 -0.10692,-0.05346c0,0 0.16038,-0.10692 0.48113,-0.05346c0.16038,0 0.32075,0.05346 0.48113,0.16038c0.16038,0.10692 0.32075,0.21383 0.42767,0.37421c0.10692,0.16038 0.21383,0.32075 0.32075,0.42767c0.10692,0.10692 0.21383,0.21383 0.32075,0.32075c0.10692,0.10692 0.21383,0.16038 0.26729,0.21383c0.05346,0.05346 0.10692,0.05346 0.10692,0.05346c0,0 -0.21383,0.05346 -0.48113,-0.10692z" fill="#99918a"/><path d="M245.86018,150.39162c0,0.21383 0,0.48113 -0.16038,0.74842c-0.05346,0.16038 -0.16038,0.26729 -0.26729,0.32075c-0.10692,0.10692 -0.21383,0.16038 -0.32075,0.16038c-0.10692,0.05346 -0.21383,0.05346 -0.26729,0.05346c-0.05346,0 -0.10692,0 -0.10692,0c0,0 0,0 0.05346,-0.05346c0.05346,-0.05346 0.10692,-0.10692 0.16038,-0.16038c0.05346,-0.05346 0.16038,-0.16038 0.21383,-0.21383c0.10692,-0.10692 0.16038,-0.16038 0.21383,-0.26729c0.10692,-0.21383 0.16038,-0.42767 0.21383,-0.58804c0.05346,-0.16038 0.05346,-0.32075 0.05346,-0.32075c0,0 0.10692,0.16038 0.21383,0.32075z" fill="#99918a"/><path d="M240.35397,148.09291c-0.37421,0.16038 -0.85533,0.37421 -1.22954,0.69496c-0.21383,0.16038 -0.37421,0.32075 -0.53458,0.53458c-0.16038,0.16038 -0.37421,0.32075 -0.53458,0.42767c-0.32075,0.21383 -0.58804,0.32075 -0.58804,0.32075c0,0 0.21383,-0.21383 0.48113,-0.48113c0.10692,-0.10692 0.26729,-0.32075 0.42767,-0.48113c0.05346,-0.10692 0.10692,-0.21383 0.21383,-0.32075c0.10692,-0.05346 0.21383,-0.16038 0.32075,-0.26729c0.48113,-0.32075 1.01571,-0.53458 1.38992,-0.58804c0.42767,-0.05346 0.69496,-0.05346 0.69496,-0.05346c0,0 -0.26729,0.10692 -0.6415,0.21383z" fill="#99918a"/><path d="M239.87284,151.03312c0,0.10692 0.05346,0.21383 0.10692,0.37421c0.05346,0.10692 0.05346,0.26729 0.10692,0.37421c0,0.10692 0.05346,0.21383 0.05346,0.21383c0,0 -0.10692,0 -0.21383,-0.05346c-0.16038,-0.10692 -0.26729,-0.26729 -0.32075,-0.42767c-0.05346,-0.16038 -0.05346,-0.37421 0,-0.48113c0.05346,-0.16038 0.10692,-0.21383 0.10692,-0.21383c0,0 0.05346,0.05346 0.16038,0.21383z" fill="#99918a"/><path d="M242.86651,150.60546c0.05346,0.10692 0.05346,0.26729 0.05346,0.42767c0,0.16038 0,0.32075 0,0.42767c0,0.05346 0,0.10692 0,0.16038v0.05346c0,0 -0.10692,-0.05346 -0.21383,-0.16038c-0.10692,-0.10692 -0.16038,-0.32075 -0.16038,-0.48113c0,-0.16038 0.05346,-0.37421 0.10692,-0.48113c0.05346,-0.16038 0.10692,-0.21383 0.10692,-0.21383c0,0 0.05346,0.10692 0.10692,0.26729z" fill="#99918a"/><path d="M240.78163,150.60546c0.10692,0.10692 0.21383,0.32075 0.26729,0.53458c0.05346,0.21383 0.05346,0.42767 0,0.58804c-0.05346,0.21383 -0.16038,0.21383 -0.16038,0.21383c0,0 0,0 0,-0.05346c0,0 -0.05346,-0.10692 -0.05346,-0.16038c-0.05346,-0.16038 -0.10692,-0.32075 -0.16038,-0.53458c-0.05346,-0.16038 -0.10692,-0.37421 -0.10692,-0.53458c0,-0.16038 0,-0.26729 0,-0.26729c0,0 0.10692,0.10692 0.21383,0.21383z" fill="#99918a"/><path d="M242.17155,150.97966c0.05346,0.05346 0.10692,0.21383 0.16038,0.32075c0.05346,0.16038 0.05346,0.26729 0.05346,0.37421c0,0.05346 0,0.05346 0,0.10692c0,0.05346 0,0.05346 0,0.05346c0,0 -0.05346,0 -0.16038,-0.10692c-0.10692,-0.10692 -0.16038,-0.21383 -0.21383,-0.37421c-0.05346,-0.10692 0,-0.26729 0,-0.37421c0,-0.10692 0.05346,-0.16038 0.05346,-0.16038c0,0 0.05346,0.05346 0.10692,0.16038z" fill="#99918a"/><path d="M246.28784,149.80358c0.05346,0.16038 0.16038,0.37421 0.16038,0.6415c0,0.16038 -0.05346,0.26729 -0.10692,0.37421c-0.05346,0.10692 -0.16038,0.21383 -0.21383,0.26729c-0.16038,0.10692 -0.26729,0.10692 -0.26729,0.10692c0,0 0.10692,-0.10692 0.16038,-0.26729c0.05346,-0.10692 0.10692,-0.32075 0.10692,-0.48113c0.05346,-0.16038 0,-0.37421 0,-0.53458c0,-0.16038 0,-0.26729 0,-0.26729c0,0 0.10692,0.05346 0.16038,0.16038z" fill="#99918a"/><path d="M238.75021,151.88846c-0.05346,-0.05346 -0.16038,-0.10692 -0.21383,-0.21383c0,-0.05346 -0.05346,-0.10692 -0.05346,-0.16038c0,-0.05346 0,-0.10692 0,-0.16038c0,-0.26729 0.10692,-0.48113 0.21383,-0.58804c0.10692,-0.16038 0.21383,-0.21383 0.21383,-0.21383c0,0 0,0.10692 0,0.26729c-0.05346,0.16038 -0.05346,0.37421 -0.05346,0.53458c0,0.16038 0.05346,0.32075 0.10692,0.42767c0.10692,0.10692 0.16038,0.21383 0.16038,0.21383c0,0 -0.10692,0.05346 -0.37421,-0.10692z" fill="#99918a"/><path d="M241.2093,148.30675c-0.16038,0.10692 -0.32075,0.21383 -0.53458,0.32075c-0.21383,0.10692 -0.37421,0.26729 -0.53458,0.37421c-0.16038,0.10692 -0.26729,0.21383 -0.26729,0.21383c0,0 0,-0.16038 0.10692,-0.32075c0,-0.05346 0.05346,-0.16038 0.16038,-0.26729c0.10692,-0.10692 0.21383,-0.21383 0.32075,-0.26729c0.21383,-0.16038 0.48113,-0.21383 0.69496,-0.21383c0.21383,0 0.32075,0.05346 0.32075,0.05346c0,0 -0.10692,0.05346 -0.26729,0.10692z" fill="#99918a"/><path d="M241.90426,148.41366c-0.05346,0.10692 -0.16038,0.16038 -0.21383,0.21383c-0.10692,0.05346 -0.16038,0.05346 -0.26729,0.10692c-0.10692,0.05346 -0.16038,0.05346 -0.16038,0.05346c0,0 0,-0.05346 0,-0.16038c0.05346,-0.05346 0.10692,-0.21383 0.21383,-0.26729c0.10692,-0.10692 0.21383,-0.10692 0.32075,-0.10692c0.10692,0 0.16038,0.05346 0.16038,0.05346c0,0 -0.05346,0.05346 -0.05346,0.10692z" fill="#99918a"/><path d="M244.68409,148.09291c0.10692,0 0.26729,0.10692 0.42767,0.21383c0.16038,0.10692 0.21383,0.32075 0.26729,0.42767c0,0.10692 0,0.21383 0,0.21383c0,0 -0.05346,-0.05346 -0.16038,-0.10692c-0.10692,-0.10692 -0.21383,-0.16038 -0.32075,-0.26729c-0.10692,-0.05346 -0.21383,-0.16038 -0.32075,-0.26729c-0.10692,-0.10692 -0.16038,-0.16038 -0.16038,-0.16038c0,0 0.10692,0 0.26729,-0.05346z" fill="#99918a"/></g><g id="Shape"><path d="M242.27847,142.74708c0.53458,-0.05346 2.19179,0.32075 2.08488,3.47479c0,0 1.81758,1.9245 -0.58804,2.13833c-2.40563,0.21383 -3.52825,-0.6415 -2.72638,-1.283c0,0 -0.80188,-4.16975 1.22954,-4.33013z" fill="#c57761"/><path d="M243.56147,143.12128c0.16038,0.10692 0.26729,0.21383 0.37421,0.32075c0.10692,0.16038 0.16038,0.26729 0.26729,0.42767c0.10692,0.10692 0.16038,0.26729 0.21383,0.42767c0.10692,0.32075 0.16038,0.6415 0.21383,0.96225c0,0.16038 0,0.32075 0,0.48113l-0.05346,0.48113l-0.05346,-0.10692c0.26729,0.26729 0.48113,0.53458 0.6415,0.90879c0.05346,0.16038 0.10692,0.37421 0.05346,0.58804c0,0.21383 -0.16038,0.37421 -0.32075,0.48113c-0.32075,0.21383 -0.69496,0.32075 -1.06917,0.32075c-0.37421,0 -0.69496,0 -1.06917,-0.05346c0.37421,0 0.74842,-0.05346 1.06917,-0.10692c0.16038,0 0.32075,-0.05346 0.48113,-0.10692c0.16038,-0.05346 0.32075,-0.10692 0.42767,-0.21383c0.10692,-0.10692 0.21383,-0.21383 0.21383,-0.37421c0.05346,-0.10692 0,-0.26729 -0.05346,-0.42767c-0.16038,-0.26729 -0.37421,-0.58804 -0.58804,-0.80188l-0.05346,-0.05346v-0.05346v-0.48113c0,-0.16038 0,-0.32075 0,-0.48113c-0.05346,-0.32075 -0.05346,-0.6415 -0.16038,-0.90879c-0.05346,-0.16038 -0.10692,-0.26729 -0.16038,-0.42767c-0.05346,-0.16038 -0.10692,-0.32075 -0.21383,-0.42767c-0.16038,-0.21383 -0.37421,-0.48113 -0.6415,-0.6415c0.10692,0.05346 0.26729,0.16038 0.48113,0.26729z" fill="#a95947"/><path d="M243.1338,146.16841c0.21383,-0.05346 0.48113,-0.16038 0.74842,-0.16038c0.26729,0.05346 0.53458,0.16038 0.69496,0.32075c0.10692,0.16038 0.16038,0.26729 0.16038,0.26729c0,0 -0.05346,-0.05346 -0.10692,-0.05346c-0.05346,-0.05346 -0.10692,-0.05346 -0.21383,-0.10692c-0.05346,-0.05346 -0.16038,-0.10692 -0.26729,-0.10692c-0.10692,-0.05346 -0.21383,-0.05346 -0.32075,-0.05346c-0.21383,0 -0.42767,0.05346 -0.6415,0.05346c-0.16038,0 -0.32075,0 -0.32075,0c0,0 0.05346,-0.10692 0.26729,-0.16038z" fill="#a95947"/></g><path d="M245.21868,138.95153c-0.21383,0 -0.48113,0 -0.85533,0.05346c-0.37421,0.05346 -0.74842,0.10692 -1.17608,0.21383c-0.21383,0.05346 -0.42767,0.10692 -0.6415,0.21383c-0.21383,0.10692 -0.48113,0.16038 -0.74842,0.21383c-0.53458,0.05346 -1.01571,-0.05346 -1.44338,-0.10692c-0.48113,-0.10692 -0.85533,-0.16038 -1.22954,-0.16038c-0.37421,-0.05346 -0.6415,-0.05346 -0.85533,-0.05346c-0.21383,0 -0.32075,0 -0.32075,0c0,0 0.42767,-0.10692 1.17608,-0.16038c0.37421,0 0.80188,0 1.22954,0.05346c0.42767,0 0.90879,0.10692 1.33646,0.05346c0.21383,0 0.42767,-0.05346 0.6415,-0.16038c0.21383,-0.05346 0.48113,-0.16038 0.69496,-0.21383c0.42767,-0.10692 0.85533,-0.10692 1.22954,-0.10692c0.69496,0 1.17608,0.10692 1.17608,0.10692c0,0 -0.10692,0.05346 -0.21383,0.05346z" id="Shape" fill="#a95947"/><path d="M243.66838,138.25657c-0.21383,0.05346 -0.53458,0.10692 -0.85533,0.21383c-0.16038,0.05346 -0.32075,0.10692 -0.48113,0.16038c-0.16038,0.05346 -0.37421,0.10692 -0.53458,0.16038c-0.21383,0.05346 -0.37421,0.10692 -0.58804,0.10692c-0.16038,0 -0.37421,-0.05346 -0.53458,-0.10692c-0.16038,-0.05346 -0.32075,-0.10692 -0.48113,-0.16038c-0.16038,-0.05346 -0.32075,-0.10692 -0.42767,-0.10692c-0.26729,0 -0.48113,-0.05346 -0.6415,-0.05346c-0.16038,0 -0.26729,0 -0.26729,0c0,0 0.10692,0 0.26729,-0.05346c0.16038,0 0.37421,-0.05346 0.6415,-0.05346c0.26729,-0.05346 0.58804,0 0.90879,0.10692c0.16038,0.05346 0.32075,0.05346 0.48113,0.05346c0.16038,0 0.32075,0 0.48113,-0.05346c0.16038,-0.05346 0.32075,-0.10692 0.48113,-0.16038c0.21383,-0.05346 0.37421,-0.10692 0.53458,-0.16038c0.32075,-0.10692 0.6415,-0.16038 0.90879,-0.16038c0.53458,-0.05346 0.90879,0 0.90879,0c0,0 -0.37421,0.05346 -0.80188,0.26729z" id="Shape" fill="#a95947"/></g></g><g id="Shape"><g><path d="M230.25033,137.29432c-0.85533,-3.74209 0.6415,-13.47151 1.283,-15.39601c0.6415,-1.97796 0.6415,-3.52825 0.10692,-5.45275c-0.85533,-3.04713 0.10692,-6.415 0.10692,-6.415c0.48113,2.03142 4.33013,4.54396 5.66659,5.82696c1.33646,1.283 3.2075,6.78921 3.95592,8.01876c0.74842,1.22954 2.88675,2.29871 3.90246,3.74209c1.01571,1.49683 5.02509,8.33951 5.02509,8.33951c-10.85205,-2.45909 -20.04689,1.33646 -20.04689,1.33646z" fill="#264a6e"/><path d="M229.87612,136.75974c0,0 -0.05346,-0.69496 -0.05346,-1.71067c-0.05346,-1.01571 -0.05346,-2.35217 0.05346,-3.74209c0.05346,-0.6415 0.10692,-1.33646 0.16038,-1.97796c0.10692,-0.58804 0.16038,-1.22954 0.26729,-1.71067c0.10692,-0.53458 0.16038,-0.96225 0.26729,-1.22954c0.05346,-0.32075 0.10692,-0.48113 0.10692,-0.48113c0,0 0,0.16038 -0.05346,0.48113c-0.05346,0.32075 -0.10692,0.74842 -0.16038,1.22954c-0.05346,1.01571 -0.16038,2.40563 -0.21383,3.74209c-0.05346,1.33646 -0.05346,2.72638 -0.05346,3.74209c0.05346,1.01571 0.05346,1.71067 0.05346,1.71067z" fill="#1a324a"/><path d="M242.86651,125.42656c-0.32075,-0.21383 -0.74842,-0.53458 -1.17608,-0.85533c-0.42767,-0.37421 -0.80188,-0.69496 -1.06917,-1.01571c-0.26729,-0.32075 -0.42767,-0.53458 -0.42767,-0.53458c0,0 0.21383,0.16038 0.53458,0.37421c0.32075,0.26729 0.69496,0.58804 1.12263,0.90879c0.37421,0.32075 0.80188,0.69496 1.06917,0.96225c0.32075,0.26729 0.48113,0.48113 0.48113,0.48113c0,0 -0.26729,-0.10692 -0.53458,-0.32075z" fill="#1a324a"/><path d="M232.28175,120.29456c-0.10692,0.37421 -0.26729,0.90879 -0.42767,1.38992c-0.16038,0.53458 -0.37421,1.01571 -0.48113,1.38992c-0.05346,0.21383 -0.16038,0.37421 -0.16038,0.48113c-0.05346,0.10692 -0.05346,0.16038 -0.05346,0.16038c0,0 -0.05346,-0.26729 0,-0.69496c0,-0.42767 0.16038,-0.90879 0.32075,-1.44338c0.16038,-0.48113 0.37421,-0.96225 0.58804,-1.33646c0.21383,-0.37421 0.37421,-0.58804 0.37421,-0.58804c0,0 -0.05346,0.26729 -0.16038,0.6415z" fill="#1a324a"/></g><g><path d="M262.21844,139.27228c-2.99367,-1.283 -17.74818,-3.31442 -26.62227,-1.97796c-8.87409,1.33646 -15.55639,4.27667 -19.03118,5.7735c0,0 15.77022,-7.21688 16.89285,-7.80492c1.12263,-0.53458 4.38359,-3.04713 14.54068,-0.53458c10.15709,2.51254 14.21993,4.54396 14.21993,4.54396z" fill="#264a6e"/><path d="M236.82571,135.20944c-0.32075,0.05346 -0.74842,0.16038 -1.283,0.26729c-1.01571,0.26729 -2.40563,0.6415 -3.79554,1.06917c-0.69496,0.21383 -1.33646,0.48113 -1.97796,0.69496c-0.32075,0.16038 -0.6415,0.26729 -0.90879,0.37421c-0.26729,0.10692 -0.53458,0.21383 -0.80188,0.32075c-0.26729,0.10692 -0.48113,0.16038 -0.69496,0.26729c-0.21383,0.05346 -0.37421,0.16038 -0.53458,0.21383c-0.32075,0.16038 -0.48113,0.21383 -0.48113,0.21383c0,0 0.16038,-0.10692 0.42767,-0.26729c0.32075,-0.16038 0.69496,-0.42767 1.17608,-0.6415c0.53458,-0.26729 1.06917,-0.53458 1.71067,-0.80188c0.58804,-0.26729 1.283,-0.53458 1.97796,-0.74842c0.32075,-0.10692 0.69496,-0.21383 1.01571,-0.32075c0.32075,-0.10692 0.69496,-0.21383 1.01571,-0.26729c0.6415,-0.16038 1.283,-0.21383 1.81758,-0.32075c1.06917,-0.16038 1.81758,-0.16038 1.81758,-0.16038c0,0 -0.16038,0 -0.48113,0.10692z" fill="#1a324a"/><path d="M250.93872,135.5302c-0.42767,-0.10692 -0.96225,-0.21383 -1.49683,-0.32075c-0.53458,-0.10692 -1.12263,-0.21383 -1.71067,-0.26729c-0.58804,-0.10692 -1.17608,-0.16038 -1.71067,-0.21383c-0.53458,-0.05346 -1.06917,-0.10692 -1.49683,-0.10692c-0.42767,-0.05346 -0.80188,-0.05346 -1.06917,-0.05346c-0.26729,0 -0.42767,0 -0.42767,0c0,0 0.16038,0 0.42767,-0.05346c0.26729,-0.05346 0.6415,-0.10692 1.06917,-0.10692c0.21383,0 0.42767,0 0.69496,0c0.26729,0 0.53458,0 0.80188,0c0.58804,0.05346 1.17608,0.10692 1.76413,0.16038c0.58804,0.10692 1.17608,0.21383 1.71067,0.32075c0.53458,0.16038 1.01571,0.26729 1.44338,0.42767c0.85533,0.26729 1.38992,0.53458 1.38992,0.53458c0,0 -0.53458,-0.16038 -1.38992,-0.32075z" fill="#1a324a"/></g></g></g></g></g></svg>