<svg width="164" height="138" viewBox="0 0 164 138" fill="none" xmlns="http://www.w3.org/2000/svg">
<mask id="path-1-inside-1" fill="white">
<path d="M6.26536 99.2245C2.95823 96.0316 1.30466 94.4351 0.762033 93.3142C0.746421 93.2819 0.733996 93.2558 0.718848 93.2233C0.192392 92.0947 0.149423 91.5864 0.0634854 90.5698C0.0256153 90.1218 0.00654979 89.6922 0.003613 89.3077C0.00280768 89.2022 0.00240502 89.1495 0.00234146 89.1428C0.00233466 89.1421 0.00234311 89.143 0.00233625 89.1423C0.00227217 89.1356 0.00212474 89.1228 0.00182986 89.0972C0.000163929 88.9527 -0.00183182 88.7044 0.00321482 88.6454C0.284008 85.3645 3.81263 83.1555 9.70128 78.3326L101.796 2.90712C103.803 1.26305 104.807 0.441017 106.021 0.136488C106.053 0.128337 106.086 0.120477 106.118 0.11291C107.337 -0.169767 108.606 0.103734 111.145 0.650736L155.076 10.1185C155.17 10.14 155.217 10.1507 155.25 10.1582C163.689 12.1365 166.753 22.5397 160.729 28.7622C160.706 28.786 160.672 28.8204 160.604 28.8891L61.2655 130.279C56.2974 135.349 53.8134 137.884 50.6871 137.995C50.6062 137.998 50.5252 138 50.4442 138C47.316 138.014 44.7328 135.579 39.5665 130.71L10.5561 103.367L6.26536 99.2245Z"/>
<path d="M6.13196 91.0976C3.47834 88.7273 2.15154 87.5421 2.15824 86.0377C2.15841 85.9993 2.15925 85.9608 2.16075 85.9224C2.21944 84.4191 3.59651 83.2925 6.35065 81.0394L101.849 2.91284C103.862 1.26612 104.868 0.442755 106.085 0.139339C106.118 0.131218 106.15 0.12339 106.183 0.115856C107.405 -0.165609 108.676 0.11155 111.219 0.665869L147.561 8.58885C156.203 10.4727 160.523 11.4147 161.497 14.4938C161.521 14.5697 161.544 14.6462 161.564 14.7231C162.405 17.841 159.273 20.9576 153.01 27.191L56.8466 123.053C53.3799 126.502 51.8894 127.819 49.7192 127.91C49.6629 127.912 49.6065 127.914 49.5502 127.914C47.3782 127.94 45.5543 126.311 41.9064 123.053L6.13196 91.0976Z"/>
</mask>
<path d="M155.076 10.1185L155.143 9.82603L155.14 9.82527L155.076 10.1185ZM10.5561 103.367L10.3477 103.583L10.3503 103.585L10.5561 103.367ZM61.2655 130.279L61.4798 130.488L61.2655 130.279ZM50.6871 137.995L50.6765 137.695L50.6871 137.995ZM39.5665 130.71L39.7723 130.491L39.5665 130.71ZM50.4442 138L50.4455 138.3L50.4442 138ZM160.604 28.8891L160.819 29.0991L160.604 28.8891ZM160.729 28.7622L160.513 28.5535L160.729 28.7622ZM155.25 10.1582L155.318 9.86616L155.25 10.1582ZM101.796 2.90712L101.605 2.67502L101.796 2.90712ZM106.021 0.136488L106.094 0.427471L106.021 0.136488ZM111.145 0.650736L111.081 0.944003L111.145 0.650736ZM106.118 0.11291L106.05 -0.179337L106.118 0.11291ZM9.70128 78.3326L9.89137 78.5647L9.70128 78.3326ZM0.00321482 88.6454L-0.295693 88.6199L0.00321482 88.6454ZM56.8466 123.053L57.0582 123.265L57.0584 123.265L56.8466 123.053ZM49.7192 127.91L49.7318 128.21L49.7192 127.91ZM41.9064 123.053L41.7066 123.276L41.9064 123.053ZM49.5502 127.914L49.5466 127.615L49.5502 127.914ZM147.561 8.58885L147.497 8.88196L147.561 8.58885ZM161.497 14.4938L161.211 14.5842L161.497 14.4938ZM153.01 27.191L152.798 26.9783L152.798 26.9785L153.01 27.191ZM161.564 14.7231L161.275 14.8012L161.564 14.7231ZM101.849 2.91284L102.039 3.14504L101.849 2.91284ZM106.085 0.139339L106.158 0.430427L106.085 0.139339ZM111.219 0.665869L111.283 0.372753L111.219 0.665869ZM106.183 0.115856L106.116 -0.176492L106.183 0.115856ZM6.35065 81.0394L6.54061 81.2716L6.35065 81.0394ZM2.16075 85.9224L2.46052 85.9341L2.16075 85.9224ZM6.13196 91.0976L5.93211 91.3213L6.13196 91.0976ZM2.15824 86.0377L1.85824 86.0364L2.15824 86.0377ZM0.00234146 89.1428L0.302328 89.14L0.00234146 89.1428ZM0.00182986 89.0972L0.30181 89.0938L0.00182986 89.0972ZM0.00233625 89.1423L0.302322 89.1394L0.00233625 89.1423ZM0.762033 93.3142L1.03206 93.1835L0.762033 93.3142ZM0.0634854 90.5698L-0.235448 90.5951L0.0634854 90.5698ZM0.718848 93.2233L0.990724 93.0965L0.718848 93.2233ZM9.89137 78.5647L101.986 3.13921L101.605 2.67502L9.5112 78.1005L9.89137 78.5647ZM160.39 28.6792L61.0512 130.069L61.4798 130.488L160.819 29.0991L160.39 28.6792ZM111.081 0.944003L155.013 10.4118L155.14 9.82527L111.208 0.357469L111.081 0.944003ZM39.7723 130.491L10.7618 103.149L10.3503 103.585L39.3607 130.928L39.7723 130.491ZM10.7645 103.151L6.47374 99.0087L6.05699 99.4403L10.3477 103.583L10.7645 103.151ZM61.0512 130.069C58.5614 132.61 56.7142 134.494 55.1004 135.761C53.4932 137.022 52.1509 137.643 50.6765 137.695L50.6977 138.295C52.3495 138.236 53.8124 137.534 55.4708 136.233C57.1227 134.936 59.0015 133.018 61.4798 130.488L61.0512 130.069ZM39.3607 130.928C41.9379 133.357 43.8917 135.199 45.594 136.429C47.303 137.664 48.7927 138.307 50.4455 138.3L50.4429 137.7C48.9675 137.706 47.6016 137.139 45.9453 135.943C44.2823 134.741 42.3614 132.932 39.7723 130.491L39.3607 130.928ZM50.6765 137.695C50.5986 137.698 50.5208 137.7 50.4429 137.7L50.4455 138.3C50.5296 138.3 50.6137 138.298 50.6977 138.295L50.6765 137.695ZM160.819 29.0991C160.886 29.0307 160.92 28.9954 160.944 28.9709L160.513 28.5535C160.491 28.5765 160.458 28.61 160.39 28.6792L160.819 29.0991ZM155.01 10.411C155.104 10.4326 155.15 10.443 155.181 10.4503L155.318 9.86616C155.285 9.85835 155.237 9.84737 155.143 9.82605L155.01 10.411ZM160.944 28.9709C167.131 22.5805 163.984 11.8974 155.318 9.86616L155.181 10.4503C163.395 12.3755 166.375 22.4988 160.513 28.5535L160.944 28.9709ZM101.986 3.13921C104.015 1.47723 104.96 0.711831 106.094 0.427471L105.948 -0.154494C104.653 0.170204 103.591 1.04887 101.605 2.67502L101.986 3.13921ZM111.208 0.357469C108.697 -0.183576 107.35 -0.480724 106.05 -0.179337L106.186 0.405157C107.324 0.14119 108.516 0.391044 111.081 0.944003L111.208 0.357469ZM106.094 0.427471C106.124 0.419758 106.155 0.41232 106.186 0.405157L106.05 -0.179337C106.016 -0.171366 105.982 -0.163085 105.948 -0.154494L106.094 0.427471ZM9.5112 78.1005C6.58347 80.4984 4.20654 82.2746 2.54305 83.8494C0.874175 85.4293 -0.145674 86.867 -0.295693 88.6199L0.302122 88.671C0.432897 87.143 1.31776 85.8356 2.95555 84.2851C4.59874 82.7295 6.93044 80.9897 9.89137 78.5647L9.5112 78.1005ZM0.362419 90.5445C0.325173 90.1039 0.306481 89.682 0.303604 89.3054L-0.296378 89.31C-0.293381 89.7024 -0.273943 90.1397 -0.235448 90.5951L0.362419 90.5445ZM-0.295693 88.6199C-0.302353 88.6977 -0.299685 88.9675 -0.29815 89.1007L0.30181 89.0938C0.300981 89.0219 0.30008 88.9249 0.300005 88.839C0.299967 88.7959 0.300139 88.7566 0.300603 88.725C0.300835 88.7092 0.30113 88.6961 0.30147 88.6859C0.301845 88.6747 0.302164 88.6705 0.302122 88.671L-0.295693 88.6199ZM6.54061 81.2716L102.039 3.14504L101.659 2.68064L6.16069 80.8072L6.54061 81.2716ZM111.155 0.958984L147.497 8.88196L147.625 8.29573L111.283 0.372753L111.155 0.958984ZM152.798 26.9785L56.6348 122.84L57.0584 123.265L153.221 27.4035L152.798 26.9785ZM42.1063 122.829L6.33181 90.8739L5.93211 91.3213L41.7066 123.276L42.1063 122.829ZM56.635 122.84C54.8977 124.569 53.6759 125.742 52.622 126.497C51.5807 127.243 50.7207 127.568 49.7066 127.61L49.7318 128.21C50.8879 128.161 51.8583 127.782 52.9714 126.985C54.0721 126.196 55.3288 124.986 57.0582 123.265L56.635 122.84ZM41.7066 123.276C43.5245 124.9 44.909 126.138 46.1121 126.962C47.3221 127.792 48.3818 128.228 49.5537 128.214L49.5466 127.615C48.5466 127.626 47.6083 127.261 46.4514 126.468C45.2876 125.67 43.9362 124.463 42.1063 122.829L41.7066 123.276ZM49.7066 127.61C49.6533 127.612 49.6 127.614 49.5466 127.615L49.5537 128.214C49.6131 128.214 49.6725 128.212 49.7318 128.21L49.7066 127.61ZM147.497 8.88196C151.828 9.82603 155.042 10.5276 157.299 11.374C159.555 12.2202 160.767 13.1798 161.211 14.5842L161.783 14.4033C161.253 12.7287 159.818 11.6777 157.51 10.8122C155.202 9.94687 151.936 9.23556 147.625 8.29573L147.497 8.88196ZM153.221 27.4036C156.346 24.294 158.714 21.9384 160.191 19.9687C161.669 17.9986 162.311 16.3408 161.854 14.6449L161.275 14.8012C161.658 16.2232 161.156 17.6828 159.711 19.6088C158.267 21.5352 155.937 23.8546 152.798 26.9783L153.221 27.4036ZM161.211 14.5842C161.234 14.6561 161.255 14.7285 161.275 14.8012L161.854 14.6449C161.832 14.5639 161.809 14.4833 161.783 14.4033L161.211 14.5842ZM102.039 3.14504C104.074 1.48037 105.021 0.713746 106.158 0.430427L106.012 -0.151749C104.715 0.171763 103.65 1.05187 101.659 2.68064L102.039 3.14504ZM111.283 0.372753C108.768 -0.175526 107.419 -0.476586 106.116 -0.176492L106.25 0.408203C107.391 0.145369 108.585 0.398627 111.155 0.958984L111.283 0.372753ZM106.158 0.430427C106.188 0.42274 106.219 0.415332 106.25 0.408203L106.116 -0.176492C106.081 -0.168553 106.047 -0.160305 106.012 -0.151749L106.158 0.430427ZM6.16069 80.8072C4.79054 81.9281 3.73816 82.7882 3.02483 83.5582C2.30606 84.3341 1.8943 85.0571 1.86098 85.9107L2.46052 85.9341C2.48589 85.2844 2.79201 84.6924 3.46499 83.966C4.1434 83.2336 5.15663 82.4038 6.54061 81.2716L6.16069 80.8072ZM6.33181 90.8739C4.99834 89.6828 4.02214 88.8099 3.3762 88.0488C2.73544 87.2939 2.45534 86.6892 2.45824 86.0391L1.85824 86.0364C1.85444 86.8906 2.23439 87.6308 2.91876 88.4371C3.59796 89.2373 4.61196 90.1421 5.93211 91.3213L6.33181 90.8739ZM1.86098 85.9107C1.85934 85.9526 1.85843 85.9945 1.85824 86.0364L2.45824 86.0391C2.45839 86.0041 2.45916 85.9691 2.46052 85.9341L1.86098 85.9107ZM0.303604 89.3054C0.302801 89.2003 0.302395 89.147 0.302328 89.14L-0.297645 89.1457C-0.297585 89.152 -0.297186 89.2042 -0.296378 89.31L0.303604 89.3054ZM-0.29815 89.1007C-0.297853 89.1265 -0.29771 89.1389 -0.29765 89.1452L0.302322 89.1394C0.302255 89.1324 0.302102 89.1192 0.30181 89.0938L-0.29815 89.1007ZM0.302328 89.14C0.302327 89.1399 0.302326 89.1398 0.302326 89.1398C0.302326 89.1398 0.302326 89.1397 0.302326 89.1397C0.302325 89.1397 0.302325 89.1397 0.302325 89.1397H0.302325C0.302325 89.1397 0.302325 89.1397 0.302325 89.1397C0.302325 89.1397 0.302325 89.1397 0.302326 89.1397C0.302326 89.1397 0.302326 89.1398 0.302326 89.1398C0.302326 89.1398 0.302326 89.1398 0.302326 89.1398C0.302327 89.1398 0.302327 89.1399 0.302328 89.14C0.302328 89.14 0.302328 89.1401 0.302329 89.1402C0.30233 89.1402 0.302331 89.1404 0.302332 89.1405C0.302333 89.1407 0.302336 89.1413 0.302337 89.1417C0.302328 89.1451 0.00275164 89.4425 -0.297586 89.1493C-0.29761 89.1481 -0.297633 89.1467 -0.297637 89.1464C-0.297638 89.1463 -0.297641 89.146 -0.297642 89.146C-0.297642 89.1459 -0.297643 89.1458 -0.297644 89.1458C-0.297645 89.1457 -0.297646 89.1456 -0.297646 89.1456C-0.297646 89.1456 -0.297646 89.1455 -0.297647 89.1455C-0.297647 89.1455 -0.297647 89.1455 -0.297647 89.1455C-0.297647 89.1454 -0.297648 89.1454 -0.297647 89.1454C-0.297647 89.1455 -0.297647 89.1454 -0.297648 89.1454C-0.297648 89.1454 -0.297648 89.1454 -0.297648 89.1454C-0.297648 89.1453 -0.297648 89.1453 -0.297649 89.1453C-0.297649 89.1453 -0.29765 89.1452 -0.297651 89.1451C-0.297651 89.145 -0.297652 89.145 -0.297652 89.1449C-0.297653 89.1448 -0.297654 89.1446 -0.297655 89.1445C-0.297657 89.1442 -0.297661 89.1428 -0.297659 89.1416C-0.00299545 88.8426 0.302225 89.1343 0.302299 89.1377C0.302306 89.1381 0.302314 89.1387 0.302316 89.1389C0.302318 89.139 0.302319 89.1392 0.30232 89.1392C0.302321 89.1393 0.302322 89.1394 0.302322 89.1394C0.302323 89.1395 0.302324 89.1395 0.302324 89.1396C0.302324 89.1396 0.302324 89.1396 0.302324 89.1396C0.302324 89.1396 0.302325 89.1396 0.302325 89.1396C0.302325 89.1396 0.302325 89.1397 0.302325 89.1397C0.302325 89.1397 0.302325 89.1397 0.302325 89.1397C0.302325 89.1397 0.302325 89.1397 0.302325 89.1397C0.302325 89.1397 0.302325 89.1397 0.302325 89.1397H0.302325C0.302325 89.1397 0.302325 89.1397 0.302325 89.1396C0.302325 89.1396 0.302324 89.1396 0.302324 89.1396C0.302324 89.1396 0.302323 89.1395 0.302322 89.1394L-0.29765 89.1452C-0.297648 89.1454 -0.297647 89.1454 -0.297647 89.1455C-0.297647 89.1455 -0.297647 89.1455 -0.297647 89.1455C-0.297647 89.1455 -0.297646 89.1455 -0.297646 89.1456C-0.297646 89.1456 -0.297646 89.1456 -0.297646 89.1456C-0.297645 89.1456 -0.297645 89.1457 -0.297644 89.1458C-0.297644 89.1458 -0.297643 89.1459 -0.297642 89.146C-0.297641 89.146 -0.297639 89.1462 -0.297638 89.1463C-0.297636 89.1465 -0.297627 89.1471 -0.297621 89.1475C-0.297547 89.1509 0.00767373 89.4425 0.302338 89.1436C0.302339 89.1424 0.302335 89.141 0.302333 89.1407C0.302332 89.1406 0.302331 89.1404 0.30233 89.1403C0.30233 89.1402 0.302329 89.1401 0.302329 89.1401C0.302328 89.14 0.302327 89.1399 0.302327 89.1399C0.302327 89.1399 0.302327 89.1398 0.302326 89.1398C0.302326 89.1398 0.302326 89.1398 0.302326 89.1398C0.302326 89.1397 0.302325 89.1397 0.302325 89.1397C0.302325 89.1397 0.302325 89.1396 0.302324 89.1396C0.302324 89.1396 0.302324 89.1396 0.302324 89.1396C0.302324 89.1395 0.302323 89.1395 0.302323 89.1395C0.302323 89.1395 0.302322 89.1394 0.302321 89.1393C0.30232 89.1392 0.30232 89.1392 0.302319 89.1391C0.302318 89.139 0.302316 89.1388 0.302314 89.1387C0.30231 89.1384 0.302287 89.137 0.302263 89.1358C0.00192559 88.8425 -0.297651 89.14 -0.29766 89.1434C-0.297659 89.1438 -0.297655 89.1444 -0.297654 89.1446C-0.297654 89.1447 -0.297653 89.1448 -0.297652 89.1449C-0.297651 89.145 -0.297651 89.1451 -0.29765 89.1451C-0.29765 89.1452 -0.297649 89.1452 -0.297649 89.1452C-0.297649 89.1453 -0.297649 89.1453 -0.297649 89.1453C-0.297648 89.1453 -0.297648 89.1454 -0.297648 89.1454C-0.297648 89.1454 -0.297648 89.1454 -0.297648 89.1454C-0.297647 89.1454 -0.297647 89.1455 -0.297645 89.1457L0.302328 89.14ZM6.47374 99.0087C4.81819 97.4103 3.58342 96.2181 2.69414 95.2853C1.79955 94.347 1.28084 93.6974 1.03206 93.1835L0.492008 93.4449C0.785846 94.0519 1.36524 94.761 2.25987 95.6994C3.15982 96.6433 4.4054 97.8458 6.05699 99.4403L6.47374 99.0087ZM-0.235448 90.5951C-0.192825 91.0993 -0.15934 91.501 -0.0669681 91.9193C0.0263572 92.3418 0.177437 92.7723 0.446973 93.3501L0.990724 93.0965C0.733803 92.5457 0.60017 92.1578 0.518912 91.7899C0.436701 91.4176 0.405734 91.0569 0.362419 90.5445L-0.235448 90.5951ZM1.03206 93.1835C1.01707 93.1525 1.00526 93.1277 0.990724 93.0965L0.446973 93.3501C0.462728 93.3839 0.475769 93.4114 0.492008 93.4449L1.03206 93.1835Z" fill="white" mask="url(#path-1-inside-1)"/>
</svg>
