<svg width="65" height="13" viewBox="0 0 65 13" fill="none" xmlns="http://www.w3.org/2000/svg">
<path d="M4.21542 6.1419C4.21542 5.99067 4.26141 5.86272 4.35338 5.75803C4.44535 5.65334 4.56287 5.601 4.70594 5.601C4.83879 5.601 4.9512 5.65334 5.04317 5.75803C5.13514 5.86272 5.18112 5.99067 5.18112 6.1419C5.18112 6.29312 5.13514 6.42108 5.04317 6.52576C4.9512 6.63046 4.83879 6.6828 4.70594 6.6828C4.56287 6.6828 4.44535 6.63046 4.35338 6.52576C4.26141 6.42108 4.21542 6.29312 4.21542 6.1419ZM9.2126 2.93137C9.33523 3.0128 9.39654 3.13494 9.39654 3.29779V8.96856C9.39654 9.14305 9.33523 9.27101 9.2126 9.35243L4.88989 12.1965C4.82857 12.2314 4.76725 12.2489 4.70594 12.2489C4.6344 12.2489 4.56798 12.2314 4.50667 12.1965L0.19927 9.35243C0.0664205 9.28264 0 9.15468 0 8.96856V3.29779C0 3.13494 0.0664205 3.0128 0.19927 2.93137L4.50667 0.0872555C4.6293 0.0174643 4.75704 0.0174643 4.88989 0.0872555L9.2126 2.93137ZM8.6301 3.55952L4.70594 0.977134L0.766439 3.55952V8.72428L4.70594 11.3067L8.6301 8.72428V3.55952Z" fill="#C4D41D"/>
<path d="M23.6704 8.8464V8.86385V8.89874C23.6602 8.91037 23.6551 8.92782 23.6551 8.95108C23.6551 8.96272 23.6499 8.97436 23.6397 8.98599V9.03833C23.6397 9.03833 23.6295 9.04996 23.6091 9.07322C23.6091 9.07322 23.604 9.08486 23.5937 9.10813C23.5937 9.10813 23.5835 9.11975 23.5631 9.14302C23.5631 9.14302 23.558 9.15466 23.5478 9.17792C23.5375 9.17792 23.5324 9.18373 23.5324 9.19536C23.5324 9.19536 23.5273 9.19536 23.5171 9.19536C23.4967 9.21863 23.4864 9.23027 23.4864 9.23027H23.4711L18.9951 12.1791C18.9747 12.1907 18.9593 12.1965 18.9491 12.1965C18.9491 12.1965 18.9389 12.2023 18.9185 12.214C18.8878 12.2256 18.8469 12.2314 18.7958 12.2314C18.7447 12.2314 18.7039 12.2256 18.6732 12.214C18.6528 12.2023 18.6374 12.1965 18.6272 12.1965C18.6272 12.1965 18.617 12.1907 18.5965 12.1791L14.1205 9.23027C14.1103 9.21863 14.1001 9.21281 14.0899 9.21281C14.0899 9.21281 14.0848 9.20699 14.0746 9.19536C14.0746 9.19536 14.0643 9.18956 14.0439 9.17792C14.0439 9.16629 14.0388 9.15465 14.0286 9.14302L13.9979 9.10813C13.9979 9.09649 13.9928 9.08486 13.9826 9.07322C13.9724 9.06159 13.9673 9.04996 13.9673 9.03833C13.957 9.0267 13.9519 9.00925 13.9519 8.98599C13.9519 8.97436 13.9468 8.96854 13.9366 8.96854C13.9366 8.96854 13.9366 8.96272 13.9366 8.95108V8.89874C13.9366 8.89874 13.9315 8.88711 13.9213 8.86385V8.8464V2.96624C13.9213 2.83828 13.957 2.73359 14.0286 2.65216C14.1103 2.55911 14.2074 2.51257 14.3198 2.51257C14.4322 2.51257 14.5242 2.55911 14.5957 2.65216C14.6775 2.73359 14.7184 2.83828 14.7184 2.96624V8.58467L18.7958 11.2543L22.8733 8.58467V2.96624C22.8733 2.83828 22.909 2.73359 22.9806 2.65216C23.0623 2.55911 23.1594 2.51257 23.2718 2.51257C23.3842 2.51257 23.4762 2.55911 23.5478 2.65216C23.6295 2.73359 23.6704 2.83828 23.6704 2.96624V8.8464Z" fill="#C4D41D"/>
<path d="M33.2842 11.7429C33.2842 11.8941 33.2382 12.022 33.1463 12.1267C33.0543 12.2314 32.9419 12.2838 32.809 12.2838C32.6762 12.2838 32.5638 12.2314 32.4718 12.1267C32.3798 12.022 32.3338 11.8941 32.3338 11.7429C32.3338 11.5916 32.3798 11.4637 32.4718 11.359C32.5638 11.2543 32.6762 11.202 32.809 11.202C32.9419 11.202 33.0543 11.2543 33.1463 11.359C33.2382 11.4637 33.2842 11.5916 33.2842 11.7429ZM28.5783 9.3873C28.4659 9.3873 28.3739 9.34659 28.3024 9.26516C28.2308 9.18374 28.1951 9.08487 28.1951 8.96854V3.38501C28.1951 3.23379 28.2615 3.11165 28.3943 3.01859C28.517 2.93716 28.6396 2.93716 28.7622 3.01859L36.6719 8.21826V3.38501C36.6719 3.26868 36.7077 3.16981 36.7792 3.08839C36.8507 3.00696 36.9427 2.96625 37.0551 2.96625C37.1573 2.96625 37.2442 3.00696 37.3157 3.08839C37.3872 3.16981 37.423 3.26868 37.423 3.38501V8.96854C37.423 9.10813 37.3617 9.23027 37.2391 9.33496C37.1062 9.40475 36.9785 9.40475 36.8558 9.33496L28.9462 4.13531V8.96854C28.9462 9.08487 28.9104 9.18374 28.8389 9.26516C28.7673 9.34659 28.6805 9.3873 28.5783 9.3873Z" fill="#C4D41D"/>
<path d="M47.0367 11.7429C47.0367 11.8941 46.9907 12.022 46.8987 12.1267C46.8067 12.2314 46.6943 12.2838 46.5615 12.2838C46.4286 12.2838 46.3162 12.2314 46.2242 12.1267C46.1323 12.022 46.0863 11.8941 46.0863 11.7429C46.0863 11.5916 46.1323 11.4637 46.2242 11.359C46.3162 11.2543 46.4286 11.202 46.5615 11.202C46.6943 11.202 46.8067 11.2543 46.8987 11.359C46.9907 11.4637 47.0367 11.5916 47.0367 11.7429ZM42.3307 9.3873C42.2183 9.3873 42.1263 9.34659 42.0548 9.26516C41.9833 9.18374 41.9475 9.08487 41.9475 8.96854V3.38501C41.9475 3.23379 42.0139 3.11165 42.1468 3.01859C42.2694 2.93716 42.392 2.93716 42.5147 3.01859L50.4243 8.21826V3.38501C50.4243 3.26868 50.4601 3.16981 50.5316 3.08839C50.6032 3.00696 50.6951 2.96625 50.8076 2.96625C50.9097 2.96625 50.9966 3.00696 51.0681 3.08839C51.1397 3.16981 51.1754 3.26868 51.1754 3.38501V8.96854C51.1754 9.10813 51.1141 9.23027 50.9915 9.33496C50.8586 9.40475 50.7309 9.40475 50.6083 9.33496L42.6986 4.13531V8.96854C42.6986 9.08487 42.6629 9.18374 42.5913 9.26516C42.5198 9.34659 42.4329 9.3873 42.3307 9.3873Z" fill="#C4D41D"/>
<path d="M60.3535 1.08181C60.2206 1.08181 60.1082 1.02946 60.0162 0.92477C59.9242 0.820078 59.8783 0.69212 59.8783 0.5409C59.8783 0.389682 59.9242 0.261724 60.0162 0.15703C60.1082 0.0523392 60.2206 0 60.3535 0C60.4863 0 60.5987 0.0523392 60.6907 0.15703C60.7827 0.261724 60.8286 0.389682 60.8286 0.5409C60.8286 0.69212 60.7827 0.820078 60.6907 0.92477C60.5987 1.02946 60.4863 1.08181 60.3535 1.08181ZM64.9521 3.14073C65.0032 3.24542 65.0134 3.35593 64.9827 3.47225C64.9623 3.58858 64.9061 3.67582 64.8141 3.73398L60.7367 6.4036V11.7778C60.7367 11.9057 60.7009 12.0104 60.6294 12.0918C60.5578 12.1733 60.4659 12.214 60.3535 12.214C60.241 12.214 60.1491 12.1733 60.0775 12.0918C60.006 12.0104 59.9702 11.9057 59.9702 11.7778V6.4036L55.8928 3.73398C55.8008 3.67582 55.7395 3.58858 55.7088 3.47225C55.6884 3.35593 55.7037 3.24542 55.7548 3.14073C55.8059 3.03604 55.8826 2.97206 55.9848 2.94879C56.0869 2.91389 56.1789 2.92553 56.2607 2.9837L60.3535 5.65332L64.4309 2.9837C64.5229 2.92553 64.62 2.91389 64.7222 2.94879C64.8243 2.97206 64.901 3.03604 64.9521 3.14073Z" fill="#C4D41D"/>
</svg>
