<svg width="115" height="22" viewBox="0 0 115 22" fill="none" xmlns="http://www.w3.org/2000/svg">
<path d="M7.45323 10.8595C7.45323 10.5921 7.53455 10.3658 7.69716 10.1807C7.85978 9.99564 8.06755 9.90309 8.32051 9.90309C8.5554 9.90309 8.75416 9.99564 8.91677 10.1807C9.07939 10.3658 9.16069 10.5921 9.16069 10.8595C9.16069 11.1268 9.07939 11.3531 8.91677 11.5382C8.75416 11.7233 8.5554 11.8158 8.32051 11.8158C8.06755 11.8158 7.85978 11.7233 7.69716 11.5382C7.53455 11.3531 7.45323 11.1268 7.45323 10.8595ZM16.2887 5.18297C16.5055 5.32693 16.6139 5.54289 16.6139 5.83082V15.8572C16.6139 16.1658 16.5055 16.392 16.2887 16.536L8.64575 21.5646C8.53734 21.6263 8.42892 21.6571 8.32051 21.6571C8.19403 21.6571 8.07659 21.6263 7.96818 21.5646L0.352327 16.536C0.117437 16.4126 0 16.1863 0 15.8572V5.83082C0 5.54289 0.117437 5.32693 0.352327 5.18297L7.96818 0.154315C8.185 0.0309183 8.41086 0.0309183 8.64575 0.154315L16.2887 5.18297ZM15.2588 6.29359L8.32051 1.7277L1.35513 6.29359V15.4253L8.32051 19.9912L15.2588 15.4253V6.29359Z" fill="#C4D41D"/>
<path d="M41.8513 15.6413V15.6721V15.7338C41.8332 15.7544 41.8242 15.7852 41.8242 15.8264C41.8242 15.8469 41.8152 15.8675 41.7971 15.8881V15.9806C41.7971 15.9806 41.779 16.0012 41.7429 16.0423C41.7429 16.0423 41.7339 16.0629 41.7158 16.104C41.7158 16.104 41.6977 16.1246 41.6616 16.1657C41.6616 16.1657 41.6526 16.1863 41.6345 16.2274C41.6164 16.2274 41.6074 16.2377 41.6074 16.2583C41.6074 16.2583 41.5983 16.2583 41.5803 16.2583C41.5441 16.2994 41.5261 16.32 41.5261 16.32H41.499L33.585 21.5337C33.5489 21.5543 33.5218 21.5646 33.5037 21.5646C33.5037 21.5646 33.4856 21.5748 33.4495 21.5954C33.3953 21.616 33.323 21.6262 33.2327 21.6262C33.1423 21.6262 33.0701 21.616 33.0159 21.5954C32.9797 21.5748 32.9526 21.5646 32.9345 21.5646C32.9345 21.5646 32.9165 21.5543 32.8803 21.5337L24.9664 16.32C24.9483 16.2994 24.9302 16.2891 24.9121 16.2891C24.9121 16.2891 24.9031 16.2788 24.8851 16.2583C24.8851 16.2583 24.867 16.248 24.8308 16.2274C24.8308 16.2069 24.8218 16.1863 24.8038 16.1657L24.7495 16.104C24.7495 16.0835 24.7405 16.0629 24.7224 16.0423C24.7044 16.0217 24.6953 16.0012 24.6953 15.9806C24.6773 15.9601 24.6682 15.9292 24.6682 15.8881C24.6682 15.8675 24.6592 15.8572 24.6411 15.8572C24.6411 15.8572 24.6411 15.8469 24.6411 15.8264V15.7338C24.6411 15.7338 24.6321 15.7133 24.614 15.6721V15.6413V5.24463C24.614 5.01839 24.6773 4.83328 24.8038 4.68931C24.9483 4.52478 25.1199 4.4425 25.3187 4.4425C25.5174 4.4425 25.6801 4.52478 25.8065 4.68931C25.9511 4.83328 26.0234 5.01839 26.0234 5.24463V15.1785L33.2327 19.8986L40.442 15.1785V5.24463C40.442 5.01839 40.5052 4.83328 40.6317 4.68931C40.7762 4.52478 40.9479 4.4425 41.1466 4.4425C41.3454 4.4425 41.508 4.52478 41.6345 4.68931C41.779 4.83328 41.8513 5.01839 41.8513 5.24463V15.6413Z" fill="#C4D41D"/>
<path d="M58.8494 20.7624C58.8494 21.0297 58.7681 21.256 58.6055 21.4411C58.4428 21.6262 58.2441 21.7187 58.0092 21.7187C57.7743 21.7187 57.5756 21.6262 57.413 21.4411C57.2503 21.256 57.169 21.0297 57.169 20.7624C57.169 20.495 57.2503 20.2688 57.413 20.0837C57.5756 19.8986 57.7743 19.806 58.0092 19.806C58.2441 19.806 58.4428 19.8986 58.6055 20.0837C58.7681 20.2688 58.8494 20.495 58.8494 20.7624ZM50.5289 16.5976C50.3301 16.5976 50.1675 16.5256 50.041 16.3816C49.9146 16.2376 49.8513 16.0628 49.8513 15.8571V5.98496C49.8513 5.71759 49.9688 5.50164 50.2036 5.3371C50.4205 5.19313 50.6373 5.19313 50.8541 5.3371L64.8391 14.5306V5.98496C64.8391 5.77929 64.9023 5.60448 65.0288 5.46051C65.1553 5.31654 65.3179 5.24456 65.5166 5.24456C65.6973 5.24456 65.8509 5.31654 65.9774 5.46051C66.1039 5.60448 66.1671 5.77929 66.1671 5.98496V15.8571C66.1671 16.104 66.0587 16.3199 65.8419 16.505C65.607 16.6284 65.3811 16.6284 65.1643 16.505L51.1793 7.31156V15.8571C51.1793 16.0628 51.1161 16.2376 50.9896 16.3816C50.8631 16.5256 50.7096 16.5976 50.5289 16.5976Z" fill="#C4D41D"/>
<path d="M83.1651 20.7624C83.1651 21.0297 83.0838 21.256 82.9212 21.4411C82.7585 21.6262 82.5598 21.7187 82.3249 21.7187C82.09 21.7187 81.8912 21.6262 81.7286 21.4411C81.566 21.256 81.4847 21.0297 81.4847 20.7624C81.4847 20.495 81.566 20.2688 81.7286 20.0837C81.8912 19.8986 82.09 19.806 82.3249 19.806C82.5598 19.806 82.7585 19.8986 82.9212 20.0837C83.0838 20.2688 83.1651 20.495 83.1651 20.7624ZM74.8446 16.5976C74.6458 16.5976 74.4832 16.5256 74.3567 16.3816C74.2302 16.2376 74.167 16.0628 74.167 15.8571V5.98496C74.167 5.71759 74.2845 5.50164 74.5193 5.3371C74.7362 5.19313 74.953 5.19313 75.1698 5.3371L89.1548 14.5306V5.98496C89.1548 5.77929 89.218 5.60448 89.3445 5.46051C89.471 5.31654 89.6336 5.24456 89.8323 5.24456C90.013 5.24456 90.1666 5.31654 90.2931 5.46051C90.4195 5.60448 90.4828 5.77929 90.4828 5.98496V15.8571C90.4828 16.104 90.3744 16.3199 90.1575 16.505C89.9227 16.6284 89.6968 16.6284 89.48 16.505L75.495 7.31156V15.8571C75.495 16.0628 75.4318 16.2376 75.3053 16.3816C75.1788 16.5256 75.0252 16.5976 74.8446 16.5976Z" fill="#C4D41D"/>
<path d="M106.71 1.91274C106.475 1.91274 106.277 1.82018 106.114 1.63507C105.951 1.44997 105.87 1.22373 105.87 0.956359C105.87 0.688993 105.951 0.462752 106.114 0.277643C106.277 0.0925403 106.475 0 106.71 0C106.945 0 107.144 0.0925403 107.307 0.277643C107.469 0.462752 107.55 0.688993 107.55 0.956359C107.55 1.22373 107.469 1.44997 107.307 1.63507C107.144 1.82018 106.945 1.91274 106.71 1.91274ZM114.841 5.55308C114.931 5.73818 114.949 5.93358 114.895 6.13925C114.859 6.34492 114.76 6.49918 114.597 6.60201L107.388 11.3221V20.8241C107.388 21.0503 107.325 21.2354 107.198 21.3794C107.072 21.5234 106.909 21.5954 106.71 21.5954C106.511 21.5954 106.349 21.5234 106.222 21.3794C106.096 21.2354 106.033 21.0503 106.033 20.8241V11.3221L98.8234 6.60201C98.6608 6.49918 98.5524 6.34492 98.4982 6.13925C98.462 5.93358 98.4891 5.73818 98.5795 5.55308C98.6698 5.36798 98.8053 5.25486 98.986 5.21372C99.1667 5.15202 99.3293 5.1726 99.4739 5.27544L106.71 9.99556L113.92 5.27544C114.082 5.1726 114.254 5.15202 114.434 5.21372C114.615 5.25486 114.751 5.36798 114.841 5.55308Z" fill="#C4D41D"/>
</svg>
