<svg width="91" height="22" viewBox="0 0 91 22" fill="none" xmlns="http://www.w3.org/2000/svg">
<g filter="url(#filter0_f)">
<path fill-rule="evenodd" clip-rule="evenodd" d="M45.5 1C20.9246 0.999988 1.00177 5.08289 1 10.1196C1.0201 12.3475 5.01825 14.4968 12.2399 16.1619C11.2792 15.5691 10.7862 14.9537 10.7764 14.3348C10.7767 10.7861 26.3229 7.90924 45.5 7.90927C64.6771 7.90924 80.2234 10.7861 80.2236 14.3348C80.2154 14.9554 79.721 15.5724 78.7565 16.1668C85.9849 14.5005 89.9847 12.3493 90 10.1196C89.9976 5.08289 70.0754 0.999988 45.5 1ZM35.431 18.7791C42.3206 22.6626 51.7757 21.3072 56.0588 18.9695C52.5125 16.0815 39.1559 16.4177 35.431 18.7791Z" fill="#6FA6C8" fill-opacity="0.09" style="mix-blend-mode:lighten"/>
</g>
<defs>
<filter id="filter0_f" x="0.950086" y="0.950086" width="89.0998" height="20.3271" filterUnits="userSpaceOnUse" color-interpolation-filters="sRGB">
<feFlood flood-opacity="0" result="BackgroundImageFix"/>
<feBlend mode="normal" in="SourceGraphic" in2="BackgroundImageFix" result="shape"/>
<feGaussianBlur stdDeviation="0.0249568" result="effect1_foregroundBlur"/>
</filter>
</defs>
</svg>
