<?xml version="1.0" encoding="iso-8859-1"?>
<!-- Generator: Adobe Illustrator 19.0.0, SVG Export Plug-In . SVG Version: 6.00 Build 0)  -->
<svg version="1.1" id="Capa_1" xmlns="http://www.w3.org/2000/svg" xmlns:xlink="http://www.w3.org/1999/xlink" x="0px" y="0px"
	 viewBox="0 0 512 512" style="enable-background:new 0 0 512 512;" xml:space="preserve">
<g>
	<g>
		<rect x="218.558" y="162.937" width="54.049" height="29.472"/>
	</g>
</g>
<g>
	<g>
		<rect x="80.433" y="162.937" width="54.049" height="97.368"/>
	</g>
</g>
<g>
	<g>
		<path d="M0,344.535v10.518c0,18.92,15.393,34.314,34.315,34.314h175.713v59.376h-44.875c-8.292,0-15.014,6.722-15.014,15.014
			s6.722,15.014,15.014,15.014h44.875h89.941h46.876c8.292,0,15.014-6.722,15.014-15.014s-6.722-15.014-15.014-15.014h-46.876
			v-59.376h177.717c18.921,0,34.314-15.394,34.314-34.314v-10.518H0z"/>
	</g>
</g>
<g>
	<g>
		<path d="M477.686,33.231H34.315C15.393,33.231,0,48.624,0,67.545v246.962h512V67.545C512,48.624,496.607,33.231,477.686,33.231z
			 M188.529,152.268c0-10.673,8.684-19.357,19.357-19.357h75.389c10.674,0,19.358,8.684,19.358,19.357v50.814
			c0,10.673-8.684,19.357-19.358,19.357h-75.389c-10.674,0-19.357-8.684-19.357-19.357V152.268z M92.516,93.998
			c0.05-0.49,0.12-0.981,0.22-1.461c0.1-0.48,0.22-0.961,0.36-1.421c0.14-0.471,0.31-0.932,0.5-1.392
			c0.18-0.45,0.39-0.891,0.621-1.32c0.23-0.431,0.49-0.861,0.761-1.262c0.27-0.409,0.56-0.811,0.871-1.19
			c0.31-0.38,0.641-0.751,0.991-1.091c0.35-0.351,0.721-0.682,1.101-0.991c0.37-0.311,0.771-0.611,1.181-0.881
			c0.41-0.271,0.831-0.521,1.261-0.751c0.43-0.23,0.881-0.44,1.331-0.631c0.45-0.181,0.921-0.351,1.381-0.49
			c0.47-0.15,0.951-0.271,1.431-0.36c0.48-0.1,0.971-0.17,1.451-0.22c0.981-0.1,1.972-0.1,2.953,0c0.49,0.05,0.981,0.12,1.461,0.22
			c0.48,0.09,0.951,0.21,1.421,0.36c0.47,0.14,0.931,0.31,1.381,0.49c0.45,0.189,0.901,0.399,1.331,0.631
			c0.43,0.229,0.861,0.479,1.261,0.751c0.41,0.27,0.811,0.57,1.191,0.881c0.38,0.31,0.751,0.641,1.091,0.991
			c0.35,0.34,0.681,0.711,0.991,1.091c0.31,0.38,0.611,0.781,0.881,1.19c0.27,0.4,0.521,0.831,0.751,1.262
			c0.23,0.43,0.44,0.87,0.631,1.32c0.18,0.46,0.35,0.921,0.49,1.392c0.15,0.46,0.27,0.94,0.36,1.421
			c0.1,0.479,0.17,0.971,0.22,1.461c0.05,0.49,0.08,0.98,0.08,1.471s-0.03,0.991-0.08,1.481c-0.05,0.479-0.12,0.971-0.22,1.45
			c-0.09,0.48-0.21,0.961-0.36,1.432c-0.14,0.46-0.31,0.931-0.49,1.381c-0.19,0.45-0.4,0.9-0.631,1.331
			c-0.23,0.43-0.48,0.851-0.751,1.261c-0.27,0.41-0.57,0.811-0.881,1.181c-0.31,0.38-0.641,0.751-0.991,1.102
			c-0.34,0.34-0.711,0.681-1.091,0.99c-0.38,0.311-0.781,0.602-1.191,0.871c-0.4,0.271-0.831,0.53-1.261,0.762
			c-0.43,0.229-0.881,0.439-1.331,0.62c-0.45,0.19-0.911,0.36-1.381,0.5c-0.47,0.141-0.941,0.261-1.421,0.36
			c-0.48,0.099-0.971,0.17-1.461,0.22c-0.49,0.051-0.981,0.07-1.471,0.07c-0.49,0-0.991-0.02-1.481-0.07
			c-0.48-0.05-0.971-0.12-1.451-0.22c-0.48-0.1-0.961-0.22-1.431-0.36c-0.46-0.14-0.931-0.31-1.381-0.5
			c-0.45-0.18-0.901-0.39-1.331-0.62c-0.43-0.23-0.851-0.49-1.261-0.762c-0.41-0.27-0.811-0.56-1.181-0.871
			c-0.38-0.31-0.751-0.65-1.101-0.99c-0.35-0.351-0.681-0.722-0.991-1.102c-0.31-0.37-0.601-0.771-0.871-1.181
			s-0.531-0.831-0.761-1.261c-0.23-0.431-0.44-0.881-0.621-1.331c-0.19-0.45-0.36-0.921-0.5-1.381
			c-0.14-0.471-0.26-0.951-0.36-1.432c-0.1-0.479-0.17-0.971-0.22-1.45c-0.05-0.49-0.07-0.991-0.07-1.481
			C92.446,94.979,92.466,94.488,92.516,93.998z M50.478,93.998c0.05-0.49,0.12-0.981,0.22-1.461c0.1-0.48,0.22-0.961,0.36-1.421
			c0.14-0.471,0.31-0.932,0.5-1.392c0.18-0.45,0.39-0.891,0.621-1.32c0.23-0.431,0.49-0.861,0.761-1.262
			c0.27-0.409,0.56-0.811,0.871-1.19c0.31-0.38,0.641-0.751,0.991-1.091c0.35-0.351,0.721-0.682,1.101-0.991
			c0.37-0.311,0.771-0.611,1.181-0.881c0.41-0.271,0.831-0.521,1.261-0.751c0.43-0.23,0.881-0.44,1.331-0.631
			c0.45-0.181,0.921-0.351,1.381-0.49c0.47-0.15,0.951-0.271,1.431-0.36c0.48-0.1,0.971-0.17,1.451-0.22
			c0.981-0.1,1.972-0.1,2.953,0c0.49,0.05,0.981,0.12,1.461,0.22c0.48,0.09,0.951,0.21,1.421,0.36c0.47,0.14,0.931,0.31,1.381,0.49
			c0.45,0.189,0.901,0.399,1.331,0.631c0.43,0.229,0.861,0.479,1.261,0.751c0.41,0.27,0.811,0.57,1.191,0.881
			c0.38,0.31,0.751,0.641,1.091,0.991c0.35,0.34,0.681,0.711,0.991,1.091c0.31,0.38,0.611,0.781,0.881,1.19
			c0.27,0.4,0.52,0.831,0.751,1.262c0.23,0.43,0.44,0.87,0.631,1.32c0.18,0.46,0.35,0.921,0.49,1.392
			c0.15,0.46,0.27,0.94,0.36,1.421c0.1,0.479,0.17,0.971,0.22,1.461c0.05,0.49,0.08,0.98,0.08,1.471s-0.03,0.991-0.08,1.481
			c-0.05,0.479-0.12,0.971-0.22,1.45c-0.09,0.48-0.21,0.961-0.36,1.432c-0.14,0.46-0.31,0.931-0.49,1.381
			c-0.19,0.45-0.4,0.9-0.631,1.331c-0.23,0.43-0.48,0.851-0.751,1.261c-0.27,0.41-0.571,0.811-0.881,1.181
			c-0.31,0.38-0.641,0.751-0.991,1.102c-0.34,0.34-0.711,0.681-1.091,0.99c-0.38,0.311-0.781,0.602-1.191,0.871
			c-0.4,0.271-0.831,0.53-1.261,0.762c-0.43,0.229-0.881,0.439-1.331,0.62c-0.45,0.19-0.911,0.36-1.381,0.5
			c-0.47,0.141-0.941,0.261-1.421,0.36c-0.48,0.099-0.971,0.17-1.461,0.22c-0.49,0.051-0.981,0.07-1.471,0.07
			c-0.49,0-0.991-0.02-1.481-0.07c-0.48-0.05-0.971-0.12-1.451-0.22c-0.48-0.1-0.961-0.22-1.431-0.36
			c-0.46-0.14-0.931-0.31-1.381-0.5c-0.45-0.18-0.901-0.39-1.331-0.62c-0.43-0.23-0.851-0.49-1.261-0.762
			c-0.41-0.27-0.811-0.56-1.181-0.871c-0.38-0.31-0.751-0.65-1.101-0.99c-0.35-0.351-0.681-0.722-0.991-1.102
			c-0.31-0.37-0.601-0.771-0.871-1.181s-0.53-0.831-0.761-1.261c-0.23-0.431-0.44-0.881-0.621-1.331
			c-0.19-0.45-0.36-0.921-0.5-1.381c-0.14-0.471-0.26-0.951-0.36-1.432c-0.1-0.479-0.17-0.971-0.22-1.45
			c-0.05-0.49-0.07-0.991-0.07-1.481C50.408,94.979,50.428,94.488,50.478,93.998z M164.508,270.973
			c0,10.674-8.683,19.358-19.357,19.358h-75.39c-10.674,0-19.357-8.684-19.357-19.358V152.268c0-10.673,8.684-19.357,19.357-19.357
			h75.39c10.674,0,19.357,8.684,19.357,19.357V270.973z M164.431,96.951c-0.05,0.479-0.12,0.971-0.22,1.45
			c-0.09,0.48-0.21,0.961-0.36,1.432c-0.14,0.46-0.31,0.931-0.49,1.381c-0.19,0.45-0.4,0.9-0.631,1.331
			c-0.23,0.43-0.48,0.851-0.751,1.261c-0.27,0.41-0.57,0.811-0.881,1.181c-0.31,0.38-0.641,0.751-0.991,1.102
			c-0.34,0.34-0.711,0.681-1.091,0.99c-0.38,0.311-0.781,0.602-1.191,0.871c-0.4,0.271-0.831,0.53-1.261,0.762
			c-0.43,0.229-0.881,0.439-1.331,0.62c-0.45,0.19-0.911,0.36-1.381,0.5c-0.47,0.141-0.941,0.261-1.421,0.36
			c-0.48,0.099-0.971,0.17-1.461,0.22c-0.49,0.051-0.981,0.07-1.471,0.07c-0.49,0-0.991-0.02-1.481-0.07
			c-0.48-0.05-0.971-0.12-1.451-0.22c-0.48-0.1-0.961-0.22-1.431-0.36c-0.46-0.14-0.931-0.31-1.381-0.5
			c-0.45-0.18-0.901-0.39-1.331-0.62c-0.43-0.23-0.851-0.49-1.261-0.762c-0.41-0.27-0.811-0.56-1.181-0.871
			c-0.38-0.31-0.751-0.65-1.101-0.99c-0.35-0.351-0.681-0.722-0.991-1.102c-0.31-0.37-0.601-0.771-0.871-1.181
			c-0.27-0.41-0.53-0.831-0.761-1.261c-0.23-0.431-0.44-0.881-0.621-1.331c-0.19-0.45-0.36-0.921-0.5-1.381
			c-0.14-0.471-0.26-0.951-0.36-1.432c-0.1-0.479-0.17-0.971-0.22-1.45c-0.05-0.49-0.07-0.991-0.07-1.481
			c0-0.49,0.02-0.98,0.07-1.471c0.05-0.49,0.12-0.981,0.22-1.461c0.1-0.48,0.22-0.961,0.36-1.421c0.14-0.471,0.31-0.932,0.5-1.392
			c0.18-0.45,0.39-0.891,0.621-1.32c0.23-0.431,0.49-0.861,0.761-1.262c0.27-0.409,0.561-0.811,0.871-1.19
			c0.31-0.38,0.641-0.751,0.991-1.091c0.35-0.351,0.721-0.682,1.101-0.991c0.37-0.311,0.771-0.611,1.181-0.881
			c0.41-0.271,0.831-0.521,1.261-0.751c0.43-0.23,0.881-0.44,1.331-0.631c0.45-0.181,0.921-0.351,1.381-0.49
			c0.47-0.15,0.951-0.271,1.431-0.36c0.48-0.1,0.971-0.17,1.451-0.22c0.981-0.1,1.972-0.1,2.953,0c0.49,0.05,0.981,0.12,1.461,0.22
			c0.48,0.09,0.951,0.21,1.421,0.36c0.47,0.14,0.931,0.31,1.381,0.49c0.45,0.189,0.901,0.399,1.331,0.631
			c0.43,0.229,0.861,0.479,1.261,0.751c0.41,0.27,0.811,0.57,1.191,0.881c0.38,0.31,0.751,0.641,1.091,0.991
			c0.35,0.34,0.681,0.711,0.991,1.091c0.31,0.38,0.611,0.781,0.881,1.19c0.27,0.4,0.521,0.831,0.751,1.262
			c0.23,0.43,0.44,0.87,0.631,1.32c0.18,0.46,0.35,0.921,0.49,1.392c0.15,0.46,0.27,0.94,0.36,1.421
			c0.1,0.479,0.17,0.971,0.22,1.461c0.05,0.49,0.08,0.98,0.08,1.471C164.511,95.961,164.481,96.46,164.431,96.951z M445.138,290.331
			H203.543c-8.292,0-15.014-6.722-15.014-15.014s6.722-15.014,15.014-15.014h241.594c8.292,0,15.014,6.722,15.014,15.014
			S453.43,290.331,445.138,290.331z M445.138,220.267h-97.24c-8.292,0-15.014-6.722-15.014-15.014s6.722-15.014,15.014-15.014h97.24
			c8.292,0,15.014,6.722,15.014,15.014S453.43,220.267,445.138,220.267z M445.138,162.939h-97.24
			c-8.292,0-15.014-6.722-15.014-15.014s6.722-15.014,15.014-15.014h97.24c8.292,0,15.014,6.722,15.014,15.014
			S453.43,162.939,445.138,162.939z"/>
	</g>
</g>
<g>
</g>
<g>
</g>
<g>
</g>
<g>
</g>
<g>
</g>
<g>
</g>
<g>
</g>
<g>
</g>
<g>
</g>
<g>
</g>
<g>
</g>
<g>
</g>
<g>
</g>
<g>
</g>
<g>
</g>
</svg>
