<svg height="512pt" viewBox="0 0 512 512" width="512pt" xmlns="http://www.w3.org/2000/svg"><path d="m103.195312 329c-5.855468 0-14.773437-.957031-25-2.421875v114.402344c0 38.847656 31.851563 70.453125 71 70.453125 39.152344 0 71.003907-31.605469 71.003907-70.453125v-107.710938l-12.375-4.273437h-104.628907zm0 0"/><path d="m512 195.605469c0-28.773438-18.859375-53.242188-44.945312-61.917969v123.835938c26.085937-8.675782 44.945312-33.144532 44.945312-61.917969zm0 0"/><path d="m164.4375 71.71875h24.585938v228.28125h-24.585938zm0 0"/><path d="m79.855469 74.195312c-26.371094 3.960938-62.511719 11.394532-67.898438 12.511719-6.964843 1.441407-11.957031 7.574219-11.957031 14.6875v168.929688c0 7.113281 4.992188 13.246093 11.953125 14.6875 5.386719 1.117187 41.53125 8.554687 67.898437 12.511719v-223.328126zm0 0"/><path d="m109.855469 71.71875h24.582031v228.28125h-24.582031zm0 0"/><path d="m418.164062.832031-199.140624 68.699219v232.652344l199.136718 68.703125c9.742188 3.359375 19.894532-3.875 19.894532-14.179688v-341.695312c0-10.304688-10.152344-17.539063-19.890626-14.179688zm0 0"/></svg>