<svg height="512pt" viewBox="0 -31 512 512" width="512pt" xmlns="http://www.w3.org/2000/svg"><path d="m408.71875 0h-305.4375c-56.949219 0-103.28125 45.101562-103.28125 100.539062v156.089844c0 55.4375 46.332031 100.539063 103.28125 100.539063h207.195312l87.628907 87.671875c2.871093 2.871094 6.710937 4.394531 10.613281 4.394531 1.933594 0 3.882812-.375 5.734375-1.140625 5.605469-2.320312 9.261719-7.792969 9.261719-13.859375l.003906-78.125c49.867188-7.089844 88.28125-49 88.28125-99.480469v-156.089844c0-55.4375-46.332031-100.539062-103.28125-100.539062zm-68.070312 195.820312-74.394532 73.148438c-2.921875 2.871094-6.722656 4.304688-10.519531 4.304688-3.816406 0-7.632813-1.449219-10.554687-4.34375l-73.867188-73.148438c-10.691406-10.511719-16.601562-24.5625-16.601562-39.519531s5.90625-29.003907 16.640624-39.558594c21.984376-21.617187 57.757813-21.617187 79.742188 0l4.90625 4.824219 4.90625-4.824219c21.984375-21.617187 57.757812-21.613281 79.742188 0 10.730468 10.554687 16.640624 24.601563 16.640624 39.558594s-5.910156 29.007812-16.640624 39.558593zm0 0"/><path d="m281.9375 138.097656-15.421875 15.160156c-5.835937 5.738282-15.195313 5.738282-21.03125 0l-15.421875-15.164062c-5.195312-5.105469-12.019531-7.660156-18.839844-7.660156-6.824218 0-13.644531 2.554687-18.839844 7.660156-4.949218 4.867188-7.675781 11.320312-7.675781 18.167969 0 6.847656 2.726563 13.300781 7.675781 18.167969l63.390626 62.769531 63.839843-62.769531c4.949219-4.867188 7.675781-11.320313 7.675781-18.167969 0-6.847657-2.726562-13.300781-7.675781-18.167969-10.386719-10.210938-27.289062-10.210938-37.675781.003906zm0 0"/></svg>