<svg height="512pt" viewBox="-78 0 512 512" width="512pt" xmlns="http://www.w3.org/2000/svg"><path d="m355.402344 75.035156c0-41.375-33.660156-75.035156-75.035156-75.035156h-205.332032c-41.375 0-75.035156 33.660156-75.035156 75.035156v307.597656h355.402344zm-235.253906 238.769532c0 8.28125-6.714844 15-15 15-8.285157 0-15-6.71875-15-15v-115.804688c0-8.285156 6.714843-15 15-15 8.285156 0 15 6.714844 15 15zm72.554687 0c0 8.28125-6.71875 15-15 15-8.285156 0-15-6.71875-15-15v-192.238282c0-8.285156 6.714844-15 15-15 8.28125 0 15 6.714844 15 15zm72.554687 0c0 8.28125-6.71875 15-15 15-8.285156 0-15-6.71875-15-15v-57.902344c0-8.285156 6.714844-15 15-15 8.28125 0 15 6.714844 15 15zm0 0"/><path d="m0 436.964844c0 41.375 33.660156 75.035156 75.035156 75.035156h205.332032c41.375 0 75.035156-33.660156 75.035156-75.035156v-24.332032h-355.402344zm177.703125 9.351562c8.28125 0 15 6.714844 15 15s-6.71875 15-15 15c-8.285156 0-15-6.714844-15-15s6.714844-15 15-15zm0 0"/></svg>