<svg width="98" height="14" viewBox="0 0 98 14" fill="none" xmlns="http://www.w3.org/2000/svg">
<g filter="url(#filter0_b)">
<circle cx="11" cy="7" r="4" fill="url(#paint0_radial)" fill-opacity="0.7"/>
</g>
<g style="mix-blend-mode:hard-light">
<circle cx="7" cy="7" r="7" fill="black" fill-opacity="0.4"/>
</g>
<path fill-rule="evenodd" clip-rule="evenodd" d="M46.1 6H34.9C34.4367 3.71777 32.419 2 30 2C27.581 2 25.5633 3.71777 25.1 6H14V8H25.1C25.5633 10.2822 27.581 12 30 12C32.419 12 34.4367 10.2822 34.9 8H46.1C46.5633 10.2822 48.581 12 51 12C53.419 12 55.4367 10.2822 55.9 8H67.1C67.5633 10.2822 69.581 12 72 12C74.419 12 76.4367 10.2822 76.9 8H88.1C88.5633 10.2822 90.581 12 93 12C95.419 12 97.4367 10.2822 97.9 8H98V7V6H97.9C97.4367 3.71777 95.419 2 93 2C90.581 2 88.5633 3.71777 88.1 6H76.9C76.4367 3.71777 74.419 2 72 2C69.581 2 67.5633 3.71777 67.1 6H55.9C55.4367 3.71777 53.419 2 51 2C48.581 2 46.5633 3.71777 46.1 6Z" fill="black" fill-opacity="0.4"/>
<defs>
<filter id="filter0_b" x="2" y="-2" width="18" height="18" filterUnits="userSpaceOnUse" color-interpolation-filters="sRGB">
<feFlood flood-opacity="0" result="BackgroundImageFix"/>
<feGaussianBlur in="BackgroundImage" stdDeviation="2.5"/>
<feComposite in2="SourceAlpha" operator="in" result="effect1_backgroundBlur"/>
<feBlend mode="normal" in="SourceGraphic" in2="effect1_backgroundBlur" result="shape"/>
</filter>
<radialGradient id="paint0_radial" cx="0" cy="0" r="1" gradientUnits="userSpaceOnUse" gradientTransform="translate(11 7) rotate(90) scale(4)">
<stop offset="0.547551" stop-color="#6FA6C8"/>
<stop offset="1" stop-color="#6FA6C8" stop-opacity="0"/>
</radialGradient>
</defs>
</svg>
